<?xml version="1.0" encoding="UTF-8" standalone="no"?>
<svg
   xmlns:dc="http://purl.org/dc/elements/1.1/"
   xmlns:cc="http://creativecommons.org/ns#"
   xmlns:rdf="http://www.w3.org/1999/02/22-rdf-syntax-ns#"
   xmlns:svg="http://www.w3.org/2000/svg"
   xmlns="http://www.w3.org/2000/svg"
   xmlns:sodipodi="http://sodipodi.sourceforge.net/DTD/sodipodi-0.dtd"
   xmlns:inkscape="http://www.inkscape.org/namespaces/inkscape"
   version="1.0"
   width="5086.5pt"
   height="293.80914pt"
   viewBox="0 0 5086.5 293.80914"
   preserveAspectRatio="xMidYMid meet"
   id="svg2"
   inkscape:version="0.91 r13725"
   sodipodi:docname="fleuron_title.svg"
   inkscape:export-filename="/home/hal/Documents/GitHub/a-yorkshire-cookery-book/e-book/OEBPS/images/fleuron_title.png"
   inkscape:export-xdpi="21.27"
   inkscape:export-ydpi="21.27">
  <defs
     id="defs72" />
  <sodipodi:namedview
     pagecolor="#ffffff"
     bordercolor="#666666"
     borderopacity="1"
     objecttolerance="10"
     gridtolerance="10"
     guidetolerance="10"
     inkscape:pageopacity="0"
     inkscape:pageshadow="2"
     inkscape:window-width="1366"
     inkscape:window-height="709"
     id="namedview70"
     showgrid="false"
     fit-margin-top="0"
     fit-margin-left="0"
     fit-margin-right="0"
     fit-margin-bottom="0"
     inkscape:zoom="0.2547594"
     inkscape:cx="1397.6424"
     inkscape:cy="32.739186"
     inkscape:window-x="0"
     inkscape:window-y="0"
     inkscape:window-maximized="1"
     inkscape:current-layer="svg2" />
  <metadata
     id="metadata4">
Created by potrace 1.15, written by Peter Selinger 2001-2017
<rdf:RDF>
  <cc:Work
     rdf:about="">
    <dc:format>image/svg+xml</dc:format>
    <dc:type
       rdf:resource="http://purl.org/dc/dcmitype/StillImage" />
    <dc:title></dc:title>
  </cc:Work>
</rdf:RDF>
</metadata>
  <g
     transform="matrix(0.1,0,0,-0.1,-200.5,528.9)"
     id="g6"
     style="fill:#000000;stroke:none">
    <path
       d="m 50605,5280 c -27,-4 -66,-13 -85,-19 -48,-16 -159,-16 -203,0 -30,10 -41,10 -61,0 -16,-9 -35,-11 -53,-6 -43,12 -211,7 -236,-7 -21,-12 -206,-13 -352,-2 -33,3 -85,6 -115,8 -30,2 -83,9 -118,16 -50,11 -78,11 -140,2 -42,-7 -95,-12 -117,-11 -22,0 -51,-3 -65,-9 -14,-5 -52,-12 -85,-16 -125,-12 -231,-20 -265,-19 -19,0 -84,2 -145,3 -86,3 -119,0 -149,-14 -22,-9 -46,-14 -54,-11 -7,2 -25,-1 -40,-8 -29,-14 -43,-13 -109,9 -23,7 -77,13 -120,13 -49,-1 -96,5 -126,16 -38,13 -69,15 -149,10 -61,-3 -113,-2 -133,5 -26,9 -40,7 -80,-10 -52,-22 -105,-23 -148,-2 -25,13 -33,12 -83,-12 -40,-19 -71,-26 -114,-26 -32,0 -62,-4 -65,-10 -8,-13 -82,-13 -159,0 -50,8 -63,7 -78,-6 -17,-16 -31,-15 -103,6 -5,2 -31,0 -58,-4 -28,-5 -52,-4 -60,2 -17,13 -265,14 -353,0 -54,-8 -81,-7 -108,2 -29,9 -40,9 -52,0 -10,-9 -31,-11 -67,-6 -28,4 -101,7 -162,6 -147,-2 -279,-2 -460,0 -95,2 -161,-2 -180,-9 -16,-7 -45,-9 -65,-6 -63,11 -184,8 -188,-4 -6,-18 -36,-12 -50,10 -12,19 -20,21 -90,16 -42,-3 -84,-8 -93,-11 -8,-4 -27,-3 -40,3 -17,6 -35,5 -57,-5 -19,-8 -68,-13 -120,-13 -116,0 -122,-3 -119,-55 l 2,-41 81,-1 c 45,0 86,-4 91,-7 6,-4 29,0 52,8 34,12 46,12 73,1 48,-19 133,-11 158,14 11,11 20,27 20,35 0,8 5,15 11,15 6,0 9,-9 6,-20 -6,-25 17,-44 45,-37 11,3 31,1 42,-5 26,-14 70,-19 118,-12 28,4 38,11 43,31 5,20 8,23 20,13 8,-7 13,-22 12,-33 -1,-15 3,-21 13,-18 8,2 40,5 71,6 31,1 61,5 67,9 7,4 22,0 33,-8 17,-11 27,-12 48,-4 14,6 45,10 68,9 24,-1 61,3 84,9 72,20 180,19 219,-1 24,-11 41,-14 52,-8 9,5 40,8 70,6 33,-1 66,4 81,12 21,11 32,12 52,3 37,-17 98,-15 146,5 33,13 45,14 61,4 10,-6 23,-9 28,-6 4,3 32,0 61,-6 41,-9 61,-9 88,1 19,7 61,12 93,11 47,-1 58,2 58,15 0,11 6,14 23,8 12,-3 27,-10 32,-14 18,-14 68,-21 175,-24 83,-3 115,0 164,16 40,13 62,16 64,9 5,-16 39,-13 68,5 21,14 29,15 50,4 13,-8 41,-15 62,-16 55,-4 152,-23 174,-35 14,-7 23,-7 34,2 32,26 160,38 210,19 17,-7 48,-7 92,0 48,8 85,8 135,0 59,-10 71,-10 86,4 12,11 38,15 96,15 44,0 84,-3 89,-7 6,-3 42,-8 81,-10 40,-2 82,-11 98,-20 20,-12 30,-14 35,-5 20,31 185,39 347,15 30,-5 84,-2 135,6 76,12 88,11 123,-4 25,-12 41,-14 45,-7 24,35 86,42 138,14 32,-17 39,-18 69,-5 42,17 148,18 175,2 15,-10 24,-10 39,-1 33,20 104,24 203,10 53,-8 103,-10 110,-6 18,12 128,11 128,-1 0,-21 48,-21 86,-1 21,12 44,21 51,21 7,0 23,11 35,25 28,33 41,32 55,-4 11,-29 12,-30 69,-25 85,8 126,22 152,52 23,26 24,26 35,8 39,-65 91,-83 142,-50 22,14 27,14 56,0 40,-20 48,-20 71,1 16,14 20,14 36,2 47,-38 61,-41 140,-28 42,6 84,18 93,25 16,15 74,9 85,-7 2,-4 17,-4 31,2 15,5 38,7 53,4 18,-4 35,1 54,16 30,24 76,21 107,-7 22,-20 36,-12 44,25 11,52 50,47 104,-14 39,-45 95,-58 135,-31 14,9 45,16 69,16 27,0 49,6 57,15 16,19 44,19 61,-1 8,-10 21,-13 36,-9 14,3 42,-3 70,-16 44,-20 49,-20 112,-5 67,15 171,16 378,0 73,-5 99,-4 125,9 27,13 52,14 145,7 62,-5 116,-11 121,-14 16,-10 82,17 82,33 0,9 -19,34 -43,56 l -42,41 -75,-4 c -187,-10 -317,0 -327,24 -7,18 -27,18 -43,-1 -9,-11 -17,-12 -30,-5 -26,14 -97,12 -123,-2 -12,-7 -33,-13 -47,-15 -14,-2 -37,-5 -51,-7 -16,-3 -43,4 -68,18 -39,20 -50,21 -114,14 -40,-5 -82,-14 -94,-20 -12,-6 -36,-7 -55,-3 -18,3 -60,9 -93,12 -33,3 -65,9 -71,14 -6,5 -24,9 -40,8 -37,-1 -134,-31 -134,-41 0,-14 -80,-8 -105,8 -19,13 -51,16 -150,15 -69,0 -129,-2 -133,-5 -11,-6 -136,15 -149,26 -7,6 -28,7 -46,4 -19,-4 -66,0 -106,9 -40,8 -73,14 -74,14 -1,-1 -24,-5 -52,-9 z"
       id="path8"
       inkscape:connector-curvature="0" />
    <path
       d="m 42685,5191 c -3,-6 -27,-9 -53,-9 -26,1 -61,-6 -78,-15 -25,-13 -54,-15 -157,-11 -69,2 -138,9 -152,14 -38,14 -77,12 -121,-6 -31,-13 -56,-15 -119,-9 -94,8 -104,8 -170,0 -70,-9 -106,-8 -221,4 -134,14 -202,6 -217,-25 -12,-27 -32,-31 -41,-9 -14,37 -95,47 -366,44 -211,-1 -489,-11 -675,-23 -33,-3 -78,0 -100,6 -50,13 -103,11 -132,-3 -15,-8 -30,-8 -50,-1 -22,7 -36,6 -54,-4 -27,-15 -89,-19 -89,-5 0,15 -67,22 -94,10 -20,-10 -31,-10 -50,0 -19,11 -29,10 -55,-4 -24,-12 -36,-13 -46,-5 -9,8 -14,7 -18,-4 -5,-13 -11,-13 -45,1 -55,21 -75,9 -77,-50 -2,-35 1,-46 15,-50 25,-6 114,9 117,20 2,6 10,18 17,29 12,15 18,16 40,6 18,-8 24,-16 19,-28 -5,-14 -3,-14 15,-3 18,11 24,11 40,-4 23,-21 51,-22 80,-1 20,14 25,14 52,-2 26,-16 36,-17 88,-6 37,8 81,9 118,5 32,-5 93,-7 134,-5 107,5 158,6 220,4 30,-1 89,-1 130,-1 41,0 84,0 95,0 11,0 45,0 75,1 30,1 81,-4 113,-11 46,-10 66,-10 95,0 22,7 76,11 132,9 182,-6 207,-5 371,14 20,2 46,9 57,15 17,9 23,8 31,-7 9,-16 26,-18 175,-20 138,-1 166,1 166,13 0,22 20,28 38,11 15,-12 29,-14 82,-6 36,5 68,10 71,10 3,0 19,-11 35,-26 24,-21 36,-24 69,-19 129,18 209,23 225,15 11,-6 33,-4 62,5 31,9 58,10 91,4 58,-10 139,2 200,32 l 47,23 15,-20 c 11,-17 30,-23 97,-29 87,-8 376,-18 464,-16 35,1 55,-4 64,-14 16,-19 54,-19 74,0 10,10 45,16 118,20 57,3 117,8 133,11 17,3 82,6 145,7 84,2 115,5 116,15 1,6 2,17 3,22 2,22 31,9 31,-14 0,-21 5,-24 58,-28 88,-8 194,-1 203,14 13,20 11,55 -5,70 -16,17 -160,15 -224,-3 -35,-10 -48,-9 -68,2 -14,7 -41,12 -60,11 -39,-3 -77,-3 -149,0 -27,1 -70,1 -95,0 -25,-1 -72,1 -105,3 -33,2 -98,7 -145,10 -46,4 -90,11 -97,17 -16,13 -80,4 -141,-19 -34,-13 -48,-14 -68,-4 -33,15 -60,14 -110,-4 -33,-11 -55,-12 -103,-4 -34,5 -97,7 -140,5 -68,-4 -83,-2 -102,15 -25,21 -35,24 -44,10 z"
       id="path10"
       inkscape:connector-curvature="0" />
    <path
       d="m 37125,5137 c -17,-8 -36,-21 -44,-30 -14,-18 -41,-23 -41,-8 0,22 -96,38 -200,35 -117,-5 -166,-6 -225,-5 -22,1 -62,0 -90,-1 -27,-1 -66,0 -85,1 -49,4 -276,-6 -332,-15 -28,-4 -53,-2 -60,3 -21,17 -109,24 -125,11 -18,-15 -266,-19 -316,-5 -26,7 -44,7 -60,-1 -30,-14 -129,-22 -148,-12 -9,6 -36,4 -65,-4 -27,-7 -58,-10 -69,-6 -29,11 -126,0 -153,-17 -19,-12 -26,-12 -39,-1 -14,11 -120,21 -208,18 -16,0 -52,-1 -80,-1 -65,1 -108,-16 -99,-38 3,-9 7,-27 8,-41 1,-25 1,-25 136,-32 74,-4 187,-4 250,-1 63,4 133,5 155,3 49,-4 78,-3 179,2 68,3 81,6 94,26 18,28 52,29 59,2 7,-26 42,-35 106,-24 29,4 76,7 106,7 36,-1 59,4 69,14 14,14 17,13 28,-2 20,-26 131,-29 180,-5 22,12 42,16 48,11 6,-5 32,-12 58,-15 36,-5 53,-3 73,10 14,9 28,14 32,11 3,-4 11,1 18,10 15,20 35,9 28,-15 -4,-17 4,-20 60,-25 36,-3 79,-2 95,3 26,7 148,12 259,11 18,-1 35,4 38,9 4,6 12,7 18,3 15,-9 237,-10 231,-1 -7,11 44,60 56,53 8,-5 8,-11 0,-20 -19,-23 0,-45 39,-46 220,-6 1165,9 1196,19 19,6 39,6 55,0 14,-5 46,-7 72,-3 30,3 54,1 67,-7 16,-10 30,-10 66,0 31,8 52,9 64,2 13,-7 34,-5 70,6 27,8 62,12 76,8 19,-5 31,-1 46,15 19,20 60,30 58,14 -5,-28 4,-33 59,-33 31,1 89,1 127,1 39,0 102,2 140,4 39,2 78,4 88,4 10,1 17,9 17,20 0,11 5,23 10,26 15,9 12,19 -9,32 -19,12 -101,-1 -101,-17 0,-4 -9,-10 -21,-13 -12,-3 -18,-10 -15,-16 8,-12 -11,-24 -25,-16 -7,5 -5,15 6,32 12,18 14,28 5,38 -6,8 -18,11 -25,9 -7,-3 -23,0 -35,6 -22,12 -113,2 -183,-20 -16,-5 -36,-5 -45,0 -10,4 -63,13 -120,19 -84,9 -108,8 -130,-3 -21,-11 -38,-11 -77,-4 -46,10 -106,11 -232,7 -27,-1 -61,-1 -78,1 -16,2 -48,0 -70,-3 -38,-7 -110,-9 -185,-5 -19,0 -89,-1 -154,-4 -73,-4 -126,-2 -136,4 -12,8 -25,6 -46,-5 -41,-21 -112,-31 -138,-19 -11,5 -49,18 -84,27 -53,16 -67,16 -101,5 -37,-12 -53,-11 -136,4 -16,3 -44,0 -60,-7 z"
       id="path12"
       inkscape:connector-curvature="0" />
    <path
       d="m 33820,5090 c -22,-12 -45,-17 -62,-14 -32,6 -106,15 -128,15 -32,0 -80,-14 -80,-22 0,-5 -10,-3 -22,5 -17,11 -56,15 -148,15 -69,1 -134,1 -145,2 -38,2 -100,-14 -108,-28 -4,-7 -17,-13 -27,-13 -11,0 -19,-4 -17,-9 1,-5 -2,-10 -8,-10 -5,-1 -11,7 -13,19 -3,15 -11,20 -35,21 -18,1 -52,3 -77,5 -80,6 -124,3 -137,-8 -9,-7 -21,-8 -36,-1 -12,5 -77,10 -144,10 -67,1 -127,4 -132,8 -13,8 -79,-4 -87,-16 -6,-10 -83,-1 -100,12 -9,8 -41,4 -74,-8 -14,-6 -138,-11 -350,-14 -52,0 -114,2 -137,6 -30,5 -51,2 -74,-9 -29,-14 -36,-14 -77,0 -51,17 -44,17 -239,10 -88,-3 -150,-9 -165,-17 -12,-7 -29,-12 -35,-11 -7,2 -13,-4 -13,-13 0,-8 -7,-15 -15,-15 -8,0 -15,6 -15,14 0,22 -14,27 -99,39 -120,16 -157,14 -271,-13 -27,-7 -75,-9 -120,-4 -41,3 -108,6 -149,5 -66,-1 -78,-4 -101,-26 -27,-25 -27,-25 -45,-5 -38,42 -145,48 -145,9 0,-25 -18,-24 -41,3 -18,20 -102,42 -115,29 -3,-3 -45,-7 -92,-8 -108,-2 -204,-12 -216,-23 -5,-5 -48,-6 -97,-3 -58,4 -98,2 -117,-6 -24,-10 -36,-9 -68,4 -22,9 -58,16 -81,15 -24,-1 -58,-2 -75,-2 -183,2 -261,1 -308,-6 -30,-4 -89,-5 -130,-2 -155,12 -357,-1 -344,-21 2,-4 -6,-15 -20,-24 -27,-18 -25,-49 2,-60 30,-12 156,-14 169,-3 9,7 22,7 45,-1 33,-12 98,-5 98,10 0,11 28,25 69,34 29,6 33,5 28,-9 -5,-11 -1,-16 13,-16 11,0 20,5 20,10 0,17 25,11 43,-11 12,-13 24,-18 38,-14 12,4 31,0 46,-10 21,-14 32,-15 67,-6 22,7 52,12 66,11 14,0 80,3 146,6 74,4 124,2 127,-3 4,-6 26,-7 57,-2 46,7 377,14 524,10 32,-1 65,4 72,10 10,8 27,8 61,1 40,-9 348,-11 348,-2 0,9 63,7 84,-4 14,-7 40,-11 56,-9 17,2 95,5 175,7 80,1 152,6 162,10 9,4 29,1 47,-9 20,-10 37,-13 49,-7 30,15 325,21 431,8 46,-5 71,-4 88,5 20,11 29,10 55,-5 31,-19 31,-19 84,9 50,26 58,28 102,17 31,-7 64,-7 97,-1 33,6 58,6 75,-1 29,-12 102,-8 141,8 19,8 33,7 50,-1 36,-18 207,-16 219,2 7,12 11,13 25,1 12,-10 53,-14 151,-14 117,-1 138,1 151,16 19,21 53,24 53,5 0,-10 15,-12 73,-5 46,5 84,4 105,-3 27,-9 38,-8 59,6 21,14 32,15 62,7 61,-18 106,-21 131,-7 16,9 33,10 54,4 17,-5 48,-9 69,-9 21,0 48,-5 59,-11 26,-14 148,7 148,26 0,7 6,18 14,24 11,9 20,6 41,-14 25,-26 30,-27 128,-25 56,0 111,0 122,0 11,-1 121,-1 245,0 124,0 241,0 260,0 42,-1 143,7 187,15 37,7 53,29 53,75 0,39 -26,50 -100,40 -30,-4 -60,-5 -66,-3 -7,2 -15,0 -19,-6 -9,-15 -56,-14 -97,3 -29,13 -40,13 -74,1 -27,-9 -53,-11 -83,-5 -26,5 -56,4 -73,-2 -16,-6 -36,-6 -46,-2 -9,5 -44,9 -77,10 -33,0 -78,4 -100,8 -30,5 -48,1 -75,-14 z"
       id="path14"
       inkscape:connector-curvature="0" />
    <path
       d="m 24415,5025 c -16,-8 -38,-12 -47,-9 -23,7 -58,-34 -58,-67 0,-32 -11,-42 -66,-57 -71,-21 -134,-10 -134,22 0,8 -6,19 -14,25 -8,7 -13,21 -11,31 3,13 -1,17 -11,13 -8,-3 -20,-1 -27,5 -24,20 -82,25 -96,8 -17,-20 -38,-20 -75,-1 -32,17 -96,20 -96,5 0,-17 -26,-11 -45,10 -21,23 -41,26 -48,7 -3,-9 -30,-16 -73,-20 -49,-5 -73,-12 -90,-28 -19,-18 -30,-20 -66,-15 -24,4 -58,8 -75,9 -18,1 -33,5 -33,8 0,17 -35,17 -66,1 l -35,-18 21,-24 c 19,-21 19,-25 6,-28 -47,-10 7,-36 60,-30 24,2 28,7 26,26 -3,18 2,22 22,22 21,0 25,-4 23,-22 -2,-22 2,-23 68,-24 l 70,-2 -28,22 c -51,41 -19,67 41,34 21,-12 54,-18 92,-18 35,0 62,-5 66,-12 4,-6 2,-14 -4,-16 -7,-2 -20,-11 -29,-20 -15,-15 -13,-18 28,-30 84,-24 153,-26 203,-6 25,11 49,27 52,36 6,20 40,31 75,26 19,-2 24,-9 24,-30 0,-35 15,-49 51,-48 160,4 220,10 256,26 33,15 47,16 91,7 46,-9 55,-8 96,14 33,18 63,25 108,26 33,1 59,6 56,10 -7,11 27,36 50,37 13,0 17,-7 15,-32 -3,-32 -2,-33 37,-31 22,2 43,9 48,18 10,18 44,20 50,3 3,-10 31,-13 103,-11 129,2 230,3 274,2 19,0 58,4 85,9 40,8 55,7 77,-6 24,-14 29,-14 50,0 30,19 98,30 113,18 7,-6 40,-13 73,-16 49,-6 67,-3 88,11 24,15 28,16 36,2 11,-20 65,-32 82,-18 9,7 124,12 337,15 178,2 337,6 354,9 16,3 50,2 75,-3 25,-5 61,-5 80,-1 32,7 35,10 32,40 -7,66 -21,71 -180,68 -106,-1 -142,-5 -142,-14 0,-7 -5,-13 -11,-13 -5,0 -8,4 -4,9 10,17 -16,24 -41,11 -18,-10 -30,-11 -49,-2 -17,8 -33,8 -50,2 -16,-6 -44,-6 -76,0 -65,12 -179,12 -244,-1 -68,-14 -69,-13 -163,4 -73,14 -87,14 -118,1 -20,-9 -45,-12 -57,-8 -37,12 -102,10 -102,-3 0,-20 -14,-27 -21,-9 -5,13 -21,16 -84,16 -44,0 -82,-4 -85,-10 -9,-14 -98,-13 -113,2 -9,9 -31,9 -94,0 -106,-15 -161,-17 -223,-6 -65,11 -209,8 -213,-4 -5,-17 -130,-5 -160,16 -24,18 -50,28 -92,37 -8,2 -28,-3 -45,-10 z"
       id="path16"
       inkscape:connector-curvature="0" />
    <path
       d="m 26934,5014 c -27,-7 -57,-11 -67,-8 -25,8 -87,-4 -87,-17 0,-5 11,-14 25,-19 14,-5 25,-17 25,-28 0,-50 82,-64 253,-44 54,6 97,5 141,-3 40,-8 70,-9 80,-3 9,5 25,6 36,3 11,-3 28,-2 38,4 21,11 64,13 187,8 44,-2 90,0 101,4 14,5 29,2 42,-6 16,-12 31,-12 78,-3 33,6 84,14 114,18 30,4 49,8 41,9 -8,0 -11,4 -8,7 4,4 13,1 21,-5 11,-9 20,-9 34,-2 11,6 22,8 25,4 4,-3 13,0 22,7 13,11 22,10 53,-3 57,-25 106,-26 110,-4 3,15 0,18 -16,13 -24,-8 -35,7 -34,44 1,26 -2,27 -46,27 -26,0 -77,3 -113,8 -36,4 -109,4 -162,0 -83,-6 -97,-9 -97,-24 0,-18 -29,-51 -45,-51 -12,0 -34,33 -35,53 0,13 -5,17 -17,13 -10,-3 -34,-8 -55,-11 -24,-5 -45,-18 -64,-41 -35,-42 -58,-46 -44,-8 13,33 6,44 -30,44 -16,0 -32,5 -35,10 -4,6 -28,10 -53,10 -26,0 -69,0 -96,0 -27,0 -55,-5 -62,-11 -10,-8 -22,-8 -41,-1 -16,6 -43,9 -62,8 -18,-2 -50,0 -71,4 -21,4 -58,1 -86,-6 z"
       id="path18"
       inkscape:connector-curvature="0" />
    <path
       d="m 22655,4977 c -28,-5 -61,-9 -75,-8 -87,3 -116,0 -137,-15 -22,-14 -27,-14 -48,0 -31,20 -123,21 -149,1 -23,-18 -62,-20 -72,-4 -3,6 -18,9 -31,6 -14,-2 -43,2 -64,11 -35,14 -41,14 -57,-1 -15,-13 -20,-14 -42,-2 -33,19 -61,18 -88,-1 -14,-10 -39,-15 -65,-13 -23,1 -59,-1 -80,-5 -26,-6 -52,-4 -78,4 -34,12 -41,11 -59,-5 -19,-17 -21,-17 -56,0 -32,15 -45,16 -86,6 -40,-9 -54,-8 -83,6 -29,14 -44,15 -83,6 -26,-5 -72,-8 -102,-6 -85,7 -110,6 -180,-6 -36,-7 -96,-11 -135,-10 -85,3 -104,3 -229,-7 -73,-5 -100,-4 -106,5 -5,10 -17,10 -44,3 -20,-6 -61,-8 -91,-5 -31,3 -55,2 -55,-3 0,-6 -13,-18 -30,-27 -16,-10 -30,-26 -30,-36 0,-9 -5,-22 -12,-29 -18,-18 33,-32 115,-30 71,1 105,10 120,32 5,7 12,5 21,-6 14,-20 51,-24 61,-8 8,13 91,13 115,0 14,-7 29,-6 55,7 33,16 37,16 64,0 15,-9 36,-14 47,-12 16,4 158,15 189,15 47,0 233,-11 242,-15 7,-2 24,7 37,20 23,23 66,34 66,18 0,-16 95,-12 113,5 15,14 20,14 27,2 5,-8 7,-17 4,-21 -7,-13 91,-21 119,-10 16,6 45,11 66,11 20,0 41,4 47,10 6,6 24,5 49,-1 48,-13 474,-14 525,-2 27,7 31,10 18,16 -10,3 -18,16 -18,27 0,21 14,27 25,10 3,-5 18,-10 32,-10 23,0 25,-3 20,-29 -8,-38 -2,-42 38,-25 42,17 99,18 125,2 15,-10 27,-10 52,-1 34,12 93,14 286,10 l 113,-2 34,34 c 28,26 41,32 65,29 37,-6 48,17 17,37 -16,10 -50,14 -115,14 -50,0 -95,2 -100,5 -4,2 -24,1 -43,-3 -20,-5 -75,-3 -125,3 -56,7 -109,8 -139,3 z"
       id="path20"
       inkscape:connector-curvature="0" />
    <path
       d="m 19978,4935 c -13,-13 -327,-28 -473,-22 -38,2 -80,-1 -92,-6 -16,-7 -26,-6 -37,5 -11,11 -37,14 -113,13 -54,-2 -100,-3 -103,-4 -3,0 -5,-16 -5,-33 0,-29 -3,-33 -25,-33 -18,0 -25,6 -26,20 -1,11 -2,26 -3,33 -2,21 -58,14 -81,-10 l -21,-22 -67,23 c -56,19 -75,21 -105,13 -19,-6 -39,-7 -42,-4 -3,4 -49,7 -100,8 -74,1 -95,-2 -99,-13 -4,-11 -20,-14 -56,-12 -27,2 -53,0 -56,-4 -4,-4 -19,-8 -33,-8 -16,-1 -19,-3 -9,-6 20,-5 31,-30 17,-38 -19,-12 -51,6 -46,26 3,11 0,19 -6,19 -20,-1 -49,-28 -42,-39 4,-7 -3,-11 -17,-10 -13,0 -17,3 -10,6 10,4 10,8 1,19 -6,8 -8,14 -4,14 5,0 0,9 -10,20 -23,25 -26,25 -54,-1 -20,-19 -26,-20 -46,-9 -13,7 -52,12 -87,12 -139,-3 -264,-14 -285,-24 -17,-8 -36,-7 -80,5 -45,13 -84,15 -175,10 -66,-3 -118,-10 -118,-16 0,-5 -6,-4 -14,2 -7,6 -44,11 -82,10 -38,0 -99,4 -136,11 -85,15 -113,4 -104,-42 3,-17 6,-36 6,-43 0,-21 32,-27 51,-9 12,11 27,14 45,10 14,-4 32,-2 39,4 9,8 17,6 29,-5 13,-13 40,-17 124,-19 59,-1 113,2 120,7 8,6 17,5 26,-2 10,-9 20,-9 33,-3 10,6 44,8 75,6 57,-4 57,-4 55,24 -2,26 0,27 43,27 39,0 45,-3 48,-22 3,-20 10,-23 43,-23 22,0 49,5 59,10 13,7 21,7 25,0 4,-6 27,-10 53,-10 26,1 73,-3 105,-8 45,-7 62,-6 78,6 12,8 29,11 42,7 12,-3 102,-8 200,-11 98,-2 186,-8 195,-12 23,-11 288,-6 332,5 19,5 48,6 64,2 16,-5 95,-5 175,0 80,4 165,7 188,5 25,-1 47,3 53,11 7,8 21,11 33,8 12,-3 72,-7 132,-7 87,-1 117,2 145,16 42,22 70,23 96,4 18,-14 62,-12 74,3 3,3 13,12 23,20 15,12 21,11 42,-9 16,-15 36,-23 55,-22 45,3 52,2 92,-4 29,-5 40,-2 54,14 13,15 26,19 53,16 20,-2 31,-2 24,2 -8,4 -9,13 -3,29 7,19 6,27 -8,33 -23,12 -42,4 -42,-18 0,-23 -17,-36 -58,-43 -30,-6 -34,-4 -49,27 -10,22 -21,32 -30,29 -7,-3 -21,1 -31,10 -20,17 -56,30 -64,22 z"
       id="path22"
       inkscape:connector-curvature="0" />
    <path
       d="m 12006,4883 c -3,-4 -21,-8 -38,-9 -92,-6 -114,-14 -125,-44 -9,-23 -8,-32 3,-41 19,-16 17,-39 -3,-40 -30,-2 -48,2 -52,12 -5,16 -55,59 -67,59 -7,0 -14,-8 -17,-19 -2,-10 -17,-21 -33,-24 -35,-6 -44,-2 -44,24 0,20 -18,24 -85,19 -43,-3 -47,-8 -31,-38 7,-15 11,-33 9,-39 -3,-9 6,-13 26,-13 16,0 42,-5 57,-11 22,-8 35,-6 60,7 30,17 35,16 89,0 54,-18 58,-18 90,0 30,16 37,16 60,4 24,-13 28,-12 36,3 8,14 14,15 31,6 15,-8 26,-8 43,1 18,10 28,9 53,-4 22,-11 44,-14 71,-10 31,5 48,2 77,-16 35,-22 38,-22 68,-7 17,9 54,19 83,22 43,6 52,10 57,31 8,29 32,32 41,4 5,-16 10,-18 25,-10 22,12 107,8 135,-6 23,-11 215,-11 287,1 34,5 52,4 63,-5 16,-13 121,-6 140,10 6,5 35,6 65,4 89,-7 174,-3 181,8 5,8 13,6 24,-5 21,-22 59,-22 95,0 24,14 33,15 56,5 21,-10 32,-10 55,0 16,7 29,16 29,20 0,15 31,8 37,-7 5,-14 8,-14 25,2 19,17 21,17 32,1 9,-12 26,-17 65,-16 31,1 46,5 39,10 -10,6 -9,8 4,8 9,0 18,-6 21,-12 5,-17 212,-17 229,0 15,15 19,40 13,69 -4,19 -10,21 -48,16 -61,-7 -216,-3 -262,7 -31,7 -43,6 -57,-7 -14,-13 -30,-14 -75,-9 -107,13 -311,12 -324,-1 -17,-17 -44,-16 -94,3 -55,20 -197,28 -241,14 -22,-8 -39,-8 -47,-2 -7,6 -55,6 -122,1 -60,-4 -120,-5 -132,-2 -12,3 -36,-2 -53,-10 -27,-14 -33,-14 -60,0 -23,11 -38,12 -59,5 -27,-10 -183,-8 -263,3 -31,4 -38,2 -44,-17 l -7,-22 -16,21 c -13,15 -34,23 -79,28 -34,4 -65,11 -68,16 -6,11 -18,12 -28,2 z"
       id="path24"
       inkscape:connector-curvature="0" />
    <path
       d="m 15710,4876 c -9,-9 -66,-18 -117,-17 -33,1 -44,-13 -20,-23 8,-3 7,-8 -5,-16 -25,-15 -22,-24 11,-36 19,-8 34,-8 46,-2 11,7 21,6 28,-1 6,-6 27,-11 47,-11 30,0 37,4 47,30 13,35 36,39 57,9 24,-35 209,-47 347,-23 23,4 39,2 43,-5 4,-6 32,-11 63,-11 46,0 56,3 60,20 7,25 27,26 52,1 20,-20 52,-19 78,1 7,5 17,7 23,3 18,-11 102,-15 135,-6 21,6 44,4 67,-4 20,-6 62,-11 94,-10 82,2 84,3 84,21 0,14 2,14 16,3 15,-12 19,-11 32,9 18,27 32,28 32,2 0,-14 11,-22 40,-30 52,-14 73,-7 87,29 9,26 8,31 -16,48 -23,17 -39,19 -126,16 -55,-2 -106,-4 -112,-3 -7,0 -21,0 -30,-1 -10,0 -79,-1 -154,-2 -90,-1 -141,-6 -151,-14 -9,-8 -18,-9 -24,-3 -13,13 -112,33 -144,30 -55,-5 -76,-4 -96,3 -15,5 -27,2 -38,-8 -14,-14 -19,-14 -52,0 -20,8 -39,13 -44,10 -8,-5 -73,-6 -238,-2 -62,1 -117,-2 -122,-7 z"
       id="path26"
       inkscape:connector-curvature="0" />
    <path
       d="m 14864,4862 c -14,-8 -37,-11 -53,-7 -15,3 -47,-1 -71,-9 -24,-8 -47,-13 -51,-11 -9,6 -99,-27 -99,-37 0,-4 13,-8 28,-8 15,0 33,-5 39,-11 5,-5 26,-10 44,-9 19,0 45,0 59,0 14,-1 34,-1 45,0 11,0 45,0 76,0 42,-1 58,3 62,14 8,21 37,20 53,-1 11,-16 27,-18 121,-15 59,1 115,2 123,3 8,0 59,-1 113,-4 56,-2 100,0 103,5 4,6 21,7 39,4 19,-4 36,-2 39,3 4,5 -4,11 -16,13 -16,2 -24,11 -27,28 -4,31 -19,42 -49,35 -13,-3 -30,-1 -38,6 -9,7 -24,8 -41,3 -51,-14 -117,-13 -185,2 -66,16 -68,15 -103,-6 l -35,-22 -26,21 c -31,24 -107,26 -150,3 z"
       id="path28"
       inkscape:connector-curvature="0" />
    <path
       d="m 14188,4854 c -33,-17 -32,-13 -12,-52 14,-29 20,-32 59,-32 24,0 47,-4 50,-10 10,-16 91,-12 105,5 15,18 34,19 60,3 16,-10 24,-10 41,0 12,8 32,11 49,7 23,-5 30,-2 35,15 4,14 1,28 -11,41 -20,22 -102,25 -189,8 -75,-15 -141,-22 -133,-14 8,8 -9,45 -20,45 -4,-1 -19,-8 -34,-16 z"
       id="path30"
       inkscape:connector-curvature="0" />
    <path
       d="m 9332,4820 c -19,-16 -28,-17 -44,-9 -14,8 -49,8 -117,1 -53,-5 -121,-10 -151,-10 -30,-1 -68,-2 -83,-3 -16,-1 -53,4 -83,11 -42,10 -60,11 -80,1 -22,-10 -30,-9 -44,4 -29,26 -225,11 -260,-20 -19,-17 -13,-17 -163,16 -53,12 -90,-2 -102,-41 -8,-27 14,-76 40,-88 28,-13 70,-10 70,5 0,19 68,82 88,83 10,0 22,-11 27,-24 11,-30 47,-56 67,-49 8,3 19,17 24,30 13,34 54,29 54,-7 0,-30 29,-55 53,-44 9,4 66,8 125,9 107,2 150,14 118,34 -20,13 -9,46 17,49 25,4 27,0 10,-29 -22,-35 12,-50 112,-50 47,0 101,0 120,0 19,-1 56,2 83,6 35,6 47,5 47,-5 0,-9 4,-10 13,-2 7,6 43,14 79,18 37,4 67,9 66,13 -2,19 5,20 28,4 17,-11 51,-18 98,-19 39,-2 93,-5 120,-8 32,-3 56,0 68,8 14,10 49,13 136,9 110,-4 283,13 264,26 -5,3 -8,19 -8,36 1,27 -2,30 -44,37 -25,4 -60,3 -83,-3 -39,-10 -123,-3 -143,12 -6,5 -44,6 -85,3 -41,-4 -90,-6 -111,-6 -35,1 -59,-20 -38,-33 18,-11 10,-35 -10,-35 -18,0 -27,26 -21,63 0,4 -8,7 -19,7 -11,0 -20,5 -20,10 0,16 -30,12 -64,-9 -30,-19 -32,-19 -71,-1 -50,24 -55,24 -83,0 z"
       id="path32"
       inkscape:connector-curvature="0" />
    <path
       d="m 10398,4813 c -24,-10 -50,-12 -93,-7 -75,10 -87,8 -104,-17 -7,-10 -20,-19 -27,-19 -8,0 -14,-5 -14,-11 0,-5 4,-8 8,-5 5,3 21,-2 36,-10 16,-7 46,-14 67,-14 32,0 42,5 49,23 l 9,22 7,-22 c 8,-28 36,-38 64,-23 22,12 69,6 107,-12 18,-9 28,-6 55,12 18,12 25,19 16,16 -24,-7 -23,16 0,30 20,13 44,1 55,-26 4,-10 6,-9 6,6 2,36 61,49 61,14 0,-11 5,-20 11,-20 6,0 9,-6 6,-14 -8,-21 48,-43 68,-26 19,16 19,30 -1,30 -9,0 -14,7 -12,18 3,14 13,17 51,15 26,-2 47,1 47,6 0,5 3,16 6,25 5,14 -7,16 -102,16 -60,0 -127,-5 -148,-10 -22,-5 -45,-6 -50,-2 -30,19 -138,22 -178,5 z"
       id="path34"
       inkscape:connector-curvature="0" />
    <path
       d="m 7910,4797 c -30,-19 -50,-22 -130,-23 -52,0 -131,-4 -176,-8 -67,-6 -82,-5 -93,8 -10,12 -18,13 -32,5 -11,-5 -29,-7 -39,-4 -17,5 -118,12 -235,16 -11,1 -54,-3 -95,-9 -47,-6 -79,-6 -87,0 -7,6 -46,6 -94,2 -89,-7 -148,-34 -149,-67 0,-29 -43,-18 -50,13 -6,24 -9,25 -80,22 -52,-2 -78,2 -89,12 -13,11 -28,12 -71,5 -30,-5 -67,-14 -83,-20 -21,-9 -38,-9 -71,1 -47,13 -92,15 -175,9 -44,-3 -55,-7 -62,-26 -12,-32 -33,-30 -25,2 6,22 3,25 -18,25 -14,0 -36,5 -50,11 -20,10 -28,9 -41,-5 -9,-9 -23,-16 -31,-16 -16,0 -19,-16 -4,-25 17,-11 11,-43 -10,-50 -11,-3 -20,-13 -20,-21 0,-18 47,-37 69,-29 32,13 67,18 119,16 28,-1 67,-2 85,-3 49,-2 157,8 163,15 4,3 20,-1 37,-9 23,-12 35,-13 51,-5 23,12 77,22 117,21 27,0 51,31 30,38 -23,8 -9,18 19,14 16,-2 36,-15 45,-28 13,-20 24,-24 58,-23 58,2 119,18 112,29 -9,15 13,12 40,-6 37,-24 90,-33 133,-22 20,5 80,8 132,7 52,-1 111,-2 130,-2 61,-2 195,14 204,23 9,9 33,3 56,-15 9,-7 38,-11 75,-8 33,1 103,5 155,6 53,2 114,11 139,20 39,14 46,14 67,0 13,-8 27,-12 32,-9 4,2 26,1 47,-4 33,-7 43,-6 60,9 11,10 30,22 43,26 14,4 22,14 22,29 0,19 -11,28 -51,45 -75,33 -136,36 -179,8 z"
       id="path36"
       inkscape:connector-curvature="0" />
    <path
       d="m 11218,4813 c -10,-2 -18,-8 -18,-13 0,-5 -10,-18 -22,-30 -12,-11 -18,-23 -14,-27 4,-4 56,-8 116,-7 88,0 113,3 128,17 10,9 21,15 24,12 3,-3 8,1 11,9 8,21 -12,34 -59,37 -29,2 -47,-2 -58,-14 -18,-17 -46,-11 -61,13 -6,10 -17,11 -47,3 z"
       id="path38"
       inkscape:connector-curvature="0" />
    <path
       d="m 41245,4789 c -46,-21 -79,-23 -123,-8 -25,9 -37,7 -61,-7 -23,-14 -35,-15 -58,-6 -41,15 -104,14 -123,-3 -13,-12 -28,-13 -81,-4 -35,6 -75,15 -88,20 -16,6 -34,6 -57,-3 -24,-9 -42,-9 -68,-1 -22,7 -38,7 -42,2 -3,-5 -9,-7 -14,-4 -16,10 -166,-13 -208,-32 -30,-12 -42,-24 -46,-45 -6,-29 -30,-38 -39,-15 -3,7 -3,25 0,40 7,33 -15,44 -61,30 -19,-6 -62,-6 -109,-1 -64,7 -84,5 -110,-8 -18,-9 -35,-22 -39,-28 -5,-7 -13,-3 -23,12 -10,13 -27,22 -43,22 -15,0 -54,9 -86,20 -62,21 -98,17 -150,-16 -10,-7 -24,-10 -31,-7 -8,2 -24,-3 -37,-11 -22,-14 -26,-14 -46,0 -19,13 -25,13 -53,-2 -21,-10 -42,-14 -63,-9 -38,8 -143,15 -216,15 -30,0 -65,5 -76,11 -17,8 -28,7 -52,-5 -36,-18 -73,-21 -88,-6 -8,8 -19,8 -38,0 -15,-5 -35,-6 -44,-2 -9,4 -80,7 -157,6 -195,-4 -193,-4 -265,2 -36,3 -103,5 -150,5 -259,-1 -304,-2 -313,-8 -14,-9 -66,-8 -100,2 -17,4 -37,3 -50,-3 -12,-6 -45,-10 -72,-9 -38,1 -57,-3 -77,-19 -15,-12 -24,-24 -21,-28 3,-3 2,-6 -3,-6 -5,0 -15,9 -21,19 -31,50 -158,43 -158,-8 0,-14 -6,-26 -13,-29 -6,-2 -12,2 -12,10 0,7 -11,25 -25,40 -26,28 -46,28 -73,1 -20,-19 -40,-16 -107,17 -65,32 -85,36 -85,19 0,-7 -10,-9 -25,-5 -16,4 -34,0 -50,-10 -13,-8 -28,-13 -33,-10 -14,8 -144,16 -169,10 -13,-4 -23,-12 -23,-20 0,-18 -19,-18 -26,0 -4,10 -24,13 -75,12 -38,0 -69,-4 -69,-8 0,-12 -25,-9 -37,3 -13,13 -130,21 -295,20 -83,0 -113,-4 -133,-17 -24,-16 -28,-16 -60,2 -29,15 -39,16 -67,6 -42,-15 -162,-7 -205,13 -31,15 -37,14 -94,-9 -56,-22 -64,-23 -84,-10 -15,10 -35,13 -61,8 -22,-3 -50,-6 -64,-6 -14,0 -39,-2 -56,-4 -29,-4 -32,-8 -39,-49 -3,-25 -11,-45 -16,-45 -6,0 -8,-4 -5,-8 3,-5 31,-10 62,-11 31,-1 61,-4 65,-7 5,-2 16,-1 26,4 62,31 94,40 137,41 26,1 52,3 56,6 4,3 15,-7 25,-21 15,-23 22,-25 58,-21 23,2 61,0 84,-5 24,-6 51,-7 60,-2 10,4 32,8 48,9 23,0 29,4 27,18 -2,14 5,17 38,17 40,0 49,-7 30,-26 -5,-5 -5,-15 -1,-23 7,-11 14,-10 39,3 26,13 37,14 79,3 27,-7 61,-10 75,-6 14,3 43,4 64,2 60,-7 87,-4 96,10 6,9 14,8 36,-4 18,-10 36,-13 49,-8 37,13 267,2 300,-15 25,-13 33,-13 49,-2 29,20 121,25 186,9 62,-15 90,-8 116,29 16,22 45,23 63,2 9,-11 22,-14 43,-9 17,3 54,9 81,12 28,3 56,10 63,16 9,7 16,7 20,0 17,-25 52,-33 129,-27 43,4 107,7 143,8 51,1 65,4 65,16 0,17 14,30 33,30 7,0 12,-13 12,-30 0,-29 1,-30 50,-30 73,0 140,20 140,42 0,11 7,18 20,18 13,0 20,-7 20,-18 0,-14 13,-21 54,-29 30,-6 64,-9 75,-6 12,3 21,1 21,-5 0,-7 33,-9 93,-6 139,7 147,7 212,1 33,-3 101,-1 150,5 50,5 136,11 192,11 l 103,2 10,28 c 11,34 43,34 48,-1 2,-12 4,-22 5,-22 1,0 23,-7 48,-14 41,-13 50,-12 75,1 16,9 49,15 74,14 72,-1 100,-2 188,-1 46,0 92,-5 104,-11 15,-8 26,-8 44,1 14,8 34,10 51,5 58,-15 122,-8 162,17 17,10 25,10 41,0 17,-10 107,-16 185,-11 24,1 79,1 259,0 87,0 145,4 153,11 9,7 21,7 44,-2 30,-13 259,-17 277,-6 17,10 179,17 202,8 17,-6 45,-4 86,6 58,14 64,13 118,-7 32,-12 63,-18 69,-14 7,4 46,9 87,10 41,2 116,5 165,7 50,3 102,0 116,-5 18,-7 44,-7 83,0 36,7 65,7 81,1 15,-6 34,-6 49,0 15,5 37,5 56,0 19,-5 61,-6 101,-1 48,6 88,5 129,-3 49,-10 64,-10 78,0 9,7 29,14 44,14 15,0 30,5 34,11 3,6 17,8 31,4 19,-4 26,-1 30,15 7,26 10,26 43,-10 26,-28 33,-30 95,-30 52,0 73,5 92,20 31,24 39,24 77,5 21,-11 45,-14 91,-9 47,5 69,3 94,-10 24,-13 36,-14 46,-6 29,24 77,30 122,15 50,-17 67,-12 106,35 31,36 47,38 47,5 0,-33 41,-61 69,-46 11,6 50,11 87,10 60,-1 70,1 87,22 12,15 21,19 25,12 4,-6 19,-14 34,-18 31,-8 71,2 63,16 -4,5 -1,9 5,9 6,0 8,5 4,12 -4,6 1,17 11,24 17,13 17,14 -1,19 -10,4 -27,10 -36,15 -10,6 -29,5 -49,-2 -20,-7 -70,-9 -137,-5 -62,4 -113,2 -124,-4 -12,-6 -31,-6 -56,0 -20,6 -109,13 -197,15 -196,7 -285,13 -292,20 -3,3 -15,0 -27,-6 -38,-21 -329,-24 -611,-7 -11,0 -48,-3 -82,-8 -36,-5 -69,-6 -78,0 -9,5 -35,4 -62,-1 -28,-6 -56,-7 -70,-1 -14,5 -33,5 -48,-1 -14,-5 -32,-7 -41,-3 -8,3 -33,0 -55,-7 -34,-12 -44,-11 -75,3 -30,15 -42,16 -75,6 -31,-10 -48,-10 -77,0 -118,40 -115,39 -157,20 z"
       id="path40"
       inkscape:connector-curvature="0" />
    <path
       d="m 5396,4745 c -22,-13 -47,-34 -57,-46 -18,-24 -49,-21 -49,5 0,26 -122,53 -185,42 -35,-7 -46,-27 -51,-95 l -2,-34 87,8 c 47,5 102,8 121,7 19,-1 52,3 72,9 24,6 52,6 82,-1 34,-7 51,-7 65,1 13,9 26,9 51,1 27,-10 37,-9 59,6 71,48 111,53 111,12 0,-18 6,-20 60,-20 54,0 60,2 60,20 0,15 9,22 30,27 17,3 30,9 30,13 0,24 -15,40 -37,40 -13,0 -34,5 -46,11 -27,15 -172,20 -262,9 -43,-5 -74,-5 -79,1 -13,12 -14,11 -60,-16 z"
       id="path42"
       inkscape:connector-curvature="0" />
    <path
       d="m 4966,4749 c -10,-6 -34,-9 -54,-6 -19,4 -44,1 -55,-5 -12,-6 -60,-10 -109,-10 -86,1 -99,-3 -78,-24 8,-8 6,-15 -5,-24 -12,-10 -19,-10 -27,-2 -7,7 -9,12 -5,12 4,0 3,9 -3,20 -7,13 -21,20 -38,20 -36,0 -49,-10 -53,-40 -3,-19 -10,-25 -29,-25 -21,0 -25,4 -23,27 1,24 -3,28 -35,35 -48,9 -379,9 -414,0 -16,-4 -28,-14 -28,-22 0,-9 -6,-12 -15,-9 -8,4 -22,1 -30,-6 -17,-14 -67,-3 -137,32 -39,19 -61,18 -165,-4 -42,-9 -60,-8 -103,6 -28,9 -59,14 -69,11 -9,-3 -42,-1 -72,5 -36,7 -55,7 -57,0 -2,-5 -14,-10 -27,-10 -12,0 -42,-7 -66,-15 -29,-11 -51,-13 -69,-7 -34,12 -61,1 -80,-34 -9,-16 -25,-31 -34,-32 -16,-3 -17,1 -11,37 6,38 5,41 -17,43 -12,0 -34,2 -48,4 -87,8 -120,5 -163,-16 -34,-17 -49,-20 -64,-12 -20,11 -113,9 -132,-3 -6,-3 -31,-3 -55,0 -25,4 -52,3 -62,-3 -14,-8 -21,-6 -30,6 -10,13 -19,14 -75,3 -35,-7 -74,-18 -86,-23 -12,-6 -37,-11 -55,-12 -18,-1 -36,-5 -40,-11 -5,-6 -8,-4 -8,5 0,35 -79,55 -164,42 -45,-6 -78,-32 -42,-32 24,0 19,-18 -6,-22 -19,-2 -23,-9 -23,-41 0,-45 14,-51 90,-42 28,3 57,5 65,5 8,-1 56,-3 105,-4 50,-2 95,-4 100,-6 11,-3 38,5 67,21 27,14 59,11 80,-8 15,-13 26,-15 61,-7 23,6 56,7 71,3 18,-5 41,-3 60,5 28,11 59,12 221,6 119,-4 301,2 311,11 7,6 32,6 67,1 30,-5 68,-7 83,-6 16,2 71,6 122,9 51,3 103,10 115,14 14,6 30,5 42,-2 13,-7 41,-6 94,2 48,8 85,9 100,3 14,-5 41,-6 60,-2 20,3 60,5 90,3 36,-3 58,0 70,10 47,42 129,44 203,6 33,-17 51,-19 116,-13 42,3 88,7 100,9 13,2 32,-1 42,-7 14,-9 25,-9 45,0 18,8 32,9 45,2 12,-6 43,-7 87,-1 37,4 79,9 92,9 13,1 27,6 32,13 5,9 13,7 30,-5 29,-20 141,-24 121,-4 -15,15 -16,64 -2,73 12,7 14,55 3,55 -5,0 -16,-5 -27,-11 z"
       id="path44"
       inkscape:connector-curvature="0" />
    <path
       d="m 33881,4723 c -23,-7 -114,-14 -201,-17 -87,-2 -163,-7 -169,-10 -15,-10 -14,-26 2,-26 7,0 25,-15 41,-32 l 29,-33 116,2 c 110,2 186,8 222,19 11,3 18,-3 22,-16 3,-13 13,-20 30,-20 42,0 64,92 30,122 -25,22 -71,26 -122,11 z"
       id="path46"
       inkscape:connector-curvature="0" />
    <path
       d="m 35096,4709 c -19,-22 -30,-28 -39,-21 -6,6 -31,18 -55,27 -41,17 -45,17 -77,-1 -28,-15 -38,-16 -61,-6 -22,11 -29,10 -45,-4 -11,-10 -28,-15 -44,-12 -14,3 -25,1 -25,-3 0,-17 -40,-9 -52,11 -15,24 -26,25 -50,4 -13,-12 -21,-14 -30,-6 -8,6 -41,9 -77,6 -38,-2 -70,1 -78,7 -19,16 -168,15 -188,-1 -8,-7 -15,-23 -15,-36 0,-27 -11,-36 -30,-24 -12,8 -13,13 -3,29 7,11 9,22 5,24 -4,3 -41,8 -83,12 -58,5 -79,3 -85,-6 -4,-7 -3,-14 4,-17 7,-2 12,-9 12,-17 0,-7 7,-18 15,-25 8,-7 15,-20 15,-30 0,-32 73,-32 176,-2 19,6 37,6 48,0 10,-6 33,-8 51,-5 18,3 36,3 40,-1 3,-4 33,-8 67,-9 l 60,-3 -15,23 c -9,14 -12,29 -7,37 6,10 14,6 35,-15 20,-19 24,-29 16,-35 -9,-5 -5,-9 11,-13 38,-11 90,-8 134,8 46,16 181,12 215,-6 26,-13 76,-3 88,19 9,15 13,15 58,0 26,-9 64,-17 84,-17 21,1 46,-2 58,-6 12,-3 21,-2 21,3 0,11 80,8 117,-3 16,-5 25,-3 29,9 4,10 18,16 38,16 27,0 32,4 31,23 0,37 -51,90 -83,88 -75,-4 -119,-10 -136,-17 -10,-4 -33,-2 -50,4 -71,24 -73,24 -100,-9 z"
       id="path48"
       inkscape:connector-curvature="0" />
    <path
       d="m 33285,4719 c -22,-4 -79,-7 -126,-7 -47,0 -111,-5 -142,-12 -42,-8 -66,-9 -91,0 -27,9 -47,7 -112,-11 -62,-17 -82,-19 -97,-10 -39,25 -415,32 -572,11 -93,-12 -98,-12 -188,-6 -38,3 -80,0 -94,-5 -18,-6 -30,-6 -39,2 -9,7 -66,12 -157,13 -92,1 -150,6 -164,14 -18,10 -29,9 -60,-2 -21,-8 -72,-17 -113,-20 -42,-3 -83,-8 -93,-12 -12,-4 -26,1 -41,15 -19,18 -28,20 -49,12 -54,-21 -143,-24 -178,-7 -36,18 -85,21 -94,6 -4,-7 -28,-8 -63,-4 -32,3 -68,6 -82,6 -64,0 -116,-5 -131,-13 -20,-10 -109,-12 -173,-4 -27,4 -77,1 -112,-5 -54,-10 -70,-10 -113,5 -47,15 -51,15 -76,-1 -22,-14 -32,-15 -62,-6 -29,9 -42,8 -65,-4 -19,-10 -34,-12 -41,-6 -12,9 -128,0 -159,-13 -11,-4 -31,1 -52,15 -33,20 -36,20 -61,4 -24,-15 -27,-15 -44,0 -9,9 -21,13 -25,9 -4,-4 -24,-8 -44,-9 -20,0 -72,-11 -116,-23 l -78,-22 -43,21 c -34,17 -53,19 -99,14 -46,-6 -60,-4 -76,11 -15,14 -28,16 -62,11 -24,-4 -87,-9 -141,-12 -54,-2 -107,-9 -119,-15 -11,-6 -27,-7 -36,-3 -9,4 -51,11 -92,15 -41,5 -93,11 -115,14 -33,6 -44,3 -59,-14 -20,-22 -55,-28 -72,-11 -12,12 -130,-5 -172,-25 -26,-14 -32,-22 -32,-50 0,-18 6,-35 13,-38 6,-2 118,-2 247,0 129,2 332,5 450,7 118,1 227,6 242,10 18,5 42,2 73,-9 38,-15 50,-16 73,-5 20,9 131,13 412,17 212,2 405,6 430,9 88,9 335,11 347,2 6,-5 50,-9 98,-9 64,-1 92,4 112,16 20,14 30,15 47,6 35,-19 158,-31 181,-17 20,12 211,14 222,2 11,-11 47,-6 67,9 32,24 124,49 138,37 7,-6 30,-13 51,-17 20,-4 40,-12 44,-18 4,-6 9,-3 14,9 7,16 8,17 8,2 2,-31 42,-31 99,0 53,29 54,29 88,12 29,-15 58,-18 192,-16 86,2 168,0 182,-4 14,-4 57,0 95,7 55,12 84,13 137,4 45,-7 75,-8 93,-1 19,7 34,6 55,-5 37,-19 54,-19 92,1 25,13 36,14 50,5 19,-12 67,-15 92,-5 17,7 22,34 6,34 -5,0 -10,6 -10,14 0,9 7,12 21,9 26,-7 36,-32 18,-45 -19,-12 62,-4 120,12 33,10 48,10 62,2 24,-16 29,-15 29,3 0,19 9,19 46,0 38,-19 109,-2 139,33 30,34 59,24 53,-18 -4,-25 -1,-31 19,-36 13,-4 30,-1 38,6 13,10 19,10 35,-5 13,-12 27,-15 49,-10 17,4 29,10 27,14 -12,20 52,61 94,61 21,0 30,4 28,13 -7,20 -51,37 -79,32 -14,-3 -36,-2 -50,3 -13,5 -42,5 -64,1 z"
       id="path50"
       inkscape:connector-curvature="0" />
    <path
       d="m 27615,4670 c -5,-7 -19,-10 -38,-6 -21,4 -40,0 -63,-15 -19,-11 -39,-17 -45,-14 -6,4 -40,11 -76,15 -48,6 -73,5 -97,-5 -25,-11 -42,-12 -70,-4 -21,6 -110,8 -209,6 -127,-3 -178,-1 -190,8 -17,13 -127,12 -237,-1 -30,-3 -113,-7 -184,-9 -73,-2 -133,-8 -139,-14 -17,-17 -73,-13 -88,5 -11,13 -23,15 -64,9 -76,-11 -157,-12 -189,-4 -19,6 -38,3 -59,-7 -33,-18 -156,-21 -196,-6 -16,5 -37,5 -58,-1 -26,-8 -42,-6 -83,11 -38,16 -57,19 -70,12 -10,-6 -41,-10 -68,-10 -32,0 -54,-5 -62,-15 -9,-11 -17,-12 -31,-4 -12,6 -31,7 -53,1 -18,-5 -65,-7 -104,-4 -55,3 -77,1 -95,-11 -22,-14 -29,-14 -68,-1 -33,12 -52,13 -84,5 -24,-6 -84,-8 -141,-4 -54,3 -108,5 -119,5 -11,-1 -81,-3 -156,-4 -91,-2 -141,-7 -151,-16 -12,-10 -22,-9 -51,3 -28,11 -66,14 -176,10 -78,-2 -173,0 -212,5 -49,6 -79,5 -95,-2 -18,-8 -30,-8 -47,1 -23,12 -86,8 -113,-7 -9,-5 -50,-7 -91,-4 -54,3 -77,1 -83,-8 -9,-14 -34,-15 -132,-5 -67,8 -68,7 -69,-16 0,-24 0,-24 -9,-2 -8,19 -13,21 -40,13 -20,-6 -53,-5 -87,1 -31,6 -65,8 -77,5 -12,-3 -55,-1 -96,5 -69,11 -78,10 -113,-8 l -37,-21 -58,24 c -68,28 -107,30 -120,7 -8,-14 -14,-15 -41,-4 -26,11 -37,11 -68,-2 -21,-8 -52,-12 -70,-10 -17,3 -39,0 -50,-5 -14,-8 -23,-6 -38,8 -19,18 -26,19 -85,8 -59,-10 -210,-13 -395,-6 -38,1 -95,1 -125,-1 -30,-2 -87,-1 -127,3 -54,5 -80,3 -108,-8 -25,-11 -43,-13 -54,-7 -24,13 -153,13 -711,0 -8,0 -20,1 -25,2 -6,1 -26,-1 -46,-5 -22,-5 -64,-2 -105,6 -82,16 -245,10 -252,-9 -6,-19 -26,-16 -46,5 -14,16 -28,18 -99,15 -45,-3 -113,-5 -152,-6 -38,-1 -76,-6 -84,-11 -8,-5 -46,-10 -85,-11 -39,-2 -93,-8 -121,-13 -27,-6 -53,-8 -58,-5 -4,2 -29,6 -55,8 -26,3 -63,7 -82,11 -19,4 -66,6 -105,5 -56,-1 -82,-7 -129,-31 -33,-16 -62,-26 -65,-21 -10,13 -52,33 -80,36 -184,22 -339,24 -425,6 -36,-8 -58,-8 -81,0 -27,10 -46,8 -111,-9 -66,-18 -82,-20 -104,-9 -33,17 -223,21 -251,6 -16,-8 -47,-6 -125,6 -69,12 -123,15 -162,10 -75,-9 -111,-9 -144,0 -18,5 -40,2 -62,-9 -43,-20 -90,-21 -106,-1 -11,14 -15,14 -37,0 -20,-13 -31,-14 -55,-6 -41,15 -243,14 -284,-1 -22,-8 -46,-8 -83,-1 -41,8 -60,7 -100,-7 -27,-9 -56,-13 -63,-9 -29,16 -100,21 -129,9 -23,-10 -32,-10 -44,0 -13,11 -20,9 -43,-11 -15,-13 -31,-30 -35,-36 -12,-19 -24,-16 -30,6 -3,13 -18,21 -48,26 -66,10 -144,8 -168,-4 -17,-9 -21,-9 -19,1 2,9 -8,12 -37,9 -75,-8 -160,-4 -201,9 -36,12 -46,11 -75,-2 -19,-9 -63,-16 -98,-17 -36,-1 -79,-9 -97,-17 -19,-9 -42,-13 -54,-9 -16,5 -26,1 -37,-15 -18,-25 -44,-11 -36,20 6,21 6,21 -77,21 -19,0 -53,0 -75,0 -78,1 -120,1 -160,-1 -22,-1 -46,0 -54,2 -8,1 -17,-5 -19,-14 -2,-14 3,-18 22,-18 25,0 56,-23 56,-41 0,-16 -27,-39 -47,-40 -15,0 -15,-2 4,-9 30,-12 171,-4 189,11 13,10 17,10 24,0 6,-10 18,-11 55,-3 27,6 53,8 60,6 6,-3 18,2 25,11 14,17 47,20 52,4 2,-7 37,-12 87,-14 73,-2 84,0 88,16 8,28 35,33 54,8 21,-28 93,-35 127,-13 18,12 27,13 37,4 10,-8 35,-9 78,-5 49,5 78,3 121,-11 56,-18 56,-18 72,4 17,24 58,29 71,9 5,-8 32,-13 73,-13 36,-1 74,-4 85,-8 17,-6 25,0 40,30 24,44 41,53 50,24 3,-11 24,-29 46,-40 l 39,-20 39,20 c 31,15 50,18 85,14 41,-6 49,-4 72,20 15,14 29,26 33,26 10,0 37,-20 27,-20 -4,0 2,-9 15,-19 16,-13 29,-16 40,-11 9,5 26,6 37,3 12,-3 28,0 36,6 10,8 26,9 55,2 28,-6 51,-5 71,2 22,8 35,8 52,-1 22,-12 41,-14 118,-10 19,1 92,-1 162,-5 92,-4 128,-3 130,5 3,9 19,9 62,1 38,-6 92,-7 154,-1 53,5 102,6 110,3 8,-3 30,0 49,7 25,9 33,17 30,30 -4,15 -2,16 15,7 37,-20 82,-30 193,-44 102,-13 113,-12 146,5 27,13 39,15 51,6 9,-7 54,-10 119,-8 57,1 148,3 202,4 77,1 97,4 93,15 -3,7 5,20 18,29 20,13 28,13 45,2 12,-7 21,-18 21,-25 0,-16 116,-18 125,-3 3,6 15,10 26,10 10,0 19,6 19,13 0,7 6,21 13,31 11,15 17,17 35,7 13,-7 22,-21 22,-36 0,-26 15,-41 25,-25 4,7 23,9 49,5 33,-5 47,-2 69,15 28,22 47,20 47,-7 0,-10 5,-13 18,-8 40,17 87,23 103,14 10,-5 22,-8 26,-7 4,1 17,-3 29,-9 37,-21 148,6 137,33 -6,17 14,44 34,44 11,0 13,-7 8,-31 -7,-30 -7,-31 32,-28 21,1 51,-4 67,-10 21,-8 38,-9 61,-1 18,6 37,10 41,8 5,-1 19,2 32,6 14,5 28,3 36,-4 10,-7 51,-8 137,-3 68,4 132,8 141,7 9,0 16,4 15,10 -1,5 6,12 16,14 9,2 17,-1 17,-7 0,-6 -4,-11 -10,-11 -16,0 -12,-17 6,-24 8,-3 22,1 30,9 20,19 33,19 55,-1 21,-19 139,-22 204,-5 22,5 65,12 96,14 69,5 80,11 77,45 -2,21 1,27 17,27 15,0 20,-7 21,-28 1,-38 7,-41 52,-30 29,8 45,7 63,-3 40,-22 160,-11 207,20 9,5 24,1 43,-14 42,-30 170,-32 202,-2 35,31 77,37 94,13 11,-16 19,-18 37,-11 30,11 133,15 169,5 21,-5 31,-3 40,9 10,14 17,14 49,3 21,-7 41,-16 44,-20 15,-14 67,-6 84,13 17,19 17,19 39,-1 19,-18 28,-19 74,-11 28,5 74,7 101,4 43,-4 52,-1 67,19 15,20 19,21 33,10 13,-11 22,-11 42,-2 20,9 32,8 62,-8 20,-10 59,-26 85,-35 47,-15 49,-15 77,6 24,17 37,20 76,14 27,-3 86,-1 132,5 61,8 87,8 95,0 12,-12 70,-15 80,-5 4,4 43,7 86,7 57,1 82,5 85,14 7,18 56,16 78,-4 15,-14 24,-14 58,-4 50,15 110,15 179,2 84,-17 94,-15 87,14 -9,34 22,34 55,-1 23,-24 27,-25 134,-23 60,1 123,-2 139,-6 21,-6 39,-3 63,10 29,16 39,17 67,7 18,-7 62,-12 99,-12 59,0 66,2 73,23 5,12 7,26 6,30 -2,5 3,7 10,5 7,-3 14,-19 16,-36 3,-26 8,-32 28,-32 16,0 28,8 36,25 11,25 36,33 54,16 13,-12 109,-41 136,-41 13,0 28,4 34,9 14,13 65,19 99,11 17,-3 52,0 79,6 41,11 62,10 136,-4 82,-17 90,-17 127,-1 25,11 45,14 54,8 16,-10 73,-12 82,-3 3,3 75,7 159,8 104,2 163,7 185,16 29,13 34,12 52,-4 17,-15 29,-17 68,-11 62,10 111,7 144,-11 22,-11 29,-11 45,1 14,10 42,12 105,8 48,-2 113,0 144,6 34,6 63,7 69,2 6,-5 40,-7 76,-4 167,11 248,10 312,-5 41,-9 74,-11 85,-6 10,5 56,9 103,10 47,1 139,5 205,10 89,7 133,6 169,-3 33,-9 61,-10 85,-4 20,5 81,8 136,7 108,-3 145,2 124,14 -15,10 -3,43 14,37 6,-2 11,-14 10,-26 -2,-19 3,-21 45,-23 26,-1 62,-1 81,0 19,1 40,-3 47,-9 9,-7 21,-6 42,5 22,11 38,13 62,6 18,-5 36,-7 41,-5 6,4 196,18 254,18 11,0 36,-3 55,-7 23,-5 41,-3 52,6 17,12 17,15 1,50 -15,33 -22,37 -64,43 -26,4 -66,4 -90,0 -25,-4 -57,-2 -73,5 -16,6 -90,12 -165,15 -75,2 -150,7 -167,11 -20,4 -34,2 -39,-6 z"
       id="path52"
       inkscape:connector-curvature="0" />
    <path
       d="m 14965,4501 c -11,-12 -17,-12 -29,-2 -12,10 -29,11 -77,2 -34,-6 -64,-13 -68,-16 -10,-10 23,-25 48,-23 38,4 36,-19 -3,-32 -68,-22 -43,-35 69,-37 106,-2 126,5 88,32 -14,11 -15,15 -4,28 15,19 38,12 46,-13 12,-38 129,-54 185,-25 26,14 33,14 52,1 13,-8 50,-16 83,-17 89,-2 86,-4 73,33 -17,48 -45,67 -90,60 -26,-3 -38,-1 -38,7 0,9 -22,11 -80,8 -44,-3 -83,-1 -86,4 -8,14 -153,6 -169,-10 z"
       id="path54"
       inkscape:connector-curvature="0" />
    <path
       d="m 13167,4493 c -6,-5 -65,-11 -147,-14 -14,0 -54,-7 -90,-14 -55,-11 -69,-11 -98,1 -45,18 -96,18 -112,-1 -10,-12 -27,-14 -72,-10 -33,3 -64,8 -69,11 -6,3 -15,1 -22,-5 -12,-9 -81,0 -94,13 -3,3 -19,-2 -34,-10 -22,-11 -34,-12 -50,-4 -21,12 -59,13 -187,8 -40,-2 -82,2 -94,8 -22,12 -72,0 -103,-26 -15,-12 -19,-12 -29,2 -12,16 -26,18 -153,18 -18,0 -50,0 -70,1 -21,0 -67,0 -103,-1 -36,0 -74,1 -85,2 -16,2 -20,-3 -20,-29 0,-17 -3,-35 -7,-39 -5,-4 -8,-15 -8,-25 0,-27 84,-31 321,-17 36,3 81,-1 100,-7 23,-8 47,-9 74,-3 22,5 60,7 85,3 25,-3 56,-5 70,-5 56,0 246,18 266,25 12,4 37,2 55,-3 38,-10 76,0 94,25 11,14 13,14 28,-7 8,-12 25,-22 39,-22 99,2 127,6 132,18 3,7 0,15 -7,17 -7,2 -9,8 -5,12 5,5 16,1 26,-8 11,-10 35,-17 60,-17 22,0 44,-4 47,-10 11,-18 398,-15 437,4 22,12 31,12 53,0 32,-16 103,-4 117,20 7,12 19,14 55,9 44,-6 45,-5 34,15 -9,17 -9,22 1,22 30,0 -33,29 -82,38 -69,13 -104,6 -120,-23 -13,-23 -82,-51 -101,-39 -6,3 -14,17 -19,30 -13,34 -91,59 -113,37 z"
       id="path56"
       inkscape:connector-curvature="0" />
    <path
       d="m 13650,4490 c -10,-6 -10,-16 0,-52 13,-44 14,-45 42,-34 21,8 33,7 47,-1 11,-7 39,-10 67,-7 27,3 67,4 89,3 95,-5 120,0 98,22 -12,12 -6,49 8,49 5,0 9,-4 9,-9 0,-6 12,-9 28,-8 22,2 27,-2 27,-22 1,-35 21,-39 185,-34 148,4 173,11 146,43 -7,8 -16,23 -19,33 -9,25 -34,21 -53,-8 -9,-14 -26,-31 -37,-37 -17,-9 -24,-6 -44,17 -22,25 -32,28 -106,32 -45,3 -147,9 -227,13 -102,7 -153,6 -173,-2 -20,-8 -35,-8 -51,0 -13,5 -29,7 -36,2 z"
       id="path58"
       inkscape:connector-curvature="0" />
    <path
       d="m 14554,4487 c -9,-5 -31,-6 -49,-3 -24,5 -34,3 -39,-9 -3,-8 -12,-15 -20,-15 -14,0 -29,-37 -21,-51 5,-7 34,-12 137,-24 25,-3 43,1 53,11 12,12 24,13 67,5 60,-10 68,-8 68,21 0,12 7,30 17,40 9,10 13,21 9,25 -10,10 -204,10 -222,0 z"
       id="path60"
       inkscape:connector-curvature="0" />
    <path
       d="m 11329,4450 c -7,-5 -16,-7 -20,-4 -15,9 -61,-16 -56,-30 3,-8 -1,-23 -9,-35 -14,-20 -14,-21 13,-22 15,-1 33,0 38,1 6,1 45,1 88,1 53,-2 77,1 72,8 -3,6 -1,11 5,11 6,0 9,4 5,9 -3,6 4,15 15,21 30,16 13,33 -29,27 -20,-2 -52,2 -72,9 -21,7 -42,8 -50,4 z"
       id="path62"
       inkscape:connector-curvature="0" />
    <path
       d="m 10440,4437 -25,-11 32,-4 c 30,-3 33,-6 30,-35 l -2,-32 56,0 c 34,0 63,-6 73,-15 16,-13 24,-11 72,14 48,25 58,27 78,16 18,-9 28,-9 45,0 17,9 26,9 37,-1 10,-8 34,-10 73,-6 40,4 76,2 107,-8 51,-15 79,-6 56,17 -19,19 -15,48 6,48 24,0 62,-41 45,-47 -20,-7 -15,-19 11,-31 41,-18 101,21 66,43 -6,4 -8,10 -5,15 3,5 -5,12 -17,15 -13,4 -31,14 -40,22 -9,8 -22,12 -29,8 -18,-12 -163,-14 -176,-3 -8,6 -23,6 -46,-3 -27,-9 -48,-10 -93,-1 -92,19 -119,16 -159,-19 -32,-29 -37,-30 -48,-15 -11,15 -13,15 -29,-3 -12,-14 -13,-21 -5,-25 7,-2 -3,-5 -21,-5 -32,-1 -33,0 -27,28 5,23 2,32 -14,40 -23,13 -19,13 -51,-2 z"
       id="path64"
       inkscape:connector-curvature="0" />
    <path
       d="m 9995,4431 c -3,-5 -1,-12 5,-16 18,-11 10,-23 -20,-30 -16,-4 -32,-11 -35,-16 -9,-13 -59,-11 -72,2 -9,9 -10,6 -6,-10 12,-48 89,-69 116,-31 11,16 23,19 73,16 32,-2 75,-7 95,-11 22,-4 46,-2 59,5 14,7 25,8 33,2 24,-20 64,-11 81,18 22,38 21,40 -18,33 -26,-4 -36,-1 -48,16 -8,11 -18,18 -21,14 -4,-3 -7,-1 -7,5 0,7 -4,12 -10,12 -5,0 -7,-7 -3,-16 8,-22 -31,-54 -66,-54 -29,0 -43,11 -48,39 -1,8 -8,18 -15,22 -18,12 -85,11 -93,0 z"
       id="path66"
       inkscape:connector-curvature="0" />
    <path
       d="m 29669,4416 c -3,-3 -20,-8 -39,-11 -19,-3 -54,-16 -78,-27 -33,-17 -45,-19 -54,-10 -7,7 -22,12 -34,12 -13,0 -25,4 -28,9 -3,5 -61,7 -128,5 -68,-2 -136,-4 -153,-3 -211,7 -336,4 -375,-7 -38,-11 -54,-11 -99,1 -78,20 -196,4 -273,-38 -55,-30 -59,-31 -115,-20 -32,7 -98,15 -148,19 -49,3 -107,10 -128,16 -27,6 -43,6 -52,-2 -7,-6 -19,-10 -27,-9 -26,5 -57,-12 -60,-34 -5,-33 -32,-32 -64,2 -28,30 -59,34 -89,10 -6,-4 -31,-7 -55,-6 -31,1 -62,-7 -101,-26 -31,-15 -69,-27 -85,-27 -37,0 -75,-26 -68,-45 4,-8 3,-27 0,-41 -5,-19 -11,-24 -24,-19 -25,10 -112,12 -112,3 0,-5 -15,-16 -34,-25 -32,-15 -36,-15 -51,1 -9,9 -21,16 -26,16 -5,0 -15,11 -21,25 -6,14 -20,25 -30,25 -25,0 -68,-29 -68,-46 0,-22 -20,-27 -45,-10 -13,9 -33,16 -44,16 -21,0 -84,32 -112,56 -8,8 -20,14 -25,14 -5,0 -27,10 -49,21 -31,17 -43,19 -57,10 -25,-16 -45,-14 -52,5 -5,13 -15,15 -59,9 -28,-4 -68,-15 -87,-24 -25,-12 -57,-15 -116,-13 -70,2 -83,5 -87,22 -7,26 -43,28 -106,7 -41,-15 -58,-17 -75,-8 -11,6 -53,10 -92,9 -54,-2 -76,1 -95,15 -13,9 -34,24 -47,33 -29,21 -88,8 -86,-19 1,-9 -3,-17 -10,-17 -6,0 -24,-16 -39,-35 -30,-37 -64,-46 -74,-19 -3,9 -1,24 5,34 6,10 7,22 1,31 -5,8 -9,24 -9,37 0,26 -34,30 -66,7 -13,-9 -46,-14 -85,-14 -35,-1 -80,-1 -99,-1 -19,-1 -46,-1 -59,0 -13,0 -30,-5 -37,-11 -9,-7 -25,-7 -56,2 -24,7 -95,14 -158,16 -63,1 -134,5 -156,9 -26,4 -44,2 -48,-5 -4,-6 -20,-11 -36,-11 -53,0 -80,-17 -80,-49 0,-33 -18,-44 -58,-35 -47,10 -52,13 -46,29 7,16 54,21 54,5 0,-6 7,-6 19,2 20,12 18,33 -5,42 -8,3 -39,1 -69,-5 -40,-7 -64,-7 -88,2 -25,9 -39,8 -66,-3 -29,-12 -46,-12 -110,0 -42,7 -87,10 -101,7 -14,-3 -58,-9 -98,-14 -58,-7 -80,-5 -103,6 -25,13 -47,13 -152,3 -67,-7 -137,-13 -155,-14 -18,0 -36,-7 -41,-14 -7,-11 -29,-10 -122,6 -73,12 -122,16 -137,11 -13,-5 -80,-9 -150,-9 -96,-1 -132,-4 -146,-15 -24,-18 -56,-19 -91,-3 -20,9 -31,9 -45,1 -10,-7 -27,-9 -39,-6 -12,3 -21,1 -21,-6 0,-14 -27,-14 -32,0 -3,8 -13,7 -34,-4 -21,-11 -35,-12 -48,-5 -18,10 -86,3 -86,-9 0,-4 7,-14 16,-24 20,-22 10,-39 -22,-39 -28,0 -28,1 -12,35 10,22 9,27 -8,40 -28,21 -74,18 -101,-7 -22,-20 -24,-20 -42,-4 -33,30 -74,17 -98,-32 0,-2 -13,7 -28,20 -25,22 -35,23 -178,24 -84,1 -159,-2 -167,-6 -23,-12 -224,-22 -251,-12 -13,5 -47,4 -74,0 -46,-8 -51,-11 -50,-36 0,-37 -29,-36 -33,1 -4,33 -12,34 -50,2 -26,-22 -31,-23 -42,-10 -7,9 -29,15 -54,15 -23,0 -46,4 -52,10 -11,11 -54,2 -54,-11 0,-15 -37,-10 -50,6 -13,15 -60,15 -170,1 -14,-2 -35,-4 -47,-5 -27,-1 -31,-35 -9,-60 11,-12 13,-26 6,-54 -10,-45 -14,-51 -33,-44 -16,6 -22,83 -7,92 13,8 13,52 -1,60 -27,17 -406,23 -436,7 -12,-7 -42,-12 -67,-12 -33,0 -51,-5 -63,-19 -9,-11 -20,-18 -25,-15 -17,11 -38,-17 -28,-36 11,-20 4,-30 -22,-30 -28,0 -68,-30 -68,-51 0,-25 49,-94 78,-110 12,-7 22,-18 22,-24 0,-7 19,-18 43,-24 23,-7 48,-18 55,-23 6,-6 39,-12 73,-15 33,-2 70,-8 82,-12 12,-4 58,-4 102,1 135,15 179,15 206,2 21,-11 33,-10 67,2 26,8 65,12 100,10 32,-3 94,-1 138,5 43,5 106,11 139,13 207,13 273,20 292,30 16,8 46,9 103,2 76,-9 82,-8 134,18 50,25 106,34 176,27 8,-1 74,1 145,4 129,6 186,16 215,40 26,21 51,25 73,13 27,-14 220,-12 249,3 11,6 43,13 71,15 29,2 99,9 157,14 58,5 132,12 165,14 164,12 211,19 235,36 19,13 38,16 83,12 48,-4 57,-2 57,12 0,20 9,20 35,3 34,-24 66,-26 101,-9 29,14 40,14 70,3 32,-12 38,-11 57,7 19,18 30,20 84,13 52,-6 76,-3 154,20 80,24 98,27 145,18 37,-7 66,-7 91,0 21,6 71,11 112,11 55,0 82,5 105,19 26,16 40,18 84,11 42,-7 61,-6 89,8 34,16 35,16 54,-6 l 18,-23 20,20 21,21 55,-21 c 30,-11 59,-18 65,-14 5,3 10,0 10,-8 0,-8 -6,-17 -14,-20 -8,-3 -16,-18 -18,-34 -2,-22 -9,-29 -29,-31 -15,-2 -33,4 -42,12 -24,25 -42,19 -60,-19 -9,-20 -23,-37 -29,-39 -7,-2 -29,-9 -48,-15 -57,-20 -113,-34 -137,-32 -12,0 -35,-4 -50,-11 -15,-6 -57,-12 -93,-13 -72,-2 -120,-13 -120,-26 0,-19 -37,-28 -74,-17 -29,9 -42,9 -58,-1 -13,-8 -49,-11 -108,-9 -98,3 -120,-6 -120,-54 0,-35 -32,-73 -55,-64 -11,4 -15,16 -13,43 3,37 2,38 -32,37 -43,-1 -161,-71 -153,-91 3,-7 0,-13 -6,-13 -7,0 -14,7 -17,15 -4,8 -14,15 -24,15 -10,0 -20,7 -24,15 -7,19 -39,19 -76,0 -51,-27 -119,-46 -165,-47 -24,0 -49,-6 -55,-13 -7,-8 -39,-13 -87,-14 -42,-1 -91,-5 -107,-10 -17,-5 -53,-14 -81,-19 -27,-6 -68,-15 -90,-21 -22,-6 -66,-11 -98,-11 -52,0 -62,-3 -87,-30 -16,-17 -42,-33 -60,-36 -17,-4 -34,-13 -37,-20 -7,-20 -24,-17 -21,3 4,21 -49,44 -60,26 -4,-6 -26,-21 -49,-33 -24,-12 -43,-28 -43,-35 0,-20 -29,-26 -53,-10 -34,22 -169,8 -184,-20 -5,-9 -34,-15 -79,-18 -40,-3 -82,-11 -95,-18 -13,-7 -31,-15 -39,-19 -9,-5 -14,-19 -13,-34 1,-14 -2,-26 -8,-26 -5,0 -9,-6 -9,-12 0,-7 -10,-32 -22,-55 -22,-41 -22,-42 -4,-62 11,-12 25,-21 32,-21 7,0 18,-15 24,-34 16,-50 52,-70 111,-63 27,3 51,2 54,-2 6,-11 65,-20 70,-10 3,4 53,6 112,5 105,-2 110,-1 171,31 43,23 76,33 106,33 27,0 48,6 57,16 9,11 22,14 46,9 21,-4 43,0 65,11 18,10 48,19 67,20 18,2 41,10 50,17 29,25 122,67 149,67 15,0 58,7 96,15 48,10 74,11 87,4 15,-8 26,-5 46,10 14,12 34,21 45,21 10,0 32,7 48,15 17,9 40,13 54,9 14,-3 31,-2 38,2 26,17 103,32 135,27 23,-4 39,-1 51,11 10,8 33,21 50,27 24,8 32,17 32,34 0,31 20,43 35,22 24,-33 135,-10 168,34 24,33 42,36 69,12 17,-15 19,-15 36,0 21,19 48,22 57,7 8,-13 85,-13 85,0 0,5 19,15 43,21 23,7 47,16 53,21 6,4 27,8 45,8 54,-1 113,11 131,27 9,8 40,17 68,18 92,7 140,17 163,35 12,10 41,23 62,29 28,7 45,20 58,42 18,33 31,34 105,13 18,-5 22,-2 22,14 0,25 16,37 33,24 19,-15 85,-24 92,-12 10,17 44,11 55,-9 16,-31 12,-51 -10,-51 -11,0 -20,-7 -20,-15 0,-21 -17,-19 -37,5 -22,25 -43,26 -43,1 0,-10 -7,-34 -14,-53 -8,-19 -13,-44 -10,-55 4,-16 -2,-23 -28,-32 -52,-20 -138,-63 -138,-69 0,-3 10,-16 22,-29 l 21,-23 -23,-25 c -28,-30 -70,-33 -77,-6 -3,12 -20,23 -46,29 -92,23 -105,23 -134,-5 -16,-14 -40,-30 -55,-35 -16,-6 -28,-13 -28,-18 0,-4 -39,-16 -86,-26 -80,-16 -89,-21 -106,-51 -18,-30 -24,-33 -69,-33 -36,0 -54,-5 -69,-20 -11,-11 -31,-20 -44,-20 -35,0 -46,-39 -17,-58 23,-15 28,-37 11,-47 -14,-9 -80,42 -80,61 0,11 -8,14 -27,12 -21,-2 -36,-15 -58,-49 -27,-43 -32,-46 -70,-46 -35,1 -192,-48 -205,-64 -3,-3 -18,-9 -33,-13 -21,-5 -29,-14 -34,-37 -3,-17 -13,-33 -22,-36 -74,-25 -92,-46 -69,-82 9,-15 10,-30 2,-63 -10,-36 -11,-76 -5,-110 0,-5 12,-8 26,-8 14,0 34,-9 44,-19 28,-28 91,-36 136,-17 21,9 47,16 59,16 12,0 31,7 42,15 10,8 26,15 35,15 9,0 24,9 34,20 13,14 31,20 60,20 24,0 48,6 54,14 6,7 25,16 41,20 17,3 30,12 30,20 0,7 13,19 29,26 16,6 32,18 35,26 3,8 16,14 30,14 13,0 26,7 30,15 3,8 15,15 27,15 23,0 79,30 79,42 0,4 8,8 17,8 9,0 24,7 34,16 15,13 24,14 48,6 28,-10 35,-7 78,27 78,61 157,111 175,111 9,0 19,9 23,20 6,18 56,52 168,112 27,15 57,28 65,30 8,2 16,12 18,22 4,25 22,36 62,36 46,0 90,28 104,66 7,20 16,30 24,27 12,-4 74,19 129,49 11,6 43,24 72,40 28,15 58,28 67,28 9,0 19,7 22,15 4,8 34,29 68,46 33,17 90,46 126,64 36,18 71,39 78,48 22,26 98,41 141,28 65,-19 88,-15 100,19 7,22 16,30 33,30 42,0 52,-14 44,-60 -10,-66 -61,-119 -112,-120 -12,0 -32,-12 -45,-26 -62,-68 -264,-244 -282,-244 -6,-1 -32,-26 -57,-55 -33,-42 -51,-55 -71,-55 -20,0 -33,-10 -52,-38 -14,-22 -39,-45 -56,-52 -32,-13 -43,-40 -16,-40 21,0 45,-52 27,-58 -7,-2 -19,-10 -26,-18 -19,-18 -35,-18 -56,1 -20,18 -63,7 -73,-19 -4,-9 -17,-16 -30,-16 -14,0 -40,-17 -68,-45 -24,-24 -50,-45 -58,-45 -7,0 -11,-6 -7,-15 3,-10 -3,-17 -22,-22 -24,-6 -112,-58 -137,-82 -43,-41 -74,-82 -87,-116 -20,-50 -29,-100 -22,-120 7,-17 64,-21 64,-5 0,6 7,10 16,10 10,0 14,-5 10,-15 -7,-20 10,-65 32,-81 18,-14 91,-17 128,-6 12,4 35,17 50,29 91,68 139,103 145,103 4,0 9,10 13,23 3,12 18,27 34,33 19,7 35,26 50,57 16,35 28,47 52,52 16,4 30,13 30,21 0,8 25,25 55,39 40,17 55,29 55,44 0,25 40,89 61,96 8,3 36,25 61,50 26,25 51,45 55,45 5,0 20,15 33,33 13,17 45,51 72,75 26,24 57,64 70,90 13,26 31,53 41,60 9,7 17,22 17,32 0,12 55,77 133,156 72,75 138,143 145,150 13,13 17,13 70,-15 16,-8 27,-9 36,-2 9,7 16,7 24,-1 17,-17 15,-53 -3,-68 -8,-7 -15,-18 -15,-24 0,-6 -12,-33 -25,-61 -14,-28 -22,-59 -19,-71 4,-14 -9,-42 -40,-88 -40,-57 -45,-70 -35,-88 10,-19 6,-26 -33,-62 -25,-23 -62,-67 -82,-98 -19,-31 -40,-59 -46,-63 -5,-3 -10,-14 -10,-23 0,-9 -11,-27 -24,-39 -26,-25 -40,-93 -22,-106 8,-6 7,-10 -2,-14 -28,-11 -102,-90 -102,-108 0,-12 -8,-31 -17,-45 -16,-22 -16,-23 0,-17 30,11 47,-3 47,-39 0,-19 -4,-34 -10,-34 -5,0 -22,-12 -38,-27 -16,-16 -39,-36 -51,-46 -21,-17 -24,-42 -5,-42 5,0 17,-5 28,-11 14,-8 15,-13 6,-19 -7,-4 -15,-3 -19,3 -10,17 -56,19 -56,2 0,-8 10,-16 23,-18 23,-4 29,-16 12,-27 -23,-14 -10,-55 27,-80 44,-29 48,-30 119,-9 42,12 54,20 54,35 0,11 10,23 23,28 35,14 87,68 87,90 0,32 11,52 36,62 17,6 24,16 24,34 0,14 5,25 10,25 6,0 10,6 10,13 0,6 11,35 25,62 13,28 25,55 25,62 0,7 6,16 13,20 18,12 62,102 82,169 9,31 27,72 41,89 13,18 24,44 24,59 0,54 23,122 56,165 19,24 34,55 34,67 0,13 5,26 10,29 6,3 10,16 10,27 0,11 7,26 15,32 9,6 16,28 17,48 1,22 9,45 19,54 10,9 21,29 24,45 4,16 11,31 16,34 5,4 9,15 9,25 0,10 6,23 14,27 20,12 45,78 39,103 -3,11 1,28 10,38 22,25 47,78 47,100 0,31 39,100 60,107 39,12 50,-10 44,-89 -2,-39 -6,-107 -8,-151 -2,-44 -7,-112 -11,-151 -10,-93 -1,-144 25,-144 25,0 26,-29 3,-36 -10,-3 -34,-13 -53,-23 -34,-17 -35,-19 -36,-77 0,-32 -5,-68 -10,-79 -14,-29 -9,-118 9,-167 19,-51 19,-221 0,-254 -13,-23 -7,-61 13,-84 11,-13 9,-23 -10,-61 -32,-61 -32,-151 -2,-165 12,-5 21,-18 21,-29 0,-11 4,-26 8,-32 4,-7 4,-20 0,-28 -14,-25 -3,-87 14,-81 8,3 11,2 8,-4 -8,-13 43,-36 87,-39 29,-1 45,6 75,31 21,18 40,34 42,35 2,2 5,11 6,21 1,9 8,31 17,47 8,17 18,55 22,86 5,47 3,61 -14,82 -21,26 -18,57 6,57 8,0 14,7 14,15 0,8 5,15 10,15 13,0 13,87 0,95 -5,3 -7,25 -4,49 4,26 2,46 -4,50 -6,4 -7,17 -3,34 5,18 3,44 -7,75 -14,43 -13,50 1,80 22,44 28,122 11,144 -19,26 -17,44 10,72 35,38 41,77 15,91 -14,8 -24,8 -33,1 -29,-24 -42,-3 -41,65 0,42 -4,69 -12,76 -20,16 -15,30 7,23 27,-8 50,11 50,41 0,27 47,64 82,64 26,0 48,-17 48,-37 0,-8 16,-36 35,-64 28,-41 32,-54 25,-74 -12,-30 27,-116 71,-157 20,-18 29,-37 29,-57 0,-16 5,-33 10,-36 6,-3 10,-23 10,-43 0,-27 7,-42 25,-57 17,-13 30,-40 40,-80 28,-114 49,-170 76,-206 16,-20 34,-58 40,-85 15,-60 49,-113 72,-114 21,0 39,-40 42,-92 2,-29 14,-50 50,-90 26,-29 53,-53 59,-53 11,0 76,-28 110,-47 16,-8 22,-7 33,8 7,10 13,21 13,26 0,4 8,8 18,8 32,0 52,33 52,84 0,35 -4,48 -17,53 -25,10 -62,55 -63,76 0,10 7,20 15,23 20,8 19,37 -4,83 -14,26 -20,58 -20,99 1,55 -8,86 -32,116 -5,6 -20,25 -34,42 -14,18 -25,39 -25,47 0,21 -41,84 -80,122 -16,17 -30,35 -30,41 0,18 -65,74 -87,74 -12,0 -25,6 -30,13 -13,20 -34,80 -39,111 -2,15 -16,43 -31,62 -16,19 -41,50 -57,69 -33,41 -96,168 -96,194 0,33 42,61 92,61 28,0 50,6 58,15 21,25 35,18 95,-50 31,-36 62,-65 69,-65 6,0 20,-15 30,-34 10,-19 40,-55 67,-81 27,-26 61,-69 76,-96 20,-37 34,-52 54,-56 17,-3 29,-13 33,-27 8,-33 54,-76 81,-76 18,0 30,-11 51,-50 18,-32 34,-50 46,-50 10,0 22,-10 27,-23 5,-13 24,-37 41,-53 18,-16 52,-48 77,-71 25,-24 54,-43 64,-43 10,0 26,-12 36,-27 10,-16 21,-30 24,-33 4,-3 15,-24 24,-47 14,-35 26,-47 71,-68 51,-24 58,-33 55,-61 -1,-7 17,-19 39,-28 25,-10 48,-28 58,-46 11,-20 28,-32 49,-36 18,-3 37,-12 44,-20 6,-8 20,-14 29,-14 31,0 50,-11 50,-29 0,-27 34,-40 151,-57 33,-5 37,-3 43,19 3,14 15,28 25,32 11,3 19,14 19,23 0,9 3,41 7,70 7,49 6,54 -13,59 -23,6 -38,36 -26,54 3,6 0,15 -7,20 -7,4 -10,12 -5,16 4,4 13,0 20,-9 8,-11 17,-14 26,-8 11,7 8,15 -13,42 -59,73 -94,107 -130,123 -21,10 -51,34 -65,53 -54,71 -80,93 -104,87 -18,-4 -35,6 -77,45 -30,27 -59,50 -63,50 -4,0 -16,8 -26,18 -10,9 -35,29 -57,45 -22,15 -67,47 -100,72 -33,24 -67,44 -77,44 -9,1 -43,24 -76,51 -33,28 -64,50 -70,50 -22,0 -117,74 -128,99 -6,15 -35,50 -63,78 l -51,51 25,16 c 13,9 29,16 34,16 17,0 18,25 2,37 -9,6 -12,15 -8,20 5,4 13,0 18,-10 6,-9 22,-17 37,-17 30,0 106,-32 116,-49 4,-6 18,-11 32,-11 51,0 151,-43 227,-98 43,-32 93,-66 110,-77 18,-10 38,-26 46,-33 11,-10 29,-13 63,-9 39,5 50,3 57,-11 5,-9 49,-39 98,-67 84,-47 133,-95 133,-129 0,-15 37,-31 90,-41 45,-8 98,-34 130,-63 17,-16 33,-22 51,-18 18,3 39,-5 74,-30 27,-19 54,-34 60,-34 7,0 24,-9 39,-21 15,-11 38,-24 53,-28 15,-4 31,-16 37,-27 17,-30 25,-32 85,-27 44,4 59,2 70,-11 7,-9 25,-16 40,-16 27,0 64,-21 91,-52 18,-20 85,-58 103,-58 7,0 35,-15 62,-33 69,-45 165,-73 194,-57 13,6 28,9 36,7 7,-3 23,2 36,11 13,9 34,15 46,14 15,-2 35,9 58,30 19,18 42,39 50,46 33,29 -7,131 -61,157 -17,8 -34,21 -37,29 -8,21 -64,49 -72,36 -10,-16 -25,-12 -19,5 7,17 -43,64 -68,65 -10,0 -18,3 -18,8 0,4 -23,22 -50,41 -28,19 -50,38 -50,42 0,4 -21,11 -47,14 -62,8 -100,23 -141,52 -49,36 -86,44 -122,27 -16,-9 -30,-20 -30,-26 0,-17 -10,-3 -14,19 -6,28 -53,73 -76,73 -10,0 -31,11 -47,24 -15,13 -46,29 -68,37 -22,7 -45,17 -52,22 -7,5 -20,4 -32,-2 -30,-17 -52,-13 -58,9 -4,16 -14,20 -44,20 -21,0 -40,4 -43,9 -3,5 -18,12 -33,16 -15,3 -43,19 -62,33 -59,45 -107,63 -223,83 -54,9 -73,17 -102,45 -19,19 -43,34 -53,34 -10,0 -27,6 -38,14 -27,18 -105,34 -143,28 -25,-3 -32,0 -44,25 -11,23 -18,27 -46,25 -19,-2 -43,4 -59,15 -16,10 -44,26 -63,36 -19,9 -42,21 -50,26 -8,6 -33,18 -55,27 -22,9 -54,23 -72,30 -17,8 -35,14 -40,14 -6,0 -22,11 -38,24 -34,29 -28,52 20,84 43,27 44,27 130,-3 39,-14 80,-25 93,-25 13,0 35,-6 50,-14 15,-7 51,-17 81,-21 30,-4 70,-14 89,-22 19,-8 57,-13 85,-12 37,2 52,-1 55,-11 7,-21 23,-30 54,-30 15,0 42,-9 60,-19 18,-11 56,-25 83,-31 28,-6 82,-26 120,-45 99,-47 154,-67 200,-70 22,-2 60,-10 85,-19 25,-9 54,-16 66,-16 11,0 25,-5 32,-12 9,-9 20,-9 49,1 35,13 37,13 62,-17 14,-16 35,-33 46,-36 11,-3 31,-16 45,-28 21,-19 39,-24 108,-26 68,-3 82,-1 82,12 0,29 22,28 54,-3 17,-17 47,-34 66,-37 19,-4 45,-15 57,-24 13,-10 39,-21 59,-24 27,-6 38,-14 45,-36 7,-18 21,-32 41,-39 45,-16 55,-14 93,15 33,25 75,27 75,4 0,-5 11,-17 25,-26 24,-16 28,-16 70,6 l 44,23 52,-22 c 28,-11 59,-21 68,-21 9,0 33,-14 54,-31 20,-17 41,-28 46,-25 5,3 25,-1 45,-9 19,-8 46,-15 59,-15 14,0 31,-9 39,-22 14,-20 18,-21 54,-11 50,15 165,2 201,-24 40,-28 44,-30 107,-48 33,-9 83,-17 112,-16 50,0 114,-21 114,-39 0,-4 17,-8 38,-8 20,0 72,-1 114,-1 42,0 79,-5 83,-11 10,-17 216,-12 240,6 20,15 29,70 13,90 -5,7 0,20 11,33 17,20 18,25 6,48 -8,15 -11,39 -8,55 6,29 -18,68 -41,68 -7,0 -30,9 -51,20 -29,15 -50,19 -77,15 -33,-6 -37,-10 -43,-46 -8,-47 -23,-47 -47,2 -11,24 -13,38 -6,47 8,9 7,11 -6,6 -12,-4 -16,-1 -16,15 0,34 -49,53 -110,41 -56,-11 -76,-5 -118,34 -13,11 -36,21 -50,22 -47,1 -162,32 -182,48 -15,12 -62,30 -148,57 -33,10 -58,10 -105,2 -34,-6 -66,-8 -72,-5 -18,11 -139,53 -168,59 -15,3 -48,0 -73,-7 -41,-12 -47,-11 -74,9 -25,18 -33,19 -56,9 -23,-11 -28,-10 -40,7 -10,13 -28,19 -65,21 -28,1 -72,10 -99,20 -45,16 -50,16 -74,1 -24,-16 -27,-16 -74,8 -28,14 -65,25 -84,25 -19,0 -40,6 -47,13 -7,7 -40,13 -79,13 -37,1 -98,7 -137,13 -38,7 -82,13 -96,15 -14,1 -30,5 -35,8 -5,3 -38,9 -72,13 -35,4 -76,13 -90,21 -15,8 -37,14 -50,14 -13,0 -33,5 -44,11 -15,8 -26,8 -43,-1 -19,-10 -29,-8 -66,11 -24,13 -62,24 -84,25 -78,6 -107,12 -126,30 -43,39 -13,80 50,69 32,-5 46,-3 66,13 22,17 37,19 107,16 54,-2 84,0 89,8 5,7 18,3 40,-13 29,-20 47,-24 119,-25 47,-1 96,-4 110,-7 31,-8 296,-30 330,-28 23,1 43,-5 91,-30 9,-4 84,-9 165,-10 82,-1 174,-6 204,-10 52,-9 83,-12 210,-23 30,-2 62,-7 70,-9 48,-16 84,-16 102,0 17,15 20,15 39,-5 11,-12 29,-22 40,-22 11,0 32,-8 46,-17 21,-14 53,-19 133,-21 58,-1 114,-3 125,-3 11,-1 38,4 60,11 22,7 54,12 70,11 89,-3 169,-14 192,-26 18,-9 33,-11 50,-4 32,12 99,12 142,-1 60,-17 184,-21 212,-6 27,14 98,8 169,-13 19,-6 55,-11 80,-11 25,0 52,-6 58,-12 8,-8 44,-13 91,-14 43,-1 89,-7 101,-14 17,-9 37,-9 88,0 37,7 75,16 85,21 21,11 40,3 31,-13 -5,-7 2,-9 20,-4 14,3 56,0 92,-9 36,-8 111,-15 168,-15 90,0 105,2 121,20 24,27 53,25 99,-6 27,-19 46,-25 66,-21 15,3 54,0 86,-8 63,-15 61,-15 116,38 10,9 25,17 34,17 8,0 30,11 48,25 18,14 36,25 39,25 4,0 25,19 47,41 54,56 55,97 4,144 -69,63 -78,68 -126,73 -27,2 -51,9 -54,13 -8,14 -68,10 -108,-6 -25,-11 -36,-22 -36,-37 0,-19 -4,-20 -49,-15 -40,5 -52,2 -67,-14 -32,-36 -68,-13 -45,29 16,30 3,52 -29,52 -15,0 -33,7 -40,15 -9,11 -24,14 -52,10 -22,-4 -64,1 -99,9 -52,14 -64,14 -94,2 -24,-10 -60,-13 -127,-10 -51,3 -131,6 -178,8 -47,1 -95,8 -107,15 -19,9 -29,9 -53,-4 -17,-9 -35,-13 -41,-9 -6,3 -47,5 -92,3 -45,-1 -111,-3 -147,-4 -129,-4 -141,-5 -135,-15 3,-6 2,-10 -4,-10 -5,0 -8,-8 -6,-17 2,-10 4,-21 4,-25 1,-5 10,-8 21,-8 11,0 20,-7 20,-15 0,-25 -46,-18 -64,10 -9,14 -12,25 -6,25 5,0 10,7 10,15 0,8 -6,15 -13,15 -7,0 -18,9 -24,20 -12,18 -22,19 -125,15 -136,-6 -169,-6 -318,-4 -105,2 -250,1 -292,-2 -39,-2 -139,0 -233,7 -125,8 -199,7 -298,-1 -50,-5 -82,-3 -90,4 -13,10 -106,7 -215,-6 -24,-3 -48,0 -56,6 -10,8 -18,5 -34,-12 -16,-17 -30,-22 -52,-19 -17,2 -30,7 -30,11 0,4 -20,13 -45,20 -42,12 -78,12 -169,-3 -22,-4 -44,-2 -51,4 -26,22 -126,10 -154,-17 -12,-13 -15,-13 -23,1 -5,9 -17,16 -27,16 -10,0 -26,9 -36,20 -16,18 -55,27 -66,16 z"
       id="path68"
       inkscape:connector-curvature="0" />
  </g>
</svg>
