<?xml version="1.0" encoding="UTF-8" standalone="no"?>
<!DOCTYPE svg PUBLIC "-//W3C//DTD SVG 1.1//EN" "http://www.w3.org/Graphics/SVG/1.1/DTD/svg11.dtd">
<svg width="100%" height="100%" viewBox="0 0 5087 294" version="1.1" xmlns="http://www.w3.org/2000/svg" xmlns:xlink="http://www.w3.org/1999/xlink" xml:space="preserve" xmlns:serif="http://www.serif.com/" style="fill-rule:evenodd;clip-rule:evenodd;stroke-linejoin:round;stroke-miterlimit:2;">
    <g id="g6" transform="matrix(0.1,0,0,-0.1,-200.5,528.9)">
        <g id="path8" transform="matrix(0.999997,-0.0024975,0.0024975,0.999997,-781.709,198.578)">
            <path d="M50605,5280C50578,5276 50539,5267 50520,5261C50472,5245 50361,5245 50317,5261C50287,5271 50276,5271 50256,5261C50240,5252 50221,5250 50203,5255C50160,5267 49992,5262 49967,5248C49946,5236 49761,5235 49615,5246C49582,5249 49530,5252 49500,5254C49470,5256 49417,5263 49382,5270C49332,5281 49304,5281 49242,5272C49200,5265 49147,5260 49125,5261C49103,5261 49074,5258 49060,5252C49046,5247 49008,5240 48975,5236C48850,5224 48744,5216 48710,5217C48691,5217 48626,5219 48565,5220C48479,5223 48446,5220 48416,5206C48394,5197 48370,5192 48362,5195C48355,5197 48337,5194 48322,5187C48293,5173 48279,5174 48213,5196C48190,5203 48136,5209 48093,5209C48044,5208 47997,5214 47967,5225C47929,5238 47898,5240 47818,5235C47757,5232 47705,5233 47685,5240C47659,5249 47645,5247 47605,5230C47553,5208 47500,5207 47457,5228C47432,5241 47424,5240 47374,5216C47334,5197 47303,5190 47260,5190C47228,5190 47198,5186 47195,5180C47187,5167 47113,5167 47036,5180C46986,5188 46973,5187 46958,5174C46941,5158 46927,5159 46855,5180C46850,5182 46824,5180 46797,5176C46769,5171 46745,5172 46737,5178C46720,5191 46472,5192 46384,5178C46330,5170 46303,5171 46276,5180C46247,5189 46236,5189 46224,5180C46214,5171 46193,5169 46157,5174C46129,5178 46056,5181 45995,5180C45848,5178 45716,5178 45535,5180C45440,5182 45374,5178 45355,5171C45339,5164 45310,5162 45290,5165C45227,5176 45106,5173 45102,5161C45096,5143 45066,5149 45052,5171C45040,5190 45032,5192 44962,5187C44920,5184 44878,5179 44869,5176C44861,5172 44842,5173 44829,5179C44812,5185 44794,5184 44772,5174C44753,5166 44704,5161 44652,5161C44536,5161 44530,5158 44533,5106L44535,5065L44616,5064C44661,5064 44702,5060 44707,5057C44713,5053 44736,5057 44759,5065C44793,5077 44805,5077 44832,5066C44880,5047 44965,5055 44990,5080C45001,5091 45010,5107 45010,5115C45010,5123 45015,5130 45021,5130C45027,5130 45030,5121 45027,5110C45021,5085 45044,5066 45072,5073C45083,5076 45103,5074 45114,5068C45140,5054 45184,5049 45232,5056C45260,5060 45270,5067 45275,5087C45280,5107 45283,5110 45295,5100C45303,5093 45308,5078 45307,5067C45306,5052 45310,5046 45320,5049C45328,5051 45360,5054 45391,5055C45422,5056 45452,5060 45458,5064C45465,5068 45480,5064 45491,5056C45508,5045 45518,5044 45539,5052C45553,5058 45584,5062 45607,5061C45631,5060 45668,5064 45691,5070C45763,5090 45871,5089 45910,5069C45934,5058 45951,5055 45962,5061C45971,5066 46002,5069 46032,5067C46065,5066 46098,5071 46113,5079C46134,5090 46145,5091 46165,5082C46202,5065 46263,5067 46311,5087C46344,5100 46356,5101 46372,5091C46382,5085 46395,5082 46400,5085C46404,5088 46432,5085 46461,5079C46502,5070 46522,5070 46549,5080C46568,5087 46610,5092 46642,5091C46689,5090 46700,5093 46700,5106C46700,5117 46706,5120 46723,5114C46735,5111 46750,5104 46755,5100C46773,5086 46823,5079 46930,5076C47013,5073 47045,5076 47094,5092C47134,5105 47156,5108 47158,5101C47163,5085 47197,5088 47226,5106C47247,5120 47255,5121 47276,5110C47289,5102 47317,5095 47338,5094C47393,5090 47490,5071 47512,5059C47526,5052 47535,5052 47546,5061C47578,5087 47706,5099 47756,5080C47773,5073 47804,5073 47848,5080C47896,5088 47933,5088 47983,5080C48042,5070 48054,5070 48069,5084C48081,5095 48107,5099 48165,5099C48209,5099 48249,5096 48254,5092C48260,5089 48296,5084 48335,5082C48375,5080 48417,5071 48433,5062C48453,5050 48463,5048 48468,5057C48488,5088 48653,5096 48815,5072C48845,5067 48899,5070 48950,5078C49026,5090 49038,5089 49073,5074C49098,5062 49114,5060 49118,5067C49142,5102 49204,5109 49256,5081C49288,5064 49295,5063 49325,5076C49367,5093 49473,5094 49500,5078C49515,5068 49524,5068 49539,5077C49572,5097 49643,5101 49742,5087C49795,5079 49845,5077 49852,5081C49870,5093 49980,5092 49980,5080C49980,5059 50028,5059 50066,5079C50087,5091 50110,5100 50117,5100C50124,5100 50140,5111 50152,5125C50180,5158 50193,5157 50207,5121C50218,5092 50219,5091 50276,5096C50361,5104 50402,5118 50428,5148C50451,5174 50452,5174 50463,5156C50502,5091 50554,5073 50605,5106C50627,5120 50632,5120 50661,5106C50701,5086 50709,5086 50732,5107C50748,5121 50752,5121 50768,5109C50815,5071 50829,5068 50908,5081C50950,5087 50992,5099 51001,5106C51017,5121 51075,5115 51086,5099C51088,5095 51103,5095 51117,5101C51132,5106 51155,5108 51170,5105C51188,5101 51205,5106 51224,5121C51254,5145 51300,5142 51331,5114C51353,5094 51367,5102 51375,5139C51386,5191 51425,5186 51479,5125C51518,5080 51574,5067 51614,5094C51628,5103 51659,5110 51683,5110C51710,5110 51732,5116 51740,5125C51756,5144 51784,5144 51801,5124C51809,5114 51822,5111 51837,5115C51851,5118 51879,5112 51907,5099C51951,5079 51956,5079 52019,5094C52086,5109 52190,5110 52397,5094C52470,5089 52496,5090 52522,5103C52549,5116 52574,5117 52667,5110C52729,5105 52783,5099 52788,5096C52804,5086 52870,5113 52870,5129C52870,5138 52851,5163 52827,5185L52785,5226L52710,5222C52523,5212 52393,5222 52383,5246C52376,5264 52356,5264 52340,5245C52331,5234 52323,5233 52310,5240C52284,5254 52213,5252 52187,5238C52175,5231 52154,5225 52140,5223C52126,5221 52103,5218 52089,5216C52073,5213 52046,5220 52021,5234C51982,5254 51971,5255 51907,5248C51867,5243 51825,5234 51813,5228C51801,5222 51777,5221 51758,5225C51740,5228 51698,5234 51665,5237C51632,5240 51600,5246 51594,5251C51588,5256 51570,5260 51554,5259C51517,5258 51420,5228 51420,5218C51420,5204 51340,5210 51315,5226C51296,5239 51264,5242 51165,5241C51096,5241 51036,5239 51032,5236C51021,5230 50896,5251 50883,5262C50876,5268 50855,5269 50837,5266C50818,5262 50771,5266 50731,5275C50691,5283 50658,5289 50657,5289C50656,5288 50633,5284 50605,5280Z" style="fill-rule:nonzero;"/>
        </g>
        <g id="path10" transform="matrix(0.999997,-0.0024975,0.0024975,0.999997,-598.757,207.805)">
            <path d="M42685,5191C42682,5185 42658,5182 42632,5182C42606,5183 42571,5176 42554,5167C42529,5154 42500,5152 42397,5156C42328,5158 42259,5165 42245,5170C42207,5184 42168,5182 42124,5164C42093,5151 42068,5149 42005,5155C41911,5163 41901,5163 41835,5155C41765,5146 41729,5147 41614,5159C41480,5173 41412,5165 41397,5134C41385,5107 41365,5103 41356,5125C41342,5162 41261,5172 40990,5169C40779,5168 40501,5158 40315,5146C40282,5143 40237,5146 40215,5152C40165,5165 40112,5163 40083,5149C40068,5141 40053,5141 40033,5148C40011,5155 39997,5154 39979,5144C39952,5129 39890,5125 39890,5139C39890,5154 39823,5161 39796,5149C39776,5139 39765,5139 39746,5149C39727,5160 39717,5159 39691,5145C39667,5133 39655,5132 39645,5140C39636,5148 39631,5147 39627,5136C39622,5123 39616,5123 39582,5137C39527,5158 39507,5146 39505,5087C39503,5052 39506,5041 39520,5037C39545,5031 39634,5046 39637,5057C39639,5063 39647,5075 39654,5086C39666,5101 39672,5102 39694,5092C39712,5084 39718,5076 39713,5064C39708,5050 39710,5050 39728,5061C39746,5072 39752,5072 39768,5057C39791,5036 39819,5035 39848,5056C39868,5070 39873,5070 39900,5054C39926,5038 39936,5037 39988,5048C40025,5056 40069,5057 40106,5053C40138,5048 40199,5046 40240,5048C40347,5053 40398,5054 40460,5052C40490,5051 40549,5051 40590,5051L40685,5051C40696,5051 40730,5051 40760,5052C40790,5053 40841,5048 40873,5041C40919,5031 40939,5031 40968,5041C40990,5048 41044,5052 41100,5050C41282,5044 41307,5045 41471,5064C41491,5066 41517,5073 41528,5079C41545,5088 41551,5087 41559,5072C41568,5056 41585,5054 41734,5052C41872,5051 41900,5053 41900,5065C41900,5087 41920,5093 41938,5076C41953,5064 41967,5062 42020,5070C42056,5075 42088,5080 42091,5080C42094,5080 42110,5069 42126,5054C42150,5033 42162,5030 42195,5035C42324,5053 42404,5058 42420,5050C42431,5044 42453,5046 42482,5055C42513,5064 42540,5065 42573,5059C42631,5049 42712,5061 42773,5091L42820,5114L42835,5094C42846,5077 42865,5071 42932,5065C43019,5057 43308,5047 43396,5049C43431,5050 43451,5045 43460,5035C43476,5016 43514,5016 43534,5035C43544,5045 43579,5051 43652,5055C43709,5058 43769,5063 43785,5066C43802,5069 43867,5072 43930,5073C44014,5075 44045,5078 44046,5088C44047,5094 44048,5105 44049,5110C44051,5132 44080,5119 44080,5096C44080,5075 44085,5072 44138,5068C44226,5060 44332,5067 44341,5082C44354,5102 44352,5137 44336,5152C44320,5169 44176,5167 44112,5149C44077,5139 44064,5140 44044,5151C44030,5158 44003,5163 43984,5162C43945,5159 43907,5159 43835,5162C43808,5163 43765,5163 43740,5162C43715,5161 43668,5163 43635,5165C43602,5167 43537,5172 43490,5175C43444,5179 43400,5186 43393,5192C43377,5205 43313,5196 43252,5173C43218,5160 43204,5159 43184,5169C43151,5184 43124,5183 43074,5165C43041,5154 43019,5153 42971,5161C42937,5166 42874,5168 42831,5166C42763,5162 42748,5164 42729,5181C42704,5202 42694,5205 42685,5191Z" style="fill-rule:nonzero;"/>
        </g>
        <g id="path12" transform="matrix(0.999997,-0.0024975,0.0024975,0.999997,-423.758,269.05)">
            <path d="M37125,5137C37108,5129 37089,5116 37081,5107C37067,5089 37040,5084 37040,5099C37040,5121 36944,5137 36840,5134C36723,5129 36674,5128 36615,5129C36593,5130 36553,5129 36525,5128C36498,5127 36459,5128 36440,5129C36391,5133 36164,5123 36108,5114C36080,5110 36055,5112 36048,5117C36027,5134 35939,5141 35923,5128C35905,5113 35657,5109 35607,5123C35581,5130 35563,5130 35547,5122C35517,5108 35418,5100 35399,5110C35390,5116 35363,5114 35334,5106C35307,5099 35276,5096 35265,5100C35236,5111 35139,5100 35112,5083C35093,5071 35086,5071 35073,5082C35059,5093 34953,5103 34865,5100C34849,5100 34813,5099 34785,5099C34720,5100 34677,5083 34686,5061C34689,5052 34693,5034 34694,5020C34695,4995 34695,4995 34830,4988C34904,4984 35017,4984 35080,4987C35143,4991 35213,4992 35235,4990C35284,4986 35313,4987 35414,4992C35482,4995 35495,4998 35508,5018C35526,5046 35560,5047 35567,5020C35574,4994 35609,4985 35673,4996C35702,5000 35749,5003 35779,5003C35815,5002 35838,5007 35848,5017C35862,5031 35865,5030 35876,5015C35896,4989 36007,4986 36056,5010C36078,5022 36098,5026 36104,5021C36110,5016 36136,5009 36162,5006C36198,5001 36215,5003 36235,5016C36249,5025 36263,5030 36267,5027C36270,5023 36278,5028 36285,5037C36300,5057 36320,5046 36313,5022C36309,5005 36317,5002 36373,4997C36409,4994 36452,4995 36468,5000C36494,5007 36616,5012 36727,5011C36745,5010 36762,5015 36765,5020C36769,5026 36777,5027 36783,5023C36798,5014 37020,5013 37014,5022C37007,5033 37058,5082 37070,5075C37078,5070 37078,5064 37070,5055C37051,5032 37070,5010 37109,5009C37329,5003 38274,5018 38305,5028C38324,5034 38344,5034 38360,5028C38374,5023 38406,5021 38432,5025C38462,5028 38486,5026 38499,5018C38515,5008 38529,5008 38565,5018C38596,5026 38617,5027 38629,5020C38642,5013 38663,5015 38699,5026C38726,5034 38761,5038 38775,5034C38794,5029 38806,5033 38821,5049C38840,5069 38881,5079 38879,5063C38874,5035 38883,5030 38938,5030C38969,5031 39027,5031 39065,5031C39104,5031 39167,5033 39205,5035C39244,5037 39283,5039 39293,5039C39303,5040 39310,5048 39310,5059C39310,5070 39315,5082 39320,5085C39335,5094 39332,5104 39311,5117C39292,5129 39210,5116 39210,5100C39210,5096 39201,5090 39189,5087C39177,5084 39171,5077 39174,5071C39182,5059 39163,5047 39149,5055C39142,5060 39144,5070 39155,5087C39167,5105 39169,5115 39160,5125C39154,5133 39142,5136 39135,5134C39128,5131 39112,5134 39100,5140C39078,5152 38987,5142 38917,5120C38901,5115 38881,5115 38872,5120C38862,5124 38809,5133 38752,5139C38668,5148 38644,5147 38622,5136C38601,5125 38584,5125 38545,5132C38499,5142 38439,5143 38313,5139C38286,5138 38252,5138 38235,5140C38219,5142 38187,5140 38165,5137C38127,5130 38055,5128 37980,5132C37961,5132 37891,5131 37826,5128C37753,5124 37700,5126 37690,5132C37678,5140 37665,5138 37644,5127C37603,5106 37532,5096 37506,5108C37495,5113 37457,5126 37422,5135C37369,5151 37355,5151 37321,5140C37284,5128 37268,5129 37185,5144C37169,5147 37141,5144 37125,5137Z" style="fill-rule:nonzero;"/>
        </g>
        <g id="path14" transform="matrix(0.999997,-0.0024975,0.0024975,0.999997,-368.931,279.301)">
            <path d="M33820,5090C33798,5078 33775,5073 33758,5076C33726,5082 33652,5091 33630,5091C33598,5091 33550,5077 33550,5069C33550,5064 33540,5066 33528,5074C33511,5085 33472,5089 33380,5089C33311,5090 33246,5090 33235,5091C33197,5093 33135,5077 33127,5063C33123,5056 33110,5050 33100,5050C33089,5050 33081,5046 33083,5041C33084,5036 33081,5031 33075,5031C33070,5030 33064,5038 33062,5050C33059,5065 33051,5070 33027,5071C33009,5072 32975,5074 32950,5076C32870,5082 32826,5079 32813,5068C32804,5061 32792,5060 32777,5067C32765,5072 32700,5077 32633,5077C32566,5078 32506,5081 32501,5085C32488,5093 32422,5081 32414,5069C32408,5059 32331,5068 32314,5081C32305,5089 32273,5085 32240,5073C32226,5067 32102,5062 31890,5059C31838,5059 31776,5061 31753,5065C31723,5070 31702,5067 31679,5056C31650,5042 31643,5042 31602,5056C31551,5073 31558,5073 31363,5066C31275,5063 31213,5057 31198,5049C31186,5042 31169,5037 31163,5038C31156,5040 31150,5034 31150,5025C31150,5017 31143,5010 31135,5010C31127,5010 31120,5016 31120,5024C31120,5046 31106,5051 31021,5063C30901,5079 30864,5077 30750,5050C30723,5043 30675,5041 30630,5046C30589,5049 30522,5052 30481,5051C30415,5050 30403,5047 30380,5025C30353,5000 30353,5000 30335,5020C30297,5062 30190,5068 30190,5029C30190,5004 30172,5005 30149,5032C30131,5052 30047,5074 30034,5061C30031,5058 29989,5054 29942,5053C29834,5051 29738,5041 29726,5030C29721,5025 29678,5024 29629,5027C29571,5031 29531,5029 29512,5021C29488,5011 29476,5012 29444,5025C29422,5034 29386,5041 29363,5040C29339,5039 29305,5038 29288,5038C29105,5040 29027,5039 28980,5032C28950,5028 28891,5027 28850,5030C28695,5042 28493,5029 28506,5009C28508,5005 28500,4994 28486,4985C28459,4967 28461,4936 28488,4925C28518,4913 28644,4911 28657,4922C28666,4929 28679,4929 28702,4921C28735,4909 28800,4916 28800,4931C28800,4942 28828,4956 28869,4965C28898,4971 28902,4970 28897,4956C28892,4945 28896,4940 28910,4940C28921,4940 28930,4945 28930,4950C28930,4967 28955,4961 28973,4939C28985,4926 28997,4921 29011,4925C29023,4929 29042,4925 29057,4915C29078,4901 29089,4900 29124,4909C29146,4916 29176,4921 29190,4920C29204,4920 29270,4923 29336,4926C29410,4930 29460,4928 29463,4923C29467,4917 29489,4916 29520,4921C29566,4928 29897,4935 30044,4931C30076,4930 30109,4935 30116,4941C30126,4949 30143,4949 30177,4942C30217,4933 30525,4931 30525,4940C30525,4949 30588,4947 30609,4936C30623,4929 30649,4925 30665,4927C30682,4929 30760,4932 30840,4934C30920,4935 30992,4940 31002,4944C31011,4948 31031,4945 31049,4935C31069,4925 31086,4922 31098,4928C31128,4943 31423,4949 31529,4936C31575,4931 31600,4932 31617,4941C31637,4952 31646,4951 31672,4936C31703,4917 31703,4917 31756,4945C31806,4971 31814,4973 31858,4962C31889,4955 31922,4955 31955,4961C31988,4967 32013,4967 32030,4960C32059,4948 32132,4952 32171,4968C32190,4976 32204,4975 32221,4967C32257,4949 32428,4951 32440,4969C32447,4981 32451,4982 32465,4970C32477,4960 32518,4956 32616,4956C32733,4955 32754,4957 32767,4972C32786,4993 32820,4996 32820,4977C32820,4967 32835,4965 32893,4972C32939,4977 32977,4976 32998,4969C33025,4960 33036,4961 33057,4975C33078,4989 33089,4990 33119,4982C33180,4964 33225,4961 33250,4975C33266,4984 33283,4985 33304,4979C33321,4974 33352,4970 33373,4970C33394,4970 33421,4965 33432,4959C33458,4945 33580,4966 33580,4985C33580,4992 33586,5003 33594,5009C33605,5018 33614,5015 33635,4995C33660,4969 33665,4968 33763,4970L33885,4970C33896,4969 34006,4969 34130,4970L34390,4970C34432,4969 34533,4977 34577,4985C34614,4992 34630,5014 34630,5060C34630,5099 34604,5110 34530,5100C34500,5096 34470,5095 34464,5097C34457,5099 34449,5097 34445,5091C34436,5076 34389,5077 34348,5094C34319,5107 34308,5107 34274,5095C34247,5086 34221,5084 34191,5090C34165,5095 34135,5094 34118,5088C34102,5082 34082,5082 34072,5086C34063,5091 34028,5095 33995,5096C33962,5096 33917,5100 33895,5104C33865,5109 33847,5105 33820,5090Z" style="fill-rule:nonzero;"/>
        </g>
        <g id="path16" transform="matrix(0.999997,-0.0024975,0.0024975,0.999997,-104.048,300.722)">
            <path d="M24415,5025C24399,5017 24377,5013 24368,5016C24345,5023 24310,4982 24310,4949C24310,4917 24299,4907 24244,4892C24173,4871 24110,4882 24110,4914C24110,4922 24104,4933 24096,4939C24088,4946 24083,4960 24085,4970C24088,4983 24084,4987 24074,4983C24066,4980 24054,4982 24047,4988C24023,5008 23965,5013 23951,4996C23934,4976 23913,4976 23876,4995C23844,5012 23780,5015 23780,5000C23780,4983 23754,4989 23735,5010C23714,5033 23694,5036 23687,5017C23684,5008 23657,5001 23614,4997C23565,4992 23541,4985 23524,4969C23505,4951 23494,4949 23458,4954C23434,4958 23400,4962 23383,4963C23365,4964 23350,4968 23350,4971C23350,4988 23315,4988 23284,4972L23249,4954L23270,4930C23289,4909 23289,4905 23276,4902C23229,4892 23283,4866 23336,4872C23360,4874 23364,4879 23362,4898C23359,4916 23364,4920 23384,4920C23405,4920 23409,4916 23407,4898C23405,4876 23409,4875 23475,4874L23545,4872L23517,4894C23466,4935 23498,4961 23558,4928C23579,4916 23612,4910 23650,4910C23685,4910 23712,4905 23716,4898C23720,4892 23718,4884 23712,4882C23705,4880 23692,4871 23683,4862C23668,4847 23670,4844 23711,4832C23795,4808 23864,4806 23914,4826C23939,4837 23963,4853 23966,4862C23972,4882 24006,4893 24041,4888C24060,4886 24065,4879 24065,4858C24065,4823 24080,4809 24116,4810C24276,4814 24336,4820 24372,4836C24405,4851 24419,4852 24463,4843C24509,4834 24518,4835 24559,4857C24592,4875 24622,4882 24667,4883C24700,4884 24726,4889 24723,4893C24716,4904 24750,4929 24773,4930C24786,4930 24790,4923 24788,4898C24785,4866 24786,4865 24825,4867C24847,4869 24868,4876 24873,4885C24883,4903 24917,4905 24923,4888C24926,4878 24954,4875 25026,4877C25155,4879 25256,4880 25300,4879C25319,4879 25358,4883 25385,4888C25425,4896 25440,4895 25462,4882C25486,4868 25491,4868 25512,4882C25542,4901 25610,4912 25625,4900C25632,4894 25665,4887 25698,4884C25747,4878 25765,4881 25786,4895C25810,4910 25814,4911 25822,4897C25833,4877 25887,4865 25904,4879C25913,4886 26028,4891 26241,4894C26419,4896 26578,4900 26595,4903C26611,4906 26645,4905 26670,4900C26695,4895 26731,4895 26750,4899C26782,4906 26785,4909 26782,4939C26775,5005 26761,5010 26602,5007C26496,5006 26460,5002 26460,4993C26460,4986 26455,4980 26449,4980C26444,4980 26441,4984 26445,4989C26455,5006 26429,5013 26404,5000C26386,4990 26374,4989 26355,4998C26338,5006 26322,5006 26305,5000C26289,4994 26261,4994 26229,5000C26164,5012 26050,5012 25985,4999C25917,4985 25916,4986 25822,5003C25749,5017 25735,5017 25704,5004C25684,4995 25659,4992 25647,4996C25610,5008 25545,5006 25545,4993C25545,4973 25531,4966 25524,4984C25519,4997 25503,5000 25440,5000C25396,5000 25358,4996 25355,4990C25346,4976 25257,4977 25242,4992C25233,5001 25211,5001 25148,4992C25042,4977 24987,4975 24925,4986C24860,4997 24716,4994 24712,4982C24707,4965 24582,4977 24552,4998C24528,5016 24502,5026 24460,5035C24452,5037 24432,5032 24415,5025Z" style="fill-rule:nonzero;"/>
        </g>
        <g id="path18" transform="matrix(0.999997,-0.0024975,0.0024975,0.999997,-101.213,277.418)">
            <path d="M26934,5014C26907,5007 26877,5003 26867,5006C26842,5014 26780,5002 26780,4989C26780,4984 26791,4975 26805,4970C26819,4965 26830,4953 26830,4942C26830,4892 26912,4878 27083,4898C27137,4904 27180,4903 27224,4895C27264,4887 27294,4886 27304,4892C27313,4897 27329,4898 27340,4895C27351,4892 27368,4893 27378,4899C27399,4910 27442,4912 27565,4907C27609,4905 27655,4907 27666,4911C27680,4916 27695,4913 27708,4905C27724,4893 27739,4893 27786,4902C27819,4908 27870,4916 27900,4920C27930,4924 27949,4928 27941,4929C27933,4929 27930,4933 27933,4936C27937,4940 27946,4937 27954,4931C27965,4922 27974,4922 27988,4929C27999,4935 28010,4937 28013,4933C28017,4930 28026,4933 28035,4940C28048,4951 28057,4950 28088,4937C28145,4912 28194,4911 28198,4933C28201,4948 28198,4951 28182,4946C28158,4938 28147,4953 28148,4990C28149,5016 28146,5017 28102,5017C28076,5017 28025,5020 27989,5025C27953,5029 27880,5029 27827,5025C27744,5019 27730,5016 27730,5001C27730,4983 27701,4950 27685,4950C27673,4950 27651,4983 27650,5003C27650,5016 27645,5020 27633,5016C27623,5013 27599,5008 27578,5005C27554,5000 27533,4987 27514,4964C27479,4922 27456,4918 27470,4956C27483,4989 27476,5000 27440,5000C27424,5000 27408,5005 27405,5010C27401,5016 27377,5020 27352,5020L27256,5020C27229,5020 27201,5015 27194,5009C27184,5001 27172,5001 27153,5008C27137,5014 27110,5017 27091,5016C27073,5014 27041,5016 27020,5020C26999,5024 26962,5021 26934,5014Z" style="fill-rule:nonzero;"/>
        </g>
        <g id="path20" transform="matrix(0.999997,-0.0024975,0.0024975,0.999997,-50.0564,306.916)">
            <path d="M22655,4977C22627,4972 22594,4968 22580,4969C22493,4972 22464,4969 22443,4954C22421,4940 22416,4940 22395,4954C22364,4974 22272,4975 22246,4955C22223,4937 22184,4935 22174,4951C22171,4957 22156,4960 22143,4957C22129,4955 22100,4959 22079,4968C22044,4982 22038,4982 22022,4967C22007,4954 22002,4953 21980,4965C21947,4984 21919,4983 21892,4964C21878,4954 21853,4949 21827,4951C21804,4952 21768,4950 21747,4946C21721,4940 21695,4942 21669,4950C21635,4962 21628,4961 21610,4945C21591,4928 21589,4928 21554,4945C21522,4960 21509,4961 21468,4951C21428,4942 21414,4943 21385,4957C21356,4971 21341,4972 21302,4963C21276,4958 21230,4955 21200,4957C21115,4964 21090,4963 21020,4951C20984,4944 20924,4940 20885,4941C20800,4944 20781,4944 20656,4934C20583,4929 20556,4930 20550,4939C20545,4949 20533,4949 20506,4942C20486,4936 20445,4934 20415,4937C20384,4940 20360,4939 20360,4934C20360,4928 20347,4916 20330,4907C20314,4897 20300,4881 20300,4871C20300,4862 20295,4849 20288,4842C20270,4824 20321,4810 20403,4812C20474,4813 20508,4822 20523,4844C20528,4851 20535,4849 20544,4838C20558,4818 20595,4814 20605,4830C20613,4843 20696,4843 20720,4830C20734,4823 20749,4824 20775,4837C20808,4853 20812,4853 20839,4837C20854,4828 20875,4823 20886,4825C20902,4829 21044,4840 21075,4840C21122,4840 21308,4829 21317,4825C21324,4823 21341,4832 21354,4845C21377,4868 21420,4879 21420,4863C21420,4847 21515,4851 21533,4868C21548,4882 21553,4882 21560,4870C21565,4862 21567,4853 21564,4849C21557,4836 21655,4828 21683,4839C21699,4845 21728,4850 21749,4850C21769,4850 21790,4854 21796,4860C21802,4866 21820,4865 21845,4859C21893,4846 22319,4845 22370,4857C22397,4864 22401,4867 22388,4873C22378,4876 22370,4889 22370,4900C22370,4921 22384,4927 22395,4910C22398,4905 22413,4900 22427,4900C22450,4900 22452,4897 22447,4871C22439,4833 22445,4829 22485,4846C22527,4863 22584,4864 22610,4848C22625,4838 22637,4838 22662,4847C22696,4859 22755,4861 22948,4857L23061,4855L23095,4889C23123,4915 23136,4921 23160,4918C23197,4912 23208,4935 23177,4955C23161,4965 23127,4969 23062,4969C23012,4969 22967,4971 22962,4974C22958,4976 22938,4975 22919,4971C22899,4966 22844,4968 22794,4974C22738,4981 22685,4982 22655,4977Z" style="fill-rule:nonzero;"/>
        </g>
        <g id="path22" transform="matrix(0.999997,-0.0024975,0.0024975,0.999997,-30.8034,301.556)">
            <path d="M19978,4935C19965,4922 19651,4907 19505,4913C19467,4915 19425,4912 19413,4907C19397,4900 19387,4901 19376,4912C19365,4923 19339,4926 19263,4925C19209,4923 19163,4922 19160,4921C19157,4921 19155,4905 19155,4888C19155,4859 19152,4855 19130,4855C19112,4855 19105,4861 19104,4875C19103,4886 19102,4901 19101,4908C19099,4929 19043,4922 19020,4898L18999,4876L18932,4899C18876,4918 18857,4920 18827,4912C18808,4906 18788,4905 18785,4908C18782,4912 18736,4915 18685,4916C18611,4917 18590,4914 18586,4903C18582,4892 18566,4889 18530,4891C18503,4893 18477,4891 18474,4887C18470,4883 18455,4879 18441,4879C18425,4878 18422,4876 18432,4873C18452,4868 18463,4843 18449,4835C18430,4823 18398,4841 18403,4861C18406,4872 18403,4880 18397,4880C18377,4879 18348,4852 18355,4841C18359,4834 18352,4830 18338,4831C18325,4831 18321,4834 18328,4837C18338,4841 18338,4845 18329,4856C18323,4864 18321,4870 18325,4870C18330,4870 18325,4879 18315,4890C18292,4915 18289,4915 18261,4889C18241,4870 18235,4869 18215,4880C18202,4887 18163,4892 18128,4892C17989,4889 17864,4878 17843,4868C17826,4860 17807,4861 17763,4873C17718,4886 17679,4888 17588,4883C17522,4880 17470,4873 17470,4867C17470,4862 17464,4863 17456,4869C17449,4875 17412,4880 17374,4879C17336,4879 17275,4883 17238,4890C17153,4905 17125,4894 17134,4848C17137,4831 17140,4812 17140,4805C17140,4784 17172,4778 17191,4796C17203,4807 17218,4810 17236,4806C17250,4802 17268,4804 17275,4810C17284,4818 17292,4816 17304,4805C17317,4792 17344,4788 17428,4786C17487,4785 17541,4788 17548,4793C17556,4799 17565,4798 17574,4791C17584,4782 17594,4782 17607,4788C17617,4794 17651,4796 17682,4794C17739,4790 17739,4790 17737,4818C17735,4844 17737,4845 17780,4845C17819,4845 17825,4842 17828,4823C17831,4803 17838,4800 17871,4800C17893,4800 17920,4805 17930,4810C17943,4817 17951,4817 17955,4810C17959,4804 17982,4800 18008,4800C18034,4801 18081,4797 18113,4792C18158,4785 18175,4786 18191,4798C18203,4806 18220,4809 18233,4805C18245,4802 18335,4797 18433,4794C18531,4792 18619,4786 18628,4782C18651,4771 18916,4776 18960,4787C18979,4792 19008,4793 19024,4789C19040,4784 19119,4784 19199,4789C19279,4793 19364,4796 19387,4794C19412,4793 19434,4797 19440,4805C19447,4813 19461,4816 19473,4813C19485,4810 19545,4806 19605,4806C19692,4805 19722,4808 19750,4822C19792,4844 19820,4845 19846,4826C19864,4812 19908,4814 19920,4829C19923,4832 19933,4841 19943,4849C19958,4861 19964,4860 19985,4840C20001,4825 20021,4817 20040,4818C20085,4821 20092,4820 20132,4814C20161,4809 20172,4812 20186,4828C20199,4843 20212,4847 20239,4844C20259,4842 20270,4842 20263,4846C20255,4850 20254,4859 20260,4875C20267,4894 20266,4902 20252,4908C20229,4920 20210,4912 20210,4890C20210,4867 20193,4854 20152,4847C20122,4841 20118,4843 20103,4874C20093,4896 20082,4906 20073,4903C20066,4900 20052,4904 20042,4913C20022,4930 19986,4943 19978,4935Z" style="fill-rule:nonzero;"/>
        </g>
        <g id="path24" transform="matrix(0.999997,-0.0024975,0.0024975,0.999997,166.371,349.625)">
            <path d="M12006,4883C12003,4879 11985,4875 11968,4874C11876,4868 11854,4860 11843,4830C11834,4807 11835,4798 11846,4789C11865,4773 11863,4750 11843,4749C11813,4747 11795,4751 11791,4761C11786,4777 11736,4820 11724,4820C11717,4820 11710,4812 11707,4801C11705,4791 11690,4780 11674,4777C11639,4771 11630,4775 11630,4801C11630,4821 11612,4825 11545,4820C11502,4817 11498,4812 11514,4782C11521,4767 11525,4749 11523,4743C11520,4734 11529,4730 11549,4730C11565,4730 11591,4725 11606,4719C11628,4711 11641,4713 11666,4726C11696,4743 11701,4742 11755,4726C11809,4708 11813,4708 11845,4726C11875,4742 11882,4742 11905,4730C11929,4717 11933,4718 11941,4733C11949,4747 11955,4748 11972,4739C11987,4731 11998,4731 12015,4740C12033,4750 12043,4749 12068,4736C12090,4725 12112,4722 12139,4726C12170,4731 12187,4728 12216,4710C12251,4688 12254,4688 12284,4703C12301,4712 12338,4722 12367,4725C12410,4731 12419,4735 12424,4756C12432,4785 12456,4788 12465,4760C12470,4744 12475,4742 12490,4750C12512,4762 12597,4758 12625,4744C12648,4733 12840,4733 12912,4745C12946,4750 12964,4749 12975,4740C12991,4727 13096,4734 13115,4750C13121,4755 13150,4756 13180,4754C13269,4747 13354,4751 13361,4762C13366,4770 13374,4768 13385,4757C13406,4735 13444,4735 13480,4757C13504,4771 13513,4772 13536,4762C13557,4752 13568,4752 13591,4762C13607,4769 13620,4778 13620,4782C13620,4797 13651,4790 13657,4775C13662,4761 13665,4761 13682,4777C13701,4794 13703,4794 13714,4778C13723,4766 13740,4761 13779,4762C13810,4763 13825,4767 13818,4772C13808,4778 13809,4780 13822,4780C13831,4780 13840,4774 13843,4768C13848,4751 14055,4751 14072,4768C14087,4783 14091,4808 14085,4837C14081,4856 14075,4858 14037,4853C13976,4846 13821,4850 13775,4860C13744,4867 13732,4866 13718,4853C13704,4840 13688,4839 13643,4844C13536,4857 13332,4856 13319,4843C13302,4826 13275,4827 13225,4846C13170,4866 13028,4874 12984,4860C12962,4852 12945,4852 12937,4858C12930,4864 12882,4864 12815,4859C12755,4855 12695,4854 12683,4857C12671,4860 12647,4855 12630,4847C12603,4833 12597,4833 12570,4847C12547,4858 12532,4859 12511,4852C12484,4842 12328,4844 12248,4855C12217,4859 12210,4857 12204,4838L12197,4816L12181,4837C12168,4852 12147,4860 12102,4865C12068,4869 12037,4876 12034,4881C12028,4892 12016,4893 12006,4883Z" style="fill-rule:nonzero;"/>
        </g>
        <g id="path26" transform="matrix(0.999997,-0.0024975,0.0024975,0.999997,39.4428,317.036)">
            <path d="M15710,4876C15701,4867 15644,4858 15593,4859C15560,4860 15549,4846 15573,4836C15581,4833 15580,4828 15568,4820C15543,4805 15546,4796 15579,4784C15598,4776 15613,4776 15625,4782C15636,4789 15646,4788 15653,4781C15659,4775 15680,4770 15700,4770C15730,4770 15737,4774 15747,4800C15760,4835 15783,4839 15804,4809C15828,4774 16013,4762 16151,4786C16174,4790 16190,4788 16194,4781C16198,4775 16226,4770 16257,4770C16303,4770 16313,4773 16317,4790C16324,4815 16344,4816 16369,4791C16389,4771 16421,4772 16447,4792C16454,4797 16464,4799 16470,4795C16488,4784 16572,4780 16605,4789C16626,4795 16649,4793 16672,4785C16692,4779 16734,4774 16766,4775C16848,4777 16850,4778 16850,4796C16850,4810 16852,4810 16866,4799C16881,4787 16885,4788 16898,4808C16916,4835 16930,4836 16930,4810C16930,4796 16941,4788 16970,4780C17022,4766 17043,4773 17057,4809C17066,4835 17065,4840 17041,4857C17018,4874 17002,4876 16915,4873C16860,4871 16809,4869 16803,4870C16796,4870 16782,4870 16773,4869C16763,4869 16694,4868 16619,4867C16529,4866 16478,4861 16468,4853C16459,4845 16450,4844 16444,4850C16431,4863 16332,4883 16300,4880C16245,4875 16224,4876 16204,4883C16189,4888 16177,4885 16166,4875C16152,4861 16147,4861 16114,4875C16094,4883 16075,4888 16070,4885C16062,4880 15997,4879 15832,4883C15770,4884 15715,4881 15710,4876Z" style="fill-rule:nonzero;"/>
        </g>
        <g id="path32" transform="matrix(0.999997,-0.0024975,0.0024975,0.999997,539.478,393.535)">
            <path d="M9332,4820C9313,4804 9304,4803 9288,4811C9274,4819 9239,4819 9171,4812C9118,4807 9050,4802 9020,4802C8990,4801 8952,4800 8937,4799C8921,4798 8884,4803 8854,4810C8812,4820 8794,4821 8774,4811C8752,4801 8744,4802 8730,4815C8701,4841 8505,4826 8470,4795C8451,4778 8457,4778 8307,4811C8254,4823 8217,4809 8205,4770C8197,4743 8219,4694 8245,4682C8273,4669 8315,4672 8315,4687C8315,4706 8383,4769 8403,4770C8413,4770 8425,4759 8430,4746C8441,4716 8477,4690 8497,4697C8505,4700 8516,4714 8521,4727C8534,4761 8575,4756 8575,4720C8575,4690 8604,4665 8628,4676C8637,4680 8694,4684 8753,4685C8860,4687 8903,4699 8871,4719C8851,4732 8862,4765 8888,4768C8913,4772 8915,4768 8898,4739C8876,4704 8910,4689 9010,4689L9130,4689C9149,4688 9186,4691 9213,4695C9248,4701 9260,4700 9260,4690C9260,4681 9264,4680 9273,4688C9280,4694 9316,4702 9352,4706C9389,4710 9419,4715 9418,4719C9416,4738 9423,4739 9446,4723C9463,4712 9497,4705 9544,4704C9583,4702 9637,4699 9664,4696C9696,4693 9720,4696 9732,4704C9746,4714 9781,4717 9868,4713C9978,4709 10151,4726 10132,4739C10127,4742 10124,4758 10124,4775C10125,4802 10122,4805 10080,4812C10055,4816 10020,4815 9997,4809C9958,4799 9874,4806 9854,4821C9848,4826 9810,4827 9769,4824C9728,4820 9679,4818 9658,4818C9623,4819 9599,4798 9620,4785C9638,4774 9630,4750 9610,4750C9592,4750 9583,4776 9589,4813C9589,4817 9581,4820 9570,4820C9559,4820 9550,4825 9550,4830C9550,4846 9520,4842 9486,4821C9456,4802 9454,4802 9415,4820C9365,4844 9360,4844 9332,4820Z" style="fill-rule:nonzero;"/>
        </g>
        <g id="path34" transform="matrix(0.999997,-0.0024975,0.0024975,0.999997,512.877,376.529)">
            <path d="M10398,4813C10374,4803 10348,4801 10305,4806C10230,4816 10218,4814 10201,4789C10194,4779 10181,4770 10174,4770C10166,4770 10160,4765 10160,4759C10160,4754 10164,4751 10168,4754C10173,4757 10189,4752 10204,4744C10220,4737 10250,4730 10271,4730C10303,4730 10313,4735 10320,4753L10329,4775L10336,4753C10344,4725 10372,4715 10400,4730C10422,4742 10469,4736 10507,4718C10525,4709 10535,4712 10562,4730C10580,4742 10587,4749 10578,4746C10554,4739 10555,4762 10578,4776C10598,4789 10622,4777 10633,4750C10637,4740 10639,4741 10639,4756C10641,4792 10700,4805 10700,4770C10700,4759 10705,4750 10711,4750C10717,4750 10720,4744 10717,4736C10709,4715 10765,4693 10785,4710C10804,4726 10804,4740 10784,4740C10775,4740 10770,4747 10772,4758C10775,4772 10785,4775 10823,4773C10849,4771 10870,4774 10870,4779C10870,4784 10873,4795 10876,4804C10881,4818 10869,4820 10774,4820C10714,4820 10647,4815 10626,4810C10604,4805 10581,4804 10576,4808C10546,4827 10438,4830 10398,4813Z" style="fill-rule:nonzero;"/>
        </g>
        <g id="path36" transform="matrix(0.999997,-0.0024975,0.0024975,0.999997,602.843,413.386)">
            <path d="M7910,4797C7880,4778 7860,4775 7780,4774C7728,4774 7649,4770 7604,4766C7537,4760 7522,4761 7511,4774C7501,4786 7493,4787 7479,4779C7468,4774 7450,4772 7440,4775C7423,4780 7322,4787 7205,4791C7194,4792 7151,4788 7110,4782C7063,4776 7031,4776 7023,4782C7016,4788 6977,4788 6929,4784C6840,4777 6781,4750 6780,4717C6780,4688 6737,4699 6730,4730C6724,4754 6721,4755 6650,4752C6598,4750 6572,4754 6561,4764C6548,4775 6533,4776 6490,4769C6460,4764 6423,4755 6407,4749C6386,4740 6369,4740 6336,4750C6289,4763 6244,4765 6161,4759C6117,4756 6106,4752 6099,4733C6087,4701 6066,4703 6074,4735C6080,4757 6077,4760 6056,4760C6042,4760 6020,4765 6006,4771C5986,4781 5978,4780 5965,4766C5956,4757 5942,4750 5934,4750C5918,4750 5915,4734 5930,4725C5947,4714 5941,4682 5920,4675C5909,4672 5900,4662 5900,4654C5900,4636 5947,4617 5969,4625C6001,4638 6036,4643 6088,4641C6116,4640 6155,4639 6173,4638C6222,4636 6330,4646 6336,4653C6340,4656 6356,4652 6373,4644C6396,4632 6408,4631 6424,4639C6447,4651 6501,4661 6541,4660C6568,4660 6592,4691 6571,4698C6548,4706 6562,4716 6590,4712C6606,4710 6626,4697 6635,4684C6648,4664 6659,4660 6693,4661C6751,4663 6812,4679 6805,4690C6796,4705 6818,4702 6845,4684C6882,4660 6935,4651 6978,4662C6998,4667 7058,4670 7110,4669C7162,4668 7221,4667 7240,4667C7301,4665 7435,4681 7444,4690C7453,4699 7477,4693 7500,4675C7509,4668 7538,4664 7575,4667C7608,4668 7678,4672 7730,4673C7783,4675 7844,4684 7869,4693C7908,4707 7915,4707 7936,4693C7949,4685 7963,4681 7968,4684C7972,4686 7994,4685 8015,4680C8048,4673 8058,4674 8075,4689C8086,4699 8105,4711 8118,4715C8132,4719 8140,4729 8140,4744C8140,4763 8129,4772 8089,4789C8014,4822 7953,4825 7910,4797Z" style="fill-rule:nonzero;"/>
        </g>
        <g id="path38" transform="matrix(0.999997,-0.0024975,0.0024975,0.999997,227.071,374.249)">
            <path d="M11218,4813C11208,4811 11200,4805 11200,4800C11200,4795 11190,4782 11178,4770C11166,4759 11160,4747 11164,4743C11168,4739 11220,4735 11280,4736C11368,4736 11393,4739 11408,4753C11418,4762 11429,4768 11432,4765C11435,4762 11440,4766 11443,4774C11451,4795 11431,4808 11384,4811C11355,4813 11337,4809 11326,4797C11308,4780 11280,4786 11265,4810C11259,4820 11248,4821 11218,4813Z" style="fill-rule:nonzero;"/>
        </g>
        <g id="path44" transform="matrix(0.999997,-0.0024975,0.0024975,0.999997,458.725,434.888)">
            <path d="M4966,4749C4956,4743 4932,4740 4912,4743C4893,4747 4868,4744 4857,4738C4845,4732 4797,4728 4748,4728C4662,4729 4649,4725 4670,4704C4678,4696 4676,4689 4665,4680C4653,4670 4646,4670 4638,4678C4631,4685 4629,4690 4633,4690C4637,4690 4636,4699 4630,4710C4623,4723 4609,4730 4592,4730C4556,4730 4543,4720 4539,4690C4536,4671 4529,4665 4510,4665C4489,4665 4485,4669 4487,4692C4488,4716 4484,4720 4452,4727C4404,4736 4073,4736 4038,4727C4022,4723 4010,4713 4010,4705C4010,4696 4004,4693 3995,4696C3987,4700 3973,4697 3965,4690C3948,4676 3898,4687 3828,4722C3789,4741 3767,4740 3663,4718C3621,4709 3603,4710 3560,4724C3532,4733 3501,4738 3491,4735C3482,4732 3449,4734 3419,4740C3383,4747 3364,4747 3362,4740C3360,4735 3348,4730 3335,4730C3323,4730 3293,4723 3269,4715C3240,4704 3218,4702 3200,4708C3166,4720 3139,4709 3120,4674C3111,4658 3095,4643 3086,4642C3070,4639 3069,4643 3075,4679C3081,4717 3080,4720 3058,4722C3046,4722 3024,4724 3010,4726C2923,4734 2890,4731 2847,4710C2813,4693 2798,4690 2783,4698C2763,4709 2670,4707 2651,4695C2645,4692 2620,4692 2596,4695C2571,4699 2544,4698 2534,4692C2520,4684 2513,4686 2504,4698C2494,4711 2485,4712 2429,4701C2394,4694 2355,4683 2343,4678C2331,4672 2306,4667 2288,4666C2270,4665 2252,4661 2248,4655C2243,4649 2240,4651 2240,4660C2240,4695 2161,4715 2076,4702C2031,4696 1998,4670 2034,4670C2058,4670 2053,4652 2028,4648C2009,4646 2005,4639 2005,4607C2005,4562 2019,4556 2095,4565C2123,4568 2152,4570 2160,4570C2168,4569 2216,4567 2265,4566C2315,4564 2360,4562 2365,4560C2376,4557 2403,4565 2432,4581C2459,4595 2491,4592 2512,4573C2527,4560 2538,4558 2573,4566C2596,4572 2629,4573 2644,4569C2662,4564 2685,4566 2704,4574C2732,4585 2763,4586 2925,4580C3044,4576 3226,4582 3236,4591C3243,4597 3268,4597 3303,4592C3333,4587 3371,4585 3386,4586C3402,4588 3457,4592 3508,4595C3559,4598 3611,4605 3623,4609C3637,4615 3653,4614 3665,4607C3678,4600 3706,4601 3759,4609C3807,4617 3844,4618 3859,4612C3873,4607 3900,4606 3919,4610C3939,4613 3979,4615 4009,4613C4045,4610 4067,4613 4079,4623C4126,4665 4208,4667 4282,4629C4315,4612 4333,4610 4398,4616C4440,4619 4486,4623 4498,4625C4511,4627 4530,4624 4540,4618C4554,4609 4565,4609 4585,4618C4603,4626 4617,4627 4630,4620C4642,4614 4673,4613 4717,4619C4754,4623 4796,4628 4809,4628C4822,4629 4836,4634 4841,4641C4846,4650 4854,4648 4871,4636C4900,4616 5012,4612 4992,4632C4977,4647 4976,4696 4990,4705C5002,4712 5004,4760 4993,4760C4988,4760 4977,4755 4966,4749Z" style="fill-rule:nonzero;"/>
        </g>
        <g id="path42" transform="matrix(0.999997,-0.0024975,0.0024975,0.999997,531.154,407.636)">
            <path d="M5396,4745C5374,4732 5349,4711 5339,4699C5321,4675 5290,4678 5290,4704C5290,4730 5168,4757 5105,4746C5070,4739 5059,4719 5054,4651L5052,4617L5139,4625C5186,4630 5241,4633 5260,4632C5279,4631 5312,4635 5332,4641C5356,4647 5384,4647 5414,4640C5448,4633 5465,4633 5479,4641C5492,4650 5505,4650 5530,4642C5557,4632 5567,4633 5589,4648C5660,4696 5700,4701 5700,4660C5700,4642 5706,4640 5760,4640C5814,4640 5820,4642 5820,4660C5820,4675 5829,4682 5850,4687C5867,4690 5880,4696 5880,4700C5880,4724 5865,4740 5843,4740C5830,4740 5809,4745 5797,4751C5770,4766 5625,4771 5535,4760C5492,4755 5461,4755 5456,4761C5443,4773 5442,4772 5396,4745Z" style="fill-rule:nonzero;"/>
        </g>
        <g id="path28" transform="matrix(0.999997,-0.00225953,0.00225953,0.999997,57.0171,333.412)">
            <path d="M14864,4862C14850,4854 14827,4851 14811,4855C14796,4858 14764,4854 14740,4846C14716,4838 14693,4833 14689,4835C14680,4841 14590,4808 14590,4798C14590,4794 14603,4790 14618,4790C14633,4790 14651,4785 14657,4779C14662,4774 14683,4769 14701,4770L14760,4770C14774,4769 14794,4769 14805,4770L14881,4770C14923,4769 14939,4773 14943,4784C14951,4805 14980,4804 14996,4783C15007,4767 15023,4765 15117,4768C15176,4769 15232,4770 15240,4771C15248,4771 15299,4770 15353,4767C15409,4765 15453,4767 15456,4772C15460,4778 15477,4779 15495,4776C15514,4772 15531,4774 15534,4779C15538,4784 15530,4790 15518,4792C15502,4794 15494,4803 15491,4820C15487,4851 15472,4862 15442,4855C15429,4852 15412,4854 15404,4861C15395,4868 15380,4869 15363,4864C15312,4850 15246,4851 15178,4866C15112,4882 15110,4881 15075,4860L15040,4838L15014,4859C14983,4883 14907,4885 14864,4862Z" style="fill-rule:nonzero;"/>
        </g>
        <g id="path30" transform="matrix(0.999997,-0.00225953,0.00225953,0.999997,70.3947,371.651)">
            <path d="M14188,4854C14155,4837 14156,4841 14176,4802C14190,4773 14196,4770 14235,4770C14259,4770 14282,4766 14285,4760C14295,4744 14376,4748 14390,4765C14405,4783 14424,4784 14450,4768C14466,4758 14474,4758 14491,4768C14503,4776 14523,4779 14540,4775C14563,4770 14570,4773 14575,4790C14579,4804 14576,4818 14564,4831C14544,4853 14462,4856 14375,4839C14300,4824 14234,4817 14242,4825C14250,4833 14233,4870 14222,4870C14218,4869 14203,4862 14188,4854Z" style="fill-rule:nonzero;"/>
        </g>
        <g transform="matrix(0.999965,-0.00835415,0.00835415,0.999965,-37.129,435.523)">
            <path id="path40" d="M41245,4789C41199,4768 41166,4766 41122,4781C41097,4790 41085,4788 41061,4774C41038,4760 41026,4759 41003,4768C40962,4783 40899,4782 40880,4765C40867,4753 40852,4752 40799,4761C40764,4767 40724,4776 40711,4781C40695,4787 40677,4787 40654,4778C40630,4769 40612,4769 40586,4777C40564,4784 40548,4784 40544,4779C40541,4774 40535,4772 40530,4775C40514,4785 40364,4762 40322,4743C40292,4731 40280,4719 40276,4698C40270,4669 40246,4660 40237,4683C40234,4690 40234,4708 40237,4723C40244,4756 40222,4767 40176,4753C40157,4747 40114,4747 40067,4752C40003,4759 39983,4757 39957,4744C39939,4735 39922,4722 39918,4716C39913,4709 39905,4713 39895,4728C39885,4741 39868,4750 39852,4750C39837,4750 39798,4759 39766,4770C39704,4791 39668,4787 39616,4754C39606,4747 39592,4744 39585,4747C39577,4749 39561,4744 39548,4736C39526,4722 39522,4722 39502,4736C39483,4749 39477,4749 39449,4734C39428,4724 39407,4720 39386,4725C39348,4733 39243,4740 39170,4740C39140,4740 39105,4745 39094,4751C39077,4759 39066,4758 39042,4746C39006,4728 38969,4725 38954,4740C38946,4748 38935,4748 38916,4740C38901,4735 38881,4734 38872,4738C38863,4742 38792,4745 38715,4744C38520,4740 38522,4740 38450,4746C38414,4749 38347,4751 38300,4751C38041,4750 37996,4749 37987,4743C37973,4734 37921,4735 37887,4745C37870,4749 37850,4748 37837,4742C37825,4736 37792,4732 37765,4733C37727,4734 37708,4730 37688,4714C37673,4702 37664,4690 37667,4686C37670,4683 37669,4680 37664,4680C37659,4680 37649,4689 37643,4699C37612,4749 37485,4742 37485,4691C37485,4677 37479,4665 37472,4662C37466,4660 37460,4664 37460,4672C37460,4679 37449,4697 37435,4712C37409,4740 37389,4740 37362,4713C37342,4694 37322,4697 37255,4730C37190,4762 37170,4766 37170,4749C37170,4742 37160,4740 37145,4744C37129,4748 37111,4744 37095,4734C37082,4726 37067,4721 37062,4724C37048,4732 36918,4740 36893,4734C36880,4730 36870,4722 36870,4714C36870,4696 36851,4696 36844,4714C36840,4724 36820,4727 36769,4726C36731,4726 36700,4722 36700,4718C36700,4706 36675,4709 36663,4721C36650,4734 36533,4742 36368,4741C36285,4741 36255,4737 36235,4724C36211,4708 36207,4708 36175,4726C36146,4741 36136,4742 36108,4732C36066,4717 35946,4725 35903,4745C35872,4760 35866,4759 35809,4736C35753,4714 35745,4713 35725,4726C35710,4736 35690,4739 35664,4734C35642,4731 35614,4728 35600,4728C35586,4728 35561,4726 35544,4724C35515,4720 35512,4716 35505,4675C35502,4650 35494,4630 35489,4630C35483,4630 35481,4626 35484,4622C35487,4617 35515,4612 35546,4611C35577,4610 35607,4607 35611,4604C35616,4602 35627,4603 35637,4608C35699,4639 35731,4648 35774,4649C35800,4650 35826,4652 35830,4655C35834,4658 35845,4648 35855,4634C35870,4611 35877,4609 35913,4613C35936,4615 35974,4613 35997,4608C36021,4602 36048,4601 36057,4606C36067,4610 36089,4614 36105,4615C36128,4615 36134,4619 36132,4633C36130,4647 36137,4650 36170,4650C36210,4650 36219,4643 36200,4624C36195,4619 36195,4609 36199,4601C36206,4590 36213,4591 36238,4604C36264,4617 36275,4618 36317,4607C36344,4600 36378,4597 36392,4601C36406,4604 36435,4605 36456,4603C36516,4596 36543,4599 36552,4613C36558,4622 36566,4621 36588,4609C36606,4599 36624,4596 36637,4601C36674,4614 36904,4603 36937,4586C36962,4573 36970,4573 36986,4584C37015,4604 37107,4609 37172,4593C37234,4578 37262,4585 37288,4622C37304,4644 37333,4645 37351,4624C37360,4613 37373,4610 37394,4615C37411,4618 37448,4624 37475,4627C37503,4630 37531,4637 37538,4643C37547,4650 37554,4650 37558,4643C37575,4618 37610,4610 37687,4616C37730,4620 37794,4623 37830,4624C37881,4625 37895,4628 37895,4640C37895,4657 37909,4670 37928,4670C37935,4670 37940,4657 37940,4640C37940,4611 37941,4610 37990,4610C38063,4610 38130,4630 38130,4652C38130,4663 38137,4670 38150,4670C38163,4670 38170,4663 38170,4652C38170,4638 38183,4631 38224,4623C38254,4617 38288,4614 38299,4617C38311,4620 38320,4618 38320,4612C38320,4605 38353,4603 38413,4606C38552,4613 38560,4613 38625,4607C38658,4604 38726,4606 38775,4612C38825,4617 38911,4623 38967,4623L39070,4625L39080,4653C39091,4687 39123,4687 39128,4652C39130,4640 39132,4630 39133,4630C39134,4630 39156,4623 39181,4616C39222,4603 39231,4604 39256,4617C39272,4626 39305,4632 39330,4631C39402,4630 39430,4629 39518,4630C39564,4630 39610,4625 39622,4619C39637,4611 39648,4611 39666,4620C39680,4628 39700,4630 39717,4625C39775,4610 39839,4617 39879,4642C39896,4652 39904,4652 39920,4642C39937,4632 40027,4626 40105,4631C40129,4632 40184,4632 40364,4631C40451,4631 40509,4635 40517,4642C40526,4649 40538,4649 40561,4640C40591,4627 40820,4623 40838,4634C40855,4644 41017,4651 41040,4642C41057,4636 41085,4638 41126,4648C41184,4662 41190,4661 41244,4641C41276,4629 41307,4623 41313,4627C41320,4631 41359,4636 41400,4637C41441,4639 41516,4642 41565,4644C41615,4647 41667,4644 41681,4639C41699,4632 41725,4632 41764,4639C41800,4646 41829,4646 41845,4640C41860,4634 41879,4634 41894,4640C41909,4645 41931,4645 41950,4640C41969,4635 42011,4634 42051,4639C42099,4645 42139,4644 42180,4636C42229,4626 42244,4626 42258,4636C42267,4643 42287,4650 42302,4650C42317,4650 42332,4655 42336,4661C42339,4667 42353,4669 42367,4665C42386,4661 42393,4664 42397,4680C42404,4706 42407,4706 42440,4670C42466,4642 42473,4640 42535,4640C42587,4640 42608,4645 42627,4660C42658,4684 42666,4684 42704,4665C42725,4654 42749,4651 42795,4656C42842,4661 42864,4659 42889,4646C42913,4633 42925,4632 42935,4640C42964,4664 43012,4670 43057,4655C43107,4638 43124,4643 43163,4690C43194,4726 43210,4728 43210,4695C43210,4662 43251,4634 43279,4649C43290,4655 43329,4660 43366,4659C43426,4658 43436,4660 43453,4681C43465,4696 43474,4700 43478,4693C43482,4687 43497,4679 43512,4675C43543,4667 43583,4677 43575,4691C43571,4696 43574,4700 43580,4700C43586,4700 43588,4705 43584,4712C43580,4718 43585,4729 43595,4736C43612,4749 43612,4750 43594,4755C43584,4759 43567,4765 43558,4770C43548,4776 43529,4775 43509,4768C43489,4761 43439,4759 43372,4763C43310,4767 43259,4765 43248,4759C43236,4753 43217,4753 43192,4759C43172,4765 43083,4772 42995,4774C42799,4781 42710,4787 42703,4794C42700,4797 42688,4794 42676,4788C42638,4767 42347,4764 42065,4781C42054,4781 42017,4778 41983,4773C41947,4768 41914,4767 41905,4773C41896,4778 41870,4777 41843,4772C41815,4766 41787,4765 41773,4771C41759,4776 41740,4776 41725,4770C41711,4765 41693,4763 41684,4767C41676,4770 41651,4767 41629,4760C41595,4748 41585,4749 41554,4763C41524,4778 41512,4779 41479,4769C41448,4759 41431,4759 41402,4769C41284,4809 41287,4808 41245,4789Z" style="fill-rule:nonzero;"/>
            <path id="path50" d="M33285,4719C33263,4715 33206,4712 33159,4712C33112,4712 33048,4707 33017,4700C32975,4692 32951,4691 32926,4700C32899,4709 32879,4707 32814,4689C32752,4672 32732,4670 32717,4679C32678,4704 32302,4711 32145,4690C32052,4678 32047,4678 31957,4684C31919,4687 31877,4684 31863,4679C31845,4673 31833,4673 31824,4681C31815,4688 31758,4693 31667,4694C31575,4695 31517,4700 31503,4708C31485,4718 31474,4717 31443,4706C31422,4698 31371,4689 31330,4686C31288,4683 31247,4678 31237,4674C31225,4670 31211,4675 31196,4689C31177,4707 31168,4709 31147,4701C31093,4680 31004,4677 30969,4694C30933,4712 30884,4715 30875,4700C30871,4693 30847,4692 30812,4696C30780,4699 30744,4702 30730,4702C30666,4702 30614,4697 30599,4689C30579,4679 30490,4677 30426,4685C30399,4689 30349,4686 30314,4680C30260,4670 30244,4670 30201,4685C30154,4700 30150,4700 30125,4684C30103,4670 30093,4669 30063,4678C30034,4687 30021,4686 29998,4674C29979,4664 29964,4662 29957,4668C29945,4677 29829,4668 29798,4655C29787,4651 29767,4656 29746,4670C29713,4690 29710,4690 29685,4674C29661,4659 29658,4659 29641,4674C29632,4683 29620,4687 29616,4683C29612,4679 29592,4675 29572,4674C29552,4674 29500,4663 29456,4651L29378,4629L29335,4650C29301,4667 29282,4669 29236,4664C29190,4658 29176,4660 29160,4675C29145,4689 29132,4691 29098,4686C29074,4682 29011,4677 28957,4674C28903,4672 28850,4665 28838,4659C28827,4653 28811,4652 28802,4656C28793,4660 28751,4667 28710,4671C28669,4676 28617,4682 28595,4685C28562,4691 28551,4688 28536,4671C28516,4649 28481,4643 28464,4660C28452,4672 28334,4655 28292,4635C28266,4621 28260,4613 28260,4585C28260,4567 28266,4550 28273,4547C28279,4545 28391,4545 28520,4547C28649,4549 28852,4552 28970,4554C29088,4555 29197,4560 29212,4564C29230,4569 29254,4566 29285,4555C29323,4540 29335,4539 29358,4550C29378,4559 29489,4563 29770,4567C29982,4569 30175,4573 30200,4576C30288,4585 30535,4587 30547,4578C30553,4573 30597,4569 30645,4569C30709,4568 30737,4573 30757,4585C30777,4599 30787,4600 30804,4591C30839,4572 30962,4560 30985,4574C31005,4586 31196,4588 31207,4576C31218,4565 31254,4570 31274,4585C31306,4609 31398,4634 31412,4622C31419,4616 31442,4609 31463,4605C31483,4601 31503,4593 31507,4587C31511,4581 31516,4584 31521,4596C31528,4612 31529,4613 31529,4598C31531,4567 31571,4567 31628,4598C31681,4627 31682,4627 31716,4610C31745,4595 31774,4592 31908,4594C31994,4596 32076,4594 32090,4590C32104,4586 32147,4590 32185,4597C32240,4609 32269,4610 32322,4601C32367,4594 32397,4593 32415,4600C32434,4607 32449,4606 32470,4595C32507,4576 32524,4576 32562,4596C32587,4609 32598,4610 32612,4601C32631,4589 32679,4586 32704,4596C32721,4603 32726,4630 32710,4630C32705,4630 32700,4636 32700,4644C32700,4653 32707,4656 32721,4653C32747,4646 32757,4621 32739,4608C32720,4596 32801,4604 32859,4620C32892,4630 32907,4630 32921,4622C32945,4606 32950,4607 32950,4625C32950,4644 32959,4644 32996,4625C33034,4606 33105,4623 33135,4658C33165,4692 33194,4682 33188,4640C33184,4615 33187,4609 33207,4604C33220,4600 33237,4603 33245,4610C33258,4620 33264,4620 33280,4605C33293,4593 33307,4590 33329,4595C33346,4599 33358,4605 33356,4609C33344,4629 33408,4670 33450,4670C33471,4670 33480,4674 33478,4683C33471,4703 33427,4720 33399,4715C33385,4712 33363,4713 33349,4718C33336,4723 33307,4723 33285,4719Z" style="fill-rule:nonzero;"/>
            <path id="path52" d="M27615,4670C27610,4663 27596,4660 27577,4664C27556,4668 27537,4664 27514,4649C27495,4638 27475,4632 27469,4635C27463,4639 27429,4646 27393,4650C27345,4656 27320,4655 27296,4645C27271,4634 27254,4633 27226,4641C27205,4647 27116,4649 27017,4647C26890,4644 26839,4646 26827,4655C26810,4668 26700,4667 26590,4654C26560,4651 26477,4647 26406,4645C26333,4643 26273,4637 26267,4631C26250,4614 26194,4618 26179,4636C26168,4649 26156,4651 26115,4645C26039,4634 25958,4633 25926,4641C25907,4647 25888,4644 25867,4634C25834,4616 25711,4613 25671,4628C25655,4633 25634,4633 25613,4627C25587,4619 25571,4621 25530,4638C25492,4654 25473,4657 25460,4650C25450,4644 25419,4640 25392,4640C25360,4640 25338,4635 25330,4625C25321,4614 25313,4613 25299,4621C25287,4627 25268,4628 25246,4622C25228,4617 25181,4615 25142,4618C25087,4621 25065,4619 25047,4607C25025,4593 25018,4593 24979,4606C24946,4618 24927,4619 24895,4611C24871,4605 24811,4603 24754,4607C24700,4610 24646,4612 24635,4612C24624,4611 24554,4609 24479,4608C24388,4606 24338,4601 24328,4592C24316,4582 24306,4583 24277,4595C24249,4606 24211,4609 24101,4605C24023,4603 23928,4605 23889,4610C23840,4616 23810,4615 23794,4608C23776,4600 23764,4600 23747,4609C23724,4621 23661,4617 23634,4602C23625,4597 23584,4595 23543,4598C23489,4601 23466,4599 23460,4590C23451,4576 23426,4575 23328,4585C23261,4593 23260,4592 23259,4569C23259,4545 23259,4545 23250,4567C23242,4586 23237,4588 23210,4580C23190,4574 23157,4575 23123,4581C23092,4587 23058,4589 23046,4586C23034,4583 22991,4585 22950,4591C22881,4602 22872,4601 22837,4583L22800,4562L22742,4586C22674,4614 22635,4616 22622,4593C22614,4579 22608,4578 22581,4589C22555,4600 22544,4600 22513,4587C22492,4579 22461,4575 22443,4577C22426,4580 22404,4577 22393,4572C22379,4564 22370,4566 22355,4580C22336,4598 22329,4599 22270,4588C22211,4578 22060,4575 21875,4582C21837,4583 21780,4583 21750,4581C21720,4579 21663,4580 21623,4584C21569,4589 21543,4587 21515,4576C21490,4565 21472,4563 21461,4569C21437,4582 21308,4582 20750,4569C20742,4569 20730,4570 20725,4571C20719,4572 20699,4570 20679,4566C20657,4561 20615,4564 20574,4572C20492,4588 20329,4582 20322,4563C20316,4544 20296,4547 20276,4568C20262,4584 20248,4586 20177,4583C20132,4580 20064,4578 20025,4577C19987,4576 19949,4571 19941,4566C19933,4561 19895,4556 19856,4555C19817,4553 19763,4547 19735,4542C19708,4536 19682,4534 19677,4537C19673,4539 19648,4543 19622,4545C19596,4548 19559,4552 19540,4556C19521,4560 19474,4562 19435,4561C19379,4560 19353,4554 19306,4530C19273,4514 19244,4504 19241,4509C19231,4522 19189,4542 19161,4545C18977,4567 18822,4569 18736,4551C18700,4543 18678,4543 18655,4551C18628,4561 18609,4559 18544,4542C18478,4524 18462,4522 18440,4533C18407,4550 18217,4554 18189,4539C18173,4531 18142,4533 18064,4545C17995,4557 17941,4560 17902,4555C17827,4546 17791,4546 17758,4555C17740,4560 17718,4557 17696,4546C17653,4526 17606,4525 17590,4545C17579,4559 17575,4559 17553,4545C17533,4532 17522,4531 17498,4539C17457,4554 17255,4553 17214,4538C17192,4530 17168,4530 17131,4537C17090,4545 17071,4544 17031,4530C17004,4521 16975,4517 16968,4521C16939,4537 16868,4542 16839,4530C16816,4520 16807,4520 16795,4530C16782,4541 16775,4539 16752,4519C16737,4506 16721,4489 16717,4483C16705,4464 16693,4467 16687,4489C16684,4502 16669,4510 16639,4515C16573,4525 16495,4523 16471,4511C16454,4502 16450,4502 16452,4512C16454,4521 16444,4524 16415,4521C16340,4513 16255,4517 16214,4530C16178,4542 16168,4541 16139,4528C16120,4519 16076,4512 16041,4511C16005,4510 15962,4502 15944,4494C15925,4485 15902,4481 15890,4485C15874,4490 15864,4486 15853,4470C15835,4445 15809,4459 15817,4490C15823,4511 15823,4511 15740,4511L15665,4511C15587,4512 15545,4512 15505,4510C15483,4509 15459,4510 15451,4512C15443,4513 15434,4507 15432,4498C15430,4484 15435,4480 15454,4480C15479,4480 15510,4457 15510,4439C15510,4423 15483,4400 15463,4399C15448,4399 15448,4397 15467,4390C15497,4378 15638,4386 15656,4401C15669,4411 15673,4411 15680,4401C15686,4391 15698,4390 15735,4398C15762,4404 15788,4406 15795,4404C15801,4401 15813,4406 15820,4415C15834,4432 15867,4435 15872,4419C15874,4412 15909,4407 15959,4405C16032,4403 16043,4405 16047,4421C16055,4449 16082,4454 16101,4429C16122,4401 16194,4394 16228,4416C16246,4428 16255,4429 16265,4420C16275,4412 16300,4411 16343,4415C16392,4420 16421,4418 16464,4404C16520,4386 16520,4386 16536,4408C16553,4432 16594,4437 16607,4417C16612,4409 16639,4404 16680,4404C16716,4403 16754,4400 16765,4396C16782,4390 16790,4396 16805,4426C16829,4470 16846,4479 16855,4450C16858,4439 16879,4421 16901,4410L16940,4390L16979,4410C17010,4425 17029,4428 17064,4424C17105,4418 17113,4420 17136,4444C17151,4458 17165,4470 17169,4470C17179,4470 17206,4450 17196,4450C17192,4450 17198,4441 17211,4431C17227,4418 17240,4415 17251,4420C17260,4425 17277,4426 17288,4423C17300,4420 17316,4423 17324,4429C17334,4437 17350,4438 17379,4431C17407,4425 17430,4426 17450,4433C17472,4441 17485,4441 17502,4432C17524,4420 17543,4418 17620,4422C17639,4423 17712,4421 17782,4417C17874,4413 17910,4414 17912,4422C17915,4431 17931,4431 17974,4423C18012,4417 18066,4416 18128,4422C18181,4427 18230,4428 18238,4425C18246,4422 18268,4425 18287,4432C18312,4441 18320,4449 18317,4462C18313,4477 18315,4478 18332,4469C18369,4449 18414,4439 18525,4425C18627,4412 18638,4413 18671,4430C18698,4443 18710,4445 18722,4436C18731,4429 18776,4426 18841,4428C18898,4429 18989,4431 19043,4432C19120,4433 19140,4436 19136,4447C19133,4454 19141,4467 19154,4476C19174,4489 19182,4489 19199,4478C19211,4471 19220,4460 19220,4453C19220,4437 19336,4435 19345,4450C19348,4456 19360,4460 19371,4460C19381,4460 19390,4466 19390,4473C19390,4480 19396,4494 19403,4504C19414,4519 19420,4521 19438,4511C19451,4504 19460,4490 19460,4475C19460,4449 19475,4434 19485,4450C19489,4457 19508,4459 19534,4455C19567,4450 19581,4453 19603,4470C19631,4492 19650,4490 19650,4463C19650,4453 19655,4450 19668,4455C19708,4472 19755,4478 19771,4469C19781,4464 19793,4461 19797,4462C19801,4463 19814,4459 19826,4453C19863,4432 19974,4459 19963,4486C19957,4503 19977,4530 19997,4530C20008,4530 20010,4523 20005,4499C19998,4469 19998,4468 20037,4471C20058,4472 20088,4467 20104,4461C20125,4453 20142,4452 20165,4460C20183,4466 20202,4470 20206,4468C20211,4467 20225,4470 20238,4474C20252,4479 20266,4477 20274,4470C20284,4463 20325,4462 20411,4467C20479,4471 20543,4475 20552,4474C20561,4474 20568,4478 20567,4484C20566,4489 20573,4496 20583,4498C20592,4500 20600,4497 20600,4491C20600,4485 20596,4480 20590,4480C20574,4480 20578,4463 20596,4456C20604,4453 20618,4457 20626,4465C20646,4484 20659,4484 20681,4464C20702,4445 20820,4442 20885,4459C20907,4464 20950,4471 20981,4473C21050,4478 21061,4484 21058,4518C21056,4539 21059,4545 21075,4545C21090,4545 21095,4538 21096,4517C21097,4479 21103,4476 21148,4487C21177,4495 21193,4494 21211,4484C21251,4462 21371,4473 21418,4504C21427,4509 21442,4505 21461,4490C21503,4460 21631,4458 21663,4488C21698,4519 21740,4525 21757,4501C21768,4485 21776,4483 21794,4490C21824,4501 21927,4505 21963,4495C21984,4490 21994,4492 22003,4504C22013,4518 22020,4518 22052,4507C22073,4500 22093,4491 22096,4487C22111,4473 22163,4481 22180,4500C22197,4519 22197,4519 22219,4499C22238,4481 22247,4480 22293,4488C22321,4493 22367,4495 22394,4492C22437,4488 22446,4491 22461,4511C22476,4531 22480,4532 22494,4521C22507,4510 22516,4510 22536,4519C22556,4528 22568,4527 22598,4511C22618,4501 22657,4485 22683,4476C22730,4461 22732,4461 22760,4482C22784,4499 22797,4502 22836,4496C22863,4493 22922,4495 22968,4501C23029,4509 23055,4509 23063,4501C23075,4489 23133,4486 23143,4496C23147,4500 23186,4503 23229,4503C23286,4504 23311,4508 23314,4517C23321,4535 23370,4533 23392,4513C23407,4499 23416,4499 23450,4509C23500,4524 23560,4524 23629,4511C23713,4494 23723,4496 23716,4525C23707,4559 23738,4559 23771,4524C23794,4500 23798,4499 23905,4501C23965,4502 24028,4499 24044,4495C24065,4489 24083,4492 24107,4505C24136,4521 24146,4522 24174,4512C24192,4505 24236,4500 24273,4500C24332,4500 24339,4502 24346,4523C24351,4535 24353,4549 24352,4553C24350,4558 24355,4560 24362,4558C24369,4555 24376,4539 24378,4522C24381,4496 24386,4490 24406,4490C24422,4490 24434,4498 24442,4515C24453,4540 24478,4548 24496,4531C24509,4519 24605,4490 24632,4490C24645,4490 24660,4494 24666,4499C24680,4512 24731,4518 24765,4510C24782,4507 24817,4510 24844,4516C24885,4527 24906,4526 24980,4512C25062,4495 25070,4495 25107,4511C25132,4522 25152,4525 25161,4519C25177,4509 25234,4507 25243,4516C25246,4519 25318,4523 25402,4524C25506,4526 25565,4531 25587,4540C25616,4553 25621,4552 25639,4536C25656,4521 25668,4519 25707,4525C25769,4535 25818,4532 25851,4514C25873,4503 25880,4503 25896,4515C25910,4525 25938,4527 26001,4523C26049,4521 26114,4523 26145,4529C26179,4535 26208,4536 26214,4531C26220,4526 26254,4524 26290,4527C26457,4538 26538,4537 26602,4522C26643,4513 26676,4511 26687,4516C26697,4521 26743,4525 26790,4526C26837,4527 26929,4531 26995,4536C27084,4543 27128,4542 27164,4533C27197,4524 27225,4523 27249,4529C27269,4534 27330,4537 27385,4536C27493,4533 27530,4538 27509,4550C27494,4560 27506,4593 27523,4587C27529,4585 27534,4573 27533,4561C27531,4542 27536,4540 27578,4538C27604,4537 27640,4537 27659,4538C27678,4539 27699,4535 27706,4529C27715,4522 27727,4523 27748,4534C27770,4545 27786,4547 27810,4540C27828,4535 27846,4533 27851,4535C27857,4539 28047,4553 28105,4553C28116,4553 28141,4550 28160,4546C28183,4541 28201,4543 28212,4552C28229,4564 28229,4567 28213,4602C28198,4635 28191,4639 28149,4645C28123,4649 28083,4649 28059,4645C28034,4641 28002,4643 27986,4650C27970,4656 27896,4662 27821,4665C27746,4667 27671,4672 27654,4676C27634,4680 27620,4678 27615,4670Z" style="fill-rule:nonzero;"/>
            <path id="path56" d="M13167,4493C13161,4488 13102,4482 13020,4479C13006,4479 12966,4472 12930,4465C12875,4454 12861,4454 12832,4466C12787,4484 12736,4484 12720,4465C12710,4453 12693,4451 12648,4455C12615,4458 12584,4463 12579,4466C12573,4469 12564,4467 12557,4461C12545,4452 12476,4461 12463,4474C12460,4477 12444,4472 12429,4464C12407,4453 12395,4452 12379,4460C12358,4472 12320,4473 12192,4468C12152,4466 12110,4470 12098,4476C12076,4488 12026,4476 11995,4450C11980,4438 11976,4438 11966,4452C11954,4468 11940,4470 11813,4470C11795,4470 11763,4470 11743,4471C11722,4471 11676,4471 11640,4470C11604,4470 11566,4471 11555,4472C11539,4474 11535,4469 11535,4443C11535,4426 11532,4408 11528,4404C11523,4400 11520,4389 11520,4379C11520,4352 11604,4348 11841,4362C11877,4365 11922,4361 11941,4355C11964,4347 11988,4346 12015,4352C12037,4357 12075,4359 12100,4355C12125,4352 12156,4350 12170,4350C12226,4350 12416,4368 12436,4375C12448,4379 12473,4377 12491,4372C12529,4362 12567,4372 12585,4397C12596,4411 12598,4411 12613,4390C12621,4378 12638,4368 12652,4368C12751,4370 12779,4374 12784,4386C12787,4393 12784,4401 12777,4403C12770,4405 12768,4411 12772,4415C12777,4420 12788,4416 12798,4407C12809,4397 12833,4390 12858,4390C12880,4390 12902,4386 12905,4380C12916,4362 13303,4365 13342,4384C13364,4396 13373,4396 13395,4384C13427,4368 13498,4380 13512,4404C13519,4416 13531,4418 13567,4413C13611,4407 13612,4408 13601,4428C13592,4445 13592,4450 13602,4450C13632,4450 13569,4479 13520,4488C13451,4501 13416,4494 13400,4465C13387,4442 13318,4414 13299,4426C13293,4429 13285,4443 13280,4456C13267,4490 13189,4515 13167,4493Z" style="fill-rule:nonzero;"/>
            <path id="path60" d="M14554,4487C14545,4482 14523,4481 14505,4484C14481,4489 14471,4487 14466,4475C14463,4467 14454,4460 14446,4460C14432,4460 14417,4423 14425,4409C14430,4402 14459,4397 14562,4385C14587,4382 14605,4386 14615,4396C14627,4408 14639,4409 14682,4401C14742,4391 14750,4393 14750,4422C14750,4434 14757,4452 14767,4462C14776,4472 14780,4483 14776,4487C14766,4497 14572,4497 14554,4487Z" style="fill-rule:nonzero;"/>
            <path id="path64" d="M10440,4437L10415,4426L10447,4422C10477,4419 10480,4416 10477,4387L10475,4355L10531,4355C10565,4355 10594,4349 10604,4340C10620,4327 10628,4329 10676,4354C10724,4379 10734,4381 10754,4370C10772,4361 10782,4361 10799,4370C10816,4379 10825,4379 10836,4369C10846,4361 10870,4359 10909,4363C10949,4367 10985,4365 11016,4355C11067,4340 11095,4349 11072,4372C11053,4391 11057,4420 11078,4420C11102,4420 11140,4379 11123,4373C11103,4366 11108,4354 11134,4342C11175,4324 11235,4363 11200,4385C11194,4389 11192,4395 11195,4400C11198,4405 11190,4412 11178,4415C11165,4419 11147,4429 11138,4437C11129,4445 11116,4449 11109,4445C11091,4433 10946,4431 10933,4442C10925,4448 10910,4448 10887,4439C10860,4430 10839,4429 10794,4438C10702,4457 10675,4454 10635,4419C10603,4390 10598,4389 10587,4404C10576,4419 10574,4419 10558,4401C10546,4387 10545,4380 10553,4376C10560,4374 10550,4371 10532,4371C10500,4370 10499,4371 10505,4399C10510,4422 10507,4431 10491,4439C10468,4452 10472,4452 10440,4437Z" style="fill-rule:nonzero;"/>
            <path id="path66" d="M9995,4431C9992,4426 9994,4419 10000,4415C10018,4404 10010,4392 9980,4385C9964,4381 9948,4374 9945,4369C9936,4356 9886,4358 9873,4371C9864,4380 9863,4377 9867,4361C9879,4313 9956,4292 9983,4330C9994,4346 10006,4349 10056,4346C10088,4344 10131,4339 10151,4335C10173,4331 10197,4333 10210,4340C10224,4347 10235,4348 10243,4342C10267,4322 10307,4331 10324,4360C10346,4398 10345,4400 10306,4393C10280,4389 10270,4392 10258,4409C10250,4420 10240,4427 10237,4423C10233,4420 10230,4422 10230,4428C10230,4435 10226,4440 10220,4440C10215,4440 10213,4433 10217,4424C10225,4402 10186,4370 10151,4370C10122,4370 10108,4381 10103,4409C10102,4417 10095,4427 10088,4431C10070,4443 10003,4442 9995,4431Z" style="fill-rule:nonzero;"/>
        </g>
        <g id="path46" transform="matrix(1,0,0,1,-34.2447,145.009)">
            <path d="M33881,4723C33858,4716 33767,4709 33680,4706C33593,4704 33517,4699 33511,4696C33496,4686 33497,4670 33513,4670C33520,4670 33538,4655 33554,4638L33583,4605L33699,4607C33809,4609 33885,4615 33921,4626C33932,4629 33939,4623 33943,4610C33946,4597 33956,4590 33973,4590C34015,4590 34037,4682 34003,4712C33978,4734 33932,4738 33881,4723Z" style="fill-rule:nonzero;"/>
        </g>
        <g id="path48" transform="matrix(1,0,0,1,-34.2447,145.009)">
            <path d="M35096,4709C35077,4687 35066,4681 35057,4688C35051,4694 35026,4706 35002,4715C34961,4732 34957,4732 34925,4714C34897,4699 34887,4698 34864,4708C34842,4719 34835,4718 34819,4704C34808,4694 34791,4689 34775,4692C34761,4695 34750,4693 34750,4689C34750,4672 34710,4680 34698,4700C34683,4724 34672,4725 34648,4704C34635,4692 34627,4690 34618,4698C34610,4704 34577,4707 34541,4704C34503,4702 34471,4705 34463,4711C34444,4727 34295,4726 34275,4710C34267,4703 34260,4687 34260,4674C34260,4647 34249,4638 34230,4650C34218,4658 34217,4663 34227,4679C34234,4690 34236,4701 34232,4703C34228,4706 34191,4711 34149,4715C34091,4720 34070,4718 34064,4709C34060,4702 34061,4695 34068,4692C34075,4690 34080,4683 34080,4675C34080,4668 34087,4657 34095,4650C34103,4643 34110,4630 34110,4620C34110,4588 34183,4588 34286,4618C34305,4624 34323,4624 34334,4618C34344,4612 34367,4610 34385,4613C34403,4616 34421,4616 34425,4612C34428,4608 34458,4604 34492,4603L34552,4600L34537,4623C34528,4637 34525,4652 34530,4660C34536,4670 34544,4666 34565,4645C34585,4626 34589,4616 34581,4610C34572,4605 34576,4601 34592,4597C34630,4586 34682,4589 34726,4605C34772,4621 34907,4617 34941,4599C34967,4586 35017,4596 35029,4618C35038,4633 35042,4633 35087,4618C35113,4609 35151,4601 35171,4601C35192,4602 35217,4599 35229,4595C35241,4592 35250,4593 35250,4598C35250,4609 35330,4606 35367,4595C35383,4590 35392,4592 35396,4604C35400,4614 35414,4620 35434,4620C35461,4620 35466,4624 35465,4643C35465,4680 35414,4733 35382,4731C35307,4727 35263,4721 35246,4714C35236,4710 35213,4712 35196,4718C35125,4742 35123,4742 35096,4709Z" style="fill-rule:nonzero;"/>
        </g>
        <g id="path54" transform="matrix(1,0,0,1,17.2626,279.559)">
            <path d="M14965,4501C14954,4489 14948,4489 14936,4499C14924,4509 14907,4510 14859,4501C14825,4495 14795,4488 14791,4485C14781,4475 14814,4460 14839,4462C14877,4466 14875,4443 14836,4430C14768,4408 14793,4395 14905,4393C15011,4391 15031,4398 14993,4425C14979,4436 14978,4440 14989,4453C15004,4472 15027,4465 15035,4440C15047,4402 15164,4386 15220,4415C15246,4429 15253,4429 15272,4416C15285,4408 15322,4400 15355,4399C15444,4397 15441,4395 15428,4432C15411,4480 15383,4499 15338,4492C15312,4489 15300,4491 15300,4499C15300,4508 15278,4510 15220,4507C15176,4504 15137,4506 15134,4511C15126,4525 14981,4517 14965,4501Z" style="fill-rule:nonzero;"/>
        </g>
        <g id="path58" transform="matrix(1,0,0,1,1.12241,303.097)">
            <path d="M13650,4490C13640,4484 13640,4474 13650,4438C13663,4394 13664,4393 13692,4404C13713,4412 13725,4411 13739,4403C13750,4396 13778,4393 13806,4396C13833,4399 13873,4400 13895,4399C13990,4394 14015,4399 13993,4421C13981,4433 13987,4470 14001,4470C14006,4470 14010,4466 14010,4461C14010,4455 14022,4452 14038,4453C14060,4455 14065,4451 14065,4431C14066,4396 14086,4392 14250,4397C14398,4401 14423,4408 14396,4440C14389,4448 14380,4463 14377,4473C14368,4498 14343,4494 14324,4465C14315,4451 14298,4434 14287,4428C14270,4419 14263,4422 14243,4445C14221,4470 14211,4473 14137,4477C14092,4480 13990,4486 13910,4490C13808,4497 13757,4496 13737,4488C13717,4480 13702,4480 13686,4488C13673,4493 13657,4495 13650,4490Z" style="fill-rule:nonzero;"/>
        </g>
        <g id="path62" transform="matrix(1,0,0,1,-11.4146,329.546)">
            <path d="M11329,4450C11322,4445 11313,4443 11309,4446C11294,4455 11248,4430 11253,4416C11256,4408 11252,4393 11244,4381C11230,4361 11230,4360 11257,4359C11272,4358 11290,4359 11295,4360C11301,4361 11340,4361 11383,4361C11436,4359 11460,4362 11455,4369C11452,4375 11454,4380 11460,4380C11466,4380 11469,4384 11465,4389C11462,4395 11469,4404 11480,4410C11510,4426 11493,4443 11451,4437C11431,4435 11399,4439 11379,4446C11358,4453 11337,4454 11329,4450Z" style="fill-rule:nonzero;"/>
        </g>
        <path id="path68" d="M29669,4416C29666,4413 29649,4408 29630,4405C29611,4402 29576,4389 29552,4378C29519,4361 29507,4359 29498,4368C29491,4375 29476,4380 29464,4380C29451,4380 29439,4384 29436,4389C29433,4394 29375,4396 29308,4394C29240,4392 29172,4390 29155,4391C28944,4398 28819,4395 28780,4384C28742,4373 28726,4373 28681,4385C28603,4405 28485,4389 28408,4347C28353,4317 28349,4316 28293,4327C28261,4334 28195,4342 28145,4346C28096,4349 28038,4356 28017,4362C27990,4368 27974,4368 27965,4360C27958,4354 27946,4350 27938,4351C27912,4356 27881,4339 27878,4317C27873,4284 27846,4285 27814,4319C27786,4349 27755,4353 27725,4329C27719,4325 27694,4322 27670,4323C27639,4324 27608,4316 27569,4297C27538,4282 27500,4270 27484,4270C27447,4270 27409,4244 27416,4225C27420,4217 27419,4198 27416,4184C27411,4165 27405,4160 27392,4165C27367,4175 27280,4177 27280,4168C27280,4163 27265,4152 27246,4143C27214,4128 27210,4128 27195,4144C27186,4153 27174,4160 27169,4160C27164,4160 27154,4171 27148,4185C27142,4199 27128,4210 27118,4210C27093,4210 27050,4181 27050,4164C27050,4142 27030,4137 27005,4154C26992,4163 26972,4170 26961,4170C26940,4170 26877,4202 26849,4226C26841,4234 26829,4240 26824,4240C26819,4240 26797,4250 26775,4261C26744,4278 26732,4280 26718,4271C26693,4255 26673,4257 26666,4276C26661,4289 26651,4291 26607,4285C26579,4281 26539,4270 26520,4261C26495,4249 26463,4246 26404,4248C26334,4250 26321,4253 26317,4270C26310,4296 26274,4298 26211,4277C26170,4262 26153,4260 26136,4269C26125,4275 26083,4279 26044,4278C25990,4276 25968,4279 25949,4293C25936,4302 25915,4317 25902,4326C25873,4347 25814,4334 25816,4307C25817,4298 25813,4290 25806,4290C25800,4290 25782,4274 25767,4255C25737,4218 25703,4209 25693,4236C25690,4245 25692,4260 25698,4270C25704,4280 25705,4292 25699,4301C25694,4309 25690,4325 25690,4338C25690,4364 25656,4368 25624,4345C25611,4336 25578,4331 25539,4331C25504,4330 25459,4330 25440,4330C25421,4329 25394,4329 25381,4330C25368,4330 25351,4325 25344,4319C25335,4312 25319,4312 25288,4321C25264,4328 25193,4335 25130,4337C25067,4338 24996,4342 24974,4346C24948,4350 24930,4348 24926,4341C24922,4335 24906,4330 24890,4330C24837,4330 24810,4313 24810,4281C24810,4248 24792,4237 24752,4246C24705,4256 24700,4259 24706,4275C24713,4291 24760,4296 24760,4280C24760,4274 24767,4274 24779,4282C24799,4294 24797,4315 24774,4324C24766,4327 24735,4325 24705,4319C24665,4312 24641,4312 24617,4321C24592,4330 24578,4329 24551,4318C24522,4306 24505,4306 24441,4318C24399,4325 24354,4328 24340,4325C24326,4322 24282,4316 24242,4311C24184,4304 24162,4306 24139,4317C24114,4330 24092,4330 23987,4320C23920,4313 23850,4307 23832,4306C23814,4306 23796,4299 23791,4292C23784,4281 23762,4282 23669,4298C23596,4310 23547,4314 23532,4309C23519,4304 23452,4300 23382,4300C23286,4299 23250,4296 23236,4285C23212,4267 23180,4266 23145,4282C23125,4291 23114,4291 23100,4283C23090,4276 23073,4274 23061,4277C23049,4280 23040,4278 23040,4271C23040,4257 23013,4257 23008,4271C23005,4279 22995,4278 22974,4267C22953,4256 22939,4255 22926,4262C22908,4272 22840,4265 22840,4253C22840,4249 22847,4239 22856,4229C22876,4207 22866,4190 22834,4190C22806,4190 22806,4191 22822,4225C22832,4247 22831,4252 22814,4265C22786,4286 22740,4283 22713,4258C22691,4238 22689,4238 22671,4254C22638,4284 22597,4271 22573,4222C22573,4220 22560,4229 22545,4242C22520,4264 22510,4265 22367,4266C22283,4267 22208,4264 22200,4260C22177,4248 21976,4238 21949,4248C21936,4253 21902,4252 21875,4248C21829,4240 21824,4237 21825,4212C21825,4175 21796,4176 21792,4213C21788,4246 21780,4247 21742,4215C21716,4193 21711,4192 21700,4205C21693,4214 21671,4220 21646,4220C21623,4220 21600,4224 21594,4230C21583,4241 21540,4232 21540,4219C21540,4204 21503,4209 21490,4225C21477,4240 21430,4240 21320,4226C21306,4224 21285,4222 21273,4221C21246,4220 21242,4186 21264,4161C21275,4149 21277,4135 21270,4107C21260,4062 21256,4056 21237,4063C21221,4069 21215,4146 21230,4155C21243,4163 21243,4207 21229,4215C21202,4232 20823,4238 20793,4222C20781,4215 20751,4210 20726,4210C20693,4210 20675,4205 20663,4191C20654,4180 20643,4173 20638,4176C20621,4187 20600,4159 20610,4140C20621,4120 20614,4110 20588,4110C20560,4110 20520,4080 20520,4059C20520,4034 20569,3965 20598,3949C20610,3942 20620,3931 20620,3925C20620,3918 20639,3907 20663,3901C20686,3894 20711,3883 20718,3878C20724,3872 20757,3866 20791,3863C20824,3861 20861,3855 20873,3851C20885,3847 20931,3847 20975,3852C21110,3867 21154,3867 21181,3854C21202,3843 21214,3844 21248,3856C21274,3864 21313,3868 21348,3866C21380,3863 21442,3865 21486,3871C21529,3876 21592,3882 21625,3884C21832,3897 21898,3904 21917,3914C21933,3922 21963,3923 22020,3916C22096,3907 22102,3908 22154,3934C22204,3959 22260,3968 22330,3961C22338,3960 22404,3962 22475,3965C22604,3971 22661,3981 22690,4005C22716,4026 22741,4030 22763,4018C22790,4004 22983,4006 23012,4021C23023,4027 23055,4034 23083,4036C23112,4038 23182,4045 23240,4050C23298,4055 23372,4062 23405,4064C23569,4076 23616,4083 23640,4100C23659,4113 23678,4116 23723,4112C23771,4108 23780,4110 23780,4124C23780,4144 23789,4144 23815,4127C23849,4103 23881,4101 23916,4118C23945,4132 23956,4132 23986,4121C24018,4109 24024,4110 24043,4128C24062,4146 24073,4148 24127,4141C24179,4135 24203,4138 24281,4161C24361,4185 24379,4188 24426,4179C24463,4172 24492,4172 24517,4179C24538,4185 24588,4190 24629,4190C24684,4190 24711,4195 24734,4209C24760,4225 24774,4227 24818,4220C24860,4213 24879,4214 24907,4228C24941,4244 24942,4244 24961,4222L24979,4199L25020,4240L25075,4219C25105,4208 25134,4201 25140,4205C25145,4208 25150,4205 25150,4197C25150,4189 25144,4180 25136,4177C25128,4174 25120,4159 25118,4143C25116,4121 25109,4114 25089,4112C25074,4110 25056,4116 25047,4124C25023,4149 25005,4143 24987,4105C24978,4085 24964,4068 24958,4066C24951,4064 24929,4057 24910,4051C24853,4031 24797,4017 24773,4019C24761,4019 24738,4015 24723,4008C24708,4002 24666,3996 24630,3995C24558,3993 24510,3982 24510,3969C24510,3950 24473,3941 24436,3952C24407,3961 24394,3961 24378,3951C24365,3943 24329,3940 24270,3942C24172,3945 24150,3936 24150,3888C24150,3853 24118,3815 24095,3824C24084,3828 24080,3840 24082,3867C24085,3904 24084,3905 24050,3904C24007,3903 23889,3833 23897,3813C23900,3806 23897,3800 23891,3800C23884,3800 23877,3807 23874,3815C23870,3823 23860,3830 23850,3830C23840,3830 23830,3837 23826,3845C23819,3864 23787,3864 23750,3845C23699,3818 23631,3799 23585,3798C23561,3798 23536,3792 23530,3785C23523,3777 23491,3772 23443,3771C23401,3770 23352,3766 23336,3761C23319,3756 23283,3747 23255,3742C23228,3736 23187,3727 23165,3721C23143,3715 23099,3710 23067,3710C23015,3710 23005,3707 22980,3680C22964,3663 22938,3647 22920,3644C22903,3640 22886,3631 22883,3624C22876,3604 22859,3607 22862,3627C22866,3648 22813,3671 22802,3653C22798,3647 22776,3632 22753,3620C22729,3608 22710,3592 22710,3585C22710,3565 22681,3559 22657,3575C22623,3597 22488,3583 22473,3555C22468,3546 22439,3540 22394,3537C22354,3534 22312,3526 22299,3519C22286,3512 22268,3504 22260,3500C22251,3495 22246,3481 22247,3466C22248,3452 22245,3440 22239,3440C22234,3440 22230,3434 22230,3428C22230,3421 22220,3396 22208,3373C22186,3332 22186,3331 22204,3311C22215,3299 22229,3290 22236,3290C22243,3290 22254,3275 22260,3256C22276,3206 22312,3186 22371,3193C22398,3196 22422,3195 22425,3191C22431,3180 22490,3171 22495,3181C22498,3185 22548,3187 22607,3186C22712,3184 22717,3185 22778,3217C22821,3240 22854,3250 22884,3250C22911,3250 22932,3256 22941,3266C22950,3277 22963,3280 22987,3275C23008,3271 23030,3275 23052,3286C23070,3296 23100,3305 23119,3306C23137,3308 23160,3316 23169,3323C23198,3348 23291,3390 23318,3390C23333,3390 23376,3397 23414,3405C23462,3415 23488,3416 23501,3409C23516,3401 23527,3404 23547,3419C23561,3431 23581,3440 23592,3440C23602,3440 23624,3447 23640,3455C23657,3464 23680,3468 23694,3464C23708,3461 23725,3462 23732,3466C23758,3483 23835,3498 23867,3493C23890,3489 23906,3492 23918,3504C23928,3512 23951,3525 23968,3531C23992,3539 24000,3548 24000,3565C24000,3596 24020,3608 24035,3587C24059,3554 24170,3577 24203,3621C24227,3654 24245,3657 24272,3633C24289,3618 24291,3618 24308,3633C24329,3652 24356,3655 24365,3640C24373,3627 24450,3627 24450,3640C24450,3645 24469,3655 24493,3661C24516,3668 24540,3677 24546,3682C24552,3686 24573,3690 24591,3690C24645,3689 24704,3701 24722,3717C24731,3725 24762,3734 24790,3735C24882,3742 24930,3752 24953,3770C24965,3780 24994,3793 25015,3799C25043,3806 25060,3819 25073,3841C25091,3874 25104,3875 25178,3854C25196,3849 25200,3852 25200,3868C25200,3893 25216,3905 25233,3892C25252,3877 25318,3868 25325,3880C25335,3897 25369,3891 25380,3871C25396,3840 25392,3820 25370,3820C25359,3820 25350,3813 25350,3805C25350,3784 25333,3786 25313,3810C25291,3835 25270,3836 25270,3811C25270,3801 25263,3777 25256,3758C25248,3739 25243,3714 25246,3703C25250,3687 25244,3680 25218,3671C25166,3651 25080,3608 25080,3602C25080,3599 25090,3586 25102,3573L25123,3550L25100,3525C25072,3495 25030,3492 25023,3519C25020,3531 25003,3542 24977,3548C24885,3571 24872,3571 24843,3543C24827,3529 24803,3513 24788,3508C24772,3502 24760,3495 24760,3490C24760,3486 24721,3474 24674,3464C24594,3448 24585,3443 24568,3413C24550,3383 24544,3380 24499,3380C24463,3380 24445,3375 24430,3360C24419,3349 24399,3340 24386,3340C24351,3340 24340,3301 24369,3282C24392,3267 24397,3245 24380,3235C24366,3226 24300,3277 24300,3296C24300,3307 24292,3310 24273,3308C24252,3306 24237,3293 24215,3259C24188,3216 24183,3213 24145,3213C24110,3214 23953,3165 23940,3149C23937,3146 23922,3140 23907,3136C23886,3131 23878,3122 23873,3099C23870,3082 23860,3066 23851,3063C23777,3038 23759,3017 23782,2981C23791,2966 23792,2951 23784,2918C23774,2882 23773,2842 23779,2808C23779,2803 23791,2800 23805,2800C23819,2800 23839,2791 23849,2781C23877,2753 23940,2745 23985,2764C24006,2773 24032,2780 24044,2780C24056,2780 24075,2787 24086,2795C24096,2803 24112,2810 24121,2810C24130,2810 24145,2819 24155,2830C24168,2844 24186,2850 24215,2850C24239,2850 24263,2856 24269,2864C24275,2871 24294,2880 24310,2884C24327,2887 24340,2896 24340,2904C24340,2911 24353,2923 24369,2930C24385,2936 24401,2948 24404,2956C24407,2964 24420,2970 24434,2970C24447,2970 24460,2977 24464,2985C24467,2993 24479,3000 24491,3000C24514,3000 24570,3030 24570,3042C24570,3046 24578,3050 24587,3050C24596,3050 24611,3057 24621,3066C24636,3079 24645,3080 24669,3072C24697,3062 24704,3065 24747,3099C24825,3160 24904,3210 24922,3210C24931,3210 24941,3219 24945,3230C24951,3248 25001,3282 25113,3342C25140,3357 25170,3370 25178,3372C25186,3374 25194,3384 25196,3394C25200,3419 25218,3430 25258,3430C25304,3430 25348,3458 25362,3496C25369,3516 25378,3526 25386,3523C25398,3519 25460,3542 25515,3572C25526,3578 25558,3596 25587,3612C25615,3627 25645,3640 25654,3640C25663,3640 25673,3647 25676,3655C25680,3663 25710,3684 25744,3701C25777,3718 25834,3747 25870,3765C25906,3783 25941,3804 25948,3813C25970,3839 26046,3854 26089,3841C26154,3822 26177,3826 26189,3860C26196,3882 26205,3890 26222,3890C26264,3890 26274,3876 26266,3830C26256,3764 26205,3711 26154,3710C26142,3710 26122,3698 26109,3684C26047,3616 25845,3440 25827,3440C25821,3439 25795,3414 25770,3385C25737,3343 25719,3330 25699,3330C25679,3330 25666,3320 25647,3292C25633,3270 25608,3247 25591,3240C25559,3227 25548,3200 25575,3200C25596,3200 25620,3148 25602,3142C25595,3140 25583,3132 25576,3124C25557,3106 25541,3106 25520,3125C25500,3143 25457,3132 25447,3106C25443,3097 25430,3090 25417,3090C25403,3090 25377,3073 25349,3045C25325,3021 25299,3000 25291,3000C25284,3000 25280,2994 25284,2985C25287,2975 25281,2968 25262,2963C25238,2957 25150,2905 25125,2881C25082,2840 25051,2799 25038,2765C25018,2715 25009,2665 25016,2645C25023,2628 25080,2624 25080,2640C25080,2646 25087,2650 25096,2650C25106,2650 25110,2645 25106,2635C25099,2615 25116,2570 25138,2554C25156,2540 25229,2537 25266,2548C25278,2552 25301,2565 25316,2577C25407,2645 25455,2680 25461,2680C25465,2680 25470,2690 25474,2703C25477,2715 25492,2730 25508,2736C25527,2743 25543,2762 25558,2793C25574,2828 25586,2840 25610,2845C25626,2849 25640,2858 25640,2866C25640,2874 25665,2891 25695,2905C25735,2922 25750,2934 25750,2949C25750,2974 25790,3038 25811,3045C25819,3048 25847,3070 25872,3095C25898,3120 25923,3140 25927,3140C25932,3140 25947,3155 25960,3173C25973,3190 26005,3224 26032,3248C26058,3272 26089,3312 26102,3338C26115,3364 26133,3391 26143,3398C26152,3405 26160,3420 26160,3430C26160,3442 26215,3507 26293,3586C26365,3661 26431,3729 26438,3736C26451,3749 26455,3749 26508,3721C26524,3713 26535,3712 26544,3719C26553,3726 26560,3726 26568,3718C26585,3701 26583,3665 26565,3650C26557,3643 26550,3632 26550,3626C26550,3620 26538,3593 26525,3565C26511,3537 26503,3506 26506,3494C26510,3480 26497,3452 26466,3406C26426,3349 26421,3336 26431,3318C26441,3299 26437,3292 26398,3256C26373,3233 26336,3189 26316,3158C26297,3127 26276,3099 26270,3095C26265,3092 26260,3081 26260,3072C26260,3063 26249,3045 26236,3033C26210,3008 26196,2940 26214,2927C26222,2921 26221,2917 26212,2913C26184,2902 26110,2823 26110,2805C26110,2793 26102,2774 26093,2760C26077,2738 26077,2737 26093,2743C26123,2754 26140,2740 26140,2704C26140,2685 26136,2670 26130,2670C26125,2670 26108,2658 26092,2643C26076,2627 26053,2607 26041,2597C26020,2580 26017,2555 26036,2555C26041,2555 26053,2550 26064,2544C26078,2536 26079,2531 26070,2525C26063,2521 26055,2522 26051,2528C26041,2545 25995,2547 25995,2530C25995,2522 26005,2514 26018,2512C26041,2508 26047,2496 26030,2485C26007,2471 26020,2430 26057,2405C26101,2376 26105,2375 26176,2396C26218,2408 26230,2416 26230,2431C26230,2442 26240,2454 26253,2459C26288,2473 26340,2527 26340,2549C26340,2581 26351,2601 26376,2611C26393,2617 26400,2627 26400,2645C26400,2659 26405,2670 26410,2670C26416,2670 26420,2676 26420,2683C26420,2689 26431,2718 26445,2745C26458,2773 26470,2800 26470,2807C26470,2814 26476,2823 26483,2827C26501,2839 26545,2929 26565,2996C26574,3027 26592,3068 26606,3085C26619,3103 26630,3129 26630,3144C26630,3198 26653,3266 26686,3309C26705,3333 26720,3364 26720,3376C26720,3389 26725,3402 26730,3405C26736,3408 26740,3421 26740,3432C26740,3443 26747,3458 26755,3464C26764,3470 26771,3492 26772,3512C26773,3534 26781,3557 26791,3566C26801,3575 26812,3595 26815,3611C26819,3627 26826,3642 26831,3645C26836,3649 26840,3660 26840,3670C26840,3680 26846,3693 26854,3697C26874,3709 26899,3775 26893,3800C26890,3811 26894,3828 26903,3838C26925,3863 26950,3916 26950,3938C26950,3969 26989,4038 27010,4045C27049,4057 27060,4035 27054,3956C27052,3917 27048,3849 27046,3805C27044,3761 27039,3693 27035,3654C27025,3561 27034,3510 27060,3510C27085,3510 27086,3481 27063,3474C27053,3471 27029,3461 27010,3451C26976,3434 26975,3432 26974,3374C26974,3342 26969,3306 26964,3295C26950,3266 26955,3177 26973,3128C26992,3077 26992,2907 26973,2874C26960,2851 26966,2813 26986,2790C26997,2777 26995,2767 26976,2729C26944,2668 26944,2578 26974,2564C26986,2559 26995,2546 26995,2535C26995,2524 26999,2509 27003,2503C27007,2496 27007,2483 27003,2475C26989,2450 27000,2388 27017,2394C27025,2397 27028,2396 27025,2390C27017,2377 27068,2354 27112,2351C27141,2350 27157,2357 27187,2382C27208,2400 27227,2416 27229,2417C27231,2419 27234,2428 27235,2438C27236,2447 27243,2469 27252,2485C27260,2502 27270,2540 27274,2571C27279,2618 27277,2632 27260,2653C27239,2679 27242,2710 27266,2710C27274,2710 27280,2717 27280,2725C27280,2733 27285,2740 27290,2740C27303,2740 27303,2827 27290,2835C27285,2838 27283,2860 27286,2884C27290,2910 27288,2930 27282,2934C27276,2938 27275,2951 27279,2968C27284,2986 27282,3012 27272,3043C27258,3086 27259,3093 27273,3123C27295,3167 27301,3245 27284,3267C27265,3293 27267,3311 27294,3339C27329,3377 27335,3416 27309,3430C27295,3438 27285,3438 27276,3431C27247,3407 27234,3428 27235,3496C27235,3538 27231,3565 27223,3572C27203,3588 27208,3602 27230,3595C27257,3587 27280,3606 27280,3636C27280,3663 27327,3700 27362,3700C27388,3700 27410,3683 27410,3663C27410,3655 27426,3627 27445,3599C27473,3558 27477,3545 27470,3525C27458,3495 27497,3409 27541,3368C27561,3350 27570,3331 27570,3311C27570,3295 27575,3278 27580,3275C27586,3272 27590,3252 27590,3232C27590,3205 27597,3190 27615,3175C27632,3162 27645,3135 27655,3095C27683,2981 27704,2925 27731,2889C27747,2869 27765,2831 27771,2804C27786,2744 27820,2691 27843,2690C27864,2690 27882,2650 27885,2598C27887,2569 27899,2548 27935,2508C27961,2479 27988,2455 27994,2455C28005,2455 28070,2427 28104,2408C28120,2400 28126,2401 28137,2416C28144,2426 28150,2437 28150,2442C28150,2446 28158,2450 28168,2450C28200,2450 28220,2483 28220,2534C28220,2569 28216,2582 28203,2587C28178,2597 28141,2642 28140,2663C28140,2673 28147,2683 28155,2686C28175,2694 28174,2723 28151,2769C28137,2795 28131,2827 28131,2868C28132,2923 28123,2954 28099,2984C28094,2990 28079,3009 28065,3026C28051,3044 28040,3065 28040,3073C28040,3094 27999,3157 27960,3195C27944,3212 27930,3230 27930,3236C27930,3254 27865,3310 27843,3310C27831,3310 27818,3316 27813,3323C27800,3343 27779,3403 27774,3434C27772,3449 27758,3477 27743,3496C27727,3515 27702,3546 27686,3565C27653,3606 27590,3733 27590,3759C27590,3792 27632,3820 27682,3820C27710,3820 27732,3826 27740,3835C27761,3860 27775,3853 27835,3785C27866,3749 27897,3720 27904,3720C27910,3720 27924,3705 27934,3686C27944,3667 27974,3631 28001,3605C28028,3579 28062,3536 28077,3509C28097,3472 28111,3457 28131,3453C28148,3450 28160,3440 28164,3426C28172,3393 28218,3350 28245,3350C28263,3350 28275,3339 28296,3300C28314,3268 28330,3250 28342,3250C28352,3250 28364,3240 28369,3227C28374,3214 28393,3190 28410,3174C28428,3158 28462,3126 28487,3103C28512,3079 28541,3060 28551,3060C28561,3060 28577,3048 28587,3033C28597,3017 28608,3003 28611,3000C28615,2997 28626,2976 28635,2953C28649,2918 28661,2906 28706,2885C28757,2861 28764,2852 28761,2824C28760,2817 28778,2805 28800,2796C28825,2786 28848,2768 28858,2750C28869,2730 28886,2718 28907,2714C28925,2711 28944,2702 28951,2694C28957,2686 28971,2680 28980,2680C29011,2680 29030,2669 29030,2651C29030,2624 29064,2611 29181,2594C29214,2589 29218,2591 29224,2613C29227,2627 29239,2641 29249,2645C29260,2648 29268,2659 29268,2668C29268,2677 29271,2709 29275,2738C29282,2787 29281,2792 29262,2797C29239,2803 29224,2833 29236,2851C29239,2857 29236,2866 29229,2871C29222,2875 29219,2883 29224,2887C29228,2891 29237,2887 29244,2878C29252,2867 29261,2864 29270,2870C29281,2877 29278,2885 29257,2912C29198,2985 29163,3019 29127,3035C29106,3045 29076,3069 29062,3088C29008,3159 28982,3181 28958,3175C28940,3171 28923,3181 28881,3220C28851,3247 28822,3270 28818,3270C28814,3270 28802,3278 28792,3288C28782,3297 28757,3317 28735,3333C28713,3348 28668,3380 28635,3405C28602,3429 28568,3449 28558,3449C28549,3450 28515,3473 28482,3500C28449,3528 28418,3550 28412,3550C28390,3550 28295,3624 28284,3649C28278,3664 28249,3699 28221,3727L28170,3778L28195,3794C28208,3803 28224,3810 28229,3810C28246,3810 28247,3835 28231,3847C28222,3853 28219,3862 28223,3867C28228,3871 28236,3867 28241,3857C28247,3848 28263,3840 28278,3840C28308,3840 28384,3808 28394,3791C28398,3785 28412,3780 28426,3780C28477,3780 28577,3737 28653,3682C28696,3650 28746,3616 28763,3605C28781,3595 28801,3579 28809,3572C28820,3562 28838,3559 28872,3563C28911,3568 28922,3566 28929,3552C28934,3543 28978,3513 29027,3485C29111,3438 29160,3390 29160,3356C29160,3341 29197,3325 29250,3315C29295,3307 29348,3281 29380,3252C29397,3236 29413,3230 29431,3234C29449,3237 29470,3229 29505,3204C29532,3185 29559,3170 29565,3170C29572,3170 29589,3161 29604,3149C29619,3138 29642,3125 29657,3121C29672,3117 29688,3105 29694,3094C29711,3064 29719,3062 29779,3067C29823,3071 29838,3069 29849,3056C29856,3047 29874,3040 29889,3040C29916,3040 29953,3019 29980,2988C29998,2968 30065,2930 30083,2930C30090,2930 30118,2915 30145,2897C30214,2852 30310,2824 30339,2840C30352,2846 30367,2849 30375,2847C30382,2844 30398,2849 30411,2858C30424,2867 30445,2873 30457,2872C30472,2870 30492,2881 30515,2902C30534,2920 30557,2941 30565,2948C30598,2977 30558,3079 30504,3105C30487,3113 30470,3126 30467,3134C30459,3155 30403,3183 30395,3170C30385,3154 30370,3158 30376,3175C30383,3192 30333,3239 30308,3240C30298,3240 30290,3243 30290,3248C30290,3252 30267,3270 30240,3289C30212,3308 30190,3327 30190,3331C30190,3335 30169,3342 30143,3345C30081,3353 30043,3368 30002,3397C29953,3433 29916,3441 29880,3424C29864,3415 29850,3404 29850,3398C29850,3381 29840,3395 29836,3417C29830,3445 29783,3490 29760,3490C29750,3490 29729,3501 29713,3514C29698,3527 29667,3543 29645,3551C29623,3558 29600,3568 29593,3573C29586,3578 29573,3577 29561,3571C29531,3554 29509,3558 29503,3580C29499,3596 29489,3600 29459,3600C29438,3600 29419,3604 29416,3609C29413,3614 29398,3621 29383,3625C29368,3628 29340,3644 29321,3658C29262,3703 29214,3721 29098,3741C29044,3750 29025,3758 28996,3786C28977,3805 28953,3820 28943,3820C28933,3820 28916,3826 28905,3834C28878,3852 28800,3868 28762,3862C28737,3859 28730,3862 28718,3887C28707,3910 28700,3914 28672,3912C28653,3910 28629,3916 28613,3927C28597,3937 28569,3953 28550,3963C28531,3972 28508,3984 28500,3989C28492,3995 28467,4007 28445,4016C28423,4025 28391,4039 28373,4046C28356,4054 28338,4060 28333,4060C28327,4060 28311,4071 28295,4084C28261,4113 28267,4136 28315,4168C28358,4195 28359,4195 28445,4165C28484,4151 28525,4140 28538,4140C28551,4140 28573,4134 28588,4126C28603,4119 28639,4109 28669,4105C28699,4101 28739,4091 28758,4083C28777,4075 28815,4070 28843,4071C28880,4073 28895,4070 28898,4060C28905,4039 28921,4030 28952,4030C28967,4030 28994,4021 29012,4011C29030,4000 29068,3986 29095,3980C29123,3974 29177,3954 29215,3935C29314,3888 29369,3868 29415,3865C29437,3863 29475,3855 29500,3846C29525,3837 29554,3830 29566,3830C29577,3830 29591,3825 29598,3818C29607,3809 29618,3809 29647,3819C29682,3832 29684,3832 29709,3802C29723,3786 29744,3769 29755,3766C29766,3763 29786,3750 29800,3738C29821,3719 29839,3714 29908,3712C29976,3709 29990,3711 29990,3724C29990,3753 30012,3752 30044,3721C30061,3704 30091,3687 30110,3684C30129,3680 30155,3669 30167,3660C30180,3650 30206,3639 30226,3636C30253,3630 30264,3622 30271,3600C30278,3582 30292,3568 30312,3561C30357,3545 30367,3547 30405,3576C30438,3601 30480,3603 30480,3580C30480,3575 30491,3563 30505,3554C30529,3538 30533,3538 30575,3560L30619,3583L30671,3561C30699,3550 30730,3540 30739,3540C30748,3540 30772,3526 30793,3509C30813,3492 30834,3481 30839,3484C30844,3487 30864,3483 30884,3475C30903,3467 30930,3460 30943,3460C30957,3460 30974,3451 30982,3438C30996,3418 31000,3417 31036,3427C31086,3442 31201,3429 31237,3403C31277,3375 31281,3373 31344,3355C31377,3346 31427,3338 31456,3339C31506,3339 31570,3318 31570,3300C31570,3296 31587,3292 31608,3292C31628,3292 31680,3291 31722,3291C31764,3291 31801,3286 31805,3280C31815,3263 32021,3268 32045,3286C32065,3301 32074,3356 32058,3376C32053,3383 32058,3396 32069,3409C32086,3429 32087,3434 32075,3457C32067,3472 32064,3496 32067,3512C32073,3541 32049,3580 32026,3580C32019,3580 31996,3589 31975,3600C31946,3615 31925,3619 31898,3615C31865,3609 31861,3605 31855,3569C31847,3522 31832,3522 31808,3571C31797,3595 31795,3609 31802,3618C31810,3627 31809,3629 31796,3624C31784,3620 31780,3623 31780,3639C31780,3673 31731,3692 31670,3680C31614,3669 31594,3675 31552,3714C31539,3725 31516,3735 31502,3736C31455,3737 31340,3768 31320,3784C31305,3796 31258,3814 31172,3841C31139,3851 31114,3851 31067,3843C31033,3837 31001,3835 30995,3838C30977,3849 30856,3891 30827,3897C30812,3900 30779,3897 30754,3890C30713,3878 30707,3879 30680,3899C30655,3917 30647,3918 30624,3908C30601,3897 30596,3898 30584,3915C30574,3928 30556,3934 30519,3936C30491,3937 30447,3946 30420,3956C30375,3972 30370,3972 30346,3957C30322,3941 30319,3941 30272,3965C30244,3979 30207,3990 30188,3990C30169,3990 30148,3996 30141,4003C30134,4010 30101,4016 30062,4016C30025,4017 29964,4023 29925,4029C29887,4036 29843,4042 29829,4044C29815,4045 29799,4049 29794,4052C29789,4055 29756,4061 29722,4065C29687,4069 29646,4078 29632,4086C29617,4094 29595,4100 29582,4100C29569,4100 29549,4105 29538,4111C29523,4119 29512,4119 29495,4110C29476,4100 29466,4102 29429,4121C29405,4134 29367,4145 29345,4146C29267,4152 29238,4158 29219,4176C29176,4215 29206,4256 29269,4245C29301,4240 29315,4242 29335,4258C29357,4275 29372,4277 29442,4274C29496,4272 29526,4274 29531,4282C29536,4289 29549,4285 29571,4269C29600,4249 29618,4245 29690,4244C29737,4243 29786,4240 29800,4237C29831,4229 30096,4207 30130,4209C30153,4210 30173,4204 30221,4179C30230,4175 30305,4170 30386,4169C30468,4168 30560,4163 30590,4159C30642,4150 30673,4147 30800,4136C30830,4134 30862,4129 30870,4127C30918,4111 30954,4111 30972,4127C30989,4142 30992,4142 31011,4122C31022,4110 31040,4100 31051,4100C31062,4100 31083,4092 31097,4083C31118,4069 31150,4064 31230,4062C31288,4061 31344,4059 31355,4059C31366,4058 31393,4063 31415,4070C31437,4077 31469,4082 31485,4081C31574,4078 31654,4067 31677,4055C31695,4046 31710,4044 31727,4051C31759,4063 31826,4063 31869,4050C31929,4033 32053,4029 32081,4044C32108,4058 32179,4052 32250,4031C32269,4025 32305,4020 32330,4020C32355,4020 32382,4014 32388,4008C32396,4000 32432,3995 32479,3994C32522,3993 32568,3987 32580,3980C32597,3971 32617,3971 32668,3980C32705,3987 32743,3996 32753,4001C32774,4012 32793,4004 32784,3988C32779,3981 32786,3979 32804,3984C32818,3987 32860,3984 32896,3975C32932,3967 33007,3960 33064,3960C33154,3960 33169,3962 33185,3980C33209,4007 33238,4005 33284,3974C33311,3955 33330,3949 33350,3953C33365,3956 33404,3953 33436,3945C33499,3930 33497,3930 33552,3983C33562,3992 33577,4000 33586,4000C33594,4000 33616,4011 33634,4025C33652,4039 33670,4050 33673,4050C33677,4050 33698,4069 33720,4091C33774,4147 33775,4188 33724,4235C33655,4298 33646,4303 33598,4308C33571,4310 33547,4317 33544,4321C33536,4335 33476,4331 33436,4315C33411,4304 33400,4293 33400,4278C33400,4259 33396,4258 33351,4263C33311,4268 33299,4265 33284,4249C33252,4213 33216,4236 33239,4278C33255,4308 33242,4330 33210,4330C33195,4330 33177,4337 33170,4345C33161,4356 33146,4359 33118,4355C33096,4351 33054,4356 33019,4364C32967,4378 32955,4378 32925,4366C32901,4356 32865,4353 32798,4356C32747,4359 32667,4362 32620,4364C32573,4365 32525,4372 32513,4379C32494,4388 32484,4388 32460,4375C32443,4366 32425,4362 32419,4366C32413,4369 32372,4371 32327,4369C32282,4368 32216,4366 32180,4365C32051,4361 32039,4360 32045,4350C32048,4344 32047,4340 32041,4340C32036,4340 32033,4332 32035,4323C32037,4313 32039,4302 32039,4298C32040,4293 32049,4290 32060,4290C32071,4290 32080,4283 32080,4275C32080,4250 32034,4257 32016,4285C32007,4299 32004,4310 32010,4310C32015,4310 32020,4317 32020,4325C32020,4333 32014,4340 32007,4340C32000,4340 31989,4349 31983,4360C31971,4378 31961,4379 31858,4375C31722,4369 31689,4369 31540,4371C31435,4373 31290,4372 31248,4369C31209,4367 31109,4369 31015,4376C30890,4384 30816,4383 30717,4375C30667,4370 30635,4372 30627,4379C30614,4389 30521,4386 30412,4373C30388,4370 30364,4373 30356,4379C30346,4387 30338,4384 30322,4367C30306,4350 30292,4345 30270,4348C30253,4350 30240,4355 30240,4359C30240,4363 30220,4372 30195,4379C30153,4391 30117,4391 30026,4376C30004,4372 29982,4374 29975,4380C29949,4402 29849,4390 29821,4363C29809,4350 29806,4350 29798,4364C29793,4373 29781,4380 29771,4380C29761,4380 29745,4389 29735,4400C29719,4418 29680,4427 29669,4416Z" style="fill-rule:nonzero;"/>
    </g>
</svg>
