<?xml version="1.0" encoding="UTF-8" standalone="no"?>
<svg
   xmlns:dc="http://purl.org/dc/elements/1.1/"
   xmlns:cc="http://creativecommons.org/ns#"
   xmlns:rdf="http://www.w3.org/1999/02/22-rdf-syntax-ns#"
   xmlns:svg="http://www.w3.org/2000/svg"
   xmlns="http://www.w3.org/2000/svg"
   xmlns:sodipodi="http://sodipodi.sourceforge.net/DTD/sodipodi-0.dtd"
   xmlns:inkscape="http://www.inkscape.org/namespaces/inkscape"
   version="1.0"
   width="455px"
   height="499px"
   viewBox="0 0 4550 4990"
   preserveAspectRatio="xMidYMid meet"
   id="svg2"
   inkscape:version="0.91 r13725"
   sodipodi:docname="fleuron_introduction.svg">
  <metadata
     id="metadata71">
    <rdf:RDF>
      <cc:Work
         rdf:about="">
        <dc:format>image/svg+xml</dc:format>
        <dc:type
           rdf:resource="http://purl.org/dc/dcmitype/StillImage" />
      </cc:Work>
    </rdf:RDF>
  </metadata>
  <defs
     id="defs69" />
  <sodipodi:namedview
     pagecolor="#ffffff"
     bordercolor="#666666"
     borderopacity="1"
     objecttolerance="10"
     gridtolerance="10"
     guidetolerance="10"
     inkscape:pageopacity="0"
     inkscape:pageshadow="2"
     inkscape:window-width="1366"
     inkscape:window-height="709"
     id="namedview67"
     showgrid="false"
     inkscape:zoom="0.94589178"
     inkscape:cx="189.74751"
     inkscape:cy="202.01204"
     inkscape:window-x="0"
     inkscape:window-y="0"
     inkscape:window-maximized="1"
     inkscape:current-layer="svg2" />
  <g
     id="layer101"
     fill="#6c6c6c"
     stroke="none"
     style="fill:#000000">
    <path
       d="M2251 4922 c-6 -11 -11 -34 -11 -51 0 -26 4 -31 25 -31 15 0 29 8 36 23 16 29 14 28 33 21 25 -10 20 -67 -9 -102 -29 -35 -35 -111 -10 -132 8 -7 15 -25 15 -41 0 -28 -2 -29 -44 -29 l-45 0 15 36 c30 72 -28 183 -104 200 -15 3 -37 10 -49 16 -30 15 -142 5 -154 -13 -5 -8 -9 -30 -9 -50 0 -29 5 -38 28 -50 36 -19 38 -23 58 -101 10 -45 24 -74 37 -83 16 -11 18 -18 9 -27 -9 -9 -16 -5 -32 15 -11 14 -36 35 -55 47 -21 13 -38 34 -45 56 -9 28 -17 34 -33 32 -16 -2 -23 -11 -25 -34 -3 -35 16 -56 86 -94 51 -27 64 -57 36 -84 -12 -12 -20 -14 -29 -6 -9 7 -21 7 -39 0 -15 -5 -39 -10 -54 -10 -18 0 -39 -14 -72 -50 -48 -52 -60 -56 -53 -17 6 30 87 89 143 104 l45 13 -52 -5 c-83 -7 -163 -60 -163 -109 0 -28 -36 -76 -56 -76 -8 0 -23 6 -34 13 -17 10 -22 9 -30 -3 -19 -30 18 -98 62 -112 20 -7 36 -3 75 22 50 31 51 31 112 19 33 -6 85 -9 116 -7 59 5 68 -2 33 -26 -16 -11 -46 -16 -100 -16 -51 0 -81 -5 -90 -13 -24 -24 -56 -37 -90 -37 -20 0 -52 -12 -79 -28 -57 -37 -89 -44 -119 -29 -14 7 -45 19 -70 26 -25 7 -53 17 -62 22 -30 15 -74 10 -93 -11 -22 -25 -34 -25 -42 -2 -3 9 -13 25 -21 34 -13 16 -17 16 -43 2 -33 -17 -35 -24 -14 -64 19 -37 61 -40 120 -10 55 28 110 26 152 -5 26 -21 49 -27 107 -32 68 -5 74 -4 80 15 10 32 33 45 91 53 29 4 66 16 82 28 18 13 42 21 68 20 22 0 54 0 70 -1 17 0 42 3 58 7 33 9 36 -7 5 -27 -17 -11 -41 -13 -92 -8 -47 4 -75 2 -90 -7 -11 -7 -29 -15 -38 -19 -9 -3 -22 -19 -29 -35 -10 -25 -9 -32 7 -50 15 -16 25 -19 56 -14 32 6 46 2 87 -24 42 -27 53 -30 94 -25 26 4 58 16 72 28 28 24 55 84 55 121 0 21 5 25 29 25 16 0 39 -8 51 -18 l22 -18 -20 -39 c-11 -22 -26 -71 -33 -108 -12 -61 -11 -72 3 -95 21 -34 74 -141 82 -164 11 -34 33 -17 91 70 59 86 59 88 63 168 3 67 0 87 -16 118 -25 46 -17 78 21 83 22 3 32 -5 62 -50 47 -71 90 -92 172 -82 46 5 69 2 108 -13 31 -13 44 -22 35 -26 -8 -3 -49 -15 -90 -27 -97 -28 -140 -50 -222 -113 -82 -64 -141 -133 -135 -158 3 -10 2 -18 -2 -18 -4 0 -14 -11 -21 -25 -20 -37 -38 -31 -60 19 -10 25 -49 76 -87 114 -99 102 -159 137 -326 191 -21 7 -41 10 -44 7 -4 -3 -11 -1 -18 4 -16 14 -233 43 -275 37 -19 -3 -55 -8 -80 -11 -81 -11 -144 -28 -195 -51 -28 -13 -64 -27 -80 -31 -17 -4 -51 -18 -77 -30 -27 -13 -72 -36 -100 -50 -58 -29 -144 -88 -214 -146 -25 -21 -48 -38 -52 -38 -24 0 -279 -269 -310 -326 -6 -12 -27 -40 -47 -63 -98 -119 -223 -438 -255 -656 -7 -44 -16 -100 -21 -125 -11 -64 -11 -268 1 -312 6 -21 17 -44 25 -52 22 -21 35 -62 35 -107 0 -22 7 -64 16 -92 8 -29 20 -70 26 -92 7 -22 15 -44 18 -50 4 -5 10 -22 14 -37 3 -15 20 -50 36 -78 17 -28 30 -53 30 -56 0 -6 46 -68 80 -108 97 -113 246 -216 310 -216 27 0 29 -2 28 -42 0 -43 19 -68 51 -68 14 0 16 -13 12 -82 -3 -82 11 -158 30 -158 7 0 9 13 5 35 -3 19 -9 51 -12 71 -7 40 10 133 33 177 40 78 173 92 173 17 0 -39 -45 -72 -78 -57 -35 16 -45 -3 -50 -90 -4 -75 -3 -81 37 -165 32 -68 57 -103 112 -158 39 -38 74 -70 79 -70 5 0 21 -11 37 -24 21 -18 39 -24 68 -22 26 1 44 -3 51 -13 8 -10 35 -17 83 -19 50 -3 71 -8 71 -18 0 -26 -24 -33 -117 -35 -57 -1 -73 3 -138 38 -11 6 -33 17 -50 24 -16 8 -35 21 -42 29 -9 10 -12 11 -13 3 0 -23 -35 -14 -70 18 -31 29 -32 33 -17 44 19 14 14 40 -10 49 -12 5 -14 1 -10 -14 6 -24 3 -25 -28 -4 -15 10 -25 12 -25 5 0 -6 5 -11 10 -11 6 0 14 -8 17 -17 8 -21 139 -153 151 -153 6 0 12 7 16 15 8 22 30 18 54 -10 20 -23 20 -25 4 -35 -15 -9 -14 -13 13 -35 17 -14 34 -25 38 -25 5 0 23 -11 40 -24 18 -13 48 -32 67 -43 67 -36 148 -92 185 -127 33 -33 36 -40 30 -74 -5 -30 -2 -44 13 -62 18 -22 22 -23 37 -10 15 12 17 26 11 89 -3 41 -11 80 -16 85 -16 16 -12 30 4 17 20 -17 236 -18 306 -2 145 33 247 95 291 178 12 22 11 30 -9 65 -16 29 -19 45 -12 54 11 13 6 54 -12 92 -13 25 -28 29 -28 7 0 -17 -16 -20 -25 -5 -11 17 -28 11 -20 -7 3 -10 10 -37 14 -61 11 -56 -9 -52 -27 6 -16 49 -33 56 -28 12 4 -36 -11 -40 -20 -5 -9 35 0 51 35 66 46 20 65 75 35 100 -13 10 -28 10 -87 -5 -40 -9 -92 -18 -117 -20 -52 -4 -88 10 -71 27 6 6 11 17 11 25 0 11 -11 13 -52 10 -136 -14 -315 70 -368 172 -7 14 -21 31 -32 38 -10 7 -18 21 -18 31 0 23 -38 58 -48 45 -5 -5 -17 -29 -27 -54 -18 -44 -56 -90 -73 -90 -5 0 -15 -6 -21 -14 -24 -29 -169 -48 -196 -26 -15 12 -39 135 -30 150 4 6 15 10 26 10 11 0 34 14 51 30 17 17 40 30 54 30 30 0 64 17 64 31 0 6 -7 6 -19 -1 -32 -17 -71 -13 -71 8 0 18 -65 92 -81 92 -5 0 -9 8 -9 18 0 10 -8 25 -19 34 -10 8 -21 33 -25 54 -9 52 -35 100 -62 115 -14 7 -20 17 -17 27 5 12 1 14 -20 10 -33 -6 -34 -2 -4 23 l22 19 -29 -10 c-16 -6 -50 -21 -76 -33 -46 -22 -70 -24 -70 -7 0 4 12 11 26 14 22 6 24 9 12 23 -11 13 -10 18 6 27 10 6 31 21 45 33 l26 23 -37 -15 c-42 -17 -58 -19 -58 -7 0 5 16 14 35 22 19 8 35 20 35 28 0 11 -8 9 -36 -7 -36 -21 -74 -28 -74 -13 0 11 46 32 69 32 10 0 21 9 24 20 6 24 -10 26 -49 5 -33 -17 -70 -20 -79 -5 -4 6 9 10 32 10 38 0 103 31 103 50 0 15 -26 12 -40 -5 -13 -16 -65 -21 -74 -6 -3 4 13 13 34 20 22 6 40 16 40 21 0 13 -4 12 -33 -1 -16 -7 -31 -8 -41 -2 -13 7 -4 13 41 27 51 16 55 20 39 31 -11 8 -13 15 -7 20 14 8 14 75 1 75 -5 0 -10 7 -10 15 0 10 -10 15 -32 15 l-33 1 40 14 c61 22 65 20 65 -29 0 -23 4 -56 9 -72 5 -16 15 -56 22 -89 7 -33 18 -71 25 -85 7 -14 20 -43 30 -65 38 -87 117 -179 186 -216 100 -53 218 -31 218 41 0 33 -45 64 -107 76 -21 4 -40 10 -43 14 -3 4 -17 13 -31 21 -35 19 -119 118 -119 141 0 19 25 25 35 8 9 -14 68 -13 83 2 16 16 15 43 -3 61 -17 18 -65 120 -65 139 0 8 -4 18 -9 24 -4 5 -18 37 -29 71 -16 50 -20 84 -18 185 0 67 6 131 12 141 10 17 13 15 38 -17 30 -40 55 -45 79 -18 13 14 17 38 17 99 0 78 20 189 40 225 6 10 10 28 10 40 0 12 14 45 30 75 17 29 30 58 30 65 1 7 32 54 71 103 38 50 88 113 109 142 36 47 76 80 180 146 110 70 330 86 330 24 0 -17 -79 -101 -125 -132 -33 -22 -182 -47 -204 -33 -10 6 -26 8 -35 5 -48 -18 32 -127 94 -127 23 0 33 -5 37 -20 7 -27 56 -27 114 1 46 22 184 156 215 209 10 16 22 30 27 30 12 0 1 -55 -18 -92 -8 -15 -23 -43 -32 -60 -9 -18 -19 -35 -22 -38 -4 -3 -19 -21 -35 -39 -35 -43 -196 -166 -283 -217 -36 -21 -74 -52 -86 -68 -20 -28 -20 -29 -2 -42 10 -7 23 -15 28 -17 6 -2 8 -10 5 -18 -7 -17 -177 -105 -223 -115 -44 -9 -75 -32 -75 -53 0 -67 197 -70 287 -4 l33 24 12 -26 c6 -14 19 -25 29 -25 19 0 255 233 264 261 3 9 21 34 40 55 19 21 42 58 52 83 9 25 22 53 30 62 7 8 13 21 13 27 0 6 8 18 18 28 9 10 26 42 38 73 47 125 61 35 17 -108 -14 -47 -29 -88 -33 -91 -11 -9 -50 -90 -50 -105 0 -8 -4 -15 -8 -15 -5 0 -23 -21 -40 -47 -17 -27 -61 -78 -97 -116 -36 -37 -65 -72 -65 -77 0 -6 -8 -14 -17 -17 -22 -8 -67 -40 -101 -71 -14 -12 -40 -31 -58 -42 -17 -11 -34 -30 -37 -42 -8 -28 18 -58 50 -58 28 0 30 -14 4 -37 -45 -41 -119 -105 -151 -131 -40 -32 -184 -92 -221 -92 -14 0 -30 -5 -36 -11 -31 -31 33 -83 122 -100 69 -13 99 -8 166 25 27 14 51 21 54 16 3 -5 0 -29 -7 -54 -17 -65 -2 -78 50 -43 36 24 59 51 153 189 44 64 143 232 182 308 15 30 32 62 37 70 26 43 94 200 106 244 39 154 58 224 70 252 8 18 17 62 21 100 12 100 38 96 36 -6 -2 -99 -77 -426 -119 -517 -13 -29 -27 -65 -30 -80 -7 -26 -54 -129 -74 -163 -6 -8 -16 -28 -23 -45 -8 -16 -32 -50 -53 -74 -46 -52 -55 -70 -42 -93 13 -25 45 -22 80 8 21 17 34 22 41 15 7 -7 5 -16 -6 -29 -9 -10 -17 -26 -17 -35 0 -8 -15 -28 -34 -44 -19 -15 -54 -53 -78 -83 -23 -30 -53 -66 -66 -80 -23 -25 -30 -44 -35 -90 -2 -22 3 -25 31 -28 17 -2 32 -7 32 -12 0 -13 -68 -86 -117 -126 -24 -20 -65 -41 -91 -47 -40 -10 -47 -16 -50 -39 -3 -23 3 -30 39 -47 53 -26 112 -26 164 -1 51 24 53 24 74 -1 l17 -21 32 27 c38 32 89 106 99 143 6 24 25 73 53 137 21 47 63 174 71 215 5 25 13 63 19 85 12 41 17 69 69 353 33 182 66 509 70 700 1 12 7 22 15 22 17 0 30 -32 22 -57 -6 -23 -21 -493 -19 -598 1 -49 -2 -82 -9 -86 -11 -7 -41 -182 -39 -228 0 -12 -2 -28 -7 -35 -9 -14 -33 -120 -36 -161 -1 -16 -10 -47 -19 -69 -9 -21 -17 -42 -17 -47 0 -5 -4 -17 -9 -27 -5 -9 -23 -53 -42 -97 -18 -44 -47 -113 -66 -153 -18 -41 -33 -82 -33 -92 0 -23 25 -44 48 -38 17 5 18 0 14 -48 -9 -110 18 -154 63 -104 26 29 38 11 26 -41 -12 -52 -5 -142 14 -184 7 -16 16 -39 19 -51 4 -11 19 -29 34 -41 65 -48 142 -31 176 38 25 50 32 145 17 224 -11 58 -1 77 27 52 10 -9 26 -17 35 -17 19 0 52 44 43 59 -3 5 -14 36 -25 69 l-18 60 23 -10 c17 -8 27 -8 39 2 21 17 19 48 -5 95 -12 22 -29 70 -40 106 -10 37 -23 76 -29 88 -6 11 -18 55 -26 98 -8 43 -20 107 -28 143 -8 36 -18 110 -21 165 -4 55 -11 118 -16 140 -4 22 -11 114 -15 204 -3 91 -8 168 -10 172 -9 14 -6 305 3 329 8 22 11 16 21 -45 6 -38 13 -117 15 -175 2 -58 9 -127 15 -153 6 -27 9 -52 6 -57 -2 -4 2 -48 9 -96 8 -49 22 -147 31 -218 9 -72 21 -140 26 -154 5 -13 9 -38 9 -55 0 -18 14 -84 31 -147 17 -63 33 -130 36 -147 3 -18 9 -33 13 -33 4 0 10 -15 14 -32 12 -60 87 -205 113 -219 23 -13 27 -11 48 15 l23 29 28 -20 c84 -58 193 -55 250 8 14 16 15 24 6 44 -7 15 -20 25 -32 25 -51 0 -120 33 -169 81 -55 53 -67 86 -28 73 36 -12 49 -10 60 8 9 14 6 29 -18 72 -16 30 -40 61 -52 67 -13 7 -23 16 -23 20 0 5 -14 22 -31 40 -37 37 -129 178 -129 196 0 20 19 16 52 -12 34 -29 66 -32 75 -8 7 18 -44 122 -64 130 -7 3 -13 10 -13 17 0 6 -9 19 -20 29 -11 9 -20 24 -20 32 0 15 -14 45 -36 75 -6 8 -16 35 -23 60 -7 25 -24 59 -37 77 -15 20 -24 45 -24 68 0 20 -9 57 -19 83 -11 26 -22 69 -25 97 -4 27 -10 63 -16 80 -31 102 -47 244 -33 290 5 17 9 14 24 -20 10 -22 18 -52 18 -66 1 -14 5 -39 10 -55 5 -16 17 -56 26 -89 30 -107 58 -180 77 -201 10 -11 18 -32 18 -46 0 -14 7 -31 15 -38 8 -7 15 -20 15 -29 0 -9 6 -25 13 -36 7 -11 19 -38 26 -60 7 -22 37 -89 66 -150 81 -171 105 -225 105 -234 0 -5 14 -36 30 -69 17 -34 30 -65 30 -70 0 -17 37 -42 63 -42 25 0 27 3 27 45 0 25 2 45 5 45 3 0 24 -9 48 -19 93 -43 225 -47 299 -10 58 30 64 79 8 79 -16 0 -32 5 -35 10 -3 6 -17 10 -30 10 -13 0 -27 5 -30 10 -3 6 -19 10 -35 10 -15 0 -30 3 -32 8 -1 4 -34 28 -73 55 -99 67 -132 98 -137 127 -2 19 2 26 19 28 12 2 24 10 27 18 6 17 -29 74 -45 74 -5 0 -9 6 -9 13 0 6 -17 26 -37 42 -21 17 -50 42 -64 58 -15 15 -32 27 -37 27 -6 0 -20 14 -32 30 -12 17 -27 30 -35 30 -7 0 -21 17 -30 38 -24 49 -56 92 -69 92 -6 0 -12 13 -13 29 -1 16 -16 49 -32 74 -17 25 -31 48 -31 52 0 3 -7 13 -15 21 -8 9 -15 25 -15 37 0 13 -6 31 -14 42 -14 20 -36 110 -36 145 0 33 17 23 38 -22 98 -215 121 -257 182 -330 17 -20 43 -54 57 -75 65 -96 134 -149 182 -138 17 3 44 -2 72 -14 106 -47 219 -33 219 27 0 27 -4 31 -60 46 -32 9 -62 21 -65 26 -3 5 -30 23 -60 40 -57 33 -67 54 -38 75 16 12 16 16 3 40 -8 15 -26 35 -40 43 -14 9 -34 23 -45 33 -11 9 -36 25 -55 36 -66 35 -94 57 -198 151 -24 22 -44 50 -57 82 -4 8 -13 30 -21 48 -14 32 -19 72 -9 72 3 0 38 -33 78 -73 120 -121 263 -176 287 -111 8 21 14 23 52 18 55 -6 85 16 90 66 l3 35 -51 -3 c-48 -3 -144 19 -170 39 -6 5 -14 6 -17 2 -4 -3 -18 4 -31 16 -13 12 -30 23 -38 25 -17 2 -78 68 -78 84 0 24 133 53 204 45 230 -27 492 -277 584 -558 20 -59 24 -330 6 -380 -15 -43 -7 -63 28 -70 39 -9 74 16 106 76 12 24 27 45 32 47 15 5 22 -81 16 -179 -9 -133 -39 -257 -65 -274 -6 -3 -11 -15 -11 -25 0 -10 -27 -53 -60 -94 -33 -42 -60 -82 -60 -89 0 -26 37 -50 70 -45 51 8 56 -21 8 -57 -21 -16 -53 -42 -70 -57 -17 -15 -44 -30 -60 -33 -102 -23 -143 -103 -75 -146 42 -27 125 -21 199 14 29 14 54 24 56 23 1 -2 -1 -17 -4 -35 -5 -24 -14 -36 -35 -43 -16 -5 -31 -19 -35 -31 -4 -12 -26 -40 -50 -62 -41 -38 -42 -42 -37 -84 6 -41 4 -44 -13 -37 -10 4 -29 10 -42 12 -20 4 -23 1 -17 -16 3 -11 2 -20 -3 -20 -5 0 -13 -10 -16 -22 l-6 -23 -25 27 c-31 36 -67 36 -94 2 -12 -15 -21 -31 -21 -37 0 -11 -53 -75 -107 -130 -22 -21 -62 -46 -96 -59 -32 -11 -60 -25 -63 -29 -3 -5 -30 -6 -60 -3 -43 5 -54 4 -54 -8 0 -8 5 -19 12 -26 20 -20 -5 -34 -63 -36 -69 -3 -158 11 -186 30 -40 25 -93 13 -93 -23 0 -7 16 -31 36 -53 25 -27 34 -46 31 -62 l-4 -23 -8 23 c-12 37 -23 25 -19 -23 2 -34 -1 -45 -12 -45 -10 0 -13 12 -12 50 2 35 -2 55 -14 66 -15 15 -17 11 -20 -56 -3 -71 8 -100 32 -85 13 8 13 -1 -1 -27 -9 -17 -17 -19 -56 -13 -37 5 -47 3 -59 -12 -22 -29 -17 -82 11 -119 30 -39 132 -92 195 -100 101 -14 265 -15 318 -1 58 16 67 7 32 -33 -11 -13 -21 -32 -22 -44 0 -12 -2 -28 -2 -36 -3 -30 34 -79 61 -80 17 0 41 55 36 83 -5 26 11 67 27 67 5 0 34 16 65 35 30 20 63 39 73 42 20 8 265 167 293 191 62 53 134 131 157 171 14 25 36 60 48 76 46 62 66 133 66 237 l0 97 29 10 c26 9 29 15 29 51 0 39 2 42 48 61 106 45 142 63 142 71 0 4 12 14 28 22 70 36 215 205 237 276 4 14 18 38 31 53 24 28 33 77 15 77 -14 0 -52 -57 -67 -99 -8 -24 -18 -36 -31 -36 -10 0 -19 -6 -19 -13 -1 -6 -2 -18 -3 -25 -2 -26 -91 -129 -155 -180 -93 -74 -129 -95 -201 -114 -52 -14 -69 -15 -90 -5 -23 11 -25 15 -14 28 11 13 9 19 -10 33 -15 12 -22 25 -19 41 5 35 31 47 72 32 56 -21 141 -2 223 50 74 47 146 116 170 163 9 17 21 37 28 45 8 8 20 33 28 55 8 22 28 78 45 125 17 47 36 123 43 170 25 170 5 646 -27 657 -14 5 -7 -85 8 -104 5 -7 7 -20 4 -30 -3 -10 -8 -40 -11 -68 -22 -209 -55 -316 -117 -377 -15 -16 -53 -15 -46 1 2 3 16 31 32 61 16 30 35 82 42 115 18 79 35 197 29 203 -2 3 -13 -6 -24 -19 -22 -27 -17 -31 -41 41 -5 14 -11 54 -14 90 -3 36 -14 99 -23 140 -30 131 -16 244 21 172 9 -17 16 -41 16 -52 0 -12 4 -29 9 -39 5 -9 18 -85 27 -169 21 -176 38 -188 37 -25 -1 138 -17 233 -54 318 -4 11 -16 45 -25 75 -9 30 -20 60 -24 65 -4 6 -13 28 -20 50 -13 40 -47 97 -62 103 -4 2 -15 18 -23 35 -22 44 -72 101 -78 89 -4 -5 4 -24 17 -43 58 -86 106 -235 106 -330 0 -69 -32 -166 -60 -184 -25 -15 -27 7 -10 115 9 58 9 88 0 130 -15 69 -47 167 -66 200 -8 14 -19 36 -24 50 -19 45 -62 110 -99 149 -33 36 -61 73 -61 82 0 5 -12 14 -27 21 -15 7 -38 29 -51 48 -13 19 -39 43 -58 53 -19 9 -34 22 -34 28 0 5 -13 15 -30 20 -16 6 -30 16 -30 21 0 6 -9 8 -20 5 -12 -3 -20 0 -20 7 0 21 -31 41 -127 84 -169 76 -243 96 -243 68 0 -8 23 -21 56 -32 157 -49 314 -229 314 -359 0 -39 -3 -46 -16 -41 -9 3 -20 6 -25 6 -6 0 -18 17 -27 38 -54 115 -163 232 -262 279 -76 37 -104 43 -226 50 -75 4 -97 2 -117 -12 -15 -9 -30 -14 -34 -12 -5 3 -34 -12 -65 -34 -32 -21 -65 -39 -74 -39 -8 0 -29 -14 -46 -31 -23 -22 -28 -33 -19 -42 8 -8 14 -7 23 4 14 16 63 49 74 49 3 0 4 -10 1 -22 -5 -19 1 -26 26 -38 30 -14 32 -19 32 -64 0 -49 0 -49 -44 -64 -47 -16 -41 -32 14 -32 l30 0 -29 -15 c-44 -23 -64 -18 -122 28 -56 45 -74 73 -74 114 0 28 17 88 31 113 5 8 13 24 18 35 8 19 44 57 92 99 38 32 125 66 211 81 85 16 265 17 274 3 3 -4 20 -8 39 -8 47 0 237 -64 311 -104 34 -19 72 -40 85 -47 84 -47 225 -154 309 -235 25 -24 63 -62 85 -83 49 -48 114 -124 147 -172 13 -19 38 -51 56 -70 18 -19 35 -45 38 -59 3 -14 23 -62 45 -107 21 -46 39 -87 39 -93 0 -6 11 -35 24 -63 13 -29 31 -86 41 -127 9 -41 21 -87 27 -102 5 -15 7 -31 4 -37 -4 -5 2 -43 13 -83 27 -104 22 -405 -8 -522 -12 -43 -18 -83 -15 -88 3 -5 -1 -17 -9 -26 -8 -9 -17 -35 -20 -57 -3 -22 -8 -51 -12 -64 -6 -18 -5 -23 5 -19 8 2 27 47 42 99 26 86 34 106 65 164 31 57 42 258 22 400 -6 39 -12 99 -15 135 -5 78 -8 92 -40 200 -51 168 -117 322 -155 356 -11 9 -19 24 -19 31 0 12 -58 93 -81 113 -3 3 -21 28 -39 55 -32 47 -52 69 -202 226 -94 98 -210 197 -241 204 -15 4 -31 13 -35 20 -4 6 -45 31 -92 55 -47 23 -89 45 -95 49 -27 20 -114 46 -264 77 -144 30 -177 33 -256 28 -49 -4 -93 -8 -97 -11 -16 -9 -29 8 -17 23 15 19 5 42 -24 53 -17 7 -27 20 -31 45 -6 34 -50 97 -64 94 -4 -1 -18 1 -32 5 -14 3 -49 11 -77 17 -29 7 -53 17 -53 24 0 17 89 35 122 24 15 -5 39 -26 54 -46 15 -20 42 -52 61 -71 35 -36 40 -37 184 -30 52 3 59 1 99 -34 53 -45 94 -54 154 -34 38 13 50 13 85 1 70 -24 161 8 161 56 0 38 -14 52 -46 48 -25 -2 -29 -8 -32 -35 -3 -30 -6 -33 -38 -33 -20 0 -44 4 -54 10 -14 7 -32 4 -70 -14 -50 -23 -54 -24 -86 -8 -19 8 -36 23 -39 31 -3 9 -20 27 -39 39 -33 22 -38 23 -93 11 -86 -18 -134 -13 -158 17 -84 106 -113 123 -207 124 -74 0 -27 38 72 57 52 10 69 18 88 43 13 16 30 30 37 30 22 0 65 52 65 77 0 23 -32 63 -50 63 -5 0 -13 -7 -18 -16 -7 -13 -16 -15 -38 -9 -16 5 -57 8 -92 8 -50 0 -70 -6 -102 -27 -35 -23 -60 -33 -60 -23 0 2 11 27 25 55 14 29 25 58 25 64 1 29 28 48 67 48 21 0 48 6 59 14 19 14 19 15 -5 40 -18 19 -35 26 -62 26 -21 0 -59 7 -85 16 -83 28 -138 2 -164 -80 -12 -37 -14 -38 -27 -20 -35 48 -28 116 17 159 17 16 30 39 30 52 0 63 -122 124 -149 75z m-203 -154 c13 -13 16 -58 4 -58 -10 0 -62 53 -62 63 0 12 45 8 58 -5z m472 -73 c10 -12 10 -18 -1 -32 -24 -31 -32 -32 -53 -6 -19 25 -19 26 -1 39 24 18 40 18 55 -1z m54 -43 c-16 -16 -31 -27 -33 -25 -6 5 41 53 52 53 6 0 -3 -13 -19 -28z m-64 -137 c-5 -14 -17 -25 -26 -25 -13 0 -15 6 -10 32 3 17 11 38 18 45 10 13 13 12 20 -6 4 -12 3 -32 -2 -46z m-103 -2 c2 -6 -7 -8 -23 -5 -19 3 -22 7 -12 13 15 10 30 7 35 -8z m-47 -42 c0 -46 -47 -75 -103 -65 -23 5 -46 8 -52 9 -15 0 -34 27 -35 48 0 18 10 22 26 8 5 -4 23 -11 41 -14 26 -5 31 -3 26 8 -3 8 0 15 6 15 6 0 11 -6 11 -12 0 -8 7 -5 15 6 13 17 15 17 21 3 3 -9 10 -14 16 -11 5 3 7 12 4 20 -3 8 1 14 9 14 10 0 15 -10 15 -29z m335 19 c6 -10 5 -11 -30 -15 -11 -1 -35 -9 -52 -19 -44 -22 -65 -20 -27 3 18 11 35 24 38 30 9 14 63 14 71 1z m-563 -22 c-5 -7 -13 -27 -16 -44 -6 -28 -4 -32 34 -49 46 -21 55 -33 64 -91 7 -48 -2 -58 -55 -68 -29 -5 -39 -2 -57 17 -39 41 -38 91 4 235 2 6 11 12 20 12 12 0 14 -3 6 -12z m305 -15 c-4 -3 -10 -3 -14 0 -3 4 0 7 7 7 7 0 10 -3 7 -7z m256 -10 c-7 -2 -21 -2 -30 0 -10 3 -4 5 12 5 17 0 24 -2 18 -5z m-195 -95 c5 -26 -35 -23 -48 3 -11 19 -9 20 17 17 17 -2 29 -10 31 -20z m152 2 c0 -5 -10 -10 -22 -10 -12 0 -29 -7 -39 -16 -10 -9 -23 -13 -28 -9 -19 11 -12 25 12 25 12 0 29 5 37 10 20 13 40 13 40 0z m-650 -12 c0 -19 -18 -43 -32 -44 -43 -3 -44 -4 -28 -14 12 -8 9 -10 -12 -10 -23 0 -26 4 -25 35 1 34 10 45 22 25 10 -16 38 -12 31 5 -4 11 1 15 19 15 14 0 25 -6 25 -12z m-264 -93 c-18 -27 -51 -33 -59 -11 -3 8 9 24 31 40 31 22 38 24 40 11 2 -9 -4 -27 -12 -40z m725 18 c39 -23 36 -41 -5 -34 -5 1 -16 -1 -25 -5 -19 -9 -27 -11 -42 -13 -6 0 -9 -10 -6 -21 3 -11 -2 -25 -10 -32 -12 -10 -18 -9 -29 7 -20 27 -17 48 9 73 18 17 56 38 75 41 2 1 17 -7 33 -16z m-172 -128 c3 -15 -2 -17 -30 -11 -39 8 -43 11 -36 30 8 20 61 5 66 -19z m429 2 c23 -11 70 -92 60 -103 -3 -3 -16 8 -29 23 -32 38 -89 72 -128 76 -17 2 -36 8 -42 14 -13 13 110 5 139 -10z m-745 -43 c43 -8 44 -26 1 -35 l-29 -6 37 -7 c46 -10 40 -26 -10 -26 l-37 -1 34 -14 c18 -8 43 -15 55 -15 19 -1 19 -2 4 -11 -19 -11 -98 7 -98 22 0 4 -16 16 -35 25 -28 13 -38 14 -50 4 -17 -14 -55 -4 -55 14 0 41 90 65 183 50z m635 -42 c-23 -4 -39 9 -20 15 6 3 9 10 6 16 -4 7 2 3 13 -8 20 -20 20 -20 1 -23z m-308 5 c0 -12 -8 -30 -19 -39 -10 -8 -26 -41 -36 -72 -21 -66 -12 -114 32 -166 14 -17 22 -34 18 -38 -12 -12 -64 60 -71 98 -4 19 -11 41 -17 48 -7 9 -6 21 2 38 6 14 11 35 11 47 1 41 37 107 60 107 14 0 20 -6 20 -23z m-210 -31 c0 -3 -4 -8 -10 -11 -5 -3 -10 -1 -10 4 0 6 5 11 10 11 6 0 10 -2 10 -4z m-345 -107 c72 -13 216 -82 257 -124 43 -44 66 -94 73 -161 8 -76 -20 -131 -78 -153 -44 -16 -107 -6 -115 19 -4 12 -2 13 9 4 28 -23 66 -22 96 2 15 13 24 24 18 25 -5 0 -32 2 -58 3 -56 2 -69 16 -55 57 7 21 17 29 33 29 12 0 28 7 35 15 7 8 19 15 27 15 11 0 9 7 -7 30 -13 19 -30 30 -45 30 -16 0 -33 12 -51 35 -14 19 -33 35 -40 35 -8 0 -14 4 -14 9 0 24 -209 63 -233 43 -6 -5 -36 -13 -64 -17 -29 -4 -56 -11 -59 -16 -3 -5 -20 -16 -37 -24 -82 -36 -177 -174 -177 -255 0 -29 -32 -66 -49 -56 -36 23 -9 154 51 248 31 47 121 128 143 128 15 0 40 28 33 36 -7 7 -116 -30 -181 -61 -28 -14 -54 -25 -59 -25 -15 0 -162 -93 -218 -138 -75 -60 -220 -202 -231 -227 -5 -11 -23 -38 -39 -60 -42 -57 -116 -209 -136 -280 -10 -35 -17 -101 -18 -159 -1 -55 -6 -101 -11 -103 -48 -15 -78 146 -48 257 8 30 19 59 24 64 5 6 9 19 9 30 0 22 6 35 59 129 18 31 28 57 22 57 -15 0 -69 -61 -83 -95 -7 -16 -27 -53 -45 -82 -29 -46 -76 -152 -79 -178 0 -5 -6 -23 -12 -38 -7 -16 -15 -47 -18 -70 -4 -23 -13 -52 -20 -64 -8 -13 -14 -52 -15 -95 0 -40 -4 -100 -9 -133 -8 -63 14 -271 31 -289 5 -6 9 -19 9 -30 0 -12 16 -50 35 -85 19 -35 32 -68 29 -72 -13 -22 -43 -7 -65 34 -56 103 -82 162 -85 186 -1 14 -7 65 -13 113 -5 48 -9 95 -7 105 21 112 13 167 -12 81 -34 -119 -38 -554 -7 -691 21 -91 45 -169 56 -183 5 -6 18 -37 29 -70 11 -32 28 -69 38 -83 9 -15 19 -31 22 -38 3 -6 29 -36 58 -67 55 -58 155 -115 207 -119 25 -2 31 3 40 28 5 17 14 36 18 43 10 14 51 17 42 2 -3 -6 5 -14 18 -19 35 -13 57 -48 48 -74 -4 -11 -22 -28 -39 -37 -17 -10 -29 -20 -25 -24 16 -15 57 -4 85 24 24 25 29 36 23 58 -9 37 -44 72 -72 72 -26 0 -31 17 -8 26 25 10 75 -17 91 -49 29 -55 -2 -125 -69 -157 -49 -24 -68 -25 -135 -5 -74 22 -262 156 -262 187 0 5 -14 30 -32 56 -37 54 -122 219 -124 242 0 9 -7 27 -15 40 -7 14 -19 61 -26 105 -7 44 -18 109 -24 145 -14 81 -13 373 1 460 22 129 51 275 60 295 4 11 25 61 45 110 21 50 46 110 57 135 22 51 96 177 136 231 15 20 54 74 86 120 67 95 131 158 226 224 36 25 90 63 120 85 30 21 61 39 68 39 6 1 12 5 12 9 0 5 24 19 53 32 28 12 75 33 102 45 189 84 391 109 590 74z m597 -7 c-19 -6 -14 -44 9 -68 23 -24 19 -64 -7 -64 -18 0 -33 37 -32 81 0 39 29 92 36 69 3 -8 0 -16 -6 -18z m-588 -150 c40 -11 64 -27 54 -37 -6 -7 -107 9 -173 27 -34 9 -37 12 -20 19 23 10 83 6 139 -9z m371 -41 c33 -37 59 -84 81 -148 14 -41 14 -44 -12 -84 -22 -35 -25 -50 -21 -88 8 -75 78 -112 180 -96 52 9 84 37 97 87 13 45 -2 113 -25 122 -45 17 31 197 102 239 19 11 16 -10 -7 -58 -24 -49 -26 -136 -5 -195 18 -50 19 -79 4 -117 -8 -22 -12 -24 -19 -13 -7 11 -10 8 -10 -12 0 -17 7 -31 19 -37 10 -6 22 -27 25 -46 11 -55 -17 -101 -84 -137 -30 -17 -59 -33 -65 -37 -15 -11 -116 -5 -148 8 -16 6 -32 11 -37 11 -26 0 -83 38 -103 69 -43 65 -42 81 7 139 19 22 19 22 -1 45 -31 33 -34 75 -11 125 18 37 20 56 16 133 -5 74 -9 94 -27 113 -11 12 -21 26 -21 30 0 11 27 -11 65 -53z m-190 -51 c4 -6 -6 -10 -23 -10 -16 0 -35 -7 -42 -15 -7 -8 -17 -15 -23 -15 -6 0 0 11 13 25 24 25 64 33 75 15z m885 -59 c14 -26 13 -74 -2 -89 -20 -20 -27 -13 -21 22 4 25 0 43 -14 63 -37 53 -37 56 -4 39 17 -9 35 -25 41 -35z m110 -6 c0 -44 -12 -60 -24 -30 -7 20 4 75 15 75 5 0 9 -20 9 -45z m90 -119 c15 -15 12 -26 -5 -26 -8 0 -16 6 -17 13 -6 51 -6 79 0 127 l7 55 3 -80 c2 -44 7 -84 12 -89z m-52 103 c-4 -33 -4 -34 -15 -9 -12 28 -5 66 9 52 5 -5 8 -25 6 -43z m619 21 c19 -17 57 -59 86 -93 28 -34 81 -92 118 -129 96 -95 125 -168 69 -168 -26 0 -47 22 -139 148 -40 56 -89 117 -108 134 -43 42 -73 90 -73 117 0 28 6 27 47 -9z m-1867 -41 c0 -5 -4 -9 -10 -9 -5 0 -10 7 -10 16 0 8 5 12 10 9 6 -3 10 -10 10 -16z m-120 -13 c0 -14 4 -27 9 -30 5 -3 14 -19 19 -36 10 -26 8 -31 -11 -42 -21 -11 -48 -17 -91 -21 -10 -1 -21 4 -24 12 -3 10 0 12 13 8 9 -4 22 -4 28 0 7 4 19 8 27 8 12 0 15 13 13 63 -1 34 3 62 8 62 5 0 9 -11 9 -24z m170 8 c0 -8 -4 -12 -10 -9 -5 3 -10 10 -10 16 0 5 5 9 10 9 6 0 10 -7 10 -16z m1283 -4 c-6 -22 -23 -38 -23 -21 0 17 12 41 20 41 5 0 6 -9 3 -20z m-1492 -34 c15 -16 10 -29 -6 -16 -8 7 -14 24 -14 39 1 20 2 22 6 6 3 -11 9 -24 14 -29z m1622 24 c-3 -11 -7 -20 -9 -20 -2 0 -4 9 -4 20 0 11 4 20 9 20 5 0 7 -9 4 -20z m-69 -92 c9 -5 16 -16 16 -24 0 -13 -3 -13 -29 0 -31 16 -43 37 -36 61 15 48 18 49 25 11 4 -21 15 -43 24 -48z m105 51 c-19 -12 -24 -2 -8 17 9 11 14 13 17 4 3 -7 -2 -16 -9 -21z m-2241 9 c20 -20 14 -37 -43 -107 -30 -38 -55 -72 -55 -77 0 -5 -43 -52 -96 -104 -53 -52 -107 -112 -120 -132 -24 -38 -54 -51 -54 -24 0 19 40 89 57 99 7 4 13 13 13 20 0 7 20 28 44 47 24 19 51 46 59 60 32 49 35 56 64 113 48 99 98 138 131 105z m1930 -20 c2 -17 -3 -28 -14 -32 -22 -8 -23 -7 -17 32 6 38 27 38 31 0z m65 -11 c-3 -5 -10 -4 -15 1 -6 6 -7 16 -3 22 6 9 9 9 16 -1 4 -7 5 -17 2 -22z m-1536 6 c-4 -3 -7 0 -7 7 0 7 3 10 7 7 3 -4 3 -10 0 -14z m63 -8 c0 -8 -4 -17 -10 -20 -6 -4 -10 5 -10 20 0 15 4 24 10 20 6 -3 10 -12 10 -20z m286 8 c18 -24 17 -33 -1 -33 -8 0 -15 4 -15 9 0 5 -3 16 -6 25 -8 21 6 20 22 -1z m1475 -6 c-14 -14 -14 -77 -1 -77 6 0 10 -8 10 -17 0 -14 5 -12 26 8 l27 24 -6 -35 c-6 -33 -6 -34 9 -15 8 11 21 29 28 39 8 14 15 16 20 8 4 -6 -2 -20 -14 -32 -11 -11 -20 -29 -20 -40 0 -27 -22 -25 -58 5 -17 14 -37 25 -45 25 -8 0 -20 7 -27 15 -7 8 -21 15 -31 15 -11 0 -19 5 -19 10 0 6 7 10 15 10 9 0 15 9 15 24 0 14 5 28 11 32 8 5 9 -6 4 -36 -5 -32 -4 -41 6 -38 6 2 14 15 16 29 5 34 24 69 35 63 6 -4 5 -11 -1 -17z m-1521 -12 c0 -14 -46 -26 -67 -18 -22 9 2 28 36 29 19 1 31 -4 31 -11z m570 -5 c0 -5 -5 -10 -11 -10 -5 0 -7 5 -4 10 3 6 8 10 11 10 2 0 4 -4 4 -10z m-870 -54 c5 -14 0 -26 -18 -43 -14 -13 -28 -23 -31 -23 -7 1 -51 86 -51 100 0 18 15 11 25 -12 16 -35 32 -33 27 4 l-5 33 23 -20 c12 -11 26 -29 30 -39z m1907 37 c-4 -3 -7 0 -7 7 0 7 3 10 7 7 3 -4 3 -10 0 -14z m-57 -8 c0 -8 -4 -15 -10 -15 -5 0 -7 7 -4 15 4 8 8 15 10 15 2 0 4 -7 4 -15z m-1816 -14 c10 -11 13 -22 8 -25 -6 -3 -17 5 -26 19 -19 29 -7 33 18 6z m821 9 c3 -5 1 -10 -4 -10 -6 0 -11 5 -11 10 0 6 2 10 4 10 3 0 8 -4 11 -10z m744 -25 c146 -28 318 -139 474 -305 94 -100 151 -180 196 -275 78 -165 91 -198 111 -271 36 -133 39 -154 46 -301 7 -143 0 -221 -32 -368 -17 -77 -52 -185 -66 -199 -4 -6 -8 -16 -8 -23 0 -37 -138 -191 -197 -221 -73 -37 -143 -48 -143 -21 0 4 21 15 48 23 55 16 112 44 112 54 0 4 16 25 35 47 76 85 105 139 146 270 32 102 21 129 -19 47 -26 -53 -81 -124 -82 -104 0 7 9 23 20 34 42 45 90 174 90 241 0 188 -9 330 -24 392 -10 39 -20 81 -22 94 -3 13 -14 41 -24 62 -11 21 -20 47 -20 58 0 12 -12 51 -26 88 -50 128 -63 151 -94 162 -17 5 -30 15 -30 22 0 6 7 9 15 5 18 -7 19 3 1 27 -7 9 -20 15 -27 12 -8 -3 -21 8 -32 27 -14 24 -15 28 -2 18 11 -9 15 -9 15 -1 0 19 -37 54 -49 47 -15 -10 -103 85 -96 103 3 8 -7 27 -22 43 -30 31 -43 35 -43 13 0 -11 -14 -5 -50 20 -27 19 -53 35 -58 35 -5 0 -36 11 -71 25 -86 33 -199 48 -259 34 -62 -15 -131 -46 -160 -72 -18 -17 -27 -19 -40 -10 -28 17 -21 65 13 92 41 32 124 70 177 80 41 8 146 6 197 -4z m-1172 -8 c68 -15 98 -35 118 -82 27 -65 -26 -88 -75 -31 -23 26 -43 36 -90 46 -60 13 -163 8 -184 -9 -6 -4 -23 -11 -38 -15 -31 -7 -142 -71 -159 -92 -6 -8 -15 -14 -20 -14 -4 0 -38 -30 -74 -66 -67 -66 -107 -83 -45 -19 18 19 31 38 27 41 -3 4 -26 -14 -49 -40 -24 -25 -50 -46 -58 -46 -22 -1 -50 -25 -50 -43 0 -8 -3 -17 -7 -19 -20 -8 -96 -121 -117 -174 -13 -32 -29 -60 -35 -62 -18 -6 -13 23 9 50 10 14 17 28 13 32 -3 3 1 14 9 23 22 26 31 56 16 51 -18 -6 -76 -126 -84 -173 -3 -21 -10 -46 -14 -55 -31 -64 -50 -114 -50 -133 0 -12 -7 -44 -15 -71 -8 -26 -12 -52 -9 -58 3 -5 0 -15 -6 -23 -7 -8 -15 -44 -17 -79 -4 -47 -9 -63 -18 -59 -16 6 -21 -17 -16 -74 2 -34 7 -43 22 -43 14 0 19 -7 19 -27 0 -26 -1 -26 -15 -7 -13 18 -14 17 -14 -16 -1 -32 17 -125 34 -177 4 -14 3 -23 -3 -23 -5 0 -18 34 -27 75 -17 70 -37 107 -48 88 -7 -11 19 -209 32 -248 23 -72 81 -196 106 -229 38 -50 116 -103 170 -117 48 -12 56 -22 28 -34 -71 -31 -204 64 -276 197 -15 28 -31 56 -36 62 -14 18 -39 135 -51 239 -19 163 8 444 54 551 9 21 16 48 16 60 0 25 81 236 104 271 9 14 28 46 43 72 14 26 31 53 37 59 6 6 36 42 66 79 54 65 200 201 230 213 8 3 31 17 50 30 62 42 133 75 225 103 101 31 179 35 272 16z m-658 -72 c11 -19 16 -37 11 -40 -7 -4 -50 56 -50 71 0 15 21 -1 39 -31z m103 -5 c4 0 8 -4 8 -10 0 -5 -9 -10 -20 -10 -16 0 -20 6 -19 33 0 30 1 31 11 10 6 -13 15 -23 20 -23z m40 -2 c-15 -15 -26 -4 -18 18 5 13 9 15 18 6 9 -9 9 -15 0 -24z m2018 -4 c-18 -21 -24 -10 -9 18 8 14 14 18 17 10 2 -7 -2 -19 -8 -28z m124 8 c-25 -19 -44 -53 -44 -76 0 -28 19 -17 42 23 19 33 54 59 65 48 1 -2 -16 -24 -38 -50 -51 -59 -42 -82 11 -27 21 22 44 40 52 40 10 -1 9 -4 -2 -13 -20 -16 -50 -63 -50 -79 0 -7 14 4 31 25 29 36 49 47 49 28 0 -5 -6 -16 -13 -23 -20 -22 -48 -68 -40 -68 4 0 25 17 47 38 l39 37 -19 -33 c-10 -19 -32 -40 -47 -49 -28 -14 -30 -13 -75 29 -26 24 -54 50 -63 58 -13 11 -14 21 -7 40 10 25 69 82 78 73 3 -2 -5 -12 -16 -21z m-64 1 c-1 -14 -30 -47 -36 -41 -8 8 14 48 26 48 6 0 10 -3 10 -7z m-2300 -35 c0 -6 -7 -5 -15 2 -8 7 -15 17 -15 22 0 6 7 5 15 -2 8 -7 15 -17 15 -22z m88 -20 c9 -9 15 -9 24 0 14 14 28 16 28 3 0 -13 -61 -70 -83 -77 -9 -3 -24 2 -33 10 -8 9 -24 16 -34 16 -10 0 -21 7 -24 16 -9 24 1 30 21 12 36 -30 44 -31 38 -5 -5 19 -2 26 12 30 31 8 39 7 51 -5z m-173 -17 c3 -5 1 -12 -5 -16 -5 -3 -10 1 -10 9 0 18 6 21 15 7z m2119 -6 c19 -14 18 -15 -12 -15 -22 0 -32 5 -32 15 0 19 19 19 44 0z m-2049 -42 c24 -19 31 -31 24 -39 -7 -9 -19 -3 -44 22 -19 18 -35 36 -35 39 0 12 24 3 55 -22z m1602 10 c-4 -3 -7 0 -7 7 0 7 3 10 7 7 3 -4 3 -10 0 -14z m-1672 -20 c18 -16 43 -36 56 -45 17 -14 20 -21 11 -30 -8 -8 -15 -8 -27 2 -20 16 -32 5 -16 -14 14 -16 -1 -56 -21 -56 -7 0 -7 4 0 13 8 10 3 20 -24 40 -36 30 -43 47 -19 47 19 0 19 11 0 36 -32 42 -8 47 40 7z m-45 -25 c0 -5 -7 -8 -15 -8 -13 0 -35 28 -35 45 0 9 49 -28 50 -37z m2240 20 c0 -6 -6 -5 -15 2 -8 7 -15 14 -15 16 0 2 7 1 15 -2 8 -4 15 -11 15 -16z m670 3 c0 -6 -4 -13 -10 -16 -5 -3 -10 1 -10 9 0 9 5 16 10 16 6 0 10 -4 10 -9z m-562 -82 c35 -33 62 -65 60 -71 -2 -6 -25 10 -51 36 -26 25 -52 46 -57 46 -9 0 -30 32 -30 44 0 16 21 1 78 -55z m-2385 21 c27 -30 34 -50 19 -50 -11 0 -36 28 -51 58 -17 31 1 27 32 -8z m2677 21 c0 -5 -7 -14 -15 -21 -8 -7 -15 -18 -15 -26 0 -16 -17 -27 -24 -16 -6 10 33 72 45 72 5 0 9 -4 9 -9z m277 -8 c-4 -3 -7 0 -7 7 0 7 3 10 7 7 3 -4 3 -10 0 -14z m-228 -12 c-25 -20 -65 -81 -54 -81 4 0 24 14 45 30 47 37 54 37 45 3 -5 -23 -4 -26 6 -15 7 6 20 12 29 12 9 0 11 -3 5 -8 -24 -16 -86 -102 -75 -102 7 0 21 11 32 25 18 23 78 62 78 51 0 -8 -100 -106 -108 -106 -4 0 -18 16 -32 36 -14 19 -31 42 -38 50 -21 23 -5 66 36 96 42 31 68 38 31 9z m-2674 -98 c19 -13 19 -13 -5 -13 -29 0 -90 40 -90 58 0 13 29 -1 95 -45z m-120 17 c3 -5 4 -10 1 -10 -3 0 -8 5 -11 10 -3 6 -4 10 -1 10 3 0 8 -4 11 -10z m326 -30 c5 -23 -43 -101 -58 -96 -7 3 -26 -14 -43 -39 -17 -25 -33 -45 -35 -45 -13 0 -3 32 15 50 11 11 22 30 25 43 4 13 22 41 41 62 19 21 34 43 34 49 0 14 18 -5 21 -24z m-264 -6 c35 -26 42 -44 19 -44 -20 0 -66 39 -66 56 0 20 8 18 47 -12z m-67 -15 c0 -5 -8 -9 -17 -9 -24 0 35 -49 60 -50 21 0 22 -23 2 -40 -12 -10 -15 -10 -15 2 0 8 -11 20 -24 26 -14 6 -32 22 -41 36 -13 20 -14 28 -4 45 10 15 16 17 26 9 7 -6 13 -14 13 -19z m2622 -99 c33 -83 17 -80 -27 6 -17 32 -38 66 -47 76 -35 36 -17 35 19 0 21 -21 46 -57 55 -82z m288 60 c-61 -54 -61 -64 0 -24 21 14 47 24 57 22 15 -3 13 -7 -12 -23 -38 -23 -87 -76 -79 -84 4 -3 9 0 11 7 6 15 99 62 107 54 9 -8 -4 -22 -22 -22 -9 0 -30 -14 -47 -31 -27 -29 -28 -32 -11 -44 11 -8 13 -15 7 -20 -16 -9 -13 -25 4 -25 8 0 15 4 15 8 0 12 51 34 59 27 7 -8 -39 -44 -56 -45 -7 0 -13 -7 -13 -16 0 -13 5 -12 34 5 19 12 41 18 50 15 20 -7 21 -24 2 -24 -15 0 -69 -40 -63 -46 2 -3 17 2 33 11 32 16 64 20 64 7 0 -5 -18 -17 -40 -28 -22 -10 -40 -22 -40 -26 0 -13 27 -9 59 9 16 10 33 15 36 11 11 -11 -5 -28 -26 -28 -39 0 -60 -19 -53 -48 9 -36 6 -34 47 -17 23 9 37 11 37 5 0 -6 -8 -14 -17 -17 -19 -7 -43 -28 -43 -37 0 -3 17 1 38 8 21 8 52 11 68 8 l29 -6 -29 -6 c-41 -7 -46 -30 -7 -30 48 0 46 -18 -4 -26 -25 -3 -56 -15 -68 -25 l-22 -18 27 -1 c15 0 48 5 73 12 48 13 71 4 42 -17 -15 -11 -15 -14 -2 -25 24 -20 18 -26 -40 -39 -73 -17 -73 -36 1 -28 57 6 84 1 84 -14 0 -5 -22 -8 -49 -8 -33 1 -55 -4 -65 -14 -9 -8 -20 -17 -25 -19 -14 -5 -18 -43 -3 -42 6 1 28 2 47 3 39 1 49 21 11 21 -40 0 -40 18 0 26 38 7 108 -9 120 -27 4 -7 -6 -10 -29 -8 -43 4 -57 -6 -32 -24 16 -12 14 -14 -21 -16 -58 -3 -105 -15 -103 -26 0 -5 6 -8 12 -7 31 10 73 11 87 2 26 -16 11 -21 -87 -29 -7 -1 -13 -5 -13 -10 0 -4 18 -7 40 -5 21 2 42 -1 46 -7 9 -15 2 -18 -46 -23 -59 -5 -64 -24 -6 -24 25 0 50 -3 56 -7 19 -12 10 -20 -22 -19 -54 2 -56 -10 -4 -21 59 -13 77 -37 22 -28 -42 7 -50 -12 -11 -27 38 -14 32 -33 -7 -24 -38 9 -76 9 -85 0 -12 -11 4 -17 51 -18 33 0 46 -5 46 -15 0 -12 -9 -14 -48 -8 -39 5 -51 3 -62 -10 -13 -15 -10 -17 26 -14 21 2 48 -2 59 -8 16 -9 10 -11 -34 -11 -58 -1 -74 -8 -51 -22 13 -8 12 -11 -4 -23 -18 -13 -18 -14 4 -20 29 -7 46 1 31 16 -24 24 -2 37 29 17 11 -7 12 -12 3 -21 -6 -6 -9 -18 -6 -25 4 -11 -5 -14 -37 -14 -25 0 -39 -4 -35 -10 3 -5 17 -10 31 -10 13 0 24 -4 24 -10 0 -5 -3 -10 -8 -10 -4 0 -12 -10 -17 -22 -8 -18 -17 -22 -39 -20 -37 5 -26 -14 14 -23 17 -4 30 -13 30 -21 0 -16 -13 -17 -58 -5 -33 10 -45 -2 -14 -14 15 -6 14 -9 -12 -31 -16 -14 -35 -23 -42 -20 -8 3 -14 1 -14 -4 0 -5 9 -12 20 -15 32 -10 24 -28 -10 -22 -31 7 -51 -7 -25 -17 8 -3 15 -12 15 -21 0 -11 -11 -15 -40 -15 -42 0 -50 9 -26 29 8 7 17 23 21 38 3 14 17 42 31 62 13 19 24 42 24 50 0 7 8 32 19 55 25 54 60 171 65 218 2 21 7 42 10 47 12 19 15 267 5 331 -6 36 -13 79 -14 95 -2 17 -6 48 -8 70 -3 22 -10 53 -16 68 -6 16 -11 34 -11 42 0 8 -4 17 -10 20 -5 3 -10 19 -10 36 0 16 -4 29 -8 29 -5 0 -21 33 -37 73 -15 39 -33 79 -39 87 -7 8 -18 27 -25 42 -13 25 -11 28 24 60 44 39 74 57 95 58 8 0 -10 -22 -40 -50z m-915 30 c3 -5 1 -10 -4 -10 -6 0 -11 5 -11 10 0 6 2 10 4 10 3 0 8 -4 11 -10z m-2035 -68 c-7 -3 -19 3 -28 13 -16 15 -15 16 12 4 15 -7 23 -15 16 -17z m-62 -18 c-4 -3 -12 5 -18 18 -12 22 -12 22 6 6 10 -10 15 -20 12 -24z m359 -11 c-4 -3 -7 0 -7 7 0 7 3 10 7 7 3 -4 3 -10 0 -14z m-362 -40 c11 -11 29 -22 39 -26 10 -4 16 -10 13 -13 -10 -10 -79 30 -96 56 -15 22 -15 23 4 12 11 -6 29 -19 40 -29z m71 9 c-4 -3 -14 2 -24 12 -16 18 -16 18 6 6 13 -6 21 -14 18 -18z m3027 -13 c-12 -4 -24 -12 -28 -18 -3 -6 -12 -11 -18 -11 -7 0 1 12 16 25 16 14 33 22 39 18 7 -4 3 -9 -9 -14z m-3074 -54 c56 -26 73 -26 51 0 -10 13 -9 15 9 15 25 0 25 -1 7 -45 l-15 -34 -54 30 c-101 54 -99 81 2 34z m-342 -2 c-4 -3 -10 -3 -14 0 -3 4 0 7 7 7 7 0 10 -3 7 -7z m3098 -33 c-6 -9 -9 -9 -16 1 -10 17 0 34 13 21 6 -6 7 -16 3 -22z m-2760 -21 l40 -18 -32 0 c-30 -1 -49 -21 -20 -21 25 0 41 -18 29 -32 -6 -8 -11 -32 -10 -55 0 -49 -7 -63 -33 -63 -24 0 -26 30 -1 30 16 1 16 1 0 14 -24 18 -23 25 2 19 20 -5 28 11 11 21 -5 3 -7 14 -4 25 3 14 -5 22 -36 35 -23 8 -41 19 -41 22 0 3 6 4 14 1 23 -9 27 5 10 31 -15 23 -15 24 8 16 12 -4 41 -15 63 -25z m2775 -9 c0 -5 -2 -10 -4 -10 -3 0 -8 5 -11 10 -3 6 -1 10 4 10 6 0 11 -4 11 -10z m-2842 -66 c32 -9 27 -24 -5 -18 -31 6 -56 24 -32 24 7 0 24 -3 37 -6z m269 -11 c-4 -3 -7 0 -7 7 0 7 3 10 7 7 3 -4 3 -10 0 -14z m-284 -27 c27 -21 2 -30 -28 -10 -14 9 -25 18 -25 20 0 9 37 2 53 -10z m324 -3 c-4 -3 -7 0 -7 7 0 7 3 10 7 7 3 -4 3 -10 0 -14z m-42 -16 c-4 -13 -7 -31 -9 -40 -4 -29 -16 -31 -16 -3 0 26 15 66 26 66 2 0 2 -10 -1 -23z m2930 13 c-27 -12 -43 -12 -25 0 8 5 22 9 30 9 10 0 8 -3 -5 -9z m-3465 -45 c0 -26 -9 -65 -20 -87 -11 -23 -20 -51 -20 -62 0 -38 -12 -66 -27 -66 -13 0 -15 13 -10 78 7 104 31 182 57 182 17 0 20 -7 20 -45z m225 -43 c-3 -3 -11 0 -18 7 -9 10 -8 11 6 5 10 -3 15 -9 12 -12z m332 1 c-4 -3 -7 0 -7 7 0 7 3 10 7 7 3 -4 3 -10 0 -14z m-341 -36 c4 -4 -5 -7 -19 -7 -15 0 -27 4 -27 8 0 10 36 9 46 -1z m90 -15 c-3 -2 -19 -1 -37 3 -21 5 -27 10 -19 15 13 8 65 -9 56 -18z m-126 -22 c12 -1 11 -3 -3 -11 -13 -7 -23 -6 -40 7 l-22 16 25 -6 c14 -3 32 -6 40 -6z m118 -18 c-1 -4 -19 -4 -38 -1 -30 5 -31 7 -8 8 15 0 30 6 34 13 6 9 9 9 12 0 2 -7 2 -15 0 -20z m-18 -42 c0 -5 -4 -10 -10 -10 -5 0 -10 5 -10 10 0 6 5 10 10 10 6 0 10 -4 10 -10z m-85 -33 c31 4 37 2 29 -7 -15 -15 -75 -20 -91 -7 -20 15 -16 29 5 18 10 -5 36 -7 57 -4z m85 -34 c-1 -21 -19 -32 -63 -36 -27 -3 -51 -8 -54 -11 -7 -6 -43 12 -43 22 0 4 27 8 61 8 33 1 66 7 72 13 13 13 27 15 27 4z m1744 -42 c-3 -9 -9 -24 -11 -33 -3 -10 -9 -18 -13 -18 -13 0 -20 29 -9 36 7 4 6 10 0 18 -14 17 -5 25 20 19 14 -4 18 -11 13 -22z m-1760 -36 c-5 -11 -10 -12 -25 -2 -18 11 -18 12 -1 18 22 8 33 2 26 -16z m-84 5 c8 -5 11 -12 8 -16 -9 -9 -76 4 -83 16 -8 13 55 13 75 0z m74 -45 c-4 -8 -12 -15 -20 -15 -20 0 -17 18 4 23 9 3 18 5 19 6 1 0 0 -6 -3 -14z m-59 -5 c14 -6 4 -9 -37 -9 -31 -1 -60 4 -63 9 -8 12 71 12 100 0z m-30 -50 c-28 -12 -63 -12 -70 0 -4 6 12 10 42 9 36 0 43 -3 28 -9z m89 -28 c-8 -12 -8 -24 -1 -39 7 -16 7 -30 -1 -45 -8 -18 -11 -19 -11 -5 -1 13 -10 17 -46 17 -25 0 -45 5 -45 10 0 6 10 10 23 10 32 0 51 15 44 34 -4 10 -1 19 8 22 8 4 15 13 15 22 0 13 3 13 12 4 9 -9 10 -17 2 -30z m3550 -76 c3 -14 1 -37 -5 -53 -19 -47 -41 -126 -45 -163 -8 -64 -10 -72 -26 -81 -8 -5 -25 -31 -37 -58 -29 -68 -65 -89 -80 -48 -9 24 3 132 21 187 15 48 89 190 113 218 25 29 51 28 59 -2z m-184 -41 c0 -5 -5 -3 -10 5 -5 8 -10 20 -10 25 0 6 5 3 10 -5 5 -8 10 -19 10 -25z m-3410 15 c0 -5 -5 -10 -11 -10 -5 0 -7 5 -4 10 3 6 8 10 11 10 2 0 4 -4 4 -10z m847 -87 c-4 -3 -7 0 -7 7 0 7 3 10 7 7 3 -4 3 -10 0 -14z m-867 -2 c0 -10 -34 -21 -67 -21 -38 0 -26 19 15 23 20 2 40 4 45 5 4 1 7 -2 7 -7z m-18 -53 c-12 -12 -54 -7 -59 8 -2 6 10 8 33 6 23 -3 32 -8 26 -14z m-196 -91 c9 -40 24 -88 31 -107 26 -65 77 -165 87 -172 7 -5 7 -11 -2 -20 -10 -10 -24 0 -72 51 -33 35 -60 71 -60 80 0 9 -8 27 -17 40 -17 25 -31 165 -20 195 13 32 36 2 53 -67z m477 54 c24 -41 21 -48 -8 -21 -14 13 -25 29 -25 37 0 22 15 15 33 -16z m-258 -1 c-3 -5 -17 -10 -31 -10 -14 0 -22 4 -19 10 3 6 17 10 31 10 14 0 22 -4 19 -10z m3002 -27 c-4 -3 -7 0 -7 7 0 7 3 10 7 7 3 -4 3 -10 0 -14z m280 -130 c-4 -3 -7 0 -7 7 0 7 3 10 7 7 3 -4 3 -10 0 -14z m48 -32 c3 -5 1 -12 -5 -16 -5 -3 -10 1 -10 9 0 18 6 21 15 7z m-3345 -51 c0 -5 -7 -7 -15 -4 -8 4 -15 8 -15 10 0 2 7 4 15 4 8 0 15 -4 15 -10z m3427 -7 c-4 -3 -10 -3 -14 0 -3 4 0 7 7 7 7 0 10 -3 7 -7z m-74 -108 c-3 -9 -8 -14 -10 -11 -3 3 -2 9 2 15 9 16 15 13 8 -4z m-3398 -18 c13 -10 15 -16 6 -21 -12 -8 -41 10 -41 25 0 13 13 11 35 -4z m3130 -43 c-21 -8 -43 -20 -47 -27 -6 -9 -8 -9 -8 0 0 15 48 42 75 42 11 0 3 -7 -20 -15z m75 2 c0 -11 -19 -15 -25 -6 -3 5 1 10 9 10 9 0 16 -2 16 -4z m-177 -215 c79 -36 107 -88 107 -198 -1 -87 -13 -155 -35 -186 -14 -19 -14 -16 -10 41 5 65 -7 83 -25 37 -5 -14 -11 -25 -14 -25 -2 0 -1 38 1 85 4 57 2 94 -7 115 -13 31 -14 31 -66 24 -52 -6 -54 -5 -64 21 -16 41 -12 65 13 86 28 24 48 24 100 0z m-2816 -18 c-15 -36 -27 -44 -49 -32 -36 19 -13 59 34 59 26 0 27 -1 15 -27z m2981 -24 c5 -28 -25 -30 -43 -3 -16 25 -16 25 12 22 16 -2 29 -10 31 -19z m-2468 -137 c0 -11 10 -30 21 -43 12 -13 28 -34 36 -46 9 -13 22 -23 30 -23 9 0 33 -18 55 -40 22 -22 46 -40 52 -40 7 0 30 -9 51 -20 22 -12 72 -24 110 -29 65 -7 68 -8 43 -19 -36 -15 -35 -23 4 -47 20 -11 27 -20 19 -23 -15 -5 -91 18 -91 27 0 8 -47 28 -85 37 -16 4 -37 12 -45 18 -8 7 -32 21 -53 31 -43 22 -106 88 -166 173 -12 18 -20 39 -17 47 8 21 36 18 36 -3z m2120 -22 c8 -5 11 -12 8 -15 -4 -4 -17 0 -30 9 -24 17 -5 23 22 6z m-166 -22 c-10 -33 -42 -76 -65 -89 -13 -6 -5 10 23 50 24 33 44 60 46 60 2 1 0 -9 -4 -21z m-1984 -52 c7 -19 22 -37 32 -40 15 -3 18 -10 13 -28 -10 -32 -22 -45 -83 -90 -48 -36 -72 -41 -72 -18 0 5 13 16 28 24 36 18 92 70 92 85 0 19 -26 12 -39 -11 -13 -24 -81 -64 -81 -48 0 5 9 14 20 20 11 6 20 15 20 20 0 13 -37 13 -42 0 -1 -5 -19 -12 -38 -15 -33 -6 -34 -6 -15 9 84 65 115 93 120 109 10 27 30 20 45 -17z m2095 -5 c55 -31 125 -102 125 -125 0 -27 -23 -30 -39 -5 -22 35 -112 119 -139 130 -13 5 -20 13 -17 19 9 14 15 13 70 -19z m-2011 -67 c42 -16 -14 -133 -83 -175 -34 -21 -96 -25 -106 -8 -8 11 22 49 39 49 17 1 99 81 115 113 8 15 16 27 17 27 1 0 9 -3 18 -6z m1756 -24 c0 -18 -39 -50 -55 -44 -21 8 -2 41 27 47 13 2 24 5 26 6 1 0 2 -3 2 -9z m505 -17 c-4 -10 -10 -27 -13 -38 -6 -23 -62 -105 -72 -105 -3 0 -16 -18 -29 -40 -12 -22 -25 -40 -29 -40 -4 0 -20 -12 -37 -26 -16 -15 -58 -39 -92 -55 -50 -24 -70 -28 -102 -23 -49 8 -65 34 -21 34 91 0 223 96 332 243 47 63 79 88 63 50z m-665 -43 c0 -5 -2 -10 -4 -10 -3 0 -8 5 -11 10 -3 6 -1 10 4 10 6 0 11 -4 11 -10z m266 -86 c37 -56 42 -81 19 -90 -22 -9 -42 12 -56 54 -6 20 -24 53 -39 73 -21 27 -26 39 -17 48 14 14 46 -15 93 -85z m-1718 65 c26 -10 29 -42 6 -79 -15 -25 -15 -24 -9 15 5 40 5 40 -10 14 -8 -15 -22 -29 -31 -33 -13 -5 -15 -2 -10 16 14 47 16 68 7 68 -5 0 -12 -11 -15 -24 -6 -25 -31 -56 -45 -56 -4 0 3 23 17 50 26 53 25 53 90 29z m489 -37 c-21 -23 -75 -29 -195 -21 -60 3 -47 23 14 21 27 -1 65 2 84 7 19 5 53 9 74 10 37 1 38 0 23 -17z m1313 8 c0 -5 -2 -10 -4 -10 -3 0 -8 5 -11 10 -3 6 -1 10 4 10 6 0 11 -4 11 -10z m-667 -7 c6 -10 157 -8 215 1 28 5 42 4 42 -3 0 -12 -14 -16 -122 -30 -66 -9 -84 -8 -118 5 -22 9 -40 20 -40 25 0 11 17 12 23 2z m337 0 c0 -5 -16 -21 -35 -36 -41 -33 -46 -24 -10 16 25 26 45 35 45 20z m-1375 -23 c7 -21 -6 -70 -32 -129 -17 -38 -100 -121 -120 -121 -29 0 -24 30 11 66 42 43 59 74 81 149 12 42 20 55 35 55 10 0 22 -9 25 -20z m1523 1 c3 -8 -1 -12 -9 -9 -7 2 -15 10 -17 17 -3 8 1 12 9 9 7 -2 15 -10 17 -17z m-20 -67 c-3 -16 -7 -13 -21 13 -23 43 -21 52 4 26 12 -11 19 -29 17 -39z m-74 20 c3 -8 2 -12 -4 -9 -6 3 -10 10 -10 16 0 14 7 11 14 -7z m-1165 -8 c34 -41 13 -189 -35 -241 -48 -52 -64 -23 -33 61 14 38 22 80 22 119 -1 33 1 63 4 68 7 12 30 8 42 -7z m-602 -13 c3 -7 -4 -9 -16 -6 -12 3 -18 9 -15 15 7 11 26 6 31 -9z m416 -26 c-3 -18 -12 -39 -19 -47 -18 -18 -18 -3 -2 49 15 46 30 45 21 -2z m115 -28 c-2 -33 -10 -65 -16 -71 -10 -10 -11 -5 -6 20 8 38 0 40 -28 10 l-19 -23 4 28 c3 22 2 25 -9 16 -8 -6 -14 -18 -14 -25 0 -8 -6 -14 -14 -14 -11 0 -11 6 2 34 12 27 21 34 41 33 20 -2 27 4 34 30 15 50 30 27 25 -38z m1088 -6 c21 -51 28 -80 25 -113 -4 -53 0 -47 -33 -55 l-28 -7 6 58 c5 53 0 90 -21 162 -5 16 -3 22 7 22 8 0 27 -29 44 -67z m-200 -11 c5 -50 -8 -98 -25 -88 -4 3 -7 22 -5 43 2 21 3 56 3 78 1 55 20 32 27 -33z m324 58 c0 -5 -2 -10 -4 -10 -3 0 -8 5 -11 10 -3 6 -1 10 4 10 6 0 11 -4 11 -10z m-908 -32 c-9 -9 -12 -7 -12 12 0 19 3 21 12 12 9 -9 9 -15 0 -24z m708 11 c0 -5 -4 -9 -10 -9 -5 0 -10 7 -10 16 0 8 5 12 10 9 6 -3 10 -10 10 -16z m-81 -3 c9 -10 8 -16 -4 -26 -13 -11 -15 -8 -15 14 0 30 3 32 19 12z m-150 -62 c-8 -21 -20 -39 -28 -42 -10 -3 -11 0 -2 16 6 12 11 25 10 29 -1 4 -1 21 0 38 1 27 2 28 18 13 14 -15 15 -21 2 -54z m408 19 c-4 -3 -7 0 -7 7 0 7 3 10 7 7 3 -4 3 -10 0 -14z m-255 -49 c-3 -28 -18 -52 -25 -43 -9 10 6 80 17 76 6 -2 10 -17 8 -33z m40 -10 c-5 -59 -18 -62 -20 -4 -1 36 3 50 11 47 7 -2 11 -19 9 -43z m-670 -15 c-3 -46 -59 -96 -159 -144 -73 -36 -84 -38 -173 -38 -59 0 -103 4 -115 12 -17 11 -15 11 16 6 28 -4 40 -1 54 15 11 12 31 20 49 20 43 0 158 25 187 40 52 28 99 74 99 96 0 22 15 35 35 30 6 -2 9 -18 7 -37z m-855 -25 c22 -20 23 -24 8 -24 -32 0 -94 34 -95 52 0 15 4 15 31 6 17 -6 42 -21 56 -34z m1231 4 c13 -51 97 -88 237 -104 53 -6 67 -16 45 -29 -6 -4 -8 -11 -5 -16 17 -26 -149 8 -234 49 -41 20 -101 81 -101 103 0 42 47 40 58 -3z m832 -33 c-7 -8 -21 -15 -31 -15 -11 0 -19 -4 -19 -8 0 -9 -70 -45 -77 -39 -5 6 109 75 126 76 11 1 11 -2 1 -14z m-1990 -20 c7 -9 10 -18 7 -21 -7 -8 -47 14 -47 26 0 15 26 12 40 -5z m1835 -74 c-3 -6 -11 -11 -17 -11 -6 0 -6 6 2 15 14 17 26 13 15 -4z m-1705 -16 c11 -13 10 -14 -4 -9 -9 3 -16 10 -16 15 0 13 6 11 20 -6z"
       id="path5"
       style="fill:#000000" />
    <path
       d="M1900 4060 c0 -5 5 -10 10 -10 6 0 10 5 10 10 0 6 -4 10 -10 10 -5 0 -10 -4 -10 -10z"
       id="path7"
       style="fill:#000000" />
    <path
       d="M2134 3286 c-9 -24 -1 -48 21 -60 11 -6 22 -14 25 -17 30 -36 177 -44 226 -13 41 27 64 56 61 78 -3 31 -25 30 -32 -2 -8 -36 -68 -72 -121 -72 -22 0 -60 8 -87 17 -38 14 -49 23 -55 47 -9 33 -29 45 -38 22z"
       id="path9"
       style="fill:#000000" />
    <path
       d="M3380 3146 c0 -2 7 -9 15 -16 9 -7 15 -8 15 -2 0 5 -7 12 -15 16 -8 3 -15 4 -15 2z"
       id="path11"
       style="fill:#000000" />
    <path
       d="M3680 3044 c0 -14 3 -14 15 -4 8 7 15 14 15 16 0 2 -7 4 -15 4 -8 0 -15 -7 -15 -16z"
       id="path13"
       style="fill:#000000" />
    <path
       d="M3935 2420 c-24 -26 -18 -32 15 -15 16 8 33 15 37 14 17 -3 33 1 33 9 0 15 -70 8 -85 -8z"
       id="path15"
       style="fill:#000000" />
    <path
       d="M3862 1759 c2 -6 7 -10 11 -10 4 1 14 1 22 1 8 0 15 5 15 10 0 6 -12 10 -26 10 -14 0 -24 -5 -22 -11z"
       id="path17"
       style="fill:#000000" />
    <path
       d="M1673 773 c4 -3 10 -3 14 0 3 4 0 7 -7 7 -7 0 -10 -3 -7 -7z"
       id="path19"
       style="fill:#000000" />
    <path
       d="M1768 343 c7 -3 16 -2 19 1 4 3 -2 6 -13 5 -11 0 -14 -3 -6 -6z"
       id="path21"
       style="fill:#000000" />
    <path
       d="M1970 4470 c0 -5 7 -10 16 -10 8 0 12 5 9 10 -3 6 -10 10 -16 10 -5 0 -9 -4 -9 -10z"
       id="path23"
       style="fill:#000000" />
    <path
       d="M3105 2879 c-11 -11 -28 -28 -38 -37 -14 -13 -18 -26 -14 -55 6 -47 6 -46 51 -54 41 -6 76 16 76 48 0 10 4 20 10 24 15 9 50 -32 50 -60 0 -37 17 -30 24 10 9 48 23 44 34 -12 8 -37 7 -51 -4 -67 -27 -39 -5 -80 24 -43 12 15 26 93 23 127 -6 54 -124 141 -189 139 -15 0 -36 -10 -47 -20z"
       id="path25"
       style="fill:#000000" />
    <path
       d="M1314 2843 c-34 -4 -81 -48 -109 -103 -18 -35 -25 -146 -10 -170 16 -25 25 -5 25 55 0 61 13 85 26 50 9 -24 19 -18 33 20 7 19 21 40 31 45 16 9 22 5 34 -19 24 -45 63 -54 96 -21 42 42 15 106 -56 136 -18 8 -35 13 -36 12 -2 0 -17 -3 -34 -5z"
       id="path27"
       style="fill:#000000" />
    <path
       d="M1153 2262 c-18 -10 -33 -21 -33 -26 0 -5 -6 -17 -13 -25 -21 -25 -37 -102 -29 -141 8 -42 47 -95 62 -85 6 4 1 21 -14 48 -20 34 -23 49 -17 77 l8 35 12 -26 c7 -14 21 -30 31 -37 17 -10 18 -9 10 19 -14 47 14 99 53 99 14 0 17 -4 12 -17 -16 -39 -15 -50 5 -76 28 -35 72 -36 105 -2 42 41 28 127 -25 152 -44 20 -132 23 -167 5z"
       id="path29"
       style="fill:#000000" />
    <path
       d="M3395 2235 c-5 -2 -22 -6 -37 -9 -54 -12 -72 -93 -31 -138 26 -29 87 -24 111 9 11 15 24 23 30 19 17 -11 15 -67 -4 -87 -16 -17 -12 -39 6 -39 5 0 21 17 35 37 l25 38 0 -29 c0 -21 -11 -40 -40 -67 -45 -43 -51 -60 -17 -52 85 21 130 158 78 235 -38 54 -118 97 -156 83z"
       id="path31"
       style="fill:#000000" />
    <path
       d="M1434 1720 c-52 -12 -111 -61 -123 -101 -13 -44 -14 -64 -2 -87 5 -9 15 -32 22 -50 10 -29 84 -102 103 -102 17 0 2 36 -28 64 -36 35 -61 74 -52 83 3 4 14 -1 24 -10 37 -33 55 -16 28 26 -15 23 -11 77 6 77 6 0 23 -13 38 -30 34 -36 63 -38 95 -5 44 43 29 106 -30 131 -38 15 -36 15 -81 4z"
       id="path33"
       style="fill:#000000" />
    <path
       d="M3095 1693 c-31 -8 -85 -64 -85 -89 0 -83 85 -116 145 -57 19 20 28 24 37 15 9 -9 7 -22 -10 -53 -27 -49 -27 -59 -4 -59 9 0 27 17 39 38 l22 37 1 -32 c0 -18 -4 -33 -8 -33 -9 0 -72 -80 -72 -92 0 -39 103 45 121 99 19 60 6 136 -32 177 -18 20 -40 36 -50 36 -10 0 -21 5 -24 10 -6 10 -44 12 -80 3z"
       id="path35"
       style="fill:#000000" />
    <path
       d="M773 1623 c-14 -5 -18 -33 -5 -33 10 0 32 22 32 32 0 9 -8 9 -27 1z"
       id="path37"
       style="fill:#000000" />
    <path
       d="M3305 1317 c-13 -12 -27 -33 -30 -47 -12 -51 77 -95 120 -60 22 18 19 75 -6 99 -32 30 -57 32 -84 8z m65 -57 c0 -5 -5 -10 -11 -10 -5 0 -7 5 -4 10 3 6 8 10 11 10 2 0 4 -4 4 -10z"
       id="path39"
       style="fill:#000000" />
    <path
       d="M1182 1308 c-7 -7 -12 -21 -12 -32 0 -16 3 -17 12 -8 19 19 60 15 56 -5 -3 -13 -13 -18 -36 -17 -35 2 -39 -4 -19 -29 20 -26 60 -31 84 -10 32 28 36 56 12 86 -22 29 -75 37 -97 15z"
       id="path41"
       style="fill:#000000" />
    <path
       d="M1849 1273 c-44 -7 -105 -67 -118 -116 -25 -87 36 -191 125 -216 37 -10 74 -1 74 19 0 5 -24 15 -53 24 -60 17 -87 51 -87 111 0 38 14 75 30 75 4 0 17 -17 27 -37 14 -30 26 -39 56 -46 35 -8 41 -7 68 19 16 15 29 38 29 51 0 31 -23 85 -43 101 -17 15 -69 22 -108 15z"
       id="path43"
       style="fill:#000000" />
    <path
       d="M2705 1253 c-59 -7 -75 -14 -100 -41 -29 -31 -31 -47 -9 -100 12 -32 22 -41 56 -51 39 -12 42 -12 74 20 18 17 34 41 36 53 2 12 8 21 13 21 21 0 53 -32 55 -55 5 -60 0 -71 -45 -98 -42 -26 -57 -54 -35 -67 17 -11 73 13 108 46 30 28 32 35 32 94 0 83 -25 125 -98 160 -29 14 -54 24 -55 24 -1 -1 -15 -4 -32 -6z"
       id="path45"
       style="fill:#000000" />
    <path
       d="M565 1140 c-20 -21 -29 -42 -33 -79 -4 -48 -4 -49 32 -66 30 -14 42 -16 62 -6 32 14 47 14 38 -1 -27 -44 34 -225 99 -292 15 -15 30 -26 33 -23 8 7 -55 133 -79 158 -29 31 -43 151 -23 194 28 59 20 72 -19 32 -20 -21 -44 -37 -53 -37 -34 0 -72 24 -72 46 0 25 48 84 67 84 7 0 13 5 13 10 0 20 -37 9 -65 -20z"
       id="path47"
       style="fill:#000000" />
    <path
       d="M3917 1153 c-13 -12 -7 -21 16 -27 28 -7 63 -66 54 -90 -8 -20 -53 -38 -77 -31 -10 3 -29 17 -44 31 -24 24 -46 25 -46 2 0 -5 7 -25 16 -44 40 -85 -14 -244 -125 -367 -42 -46 -128 -128 -153 -145 -13 -9 -27 -22 -31 -29 -4 -7 -13 -13 -19 -13 -6 0 -18 -7 -27 -15 -25 -24 -81 -62 -136 -91 -27 -14 -52 -28 -55 -31 -11 -10 27 -21 55 -16 35 7 104 53 105 69 0 7 8 14 18 17 27 9 70 39 116 80 22 20 46 37 52 37 11 0 109 106 156 169 47 61 102 183 108 235 l5 48 44 4 c45 4 63 18 82 63 16 40 -20 110 -73 137 -31 16 -32 16 -41 7z"
       id="path49"
       style="fill:#000000" />
    <path
       d="M1126 1075 c-4 -11 -20 -15 -55 -15 -54 0 -73 -13 -42 -29 21 -11 78 -4 87 10 6 11 44 12 44 2 0 -5 -12 -16 -26 -27 -20 -14 -37 -17 -75 -14 -42 4 -49 3 -47 -11 8 -39 91 -23 149 29 40 36 42 40 19 38 -19 -2 -24 1 -22 15 4 21 -24 23 -32 2z"
       id="path51"
       style="fill:#000000" />
    <path
       d="M820 881 c-1 -29 23 -90 46 -117 33 -38 38 -27 11 24 -51 98 -56 106 -57 93z"
       id="path53"
       style="fill:#000000" />
    <path
       d="M1000 679 c0 -17 37 -56 46 -47 3 3 -6 19 -20 34 -18 21 -25 24 -26 13z"
       id="path55"
       style="fill:#000000" />
    <path
       d="M822 630 c6 -17 190 -201 227 -226 154 -105 182 -134 207 -219 11 -34 31 -41 57 -21 15 12 16 17 5 43 -14 31 -62 93 -73 93 -4 0 -16 11 -27 25 -11 14 -48 44 -81 67 -86 58 -162 121 -230 189 -52 52 -95 77 -85 49z"
       id="path57"
       style="fill:#000000" />
    <path
       d="M1110 520 c0 -5 5 -10 10 -10 6 0 10 5 10 10 0 6 -4 10 -10 10 -5 0 -10 -4 -10 -10z"
       id="path59"
       style="fill:#000000" />
    <path
       d="M2021 255 c-48 -64 -88 -78 -155 -53 -52 18 -74 13 -82 -19 -21 -81 98 -84 214 -6 54 37 82 75 82 113 0 32 -15 24 -59 -35z"
       id="path61"
       style="fill:#000000" />
    <path
       d="M3243 256 c-71 -82 -90 -145 -51 -170 25 -15 61 20 55 54 -4 18 2 33 21 52 24 26 25 30 11 59 l-14 30 -22 -25z"
       id="path63"
       style="fill:#000000" />
    <path
       d="M2460 261 c0 -10 101 -99 140 -123 14 -9 45 -19 70 -22 39 -6 49 -3 73 19 33 31 35 68 5 89 -32 23 -53 20 -73 -10 -15 -24 -22 -26 -66 -22 -38 4 -57 13 -89 41 -39 36 -60 46 -60 28z m270 -76 c0 -8 -9 -15 -20 -15 -22 0 -27 15 -7 23 21 9 27 7 27 -8z"
       id="path65"
       style="fill:#000000" />
  </g>
</svg>
