<?xml version="1.0" encoding="UTF-8" standalone="no"?>
<svg
   xmlns:dc="http://purl.org/dc/elements/1.1/"
   xmlns:cc="http://creativecommons.org/ns#"
   xmlns:rdf="http://www.w3.org/1999/02/22-rdf-syntax-ns#"
   xmlns:svg="http://www.w3.org/2000/svg"
   xmlns="http://www.w3.org/2000/svg"
   xmlns:sodipodi="http://sodipodi.sourceforge.net/DTD/sodipodi-0.dtd"
   xmlns:inkscape="http://www.inkscape.org/namespaces/inkscape"
   version="1.0"
   width="1429px"
   height="285px"
   viewBox="0 0 14290 2850"
   preserveAspectRatio="xMidYMid meet"
   id="svg2"
   inkscape:version="0.91 r13725"
   sodipodi:docname="fleuron_index.svg"
   inkscape:export-filename="/home/hal/Documents/GitHub/a-yorkshire-cookery-book/e-book/OEBPS/images/fleuron_index.png"
   inkscape:export-xdpi="31.490553"
   inkscape:export-ydpi="31.490553">
  <metadata
     id="metadata109">
    <rdf:RDF>
      <cc:Work
         rdf:about="">
        <dc:format>image/svg+xml</dc:format>
        <dc:type
           rdf:resource="http://purl.org/dc/dcmitype/StillImage" />
      </cc:Work>
    </rdf:RDF>
  </metadata>
  <defs
     id="defs107" />
  <sodipodi:namedview
     pagecolor="#ffffff"
     bordercolor="#666666"
     borderopacity="1"
     objecttolerance="10"
     gridtolerance="10"
     guidetolerance="10"
     inkscape:pageopacity="0"
     inkscape:pageshadow="2"
     inkscape:window-width="1366"
     inkscape:window-height="709"
     id="namedview105"
     showgrid="false"
     inkscape:zoom="0.62941905"
     inkscape:cx="667.11956"
     inkscape:cy="265.75679"
     inkscape:window-x="0"
     inkscape:window-y="0"
     inkscape:window-maximized="1"
     inkscape:current-layer="svg2" />
  <g
     id="layer101"
     fill="#7a7a7a"
     stroke="none"
     style="fill:#000000">
    <path
       d="M7290 2780 c-147 -29 -208 -79 -239 -197 -13 -48 -16 -49 -57 -28 -89 46 -215 -11 -251 -113 -18 -51 -16 -83 7 -137 26 -61 26 -63 -12 -67 -17 -2 -33 -9 -36 -15 -7 -22 48 -34 147 -31 88 3 96 5 96 23 0 15 -8 20 -36 21 -19 2 -52 13 -71 26 -31 20 -37 30 -42 73 -9 78 4 115 49 147 68 46 134 31 180 -42 14 -22 27 -40 29 -40 1 0 17 5 35 11 33 12 37 19 21 35 -6 6 -12 33 -13 61 -3 69 40 138 108 175 94 50 239 47 307 -6 15 -12 42 -32 58 -45 18 -13 29 -29 26 -37 -3 -8 -1 -25 4 -39 7 -19 4 -39 -11 -80 -11 -30 -18 -59 -14 -65 3 -5 22 -10 40 -10 28 0 36 5 41 24 13 52 92 99 150 89 69 -13 99 -72 82 -163 -12 -68 -20 -75 -108 -89 -38 -6 -44 -10 -42 -26 8 -42 19 -46 146 -43 l121 3 0 30 c0 28 -3 30 -35 30 -29 0 -34 3 -32 20 2 11 10 29 17 41 24 38 27 86 8 144 -14 42 -27 60 -58 81 -52 35 -127 46 -177 24 -57 -23 -68 -20 -68 19 0 19 -7 41 -15 50 -8 8 -15 19 -15 23 0 17 -66 71 -120 98 -61 31 -144 40 -220 25z"
       id="path5"
       style="fill:#000000" />
    <path
       d="M11776 2092 c-2 -1 -2220 -3 -4930 -5 -4143 -3 -4929 -5 -4936 -17 -4 -7 -5 -22 -1 -32 6 -18 66 -18 2021 -18 1108 1 3478 1 5265 1 1788 0 3258 2 3268 5 11 4 17 15 17 35 l0 29 -177 1 c-381 4 -525 4 -527 1z"
       id="path7"
       style="fill:#000000" />
    <path
       d="M13317 1943 c-4 -3 -1028 -15 -1097 -12 -60 2 -2711 2 -3855 -1 -608 -1 -1697 -2 -4844 -4 -3115 -1 -3365 -3 -3374 -18 -22 -34 4 -43 120 -42 968 10 10711 20 11728 12 44 0 325 1 625 2 300 1 624 -1 720 -6 96 -4 184 -7 195 -6 11 1 171 4 355 7 l335 5 3 29 3 30 -298 1 c-164 0 -369 1 -456 3 -87 1 -159 1 -160 0z"
       id="path9"
       style="fill:#000000" />
    <path
       d="M7685 1620 c-4 -6 -2 -17 4 -23 15 -15 14 -37 -5 -58 -12 -14 -13 -22 -4 -38 6 -12 15 -21 21 -21 56 0 68 78 20 124 -20 19 -31 24 -36 16z"
       id="path11"
       style="fill:#000000" />
    <path
       d="M6286 1612 c-3 -5 4 -16 15 -26 19 -16 20 -19 5 -35 -20 -22 -20 -45 -1 -65 34 -34 74 21 53 72 -22 51 -57 78 -72 54z"
       id="path13"
       style="fill:#000000" />
    <path
       d="M10663 1599 c3 -11 -2 -33 -11 -49 -14 -23 -14 -31 -3 -44 16 -19 45 -21 59 -3 13 15 -4 97 -22 109 -20 13 -28 8 -23 -13z"
       id="path15"
       style="fill:#000000" />
    <path
       d="M7539 1549 c-9 -18 -7 -25 10 -42 19 -19 22 -20 36 -6 12 12 14 21 6 42 -13 32 -36 35 -52 6z"
       id="path17"
       style="fill:#000000" />
    <path
       d="M9183 1547 c-3 -5 3 -16 13 -24 25 -18 37 -165 15 -195 -7 -11 -11 -21 -9 -23 2 -2 25 -5 52 -7 50 -3 76 14 36 25 -18 5 -20 13 -20 91 0 75 3 88 22 106 18 17 20 23 9 29 -19 12 -110 11 -118 -2z"
       id="path19"
       style="fill:#000000" />
    <path
       d="M11613 1552 c-117 -3 -135 -11 -97 -43 21 -17 45 -75 68 -161 27 -100 33 -95 81 64 32 104 42 115 93 102 l37 -9 3 -81 c2 -70 0 -83 -18 -99 -45 -41 -12 -51 165 -50 67 0 80 3 83 17 2 11 -5 19 -21 23 -14 4 -39 22 -57 40 l-32 33 43 51 c24 28 52 54 62 57 18 6 23 29 9 38 -5 3 -69 7 -143 10 -74 2 -141 6 -149 8 -8 2 -66 2 -127 0z m27 -49 c0 -26 -14 -44 -36 -47 -26 -5 -44 12 -44 40 0 21 5 24 40 24 31 0 40 -4 40 -17z m277 -13 c4 -23 -24 -53 -42 -47 -18 8 -20 53 -2 60 20 9 42 3 44 -13z m-320 -77 c-4 -3 -7 0 -7 7 0 7 3 10 7 7 3 -4 3 -10 0 -14z m302 -42 c27 -37 26 -51 -1 -51 -33 0 -47 13 -43 35 2 11 4 26 4 33 2 21 19 13 40 -17z"
       id="path21"
       style="fill:#000000" />
    <path
       d="M12388 1553 c-42 -5 -46 -10 -20 -29 13 -10 18 -31 20 -96 4 -82 3 -84 -22 -96 -43 -19 -30 -32 37 -34 34 0 75 -2 92 -3 56 -4 66 4 63 49 -3 36 -6 41 -28 41 -23 0 -25 3 -25 52 0 60 -10 77 -24 39 -12 -30 -41 -35 -41 -7 0 11 -3 26 -6 35 -5 12 2 18 25 22 18 4 30 12 28 18 -4 12 -41 15 -99 9z m86 -159 c11 -29 6 -44 -14 -44 -16 0 -20 7 -20 30 0 32 23 42 34 14z"
       id="path23"
       style="fill:#000000" />
    <path
       d="M12600 1545 c0 -8 7 -15 15 -15 11 0 15 -13 17 -47 0 -27 2 -64 3 -83 0 -19 -5 -46 -13 -59 -17 -29 -8 -38 45 -47 35 -5 44 -3 49 11 5 11 1 22 -8 29 -17 12 -21 42 -19 134 1 46 4 52 22 52 14 0 19 5 17 18 -5 24 -128 32 -128 7z"
       id="path25"
       style="fill:#000000" />
    <path
       d="M13602 1533 c4 -33 37 -43 57 -19 20 24 6 46 -29 46 -28 0 -31 -3 -28 -27z"
       id="path27"
       style="fill:#000000" />
    <path
       d="M4453 1539 c-72 -21 -122 -150 -87 -225 9 -19 30 -49 46 -66 26 -28 32 -30 75 -24 25 3 52 11 60 18 12 10 17 9 25 -5 17 -31 28 -7 28 59 0 48 -3 65 -12 62 -7 -3 -14 -14 -16 -26 -7 -48 -95 -79 -137 -49 -16 12 -17 24 -12 103 5 80 8 91 32 111 32 28 51 29 93 3 24 -15 32 -27 32 -49 0 -17 5 -33 10 -36 16 -10 12 58 -6 83 -16 24 -65 53 -86 51 -7 0 -27 -5 -45 -10z"
       id="path29"
       style="fill:#000000" />
    <path
       d="M5263 1543 c-35 -5 -46 -23 -14 -23 10 0 21 -6 24 -14 8 -20 -12 -86 -34 -115 -11 -13 -19 -30 -19 -37 0 -8 -9 -19 -20 -26 -38 -24 -24 -39 33 -36 l52 3 -2 35 c-2 22 4 44 16 59 l19 24 16 -31 c20 -39 20 -58 1 -66 -33 -12 -12 -26 40 -26 61 0 70 12 27 34 -31 16 -82 104 -82 141 0 37 11 55 32 55 11 0 18 5 16 13 -5 13 -51 17 -105 10z"
       id="path31"
       style="fill:#000000" />
    <path
       d="M7010 1542 c-20 -7 -10 -32 14 -32 20 0 24 -6 30 -46 8 -63 7 -106 -2 -122 -11 -17 -42 -4 -42 18 0 10 -6 23 -14 29 -11 9 -14 2 -19 -41 -2 -29 -1 -58 3 -63 5 -6 51 -10 106 -10 l98 0 9 34 c10 39 1 101 -14 101 -6 0 -18 -18 -26 -40 -24 -60 -38 -44 -41 48 l-3 82 31 0 c23 0 30 4 30 20 0 14 -7 20 -22 21 -61 3 -129 4 -138 1z"
       id="path33"
       style="fill:#000000" />
    <path
       d="M8515 1545 c-5 -2 -22 -6 -37 -9 -52 -12 -60 -30 -53 -121 7 -77 6 -83 -15 -98 -12 -8 -17 -17 -12 -21 5 -3 59 -5 120 -5 90 0 112 2 112 14 0 8 -7 18 -16 23 -12 7 -16 28 -18 91 -3 70 -6 85 -26 106 -22 24 -33 28 -55 20z m53 -128 c-3 -79 -4 -82 -31 -91 -49 -18 -62 0 -65 90 -3 71 -1 81 18 96 20 16 24 16 51 2 30 -15 30 -15 27 -97z"
       id="path35"
       style="fill:#000000" />
    <path
       d="M9354 1541 c-9 -9 -4 -107 6 -117 7 -7 5 -20 -5 -41 -11 -22 -13 -38 -6 -55 15 -39 33 -48 100 -45 l63 2 -4 60 c-4 42 -1 67 10 83 12 19 13 30 3 62 -6 22 -17 42 -23 46 -13 8 -137 12 -144 5z m130 -34 c29 -21 5 -54 -52 -71 -70 -20 -83 -2 -36 53 28 33 59 39 88 18z m-7 -161 c-20 -30 -50 -41 -77 -26 -16 9 -18 15 -10 30 6 11 23 22 38 26 15 3 32 7 37 9 21 6 27 -15 12 -39z"
       id="path37"
       style="fill:#000000" />
    <path
       d="M9635 1545 c-5 -2 -23 -6 -38 -9 -25 -6 -26 -8 -12 -22 11 -11 15 -37 15 -97 0 -69 -3 -84 -22 -104 -12 -13 -20 -25 -17 -27 2 -2 60 -6 127 -8 103 -4 125 -3 129 10 4 8 -1 19 -10 24 -14 7 -17 26 -17 97 0 82 2 89 21 94 36 10 15 32 -32 34 -24 1 -64 4 -89 6 -25 3 -49 3 -55 2z m79 -35 c19 -7 26 -17 26 -37 0 -42 -13 -55 -51 -51 -31 3 -34 6 -37 38 -3 24 2 38 14 47 21 16 17 15 48 3z m23 -137 c3 -8 1 -25 -5 -39 -14 -28 -65 -34 -80 -8 -13 23 -3 62 17 66 27 6 62 -4 68 -19z"
       id="path39"
       style="fill:#000000" />
    <path
       d="M9959 1546 c-2 -2 -22 -6 -44 -10 -22 -3 -42 -6 -45 -6 -3 -1 4 -5 15 -9 17 -7 21 -20 25 -82 5 -79 -8 -129 -35 -129 -8 0 -15 -7 -15 -16 0 -11 5 -14 16 -10 9 3 58 6 110 6 l94 0 0 45 c0 47 -14 60 -25 24 -6 -16 -9 -18 -21 -8 -12 10 -14 26 -8 77 5 52 4 64 -7 60 -7 -2 -16 -15 -19 -29 -3 -13 -14 -25 -23 -27 -24 -5 -25 76 -1 85 27 10 82 -26 89 -58 11 -48 25 -33 25 27 l0 55 -53 -2 c-30 -1 -58 1 -64 4 -6 4 -12 5 -14 3z m39 -169 c4 -21 -16 -49 -29 -41 -5 3 -9 19 -9 35 0 24 4 30 17 27 10 -2 19 -11 21 -21z"
       id="path41"
       style="fill:#000000" />
    <path
       d="M10168 1543 c-42 -5 -46 -10 -21 -28 14 -11 17 -27 15 -91 -2 -50 -9 -88 -18 -102 -9 -13 -14 -25 -12 -26 2 -2 35 -6 73 -9 81 -8 115 4 129 46 8 22 6 31 -12 50 -27 28 -27 28 -1 72 20 33 22 34 34 18 8 -10 17 -15 20 -11 14 13 -5 58 -31 75 -26 16 -27 16 -45 -6 -11 -13 -22 -35 -25 -50 -10 -46 -13 -51 -33 -51 -36 0 -34 77 3 82 11 2 21 10 21 18 0 16 -31 20 -97 13z m93 -153 c27 -15 25 -56 -3 -64 -34 -9 -35 -8 -42 25 -9 48 5 60 45 39z"
       id="path43"
       style="fill:#000000" />
    <path
       d="M11146 1538 c-17 -54 -39 -116 -47 -130 -5 -10 -9 -23 -9 -29 0 -25 -51 -119 -70 -129 -39 -21 -10 -33 64 -26 39 4 78 6 86 5 78 -6 282 -3 287 4 3 6 -8 22 -25 36 -20 16 -34 39 -38 61 -4 19 -10 40 -14 45 -4 6 -17 43 -29 84 -27 98 -36 105 -60 50 -12 -24 -21 -50 -21 -58 0 -26 -24 -81 -33 -78 -8 2 -30 53 -42 97 -17 61 -23 74 -33 78 -7 2 -14 -2 -16 -10z m58 -179 c15 -39 16 -56 8 -74 -14 -31 -58 -43 -79 -22 -14 13 -13 21 6 73 35 93 40 95 65 23z m150 -8 c21 -64 20 -78 -4 -91 -24 -13 -70 -3 -70 15 0 10 12 50 35 113 9 24 23 11 39 -37z"
       id="path45"
       style="fill:#000000" />
    <path
       d="M12091 1536 c-9 -11 -7 -15 7 -18 15 -4 19 -17 21 -59 6 -102 3 -123 -20 -142 -12 -9 -19 -20 -16 -23 8 -8 192 -8 205 0 6 4 11 27 10 51 -1 51 -21 61 -40 20 -18 -39 -23 -30 -20 32 3 47 1 56 -9 46 -7 -7 -23 -13 -36 -13 -20 0 -23 5 -23 39 0 22 5 43 12 47 16 10 -20 34 -53 34 -14 0 -32 -6 -38 -14z m125 -175 c-11 -18 -36 -13 -36 7 0 10 3 22 7 26 10 10 37 -20 29 -33z"
       id="path47"
       style="fill:#000000" />
    <path
       d="M1350 1526 c0 -9 3 -16 8 -16 15 0 36 -47 61 -139 14 -52 31 -96 36 -98 6 -1 23 36 38 85 51 160 59 169 122 140 24 -11 25 -15 25 -95 0 -81 -1 -84 -26 -93 -36 -14 -25 -34 22 -38 38 -3 42 0 88 59 31 39 51 58 57 52 16 -16 -1 -60 -27 -72 -13 -6 -24 -17 -24 -26 0 -12 13 -15 65 -15 72 0 85 15 39 45 -26 17 -26 18 -21 107 5 76 3 90 -11 95 -10 4 -20 -1 -26 -13 -20 -34 -85 -96 -96 -89 -5 3 -10 20 -10 36 0 22 6 32 25 39 29 11 32 26 8 34 -10 3 -69 7 -130 10 -102 5 -132 -1 -103 -19 16 -10 11 -55 -6 -62 -42 -16 -72 45 -32 65 22 10 22 11 -7 11 -16 1 -40 4 -52 7 -17 5 -23 2 -23 -10z"
       id="path49"
       style="fill:#000000" />
    <path
       d="M1948 1533 c-49 -4 -64 -21 -29 -30 17 -4 20 -16 23 -90 2 -47 1 -88 -2 -93 -3 -4 -15 -11 -28 -15 -13 -3 -21 -12 -19 -18 3 -8 34 -12 96 -11 90 1 94 3 124 32 41 42 50 123 17 165 -39 49 -93 67 -182 60z m126 -55 c25 -36 21 -109 -9 -143 -24 -28 -24 -29 -45 -10 -17 15 -20 30 -20 97 l0 78 29 0 c20 0 35 -8 45 -22z"
       id="path51"
       style="fill:#000000" />
    <path
       d="M2455 1530 c-3 -5 3 -18 14 -29 30 -30 29 -156 -1 -188 -26 -28 -19 -37 35 -39 145 -7 201 40 134 114 l-20 22 24 26 c13 14 31 23 41 21 35 -10 24 53 -13 76 -26 16 -69 -16 -69 -51 0 -31 -27 -75 -41 -67 -5 4 -9 24 -9 45 0 30 5 40 20 45 24 8 26 21 4 29 -25 10 -112 7 -119 -4z m135 -150 c24 -24 25 -43 5 -60 -25 -21 -55 -3 -55 34 0 51 17 59 50 26z"
       id="path53"
       style="fill:#000000" />
    <path
       d="M2744 1528 c-11 -17 -12 -92 -2 -111 6 -11 5 -30 -3 -50 -10 -27 -9 -38 5 -65 18 -34 49 -42 87 -21 15 7 24 7 34 -1 8 -7 19 -9 25 -5 13 8 13 70 0 94 -6 13 -5 24 5 37 19 25 18 84 0 108 -12 16 -29 20 -80 22 -36 1 -68 -3 -71 -8z m126 -33 c28 -34 -3 -59 -85 -68 -27 -3 -30 24 -5 56 24 30 70 37 90 12z m-10 -144 c-11 -21 -60 -34 -74 -21 -5 5 2 12 17 15 14 4 31 13 38 21 16 19 31 7 19 -15z"
       id="path55"
       style="fill:#000000" />
    <path
       d="M3222 1533 c-10 -4 -7 -12 9 -30 21 -21 23 -32 20 -96 -2 -61 -6 -76 -28 -98 -14 -15 -20 -29 -15 -33 25 -15 112 6 112 27 0 18 51 78 61 72 19 -12 8 -41 -22 -58 -45 -25 -32 -41 41 -47 71 -6 90 10 50 42 -21 17 -23 25 -21 112 2 110 -7 125 -50 75 -16 -19 -29 -38 -29 -42 0 -4 -9 -17 -19 -29 -26 -27 -51 -17 -51 21 0 24 7 34 31 46 23 12 28 19 20 29 -11 13 -83 18 -109 9z"
       id="path57"
       style="fill:#000000" />
    <path
       d="M3828 1531 c-31 -12 -56 -54 -51 -88 5 -31 60 -93 83 -93 6 0 10 -16 10 -35 0 -48 25 -93 55 -101 38 -9 57 12 53 60 l-3 41 58 -3 c31 -2 57 0 57 5 0 5 -12 20 -26 34 -30 28 -64 90 -64 117 0 24 25 46 40 37 6 -4 15 -18 20 -31 8 -21 40 -35 40 -18 0 16 -34 74 -44 75 -44 5 -214 5 -228 0z m88 -36 c7 -18 -27 -105 -44 -112 -37 -15 -57 62 -26 105 17 25 62 30 70 7z m86 -100 c13 -29 1 -48 -39 -60 -19 -5 -23 -2 -23 14 0 30 21 71 37 71 7 0 19 -11 25 -25z m-62 -111 c0 -8 -7 -14 -15 -14 -15 0 -21 21 -9 33 10 9 24 -2 24 -19z"
       id="path59"
       style="fill:#000000" />
    <path
       d="M4693 1533 c-54 -4 -69 -16 -33 -26 17 -4 20 -14 21 -64 2 -91 -1 -107 -22 -125 -10 -9 -19 -21 -19 -26 0 -11 56 -22 113 -22 44 0 52 25 13 40 -28 10 -32 28 -28 123 3 62 5 67 26 67 22 0 45 -31 60 -82 3 -10 10 -18 16 -18 7 0 10 24 8 68 l-3 67 -50 1 c-27 0 -74 -1 -102 -3z"
       id="path61"
       style="fill:#000000" />
    <path
       d="M4923 1532 l-23 -3 25 -37 c14 -20 25 -43 25 -52 0 -8 7 -35 15 -60 8 -25 17 -57 20 -72 8 -43 32 -34 40 14 4 23 11 49 16 58 4 8 16 37 25 63 10 27 28 56 41 64 12 8 20 19 18 24 -5 8 -149 8 -202 1z m95 -49 c3 -29 0 -33 -22 -33 -20 0 -56 22 -56 35 0 13 36 36 54 33 16 -2 22 -11 24 -35z"
       id="path63"
       style="fill:#000000" />
    <path
       d="M5480 1530 c0 -5 0 -13 -1 -17 0 -5 10 -10 22 -13 13 -3 23 -14 24 -25 2 -11 6 -42 9 -70 12 -81 -32 -118 -52 -43 -4 18 -13 33 -20 36 -17 5 -17 -107 1 -113 6 -3 55 -6 107 -8 l95 -2 5 53 c7 70 -3 85 -34 49 -19 -24 -24 -26 -35 -13 -7 9 -11 37 -9 73 3 55 4 58 31 61 21 3 27 8 23 19 -3 8 -6 17 -6 19 0 2 -36 4 -80 4 -47 0 -80 -4 -80 -10z"
       id="path65"
       style="fill:#000000" />
    <path
       d="M5785 1526 c-37 -16 -85 -83 -85 -119 0 -34 36 -103 63 -122 28 -20 87 -19 115 1 71 49 68 180 -6 233 -35 24 -46 25 -87 7z m68 -34 c25 -27 31 -74 17 -130 -10 -45 -15 -50 -43 -55 -47 -8 -67 20 -67 95 0 49 4 63 25 83 29 30 46 31 68 7z"
       id="path67"
       style="fill:#000000" />
    <path
       d="M5992 1527 c-8 -10 -6 -16 10 -26 19 -12 20 -19 15 -93 -4 -63 -10 -85 -27 -103 -25 -27 -18 -34 30 -28 29 4 42 15 77 64 24 32 47 59 53 59 19 0 10 -38 -15 -68 -41 -49 -30 -62 51 -62 49 0 59 18 23 42 -19 12 -21 23 -22 108 0 52 -2 99 -4 103 -7 13 -42 -23 -79 -80 -40 -62 -64 -69 -64 -19 0 48 9 66 37 77 21 8 23 12 13 24 -15 18 -84 20 -98 2z"
       id="path69"
       style="fill:#000000" />
    <path
       d="M6677 1533 c-13 -12 -7 -23 12 -23 49 0 51 -5 51 -132 l0 -120 -30 -11 c-16 -6 -30 -14 -30 -18 0 -3 39 -9 87 -13 65 -5 89 -3 94 6 10 16 1 25 -31 30 l-25 3 0 124 c0 121 1 124 22 126 51 4 87 -26 107 -87 12 -40 26 -15 26 46 0 49 -4 65 -16 70 -21 8 -259 8 -267 -1z"
       id="path71"
       style="fill:#000000" />
    <path
       d="M7230 1526 c0 -9 8 -16 20 -16 21 0 22 -3 23 -65 1 -112 -2 -125 -28 -137 -45 -20 -27 -28 64 -28 66 0 97 4 120 17 59 35 63 145 7 210 -23 26 -30 28 -115 31 -78 3 -91 2 -91 -12z m181 -60 c25 -57 16 -110 -24 -140 -44 -33 -61 -14 -65 70 -4 97 2 114 39 114 26 0 33 -6 50 -44z"
       id="path73"
       style="fill:#000000" />
    <path
       d="M8103 1532 c-45 -3 -61 -22 -19 -22 31 0 37 -25 32 -147 -3 -92 -14 -123 -43 -123 -8 0 -13 -5 -11 -12 3 -9 30 -11 94 -10 126 4 160 15 173 54 17 47 14 62 -19 93 -25 24 -37 28 -79 27 -59 -1 -65 10 -52 108 0 6 17 10 36 10 32 0 52 19 23 21 -48 3 -99 4 -135 1z m57 -102 c0 -5 -4 -10 -10 -10 -5 0 -10 5 -10 10 0 6 5 10 10 10 6 0 10 -4 10 -10z m98 -72 c21 -21 15 -75 -10 -92 -49 -34 -78 -10 -78 63 0 41 0 41 38 41 21 0 43 -5 50 -12z"
       id="path75"
       style="fill:#000000" />
    <path
       d="M8666 1533 c-13 -14 -5 -33 14 -33 22 0 24 -8 20 -105 -1 -45 -7 -66 -23 -82 -11 -13 -17 -26 -13 -30 4 -5 47 -8 96 -8 72 0 92 3 109 19 23 21 29 74 9 94 -9 9 -8 16 5 30 9 10 17 26 17 36 0 30 -29 73 -52 79 -31 8 -174 7 -182 0z m168 -42 c23 -25 17 -52 -15 -70 -39 -22 -59 -9 -59 37 0 21 3 42 7 45 13 14 50 7 67 -12z m4 -134 c2 -9 -10 -22 -29 -31 -45 -22 -49 -21 -49 18 0 25 5 36 18 38 25 6 57 -7 60 -25z"
       id="path77"
       style="fill:#000000" />
    <path
       d="M8940 1527 c0 -8 9 -17 21 -20 19 -5 20 -11 16 -93 -4 -77 -7 -89 -28 -105 -13 -10 -21 -20 -19 -23 9 -8 149 -11 157 -2 4 4 -5 18 -21 31 -25 20 -29 31 -33 84 -6 78 2 111 26 111 23 0 38 -17 54 -65 8 -22 18 -40 24 -42 14 -5 23 56 14 98 l-7 34 -102 3 c-83 2 -102 0 -102 -11z"
       id="path79"
       style="fill:#000000" />
    <path
       d="M10416 1510 c-4 -21 -3 -60 3 -80 1 -3 11 14 23 38 22 43 52 60 84 48 10 -4 14 -15 12 -33 -2 -22 -12 -31 -57 -48 -41 -17 -57 -29 -67 -54 -12 -28 -12 -37 1 -62 17 -32 38 -39 107 -36 45 2 47 3 51 37 2 19 0 43 -5 53 -6 12 -4 24 7 39 22 33 19 81 -8 106 -19 18 -33 21 -85 19 -57 -2 -62 -4 -66 -27z m112 -151 c5 -25 -27 -51 -57 -47 -36 4 -39 33 -4 52 34 19 57 17 61 -5z"
       id="path81"
       style="fill:#000000" />
    <path
       d="M12228 1535 c-3 -3 7 -19 23 -35 16 -16 29 -38 29 -50 0 -13 5 -20 13 -17 16 6 12 88 -5 98 -15 10 -52 12 -60 4z"
       id="path83"
       style="fill:#000000" />
    <path
       d="M12775 1531 c-3 -6 3 -15 13 -20 15 -8 18 -20 17 -63 -2 -29 -3 -65 -4 -81 0 -15 -10 -35 -21 -44 -37 -32 -24 -38 93 -38 l112 0 0 48 c1 53 -6 65 -25 42 -20 -25 -30 -7 -30 56 0 64 -12 76 -29 29 -15 -45 -41 -39 -41 9 0 47 9 55 51 46 24 -6 35 -17 51 -51 10 -25 22 -42 26 -40 6 4 8 80 3 109 -2 11 -209 9 -216 -2z m123 -169 c3 -28 0 -33 -14 -30 -17 3 -37 51 -26 63 16 15 37 -3 40 -33z"
       id="path85"
       style="fill:#000000" />
    <path
       d="M13030 1525 c0 -8 9 -15 20 -15 22 0 23 -5 20 -100 -1 -48 -7 -70 -21 -86 -32 -34 -24 -42 52 -46 81 -3 104 5 74 27 -47 34 -47 35 -41 114 3 42 5 80 6 84 0 5 12 7 28 5 22 -2 29 -10 37 -43 22 -87 45 -83 41 8 l-2 62 -107 3 c-91 2 -107 0 -107 -13z"
       id="path87"
       style="fill:#000000" />
    <path
       d="M13296 1531 c-4 -6 0 -11 8 -11 22 0 33 -29 30 -80 -1 -25 -3 -54 -3 -65 -1 -11 -12 -32 -26 -47 -42 -45 -35 -50 71 -46 l96 3 34 39 c29 33 34 47 34 88 0 41 -5 54 -34 86 -34 36 -36 37 -119 40 -54 3 -87 0 -91 -7z m158 -36 c25 -23 32 -56 26 -120 -3 -37 -74 -71 -91 -44 -10 16 -12 149 -3 173 9 23 37 20 68 -9z"
       id="path89"
       style="fill:#000000" />
    <path
       d="M1160 1523 c-8 -3 -18 -11 -22 -16 -4 -7 -12 -6 -23 3 -23 19 -35 -1 -35 -60 0 -33 5 -50 19 -62 20 -17 20 -17 0 -58 -39 -80 25 -154 101 -117 24 13 30 13 43 0 26 -26 34 -6 29 71 -4 65 -2 78 17 102 24 30 26 52 9 89 -20 44 -87 67 -138 48z m88 -35 c33 -41 -2 -84 -72 -90 -54 -4 -67 17 -37 66 20 31 28 36 61 36 20 0 42 -6 48 -12z"
       id="path91"
       style="fill:#000000" />
    <path
       d="M2216 1523 c-3 -4 1 -11 10 -17 11 -9 16 -33 18 -86 2 -80 -6 -110 -29 -110 -8 0 -15 -6 -15 -14 0 -16 45 -23 145 -22 l70 1 0 47 c0 27 -2 48 -3 48 -2 0 -12 -10 -22 -22 -23 -29 -28 -17 -32 72 -3 65 -3 65 -18 36 -19 -37 -32 -38 -41 -2 -10 37 3 54 37 50 34 -3 64 -32 64 -61 0 -39 17 -25 23 20 5 30 2 45 -8 53 -15 11 -189 17 -199 7z m122 -166 c3 -21 -1 -27 -17 -27 -25 0 -34 14 -26 41 10 29 39 20 43 -14z"
       id="path93"
       style="fill:#000000" />
    <path
       d="M2994 1512 c-33 -28 -47 -62 -47 -116 -2 -123 119 -177 193 -87 23 27 30 46 30 79 0 53 -21 104 -51 126 -31 21 -98 20 -125 -2z m96 -22 c16 -16 20 -33 20 -88 0 -77 -9 -92 -57 -92 -39 0 -53 25 -53 93 0 60 9 83 33 95 31 15 35 14 57 -8z"
       id="path95"
       style="fill:#000000" />
    <path
       d="M9316 952 c-2 -2 -1669 -10 -2816 -13 -344 -1 -1002 -1 -1460 1 -581 1 -2081 3 -2165 1 -40 0 -113 0 -130 0 -11 1 -54 1 -95 1 -41 0 -131 0 -200 0 -69 1 -312 1 -540 1 -228 -1 -428 -1 -445 0 -16 0 -91 0 -165 -1 -74 0 -146 0 -160 0 -14 1 -65 0 -115 -1 -49 -1 -270 -1 -489 -1 -416 1 -421 1 -413 -40 2 -13 85 -15 677 -14 542 0 1973 11 2015 15 6 1 213 0 460 -2 248 -1 491 -2 540 0 50 1 272 1 495 1 223 0 1692 3 3265 6 1573 3 2873 5 2888 4 22 0 28 4 25 17 -3 16 -19 18 -153 21 -83 1 -229 2 -325 1 -96 -1 -221 -1 -276 0 -168 4 -416 6 -418 3z"
       id="path97"
       style="fill:#000000" />
    <path
       d="M11439 956 c-3 -3 -207 -6 -454 -7 -246 0 -454 -3 -461 -6 -22 -8 -16 -21 14 -27 26 -6 1833 -17 2702 -16 234 0 540 0 681 0 141 0 263 -2 272 -6 12 -4 20 2 28 20 7 14 9 29 6 32 -3 4 -442 6 -974 5 -532 -1 -997 -2 -1033 -2 -36 0 -180 1 -320 2 -140 1 -280 1 -310 0 -30 -2 -75 0 -100 4 -25 4 -48 4 -51 1z"
       id="path99"
       style="fill:#000000" />
    <path
       d="M11506 803 c-6 -6 -3850 -17 -4001 -12 -47 2 -1274 3 -1705 1 -47 0 -336 1 -644 1 -550 2 -559 2 -567 -18 -6 -15 -8 -16 -8 -4 -1 24 -90 26 -771 23 -327 -2 -606 -3 -620 -2 -33 2 -108 2 -260 -1 -69 -1 -300 -2 -515 -2 -504 1 -525 0 -539 -21 -5 -9 -7 -21 -2 -25 4 -4 274 -7 599 -5 326 1 660 2 742 2 83 -1 195 -1 249 0 55 0 348 1 651 3 434 2 555 5 567 15 13 10 17 10 20 0 4 -11 176 -13 899 -12 492 0 914 2 939 3 25 1 954 0 2065 -2 1111 -2 2060 -1 2108 2 49 4 90 4 93 2 2 -2 73 -3 156 -2 240 3 337 2 917 -3 300 -3 548 -3 552 0 5 3 4 15 -2 27 -10 21 -16 23 -127 23 -121 1 -572 3 -699 2 -39 0 -76 3 -81 6 -5 3 -12 2 -16 -1z"
       id="path101"
       style="fill:#000000" />
    <path
       d="M6768 634 c-5 -4 -8 -18 -8 -32 0 -21 4 -24 27 -19 15 3 36 1 45 -4 17 -9 17 -12 -1 -47 -30 -60 -34 -127 -11 -172 36 -71 162 -116 228 -81 24 13 61 15 63 4 1 -5 3 -20 4 -35 2 -15 9 -37 16 -50 13 -25 74 -88 85 -88 4 0 15 -7 25 -16 27 -24 133 -45 197 -38 161 16 240 70 273 185 7 24 16 48 19 52 4 5 27 -1 51 -12 51 -25 48 -25 114 -6 55 16 89 42 120 88 24 38 26 143 2 177 -26 37 -22 50 19 50 31 0 35 3 32 23 -3 21 -6 22 -123 22 -97 0 -120 -3 -120 -14 0 -8 18 -19 43 -25 27 -7 58 -26 83 -51 40 -39 41 -41 36 -94 -5 -45 -12 -61 -40 -89 -30 -30 -42 -35 -91 -38 -47 -2 -60 1 -85 21 -15 14 -34 38 -41 55 -9 23 -18 30 -34 28 -19 -3 -21 -9 -18 -58 6 -114 -39 -189 -144 -237 -50 -23 -65 -25 -133 -20 -42 3 -89 12 -106 21 -16 9 -36 16 -42 16 -20 0 -63 42 -63 61 0 10 -4 20 -9 23 -5 4 -12 24 -16 46 -5 31 -2 51 16 86 18 38 19 48 8 55 -26 16 -49 9 -68 -22 -25 -41 -66 -67 -118 -75 -53 -8 -85 10 -113 66 -28 55 -26 101 6 140 29 33 99 74 114 65 16 -10 20 13 4 26 -18 14 -234 26 -246 13z"
       id="path103"
       style="fill:#000000" />
  </g>
</svg>
