<?xml version="1.0" encoding="UTF-8" standalone="no"?>
<svg
   xmlns:dc="http://purl.org/dc/elements/1.1/"
   xmlns:cc="http://creativecommons.org/ns#"
   xmlns:rdf="http://www.w3.org/1999/02/22-rdf-syntax-ns#"
   xmlns:svg="http://www.w3.org/2000/svg"
   xmlns="http://www.w3.org/2000/svg"
   xmlns:sodipodi="http://sodipodi.sourceforge.net/DTD/sodipodi-0.dtd"
   xmlns:inkscape="http://www.inkscape.org/namespaces/inkscape"
   version="1.0"
   width="1600px"
   height="1597px"
   viewBox="0 0 16000 15970"
   preserveAspectRatio="xMidYMid meet"
   id="svg2"
   inkscape:version="0.91 r13725"
   sodipodi:docname="yorkshirerose_title.svg">
  <metadata
     id="metadata236">
    <rdf:RDF>
      <cc:Work
         rdf:about="">
        <dc:format>image/svg+xml</dc:format>
        <dc:type
           rdf:resource="http://purl.org/dc/dcmitype/StillImage" />
        <dc:title></dc:title>
      </cc:Work>
    </rdf:RDF>
  </metadata>
  <defs
     id="defs234" />
  <sodipodi:namedview
     pagecolor="#ffffff"
     bordercolor="#666666"
     borderopacity="1"
     objecttolerance="10"
     gridtolerance="10"
     guidetolerance="10"
     inkscape:pageopacity="0"
     inkscape:pageshadow="2"
     inkscape:window-width="1366"
     inkscape:window-height="709"
     id="namedview232"
     showgrid="false"
     inkscape:zoom="0.20898835"
     inkscape:cx="1030.6003"
     inkscape:cy="551.70191"
     inkscape:window-x="0"
     inkscape:window-y="0"
     inkscape:window-maximized="1"
     inkscape:current-layer="svg2" />
  <g
     id="layer101"
     fill="#6a6a6a"
     stroke="none"
     style="fill:#000000;fill-opacity:1">
    <path
       d="M3670 15542 c0 -14 24 -32 43 -32 13 0 17 5 13 16 -3 9 -6 18 -6 20 0 2 -11 4 -25 4 -14 0 -25 -4 -25 -8z"
       id="path5"
       style="fill:#000000;fill-opacity:1" />
    <path
       d="M8145 15428 c-27 -8 -121 -19 -170 -20 -11 -1 -99 4 -195 10 -185 11 -325 8 -375 -6 -17 -5 -44 -5 -63 0 -28 8 -43 5 -92 -21 -65 -34 -154 -45 -130 -16 10 12 9 16 -3 21 -21 8 -40 -4 -33 -21 5 -13 -74 -30 -126 -26 -14 1 -44 -7 -67 -18 -22 -12 -48 -21 -58 -21 -20 0 -122 -34 -151 -50 -41 -22 -169 -70 -188 -70 -25 0 -90 -26 -98 -39 -3 -5 -65 -28 -137 -52 -114 -37 -139 -49 -183 -89 -28 -26 -77 -57 -108 -69 -35 -14 -74 -40 -100 -67 -24 -24 -47 -44 -53 -44 -5 0 -34 -26 -64 -57 -29 -32 -59 -58 -65 -58 -6 0 -12 -9 -15 -20 -2 -11 -21 -40 -43 -65 -22 -25 -48 -61 -59 -80 -10 -19 -46 -64 -79 -99 -34 -35 -63 -76 -67 -92 -3 -15 -14 -36 -24 -45 -11 -9 -19 -22 -19 -29 0 -7 -9 -20 -19 -29 -11 -10 -22 -28 -25 -42 -4 -13 -12 -24 -20 -24 -25 0 -38 -29 -47 -104 -17 -153 -87 -227 -152 -158 -14 15 -47 43 -73 62 -52 38 -234 218 -234 232 0 4 -7 8 -16 8 -8 0 -20 14 -26 30 -6 18 -29 43 -54 61 -24 16 -44 34 -44 39 0 5 -17 14 -39 20 -21 5 -44 17 -51 25 -7 8 -18 15 -24 15 -7 0 -16 14 -21 32 -6 17 -17 34 -25 38 -35 16 -87 33 -120 38 -19 2 -58 20 -86 38 -29 20 -64 34 -81 34 -17 0 -38 8 -48 20 -10 11 -31 20 -46 20 -15 0 -30 4 -34 9 -14 24 -132 71 -189 77 -48 5 -68 -11 -103 -79 -17 -34 -24 -66 -25 -108 0 -33 -5 -62 -9 -65 -5 -3 -9 -22 -9 -43 0 -26 -8 -47 -25 -67 -19 -21 -24 -36 -20 -54 10 -46 26 -145 28 -165 0 -11 11 -33 24 -48 15 -19 21 -37 18 -53 -3 -13 -7 -35 -10 -48 -3 -15 3 -34 16 -50 15 -19 20 -35 15 -56 -3 -16 -1 -32 4 -35 5 -3 15 -25 21 -48 6 -23 20 -54 30 -68 10 -15 19 -31 19 -36 0 -6 13 -34 30 -64 16 -30 30 -66 30 -80 0 -16 14 -39 40 -65 23 -23 40 -49 40 -62 0 -23 5 -31 53 -85 15 -17 30 -42 34 -56 3 -14 9 -30 13 -36 4 -5 14 -36 21 -69 12 -57 12 -59 -11 -78 -18 -14 -32 -18 -55 -13 -47 10 -278 12 -298 2 -35 -16 -274 -56 -299 -49 -10 2 -29 -3 -43 -12 -13 -9 -31 -16 -40 -16 -9 0 -37 -6 -63 -14 -26 -7 -65 -18 -87 -24 -68 -17 -242 -89 -290 -119 -25 -15 -67 -45 -93 -66 -26 -21 -61 -45 -79 -53 -17 -9 -57 -40 -88 -70 -32 -30 -66 -54 -76 -54 -12 0 -26 -15 -38 -39 -22 -42 -121 -151 -137 -151 -6 0 -21 -12 -35 -26 -13 -14 -48 -41 -76 -60 -43 -27 -53 -39 -53 -61 0 -16 -6 -37 -13 -49 -6 -12 -24 -44 -40 -73 -15 -28 -32 -51 -37 -51 -19 0 -100 -93 -100 -115 0 -11 -13 -35 -30 -53 -16 -18 -30 -37 -30 -41 0 -4 -18 -27 -40 -50 -22 -23 -40 -50 -40 -61 0 -17 -34 -51 -76 -76 -13 -7 -18 -24 -19 -57 -1 -28 -9 -55 -18 -65 -10 -10 -17 -26 -17 -35 0 -26 -42 -140 -57 -155 -7 -7 -13 -17 -13 -22 0 -5 -10 -10 -22 -12 -20 -3 -24 -11 -29 -62 -5 -39 -12 -62 -23 -68 -23 -13 -46 -72 -62 -157 -7 -41 -20 -81 -29 -91 -8 -9 -15 -28 -15 -41 0 -14 -6 -34 -14 -45 -8 -11 -23 -52 -32 -90 -10 -38 -24 -76 -32 -86 -7 -9 -15 -27 -16 -40 -2 -13 -16 -43 -31 -68 -67 -105 -115 -221 -115 -276 0 -14 -4 -32 -10 -42 -5 -9 -18 -70 -29 -135 -12 -76 -25 -125 -36 -138 -13 -13 -20 -45 -25 -111 -4 -51 -10 -102 -13 -113 -3 -11 -9 -33 -13 -50 -4 -16 -16 -50 -27 -74 -15 -34 -18 -55 -12 -98 5 -40 3 -60 -8 -76 -19 -29 -33 -162 -18 -171 17 -11 13 -41 -8 -67 -18 -21 -19 -35 -14 -124 4 -59 12 -108 19 -120 8 -11 14 -32 14 -47 0 -15 8 -43 17 -63 16 -34 16 -38 -1 -70 -14 -26 -17 -45 -12 -77 4 -23 11 -47 15 -53 22 -27 39 -199 21 -210 -18 -11 -10 -56 14 -78 19 -18 24 -33 24 -75 1 -37 7 -60 21 -79 12 -14 21 -40 21 -58 0 -24 9 -40 36 -64 29 -27 34 -38 29 -60 -4 -18 0 -33 13 -47 10 -11 22 -31 25 -46 5 -17 17 -30 37 -36 24 -9 30 -17 30 -39 0 -38 39 -93 138 -192 46 -46 89 -96 97 -110 21 -41 68 -77 149 -115 55 -26 79 -44 91 -66 9 -17 24 -30 34 -30 10 0 24 -6 30 -13 6 -8 29 -20 52 -27 42 -14 69 -49 69 -90 0 -31 -44 -70 -78 -70 -16 0 -41 -9 -55 -20 -14 -11 -28 -20 -32 -20 -4 0 -18 -9 -32 -20 -14 -11 -35 -20 -46 -20 -11 0 -48 -15 -83 -34 -34 -19 -82 -40 -106 -47 -23 -7 -52 -20 -63 -30 -11 -10 -40 -25 -64 -35 -25 -10 -69 -33 -100 -51 -30 -18 -63 -33 -72 -33 -28 0 -49 -11 -49 -26 0 -8 -15 -20 -32 -28 -18 -7 -46 -28 -62 -45 -17 -17 -34 -31 -39 -31 -5 0 -42 -20 -81 -45 -40 -25 -78 -45 -85 -45 -6 0 -16 -11 -23 -24 -6 -14 -24 -30 -40 -37 -16 -6 -35 -24 -43 -38 -7 -14 -29 -42 -49 -61 -20 -19 -46 -55 -57 -80 -12 -25 -34 -73 -51 -106 -24 -50 -28 -66 -19 -82 6 -11 11 -34 11 -51 0 -35 30 -71 59 -71 10 0 30 -9 44 -20 14 -11 34 -20 44 -20 11 0 30 -11 42 -24 15 -16 38 -26 71 -30 29 -4 55 -14 62 -24 33 -44 99 -64 252 -77 37 -3 76 -10 86 -15 11 -6 28 -6 42 -1 13 4 40 6 62 3 21 -2 72 1 112 8 41 7 107 14 147 15 39 1 115 7 167 15 52 7 107 13 121 14 14 0 42 13 62 29 29 22 46 27 90 27 40 0 56 -4 61 -16 8 -20 -11 -101 -29 -128 -8 -11 -15 -33 -15 -49 0 -16 -6 -43 -14 -60 -8 -18 -17 -45 -19 -62 -3 -16 -10 -48 -16 -70 -6 -22 -13 -74 -16 -115 -3 -41 -10 -79 -15 -85 -6 -7 -6 -15 -1 -21 5 -5 6 -32 0 -63 -19 -121 -11 -456 12 -493 12 -17 13 -31 6 -55 -8 -27 -5 -41 18 -85 16 -29 29 -64 31 -78 1 -14 7 -43 12 -65 6 -22 13 -57 16 -77 5 -25 13 -39 27 -43 16 -5 19 -12 14 -38 -4 -20 -1 -43 9 -62 9 -17 16 -51 16 -77 0 -44 3 -49 44 -80 25 -18 47 -40 50 -48 44 -130 82 -207 111 -226 14 -9 25 -22 25 -30 0 -13 63 -102 80 -114 16 -12 90 -129 90 -144 0 -9 10 -20 23 -25 26 -11 105 -96 118 -129 5 -12 15 -22 22 -22 7 0 24 -11 37 -25 13 -14 32 -25 42 -25 12 0 18 -7 18 -24 0 -24 23 -56 40 -56 5 0 11 -8 14 -17 3 -10 20 -26 36 -35 17 -9 34 -28 39 -41 10 -25 90 -97 108 -97 16 0 49 -41 79 -100 38 -73 85 -130 106 -130 23 0 138 -87 138 -104 0 -13 258 -264 288 -280 9 -5 47 -29 84 -53 37 -23 71 -43 76 -43 5 0 25 -16 45 -35 36 -35 119 -86 212 -129 28 -13 68 -43 91 -67 22 -24 53 -52 70 -61 16 -10 63 -43 104 -73 86 -64 157 -100 225 -115 26 -6 67 -20 92 -31 24 -11 52 -17 62 -14 20 6 82 -21 94 -42 4 -7 15 -13 24 -13 19 0 76 -17 112 -34 14 -6 33 -25 43 -42 14 -24 28 -33 57 -38 21 -3 49 -14 62 -24 24 -19 90 -32 179 -36 25 -2 58 -8 73 -14 16 -7 48 -12 72 -12 34 0 47 -5 55 -20 8 -16 21 -20 59 -20 27 0 67 -7 90 -15 30 -10 66 -13 123 -9 45 3 84 7 88 9 3 2 25 -1 48 -6 34 -7 49 -6 74 7 17 9 47 16 67 16 20 0 55 6 79 14 23 8 64 14 91 14 30 0 69 9 102 24 30 14 77 30 104 37 28 6 75 22 105 34 30 13 70 26 87 30 18 4 35 11 39 16 3 5 23 17 43 25 21 8 43 26 49 40 7 14 20 24 32 24 32 0 60 19 60 40 0 11 10 25 23 31 44 24 117 84 117 96 0 7 6 13 13 13 7 0 23 9 35 20 12 11 27 20 33 20 15 0 78 72 98 114 14 27 21 31 51 28 19 -1 40 -4 46 -6 7 -3 13 -66 17 -178 4 -95 12 -191 18 -213 6 -22 13 -56 16 -75 3 -19 11 -40 19 -46 11 -9 13 -27 8 -75 -10 -113 -5 -171 18 -203 11 -16 21 -42 20 -57 0 -16 4 -31 9 -34 5 -4 9 -19 9 -34 0 -15 3 -31 7 -34 3 -4 7 -17 9 -30 1 -13 20 -49 42 -81 32 -45 42 -69 47 -117 4 -37 14 -67 25 -77 10 -9 33 -48 53 -87 94 -189 125 -242 165 -282 24 -23 50 -43 57 -43 10 0 67 58 182 185 10 11 30 28 46 38 15 10 27 25 27 35 0 10 16 33 35 51 20 18 44 50 55 70 10 21 26 43 34 50 9 8 16 19 16 27 0 7 14 27 30 44 21 22 30 40 30 65 0 18 5 37 10 40 5 3 10 15 10 26 0 12 11 53 24 92 13 40 24 79 24 87 0 27 40 167 67 235 22 53 25 75 20 113 -6 47 5 83 60 182 17 31 75 39 110 16 14 -9 33 -16 44 -16 11 0 24 -6 28 -13 4 -6 28 -26 53 -42 24 -17 69 -54 99 -84 32 -32 65 -55 78 -56 12 0 33 -11 46 -23 13 -12 31 -22 39 -22 9 0 30 -11 47 -25 16 -14 53 -33 81 -41 28 -8 54 -22 57 -30 3 -7 11 -14 18 -14 6 0 20 -9 29 -19 12 -13 38 -22 73 -27 31 -4 68 -13 82 -20 14 -8 36 -14 48 -14 12 0 24 -4 27 -8 3 -5 28 -9 56 -10 29 0 58 -6 65 -12 37 -31 414 -47 465 -20 13 7 53 13 89 15 74 2 141 14 156 26 6 4 35 11 65 14 57 7 127 27 164 47 11 6 36 11 55 9 19 -1 57 7 85 17 80 30 121 42 143 42 11 0 38 7 58 16 21 8 47 13 59 10 16 -4 30 5 57 34 36 39 56 46 118 41 13 -1 31 4 40 12 16 14 46 25 129 47 33 8 46 18 53 38 11 29 69 72 99 72 27 0 88 30 154 75 32 22 66 45 76 50 10 6 25 16 33 23 8 7 37 19 65 27 35 11 58 25 72 45 12 17 28 30 35 30 8 0 19 9 25 20 7 13 21 20 41 20 24 0 34 8 57 45 14 24 38 49 52 53 14 5 46 26 73 46 26 20 50 36 53 36 12 0 124 73 124 81 0 5 17 16 38 24 20 9 53 33 72 54 19 21 42 42 51 47 9 5 22 22 30 39 9 18 26 33 44 38 51 15 57 21 84 75 18 37 33 54 51 58 49 11 71 24 88 54 9 17 26 33 37 36 10 4 44 30 75 59 30 28 79 71 109 93 29 23 63 57 75 75 40 58 259 265 296 279 10 4 30 31 45 62 15 30 37 62 50 70 13 8 30 34 39 58 11 27 29 51 50 65 19 12 43 41 56 65 12 24 31 61 42 83 26 51 34 70 53 125 9 24 23 53 33 63 13 14 17 37 17 91 1 119 14 163 48 157 20 -3 47 23 69 66 13 27 32 60 42 76 10 15 19 46 20 70 1 23 10 68 20 101 14 45 16 63 7 80 -14 26 -8 58 18 95 13 17 20 42 19 67 -1 21 5 64 12 95 12 55 12 58 -20 120 -30 59 -31 67 -22 114 7 33 7 66 1 93 -5 22 -9 51 -9 64 1 63 -33 228 -60 293 -5 11 -18 43 -30 70 -20 47 -21 78 -4 135 9 34 169 5 231 -42 13 -11 80 -12 146 -3 39 6 57 3 101 -19 56 -27 104 -33 137 -16 14 8 27 6 50 -5 46 -24 127 -35 179 -23 25 6 68 9 97 9 32 -1 71 6 100 17 28 12 110 27 196 37 123 14 157 21 205 46 66 33 82 45 105 79 27 39 21 67 -26 118 -24 26 -49 62 -57 80 -7 18 -30 49 -51 70 -22 20 -39 44 -39 55 0 11 -11 22 -28 28 -15 5 -40 28 -54 50 -19 29 -50 54 -110 88 -46 27 -93 51 -105 55 -13 4 -32 20 -43 37 -12 16 -29 29 -38 29 -25 1 -69 51 -84 95 -10 29 -23 45 -48 57 -74 37 -146 66 -180 73 -39 8 -131 55 -126 64 1 3 10 23 20 44 9 20 23 37 30 37 23 0 56 44 50 67 -6 22 7 38 61 78 41 31 85 77 101 108 8 15 19 27 24 27 6 0 15 10 21 23 5 12 27 32 49 44 31 19 39 30 45 63 5 27 15 46 31 57 13 8 24 21 24 28 0 6 9 20 21 31 24 21 59 94 59 122 0 10 7 27 15 38 8 10 15 31 15 46 0 17 8 31 20 38 10 6 24 29 30 52 7 23 18 51 25 62 8 13 13 54 14 106 0 47 6 101 12 120 16 49 29 122 39 215 5 44 12 96 15 116 5 24 2 46 -9 66 -13 26 -13 33 -1 49 8 11 15 34 15 52 0 18 7 43 15 56 12 18 13 29 5 51 -6 16 -8 48 -4 72 4 31 3 43 -6 43 -15 0 -8 46 16 95 15 32 14 35 -11 76 -23 35 -26 49 -20 83 21 125 9 249 -28 304 -22 32 -24 45 -20 94 4 40 0 70 -11 98 -12 31 -15 57 -10 108 5 53 3 75 -10 100 -9 17 -16 41 -16 54 0 13 -7 32 -15 43 -11 14 -13 32 -9 66 6 47 -2 76 -47 162 -11 21 -25 66 -30 99 -5 33 -16 73 -24 89 -18 34 -19 81 -3 125 9 27 9 40 -4 71 -9 21 -19 51 -23 67 -3 16 -17 43 -30 61 -14 17 -28 46 -31 64 -4 17 -11 34 -15 37 -5 3 -9 19 -9 36 0 33 -24 115 -46 161 -8 16 -14 36 -14 45 0 18 -18 78 -31 104 -5 10 -9 28 -9 41 0 12 -9 39 -20 60 -11 20 -20 48 -20 61 0 13 -9 35 -20 49 -12 14 -34 57 -49 95 -16 38 -36 84 -44 103 -9 19 -21 54 -26 78 -5 24 -21 55 -35 70 -14 15 -26 34 -26 43 0 9 -10 29 -23 45 -13 15 -31 49 -40 74 -14 38 -27 51 -62 70 -38 20 -45 29 -45 54 0 35 -42 129 -62 141 -8 5 -24 25 -36 46 -12 20 -29 39 -38 42 -8 3 -20 19 -25 36 -6 16 -15 30 -20 30 -5 0 -9 11 -9 24 0 15 -10 32 -26 43 -14 10 -38 41 -52 68 -15 28 -37 54 -49 60 -13 5 -23 15 -23 22 0 6 -10 15 -22 19 -26 8 -77 62 -78 82 0 8 -21 38 -46 68 -32 37 -58 58 -85 65 -21 7 -41 20 -44 29 -3 10 -14 25 -25 35 -11 10 -20 26 -20 36 0 17 -46 49 -70 49 -17 0 -99 72 -106 92 -3 10 -16 21 -30 24 -13 4 -30 14 -37 24 -20 29 -78 58 -132 66 -27 4 -69 18 -94 30 -24 13 -51 24 -59 24 -9 0 -25 9 -36 19 -15 14 -46 23 -103 30 -83 10 -114 22 -165 63 l-28 22 -23 -22 c-29 -27 -47 -28 -81 -1 -16 13 -33 18 -45 14 -11 -3 -34 1 -50 10 -28 14 -34 14 -67 0 -45 -19 -78 -19 -107 -1 -12 8 -47 17 -77 21 -78 10 -93 20 -86 55 3 16 21 50 41 75 21 28 35 58 35 75 0 16 10 41 23 57 24 29 87 161 87 181 0 7 12 31 27 55 14 23 28 58 30 77 2 25 13 44 37 65 19 17 38 44 41 60 6 26 32 86 68 159 5 10 8 60 6 110 -1 50 1 98 4 106 17 42 22 90 15 153 -4 39 -3 77 1 86 4 9 7 39 5 66 -4 61 -4 58 2 125 5 50 3 57 -20 79 -14 14 -26 30 -26 36 0 15 -45 56 -91 83 -44 26 -81 28 -115 5 -14 -9 -51 -20 -81 -24 -44 -6 -72 -19 -137 -63 -44 -31 -89 -56 -100 -56 -10 0 -34 -13 -53 -30 -18 -16 -39 -30 -47 -30 -7 0 -22 -11 -34 -25 -12 -14 -26 -25 -31 -25 -5 0 -12 -11 -15 -24 -3 -14 -18 -29 -33 -35 -16 -6 -41 -20 -58 -31 -16 -11 -40 -24 -52 -30 -14 -5 -23 -18 -23 -31 0 -14 -10 -24 -30 -32 -17 -6 -33 -22 -39 -37 -11 -33 -89 -120 -106 -120 -8 0 -18 -6 -22 -12 -4 -7 -17 -18 -28 -24 -11 -6 -22 -20 -23 -30 -2 -10 -16 -31 -30 -47 -14 -15 -31 -38 -37 -52 -15 -35 -129 -150 -164 -164 -16 -7 -32 -19 -35 -27 -8 -21 -50 -17 -73 9 -12 12 -30 60 -43 111 -21 84 -91 249 -111 262 -5 3 -9 13 -9 23 0 9 -10 37 -22 62 -12 24 -21 52 -19 61 3 24 -22 69 -54 96 -16 15 -24 29 -21 39 4 9 3 21 -2 27 -5 6 -15 31 -22 54 -10 31 -29 57 -64 88 -28 24 -56 44 -63 44 -7 0 -13 11 -13 24 0 27 -24 56 -46 56 -8 0 -14 6 -14 13 0 14 -36 52 -68 71 -65 40 -82 52 -82 63 0 11 -36 39 -99 78 -9 6 -33 20 -52 33 -20 12 -44 22 -52 22 -9 0 -21 9 -27 21 -15 26 -125 79 -167 79 -30 0 -93 29 -121 57 -7 7 -23 13 -35 13 -28 0 -41 9 -56 39 -10 18 -19 22 -40 18 -39 -8 -106 9 -181 45 -58 28 -85 34 -240 50 -96 10 -229 20 -296 22 -95 3 -127 7 -148 21 -23 15 -41 17 -116 12 -69 -4 -91 -3 -100 8 -7 8 -28 17 -49 20 -20 3 -49 10 -65 15 -19 6 -44 6 -72 -1 -24 -6 -52 -8 -61 -4 -27 11 -423 14 -458 3z m-135 -358 c8 1 74 2 145 2 150 2 253 -8 310 -28 22 -8 54 -14 70 -14 128 3 359 -22 399 -42 11 -6 45 -11 77 -13 32 -1 64 -7 72 -13 8 -7 30 -12 48 -12 88 2 198 -9 239 -25 25 -9 67 -19 94 -21 27 -2 70 -14 95 -26 25 -13 60 -24 76 -25 52 -2 115 -20 134 -37 9 -9 24 -16 32 -16 8 0 23 -7 33 -15 11 -8 36 -15 55 -15 23 0 73 -19 136 -50 55 -27 111 -50 125 -50 14 0 45 -11 70 -24 30 -16 50 -21 61 -16 9 5 25 3 40 -5 13 -8 31 -17 39 -21 8 -4 19 -13 23 -21 4 -7 16 -13 27 -13 29 0 80 -33 80 -53 0 -16 9 -38 32 -77 5 -8 11 -22 14 -31 3 -9 18 -20 32 -23 38 -8 95 -87 121 -167 12 -37 31 -75 42 -85 11 -10 17 -24 15 -31 -3 -7 3 -22 14 -33 11 -11 20 -27 20 -35 0 -8 9 -29 20 -47 11 -19 20 -51 20 -75 0 -32 6 -48 29 -70 27 -27 29 -35 28 -104 0 -63 5 -85 30 -139 64 -136 65 -142 49 -180 -12 -30 -12 -48 -1 -125 14 -94 14 -182 1 -204 -5 -7 -10 -47 -11 -89 -5 -106 -39 -235 -72 -270 -15 -15 -36 -89 -30 -105 6 -18 -41 -105 -63 -117 -41 -22 -57 3 -85 132 -9 42 -23 82 -31 89 -9 7 -28 40 -43 73 -16 34 -42 78 -60 100 -17 21 -31 46 -31 56 0 9 -11 22 -25 28 -16 7 -25 20 -25 34 0 13 -4 28 -8 35 -12 19 -133 153 -184 204 -27 26 -48 53 -48 61 0 28 -100 108 -136 108 -11 0 -35 16 -53 35 -17 19 -51 47 -74 63 -23 15 -48 35 -55 45 -15 20 -146 87 -170 87 -8 0 -27 11 -44 25 -16 14 -39 25 -51 25 -11 0 -30 8 -41 18 -12 10 -39 24 -62 31 -22 7 -55 26 -73 42 -18 16 -50 31 -70 35 -20 3 -46 13 -59 21 -13 8 -30 12 -38 9 -7 -3 -39 7 -71 22 -51 23 -71 27 -163 27 -59 0 -122 6 -143 14 -32 11 -41 11 -62 -3 -21 -14 -30 -14 -91 1 -51 13 -69 14 -72 5 -5 -15 -54 -15 -87 0 -22 10 -32 9 -58 -4 -18 -9 -43 -18 -57 -21 -14 -3 -45 -12 -70 -20 -107 -37 -147 -47 -178 -47 -22 0 -34 -5 -38 -17 -11 -35 -20 -46 -62 -69 -47 -27 -97 -31 -127 -11 -20 13 -109 38 -155 43 -24 3 -57 10 -175 36 -27 6 -97 12 -155 13 -58 0 -111 4 -117 8 -20 13 -213 -13 -267 -35 -33 -13 -61 -18 -85 -14 -35 5 -83 -7 -127 -31 -12 -7 -39 -17 -60 -22 -22 -5 -57 -14 -79 -20 -22 -5 -47 -18 -55 -28 -8 -10 -33 -24 -55 -31 -22 -8 -58 -26 -80 -41 -22 -15 -53 -33 -69 -41 -16 -8 -45 -30 -65 -47 -20 -18 -65 -53 -101 -76 -59 -40 -87 -63 -185 -155 -83 -78 -175 -185 -193 -223 -10 -24 -33 -64 -51 -89 -57 -80 -81 -119 -81 -131 0 -6 -13 -28 -30 -49 -16 -21 -30 -45 -30 -53 0 -8 -6 -20 -14 -26 -8 -7 -18 -41 -21 -77 -6 -49 -14 -73 -36 -100 -16 -20 -29 -41 -29 -45 0 -15 -38 -10 -54 7 -9 9 -16 32 -16 54 0 21 -4 42 -10 45 -5 3 -10 16 -10 29 0 12 -13 40 -29 61 -24 32 -27 44 -20 63 7 18 5 31 -6 48 -8 13 -15 37 -15 53 0 16 -5 33 -11 37 -7 4 -9 22 -6 47 4 25 0 51 -8 67 -8 15 -19 67 -25 116 -6 49 -15 100 -21 114 -14 37 -13 190 1 225 7 17 12 44 11 62 -1 17 3 34 8 37 5 4 8 36 6 73 -6 82 10 185 33 226 9 16 23 40 30 54 8 13 17 50 22 81 6 42 19 74 49 119 23 35 46 74 51 89 10 26 29 53 82 118 15 18 45 38 68 46 26 9 46 23 55 40 7 14 30 35 49 45 20 11 36 23 36 27 0 17 75 78 96 78 13 0 27 6 31 14 11 19 78 67 128 90 22 10 53 25 68 32 16 8 34 14 40 14 6 0 31 10 55 21 24 12 62 23 83 24 27 2 53 13 86 39 26 20 54 34 62 31 9 -2 46 6 83 19 65 23 67 23 84 5 22 -24 44 -24 44 -1 0 22 30 50 81 76 36 18 76 23 234 29 58 2 91 9 121 24 37 20 59 22 208 24 124 1 168 5 174 14 9 17 31 21 60 11 14 -5 29 -3 38 5 21 17 151 39 194 32 19 -3 42 -4 50 -3z m4190 -916 c0 -3 -8 -18 -19 -32 -27 -38 -35 -103 -20 -161 16 -65 7 -91 -46 -129 -40 -28 -45 -36 -45 -71 0 -22 -4 -43 -10 -46 -5 -3 -10 -36 -10 -73 -1 -43 -6 -74 -15 -86 -8 -11 -15 -29 -15 -40 0 -43 -22 -99 -51 -128 -16 -17 -29 -37 -29 -45 0 -20 -39 -103 -49 -103 -10 0 -31 -46 -31 -68 0 -10 -13 -33 -29 -52 -15 -19 -38 -54 -49 -76 -32 -63 -71 -104 -117 -124 -32 -14 -44 -25 -51 -51 -9 -31 -14 -34 -51 -37 -34 -3 -48 -11 -77 -43 -29 -31 -43 -39 -71 -39 -25 0 -43 -8 -65 -30 -24 -23 -40 -30 -70 -30 -48 0 -65 25 -56 79 3 20 0 50 -6 68 -10 27 -9 39 5 68 9 19 14 41 11 48 -3 8 2 20 11 27 8 7 15 19 15 27 0 8 13 32 29 52 16 20 33 60 40 89 7 35 24 69 46 96 19 24 35 47 35 52 0 5 11 26 25 46 14 20 25 44 25 52 0 8 8 23 18 33 29 29 82 100 82 111 0 5 16 26 35 47 20 20 42 53 51 73 8 20 34 54 57 75 23 20 70 63 105 94 34 31 62 65 62 75 0 10 22 34 50 55 28 20 50 43 50 50 0 8 12 18 28 24 15 6 38 21 52 33 30 28 131 96 142 96 5 0 8 -3 8 -6z m-8087 -25 c19 -9 26 -21 30 -57 6 -54 26 -72 76 -70 54 1 143 -13 173 -28 14 -7 36 -26 48 -41 12 -16 43 -45 68 -67 26 -21 51 -49 57 -62 5 -14 27 -34 47 -47 39 -24 138 -114 138 -126 0 -4 27 -36 61 -72 88 -94 109 -121 109 -141 0 -10 6 -18 13 -18 20 0 87 -78 102 -118 7 -20 44 -71 83 -112 42 -45 73 -87 77 -105 3 -16 11 -52 17 -80 5 -27 11 -75 12 -106 1 -30 6 -61 11 -69 13 -21 24 -101 18 -128 -5 -20 -10 -22 -37 -17 -17 4 -43 15 -58 26 -15 10 -34 19 -42 19 -7 0 -24 11 -37 25 -28 30 -71 55 -94 55 -9 0 -37 16 -61 35 -30 22 -62 36 -92 41 -35 5 -55 15 -77 39 -16 18 -45 36 -62 40 -18 3 -35 11 -39 16 -9 14 -75 41 -114 45 -35 4 -50 17 -82 70 -40 66 -50 79 -124 159 -53 58 -94 124 -94 152 0 8 -6 24 -14 36 -8 12 -17 37 -21 56 -4 19 -27 59 -51 90 -39 50 -43 59 -37 94 5 32 2 42 -20 65 -14 15 -31 38 -37 52 -6 14 -21 41 -33 61 -19 33 -22 51 -22 155 l0 117 35 13 c45 16 45 16 73 3z m533 -134 c3 -8 3 -19 0 -24 -10 -16 -36 -1 -36 20 0 22 28 26 36 4z m4224 -447 c15 -10 27 -10 54 0 40 15 139 3 178 -21 13 -8 59 -20 103 -28 44 -7 109 -23 145 -37 36 -13 92 -31 125 -41 67 -20 145 -57 145 -70 0 -13 71 -56 119 -71 24 -8 46 -21 48 -30 3 -8 34 -37 70 -65 65 -51 123 -105 203 -190 25 -26 55 -54 68 -63 13 -8 37 -40 53 -71 16 -31 51 -83 79 -116 62 -75 110 -167 103 -196 -4 -14 2 -28 21 -46 15 -14 25 -31 22 -38 -5 -14 12 -80 38 -152 36 -98 36 -356 0 -426 -9 -17 -16 -49 -16 -71 1 -46 -27 -117 -71 -178 -10 -14 -18 -48 -20 -79 -3 -45 -7 -56 -27 -66 -20 -10 -28 -9 -42 4 -10 9 -18 22 -18 30 0 7 -9 32 -20 56 -10 23 -22 74 -24 112 -3 39 -8 84 -12 100 -4 17 -6 37 -6 45 1 8 3 42 5 75 4 46 1 66 -13 85 -39 56 -89 178 -88 219 0 42 -39 117 -82 156 -11 10 -29 38 -41 64 -53 116 -63 133 -91 154 -34 25 -58 65 -58 97 0 30 -27 66 -68 90 -32 19 -41 20 -75 10 -21 -6 -40 -10 -42 -8 -1 2 -14 22 -29 46 -29 47 -57 62 -115 62 -42 0 -64 19 -75 61 -3 15 -22 39 -43 55 l-37 28 -59 -21 -60 -21 -32 31 c-18 18 -42 48 -53 67 -24 43 -51 44 -110 5 -56 -37 -69 -65 -52 -115 10 -30 10 -43 1 -54 -8 -10 -9 -26 -2 -56 9 -39 7 -46 -17 -76 -31 -40 -33 -40 -56 -15 -13 15 -16 32 -13 77 2 32 1 72 -4 88 -4 17 -13 51 -19 75 -11 42 -70 111 -96 111 -29 0 -65 -59 -87 -145 -22 -88 -23 -90 -52 -90 -26 0 -31 6 -48 50 -10 28 -18 69 -18 93 1 50 -23 92 -51 92 -12 0 -43 -16 -69 -35 -27 -19 -53 -35 -57 -35 -4 0 -6 18 -4 40 3 31 -2 50 -22 80 -14 22 -26 44 -26 50 0 11 -1 11 -39 15 -30 3 -110 -32 -118 -51 -9 -24 -34 -16 -46 15 -21 57 -78 65 -133 18 -22 -20 -27 -34 -34 -105 -8 -76 -28 -130 -43 -115 -4 3 -7 20 -7 36 0 17 -13 54 -30 84 -16 29 -30 59 -30 67 0 22 -50 57 -67 48 -8 -5 -34 -28 -59 -51 -37 -37 -48 -42 -71 -36 -68 16 -91 16 -129 -2 l-39 -18 1 -129 c1 -83 7 -137 15 -152 9 -17 9 -28 2 -35 -13 -13 -83 110 -83 146 0 30 -32 106 -55 128 -25 26 -58 21 -83 -13 -18 -24 -22 -43 -22 -103 0 -49 -5 -80 -15 -93 -13 -17 -14 -17 -15 -2 0 10 -9 22 -19 28 -11 5 -25 27 -31 47 -15 47 -33 68 -70 83 -25 11 -34 9 -67 -11 -21 -13 -42 -29 -46 -36 -12 -19 -40 -16 -60 7 -40 47 -124 11 -119 -51 1 -16 -7 -47 -18 -69 -18 -36 -22 -39 -46 -30 -44 17 -72 12 -91 -16 -16 -25 -16 -33 -1 -122 16 -91 15 -97 -2 -129 l-18 -34 -34 45 c-37 50 -45 53 -94 30 -44 -21 -56 -43 -56 -109 -1 -76 -7 -83 -58 -60 -42 19 -43 19 -79 -2 -34 -19 -36 -24 -39 -75 l-3 -55 -54 -22 c-30 -13 -55 -26 -56 -29 0 -4 -2 -25 -5 -47 -7 -66 -7 -79 4 -112 8 -26 6 -39 -14 -80 -13 -26 -24 -53 -24 -59 0 -7 -11 -19 -25 -28 -31 -20 -33 -58 -5 -94 18 -22 20 -34 14 -86 -8 -74 -27 -108 -57 -104 -34 5 -61 94 -46 153 9 35 8 49 -4 72 -23 42 -39 121 -29 141 16 30 23 114 11 129 -13 15 5 128 24 151 16 20 48 111 57 162 4 25 21 71 38 104 17 32 34 75 37 95 4 23 23 55 55 90 26 30 50 66 53 81 4 15 16 31 31 38 15 6 33 28 42 49 16 38 158 175 219 212 17 10 44 32 60 49 18 19 43 33 66 37 23 4 43 16 57 34 12 16 34 31 53 35 18 3 39 12 47 18 32 27 148 60 277 79 39 6 84 17 102 25 17 8 47 14 66 14 20 0 39 5 42 10 8 14 141 13 167 -1 16 -9 29 -7 60 7 35 15 48 16 116 6 42 -7 100 -12 127 -11 30 0 83 -10 128 -24 87 -29 230 -45 249 -29 7 5 33 12 58 15 73 8 138 25 165 43 14 9 46 17 70 18 25 1 51 8 57 14 7 7 20 12 29 12 10 0 25 7 33 16 9 8 26 14 39 13 12 -1 42 3 66 10 24 7 71 16 105 20 33 5 62 9 64 10 1 0 11 -4 22 -11z m-1624 -724 c-3 -7 -1 -16 5 -19 11 -7 3 -25 -12 -25 -5 0 -9 16 -9 36 0 22 4 33 11 29 6 -4 8 -13 5 -21z m-3081 -89 c35 -28 44 -31 69 -22 19 6 41 6 66 -2 20 -6 52 -11 69 -11 18 0 39 -6 47 -14 7 -8 31 -17 53 -21 22 -4 45 -13 51 -21 16 -18 154 -84 177 -84 11 0 23 -4 29 -8 5 -5 25 -15 44 -22 19 -8 40 -21 47 -30 6 -9 37 -29 70 -45 32 -16 67 -39 78 -51 11 -12 55 -41 98 -63 113 -59 162 -97 182 -141 10 -22 28 -49 41 -61 32 -30 43 -98 18 -116 -20 -15 -64 -18 -64 -4 0 4 -30 11 -67 14 -38 3 -110 11 -162 16 -75 9 -114 8 -190 -3 -53 -8 -129 -20 -168 -26 -40 -5 -92 -16 -115 -24 -67 -21 -148 -37 -205 -40 -33 -1 -60 -9 -72 -20 -11 -10 -41 -21 -66 -24 -34 -3 -50 -11 -62 -28 -11 -17 -31 -27 -76 -35 -45 -9 -68 -20 -87 -41 -14 -15 -48 -42 -75 -59 -28 -17 -68 -50 -90 -73 -22 -24 -61 -54 -85 -68 -35 -19 -46 -32 -53 -61 -5 -20 -15 -37 -22 -37 -19 0 -71 -51 -79 -76 -4 -11 -31 -49 -61 -84 -31 -35 -60 -80 -65 -100 -5 -20 -21 -47 -35 -60 -19 -18 -24 -31 -20 -50 4 -18 1 -31 -10 -40 -8 -7 -15 -26 -15 -42 0 -16 -6 -44 -14 -62 -8 -19 -17 -65 -21 -103 -4 -37 -13 -95 -21 -128 -8 -33 -14 -87 -14 -120 1 -102 -9 -228 -20 -239 -5 -5 -10 -34 -10 -64 0 -46 -5 -60 -30 -89 -19 -22 -30 -45 -30 -64 0 -25 -14 -44 -73 -102 -41 -40 -95 -104 -120 -144 -26 -39 -51 -75 -57 -78 -5 -3 -10 -15 -10 -26 0 -11 -6 -22 -14 -25 -8 -3 -24 -27 -35 -54 -12 -27 -25 -51 -30 -54 -4 -3 -23 -45 -41 -93 -18 -48 -42 -103 -52 -121 -10 -18 -18 -43 -18 -55 0 -13 -13 -36 -30 -52 -21 -20 -30 -38 -30 -62 0 -18 -7 -52 -15 -76 -8 -24 -17 -59 -19 -78 -3 -19 -12 -56 -22 -84 -9 -27 -16 -74 -16 -104 0 -32 -9 -83 -24 -125 -29 -87 -29 -96 -3 -130 29 -37 24 -98 -12 -145 -24 -30 -24 -49 -2 -73 10 -11 19 -36 20 -56 4 -61 12 -82 38 -92 24 -9 36 -50 15 -50 -17 0 -11 -51 10 -77 11 -14 20 -31 20 -38 0 -7 7 -18 15 -25 9 -8 13 -21 10 -32 -4 -10 2 -33 14 -52 12 -18 21 -47 21 -64 0 -17 4 -33 9 -37 5 -3 12 -19 16 -35 4 -16 17 -38 31 -49 13 -10 24 -23 24 -28 0 -6 9 -20 20 -33 11 -13 20 -29 20 -37 0 -27 64 -126 92 -142 15 -9 31 -24 34 -35 3 -10 19 -37 36 -60 16 -22 38 -55 49 -73 11 -17 26 -34 34 -37 8 -3 15 -12 15 -21 0 -8 8 -15 18 -15 17 0 132 -103 132 -119 0 -4 -9 -17 -21 -30 -15 -16 -26 -20 -42 -15 -12 5 -58 8 -103 9 -68 1 -84 4 -104 23 -22 20 -61 28 -115 23 -47 -4 -168 20 -192 39 -14 11 -39 20 -54 20 -22 0 -29 5 -29 20 0 14 -11 22 -42 31 -24 6 -50 15 -58 20 -56 34 -130 67 -160 73 -23 4 -48 20 -70 42 -33 36 -84 64 -114 64 -8 0 -28 14 -45 31 -17 17 -34 28 -39 25 -12 -7 -97 40 -94 53 1 6 -6 15 -15 18 -22 9 -52 44 -53 61 0 16 -65 78 -101 97 -28 15 -89 104 -89 130 0 8 -8 23 -17 33 -27 27 -73 97 -73 110 0 6 -11 28 -25 48 -14 20 -25 49 -25 65 0 15 -4 30 -9 34 -5 3 -15 30 -22 61 -7 30 -20 61 -28 67 -20 15 -41 52 -41 71 0 7 -7 19 -15 26 -10 8 -15 30 -15 61 0 26 -5 51 -11 54 -5 4 -8 12 -6 18 2 7 -2 19 -10 28 -10 12 -13 44 -13 115 2 154 2 154 -6 236 -4 51 -2 93 5 120 10 36 9 49 -4 81 -21 52 -11 182 17 213 20 23 16 46 -14 76 -19 19 -18 58 1 82 6 7 8 22 5 34 -4 15 3 33 25 59 17 21 31 45 31 54 0 9 10 29 21 44 19 23 20 32 12 60 -9 30 -8 36 12 55 13 12 23 30 23 39 -3 32 13 89 27 101 13 11 13 15 0 33 -21 30 -19 51 10 105 14 26 25 57 25 69 0 12 5 25 11 29 6 3 9 15 6 25 -3 10 1 23 9 30 8 6 14 17 14 24 0 7 6 25 14 40 8 15 12 34 9 42 -6 16 24 53 45 53 10 0 12 7 8 26 -5 19 -2 33 13 48 13 14 23 46 30 96 6 41 21 96 35 122 13 26 27 74 31 107 6 50 12 65 41 93 19 18 34 43 34 56 0 12 4 22 8 22 5 0 14 11 20 25 6 13 25 31 41 40 35 18 61 61 61 102 0 35 31 87 66 109 24 16 26 22 21 67 -3 34 0 50 8 54 7 2 16 14 19 26 6 23 71 97 84 97 14 0 52 58 52 78 0 24 56 98 131 174 39 39 58 67 63 91 4 20 10 37 14 39 4 2 28 43 53 93 43 82 50 90 88 103 23 8 46 22 51 33 6 10 15 19 20 19 5 0 55 45 111 100 56 55 110 100 119 100 9 0 25 9 35 20 12 13 25 18 40 14 27 -7 65 11 65 29 0 12 34 47 46 47 3 0 22 11 42 25 21 14 51 25 70 25 23 0 40 7 52 22 13 16 27 22 56 21 24 -1 47 6 62 18 14 10 35 19 48 19 12 0 26 5 30 11 4 7 26 8 63 4 42 -4 71 -1 116 13 60 20 114 28 234 37 36 3 66 7 69 9 2 3 38 4 80 4 71 0 80 -3 117 -33z m8348 -47 c15 -6 41 -8 59 -4 18 4 49 0 72 -8 23 -8 68 -20 101 -27 33 -7 64 -16 70 -21 5 -4 20 -8 35 -8 33 0 165 -34 213 -54 21 -9 47 -14 57 -11 12 4 25 -3 39 -21 22 -28 75 -65 89 -63 31 5 56 -7 88 -41 23 -24 47 -40 61 -40 13 0 26 -8 30 -17 4 -10 14 -28 24 -41 10 -13 15 -31 11 -45 -5 -19 -3 -20 11 -9 13 12 23 9 63 -14 26 -15 70 -49 98 -76 28 -27 63 -56 77 -63 18 -10 33 -32 45 -66 10 -28 27 -55 36 -60 10 -5 25 -23 33 -39 9 -17 21 -30 28 -30 13 0 117 -112 117 -126 0 -4 11 -22 25 -40 14 -18 25 -41 25 -51 0 -30 38 -82 74 -104 19 -11 41 -36 51 -57 9 -20 20 -44 26 -52 5 -8 15 -26 21 -40 7 -14 27 -46 45 -72 18 -26 33 -59 33 -72 0 -46 34 -131 72 -179 21 -27 38 -57 38 -67 0 -10 11 -41 25 -68 14 -28 25 -57 25 -65 0 -9 4 -18 9 -21 4 -3 11 -23 14 -43 4 -21 16 -56 27 -78 11 -21 20 -44 20 -50 0 -6 13 -24 30 -40 18 -17 32 -43 36 -64 3 -20 12 -53 20 -74 8 -20 14 -49 14 -63 0 -13 7 -27 15 -30 13 -5 14 -18 9 -71 -7 -74 8 -146 37 -179 11 -11 19 -29 19 -39 0 -20 28 -121 40 -146 12 -24 40 -138 40 -164 0 -13 11 -41 25 -61 14 -20 25 -49 25 -63 0 -15 5 -32 12 -39 8 -8 11 -43 10 -101 -2 -81 0 -94 23 -126 22 -33 24 -43 19 -115 -3 -45 -1 -87 5 -97 6 -13 6 -34 0 -62 -8 -35 -6 -48 6 -67 8 -13 15 -42 15 -65 0 -24 7 -50 15 -59 19 -21 21 -126 6 -260 -8 -71 -8 -114 1 -167 10 -60 9 -77 -3 -99 -16 -31 -13 -72 7 -95 16 -17 19 -55 5 -63 -5 -3 -11 -23 -14 -43 -3 -21 -9 -53 -13 -71 -3 -18 -1 -45 5 -60 10 -23 9 -34 -4 -58 -8 -16 -15 -36 -15 -44 0 -9 -5 -21 -11 -27 -8 -8 -8 -17 1 -33 9 -18 8 -25 -6 -41 -13 -14 -15 -30 -12 -68 5 -47 3 -52 -29 -82 -31 -28 -34 -35 -28 -68 5 -32 1 -45 -30 -92 -19 -30 -38 -65 -41 -79 -2 -14 -13 -41 -23 -60 -10 -19 -22 -51 -26 -70 -4 -19 -15 -44 -25 -55 -20 -23 -43 -66 -60 -112 -8 -21 -22 -35 -42 -42 -19 -7 -34 -21 -41 -41 -8 -22 -18 -30 -35 -30 -30 0 -172 -106 -172 -128 0 -23 -54 -52 -95 -52 -18 0 -46 -7 -62 -15 -15 -8 -44 -17 -64 -20 -21 -3 -53 -20 -75 -39 -31 -26 -42 -31 -55 -23 -14 8 -25 4 -54 -22 -28 -24 -43 -31 -59 -26 -49 16 -94 16 -125 1 -17 -9 -36 -14 -42 -11 -5 4 -41 -1 -79 -9 -64 -15 -72 -15 -104 1 -34 16 -40 15 -118 -4 -87 -21 -149 -20 -288 7 -30 5 -73 13 -95 16 -55 8 -143 52 -150 75 -8 25 8 45 43 52 24 6 62 26 171 94 20 13 54 32 76 43 63 32 126 80 135 104 14 38 143 159 212 199 21 12 42 34 47 49 5 14 19 31 30 38 13 6 21 21 21 36 0 14 9 37 20 51 11 14 20 32 20 39 0 8 9 23 20 34 11 11 20 29 20 39 0 12 17 29 46 46 49 29 64 55 64 113 0 20 7 46 15 56 8 11 15 37 15 57 0 21 4 40 9 44 11 6 38 99 39 133 1 13 10 52 20 85 29 91 34 155 17 202 -8 22 -14 57 -15 77 0 23 -10 52 -25 74 l-25 37 22 24 c14 15 21 35 20 56 -2 91 -11 125 -51 192 -39 66 -41 73 -35 126 4 37 2 59 -5 63 -6 4 -11 26 -11 50 0 29 -8 52 -25 76 -14 19 -28 54 -31 80 -5 41 -11 49 -40 64 -23 10 -34 23 -34 37 0 12 -13 41 -30 65 -16 25 -33 56 -36 69 -3 13 -12 29 -20 36 -8 6 -14 17 -14 24 0 6 -9 20 -21 31 -12 10 -32 40 -45 66 -20 39 -31 49 -65 59 -57 18 -72 56 -71 177 1 62 7 102 17 123 11 20 16 52 14 92 -1 34 2 96 6 137 16 155 1 312 -33 353 -6 7 -18 35 -27 62 -9 28 -29 75 -45 107 -17 35 -27 69 -26 90 2 20 -7 53 -22 83 -14 28 -32 62 -39 77 -7 14 -13 35 -13 45 0 24 -45 153 -70 204 -11 21 -29 40 -40 44 -16 5 -20 15 -20 50 0 36 -5 48 -31 69 -17 14 -35 26 -40 26 -5 0 -12 12 -15 27 -14 53 -59 116 -97 136 -38 19 -127 115 -127 136 0 6 -13 14 -30 17 -16 4 -37 18 -46 33 -22 33 -37 45 -104 80 -30 16 -68 36 -85 44 -16 9 -66 30 -110 48 -44 17 -84 35 -89 40 -6 5 -20 9 -32 9 -24 0 -94 37 -94 49 0 18 -168 39 -275 34 -163 -8 -242 -6 -316 7 -57 11 -73 10 -118 -5 -28 -9 -58 -15 -65 -12 -7 3 -35 -1 -62 -8 -55 -14 -234 -9 -234 7 0 5 7 31 16 58 12 36 22 50 40 54 13 4 40 23 61 45 59 59 165 129 212 140 24 5 48 14 54 20 6 6 17 11 24 11 28 0 127 44 156 70 26 22 44 28 94 32 47 3 71 11 103 33 23 16 56 30 72 31 17 1 34 8 38 14 9 15 45 9 45 -7 0 -23 16 -27 22 -5 4 15 17 25 47 32 22 6 48 15 56 20 43 28 76 35 195 40 139 7 174 5 218 -12z m-4487 -128 c40 -7 70 -7 86 -1 31 12 139 11 154 -1 6 -4 60 -12 120 -17 60 -5 139 -17 176 -25 37 -9 91 -14 120 -12 72 6 187 -25 292 -78 48 -24 107 -46 135 -50 39 -5 61 -16 96 -46 26 -22 54 -40 63 -41 9 0 33 -11 52 -25 19 -13 53 -36 75 -51 22 -14 49 -36 61 -48 11 -12 25 -24 30 -26 5 -2 22 -23 37 -47 17 -26 41 -48 58 -54 23 -8 29 -15 26 -30 -4 -15 -1 -18 14 -13 15 5 19 1 19 -19 0 -14 5 -28 10 -31 6 -3 10 -15 10 -27 0 -11 18 -43 40 -70 48 -60 120 -267 120 -345 0 -27 5 -54 11 -60 8 -8 7 -17 -4 -33 -16 -22 -14 -94 4 -141 8 -20 6 -36 -5 -64 -9 -21 -16 -54 -15 -74 1 -20 -7 -58 -17 -85 -14 -41 -15 -54 -5 -82 11 -32 10 -37 -13 -65 -14 -17 -26 -39 -26 -49 0 -31 -29 -101 -49 -118 -13 -11 -21 -34 -24 -65 -3 -31 -12 -56 -26 -71 -50 -53 -35 -146 26 -167 45 -15 74 -6 114 34 19 18 42 36 52 40 9 3 17 13 17 22 0 8 5 15 10 15 6 0 10 6 10 14 0 17 22 61 43 84 48 55 131 132 142 132 8 0 16 9 20 19 3 12 25 26 53 36 54 19 51 18 123 67 49 34 58 37 88 28 18 -5 41 -6 50 -2 35 16 155 6 199 -17 31 -16 52 -20 76 -16 22 5 46 1 72 -11 21 -10 44 -18 49 -19 43 -5 93 -19 126 -37 21 -11 67 -24 101 -28 114 -16 209 -58 245 -110 8 -11 19 -20 24 -20 6 0 28 -9 49 -20 22 -11 58 -29 81 -41 30 -15 46 -32 60 -64 11 -25 36 -57 55 -71 19 -15 41 -39 49 -54 8 -15 39 -44 68 -63 35 -24 61 -50 72 -74 10 -21 31 -53 46 -71 16 -18 29 -39 29 -48 0 -8 12 -20 27 -27 43 -19 80 -63 117 -140 23 -48 48 -83 74 -104 32 -26 42 -43 52 -85 7 -29 16 -57 20 -63 3 -5 13 -26 20 -45 7 -19 22 -44 32 -56 13 -15 19 -37 19 -78 1 -31 5 -58 9 -61 15 -9 48 -88 75 -180 15 -49 36 -104 46 -122 15 -23 19 -44 15 -80 -2 -26 1 -62 7 -80 8 -24 7 -44 -2 -80 -7 -26 -14 -106 -15 -178 -3 -105 -9 -145 -29 -210 -14 -44 -33 -107 -42 -140 -9 -33 -21 -78 -28 -100 -6 -22 -24 -59 -39 -83 -15 -24 -28 -48 -28 -54 0 -6 -11 -25 -24 -42 -13 -17 -26 -40 -30 -51 -3 -12 -24 -41 -46 -65 -22 -24 -40 -49 -40 -55 0 -6 -11 -22 -25 -35 -14 -13 -25 -27 -25 -31 0 -16 -92 -99 -110 -99 -12 0 -30 -16 -45 -37 -14 -21 -40 -48 -58 -61 -75 -53 -109 -72 -128 -72 -11 0 -33 -14 -49 -32 -25 -27 -37 -32 -87 -36 -44 -3 -64 -10 -84 -29 l-27 -25 -38 26 c-22 15 -57 40 -79 56 -58 43 -78 39 -121 -20 -35 -49 -37 -50 -87 -50 -29 0 -68 -5 -89 -10 -26 -8 -49 -7 -80 2 -23 6 -70 12 -102 12 -56 0 -61 -3 -91 -36 -49 -57 -61 -86 -47 -108 7 -11 12 -29 12 -39 0 -26 52 -102 91 -135 17 -14 43 -26 58 -26 15 0 36 -9 48 -19 11 -10 34 -26 51 -35 18 -9 32 -20 32 -25 0 -8 56 -35 97 -46 11 -3 24 -16 27 -30 3 -13 22 -33 41 -45 19 -12 35 -26 35 -31 0 -4 28 -37 63 -73 142 -147 143 -148 165 -221 12 -38 34 -90 50 -115 41 -65 55 -106 49 -138 -3 -16 1 -47 8 -70 8 -23 12 -47 9 -55 -3 -8 2 -20 11 -27 17 -14 20 -65 4 -75 -11 -7 -7 -141 7 -223 5 -35 3 -49 -13 -70 -27 -37 -73 -137 -73 -159 0 -48 -21 -91 -49 -103 -29 -12 -81 -75 -81 -98 0 -7 -8 -25 -19 -40 -10 -15 -36 -53 -56 -85 -21 -32 -50 -64 -65 -72 -15 -8 -35 -31 -45 -52 -23 -51 -54 -83 -79 -83 -12 0 -34 -14 -50 -30 -20 -21 -39 -30 -61 -30 -18 0 -46 -11 -65 -25 -19 -14 -40 -25 -47 -25 -8 0 -20 -15 -28 -33 -9 -22 -34 -46 -77 -73 -35 -23 -74 -53 -88 -67 -14 -15 -35 -27 -48 -27 -31 0 -78 -37 -93 -71 -6 -16 -15 -29 -20 -29 -5 0 -15 -11 -21 -25 -6 -14 -19 -25 -28 -25 -10 0 -29 -9 -43 -20 -14 -11 -30 -20 -36 -20 -6 0 -11 -4 -11 -8 0 -5 -25 -27 -56 -50 -44 -33 -65 -42 -96 -42 -25 0 -50 -8 -66 -21 -20 -16 -34 -19 -64 -14 -28 5 -46 2 -64 -10 -14 -9 -33 -15 -42 -14 -32 3 -42 -1 -42 -16 0 -9 -12 -20 -27 -27 -16 -6 -42 -17 -59 -24 -17 -7 -45 -15 -63 -16 -18 -1 -37 -8 -43 -15 -6 -7 -27 -13 -47 -13 -22 0 -47 -8 -62 -20 -22 -18 -41 -21 -142 -22 -75 -1 -122 3 -129 10 -6 6 -23 8 -39 5 -17 -3 -36 1 -50 11 -13 9 -42 16 -65 16 -28 0 -46 6 -59 20 -14 15 -31 20 -71 20 -36 0 -64 7 -86 20 -18 11 -42 20 -54 20 -11 0 -42 14 -70 32 -27 18 -70 42 -96 55 -27 12 -48 27 -48 33 0 5 -11 10 -24 10 -15 0 -33 11 -45 28 -12 15 -30 38 -41 50 -11 13 -23 33 -26 45 -3 12 -24 35 -46 50 -32 23 -37 31 -28 42 15 18 6 45 -15 45 -36 0 -124 112 -144 182 -7 25 -26 59 -42 74 -16 15 -29 31 -29 35 0 5 -17 43 -37 86 -25 53 -37 91 -36 118 0 23 -7 51 -17 65 -9 14 -34 79 -55 145 -49 155 -67 191 -101 199 -32 8 -72 -16 -91 -55 -12 -25 -30 -112 -40 -189 -4 -25 -15 -57 -26 -72 -18 -25 -18 -28 -3 -59 16 -33 14 -49 -15 -127 -5 -13 -9 -41 -9 -64 0 -46 -43 -124 -73 -134 -15 -5 -18 -12 -13 -38 5 -26 1 -37 -19 -56 -14 -13 -25 -29 -25 -36 0 -7 -11 -26 -25 -42 -14 -17 -25 -33 -25 -37 0 -10 -162 -167 -189 -182 -13 -7 -30 -13 -37 -13 -8 0 -17 -7 -20 -15 -4 -10 -19 -15 -43 -15 -29 0 -39 -6 -52 -28 -23 -39 -119 -93 -177 -100 -26 -2 -51 -8 -57 -12 -5 -4 -29 -8 -53 -7 -24 0 -54 -6 -67 -13 -20 -11 -31 -10 -65 4 -38 15 -43 15 -83 -2 -78 -35 -102 -40 -180 -40 -48 -1 -87 5 -105 14 -15 7 -31 14 -36 14 -5 0 -17 7 -27 16 -11 10 -44 17 -95 20 -53 4 -84 10 -97 21 -15 14 -23 15 -51 5 -44 -16 -56 -15 -79 5 -11 11 -37 18 -63 19 -24 1 -59 11 -78 22 -20 12 -55 26 -78 33 -47 12 -119 51 -138 74 -7 8 -21 15 -31 15 -11 0 -37 13 -59 29 -22 16 -57 32 -77 36 -21 4 -47 15 -58 25 -11 10 -51 34 -90 54 -43 23 -76 47 -86 65 -11 18 -29 32 -48 36 -18 4 -39 18 -48 33 -35 55 -95 122 -111 122 -36 0 -69 58 -42 75 19 12 10 27 -13 21 -18 -4 -29 3 -52 30 -17 20 -45 50 -63 68 -17 18 -32 43 -32 55 0 12 -11 37 -24 54 -33 44 -76 131 -76 154 0 11 -9 28 -20 38 -11 10 -20 28 -20 40 0 13 -7 39 -15 60 -11 24 -14 51 -10 79 5 32 3 45 -9 55 -9 8 -16 19 -16 26 0 7 -7 18 -16 26 -11 9 -14 22 -9 45 3 20 -1 57 -10 89 -9 31 -14 63 -11 71 3 9 9 47 12 86 3 39 14 94 25 123 13 35 19 74 18 113 -1 42 3 69 15 86 9 14 16 44 16 66 0 54 19 126 36 141 8 6 14 26 14 43 0 18 5 37 12 44 6 6 11 25 10 42 0 19 12 49 34 81 19 28 34 58 34 68 0 9 12 27 25 40 14 13 25 32 25 42 0 10 5 19 11 19 12 0 139 129 139 141 0 4 21 17 48 29 26 12 63 36 83 54 70 60 118 96 127 96 5 0 31 21 58 48 95 91 146 132 166 132 68 0 140 48 153 102 5 21 1 33 -20 54 -16 16 -33 24 -44 21 -11 -2 -25 -1 -32 4 -7 4 -21 3 -31 -2 -11 -6 -33 -6 -60 0 -24 6 -81 11 -128 12 -47 2 -90 6 -95 10 -6 4 -51 11 -100 15 -80 6 -91 10 -112 35 -15 17 -37 30 -62 34 -22 3 -47 13 -58 20 -10 8 -30 15 -45 15 -15 0 -30 5 -33 10 -3 6 -20 10 -36 10 -16 0 -47 11 -69 25 -22 14 -43 25 -48 25 -5 0 -17 10 -28 21 -10 12 -28 25 -39 30 -11 5 -27 13 -35 17 -8 5 -35 19 -60 32 -25 13 -51 31 -58 41 -6 10 -24 20 -40 24 -41 9 -126 92 -127 124 0 20 -12 33 -53 60 -29 19 -52 41 -52 51 0 21 -25 73 -61 125 -15 23 -27 52 -27 65 -1 141 -3 161 -21 177 -12 12 -21 40 -25 83 -6 53 -13 71 -37 96 l-30 31 22 27 c20 26 21 29 6 64 -15 33 -39 159 -54 280 -3 23 0 48 5 55 13 15 19 114 9 144 -6 15 -2 25 12 35 16 11 20 28 22 88 2 48 9 84 20 100 9 14 21 47 28 74 7 27 21 60 32 74 10 14 19 33 19 43 0 10 4 21 10 24 5 3 12 28 16 55 4 27 13 55 20 61 8 6 14 20 14 30 0 10 5 21 10 24 6 3 10 17 10 31 0 14 7 27 15 30 8 4 15 12 15 18 0 7 11 27 25 46 14 19 25 44 25 57 0 13 7 26 15 30 9 3 29 32 45 65 27 54 91 128 111 128 4 0 11 10 15 22 9 30 104 118 127 118 10 0 21 8 24 18 9 24 51 62 69 62 9 0 35 16 58 35 32 26 53 35 79 35 20 0 40 6 44 13 4 6 49 25 98 41 50 15 100 33 111 38 32 15 457 16 524 1 231 -51 272 -63 301 -89 15 -15 37 -24 56 -24 18 0 39 -7 48 -16 44 -44 91 -67 132 -65 52 2 133 -36 164 -78 12 -16 31 -32 43 -35 12 -3 48 -28 80 -56 81 -71 109 -84 169 -77 95 12 128 64 67 108 -35 26 -44 47 -29 65 14 17 -2 68 -30 99 -11 11 -35 52 -55 90 l-35 70 17 63 c12 44 13 68 6 80 -5 9 -9 62 -8 118 1 60 -3 110 -10 122 -8 15 -9 47 -5 99 4 43 5 92 2 109 -2 18 1 42 8 55 7 13 18 51 25 84 41 199 92 355 116 355 8 0 21 9 31 20 9 11 23 20 30 20 8 0 23 10 35 23 17 18 21 31 16 55 -6 28 -1 37 50 87 31 30 61 55 66 55 4 0 27 16 50 35 23 19 49 35 57 35 9 0 30 9 47 19 17 11 51 24 76 31 44 12 63 19 125 46 17 7 73 20 125 29 52 9 103 21 113 26 25 14 173 37 230 37 29 -1 54 5 65 15 18 16 63 26 97 20 11 -1 48 -7 81 -13z m-1516 -300 c0 -5 -4 -10 -10 -10 -5 0 -10 5 -10 10 0 6 5 10 10 10 6 0 10 -4 10 -10z m5222 -481 c9 -5 33 -9 53 -9 20 0 54 -9 77 -21 23 -12 57 -22 77 -23 82 -6 341 -109 341 -136 0 -6 19 -22 43 -36 23 -15 59 -42 81 -60 21 -18 53 -40 72 -49 21 -10 42 -31 54 -55 11 -22 25 -40 30 -40 5 0 21 -18 37 -39 15 -22 38 -45 50 -52 14 -7 23 -23 25 -43 2 -25 9 -33 34 -41 46 -15 77 -39 79 -61 4 -46 50 -171 72 -195 16 -18 27 -46 34 -90 6 -35 14 -68 20 -73 5 -6 9 -23 9 -39 0 -16 9 -44 19 -61 10 -17 22 -47 26 -66 4 -19 12 -42 18 -51 8 -13 7 -28 -2 -57 -10 -29 -10 -44 -2 -60 6 -11 11 -32 11 -46 0 -30 25 -128 38 -152 6 -11 6 -29 1 -48 -5 -17 -7 -59 -3 -92 4 -40 2 -69 -6 -84 -7 -13 -13 -46 -14 -74 -1 -28 -7 -61 -14 -74 -15 -26 -7 -107 12 -132 7 -8 14 -33 15 -55 2 -22 15 -60 29 -85 14 -25 36 -66 49 -92 13 -26 29 -51 36 -55 36 -21 117 -126 129 -165 6 -24 20 -48 29 -55 9 -7 24 -34 34 -60 10 -26 22 -52 26 -57 5 -6 9 -25 9 -42 0 -18 4 -36 10 -39 8 -5 21 -41 37 -105 2 -8 9 -49 14 -90 6 -41 15 -91 21 -110 6 -19 13 -75 14 -125 2 -49 4 -128 6 -175 5 -160 -15 -310 -50 -383 -48 -98 -72 -155 -72 -171 0 -23 -31 -82 -69 -131 -17 -22 -45 -60 -63 -84 -18 -25 -65 -77 -104 -115 -39 -39 -73 -79 -77 -88 -3 -10 -15 -18 -26 -18 -11 0 -22 -9 -26 -19 -3 -10 -18 -24 -33 -30 -16 -7 -50 -33 -77 -58 -47 -45 -50 -47 -114 -48 -50 0 -75 -6 -101 -23 -19 -12 -59 -26 -90 -32 -30 -6 -69 -17 -85 -26 -33 -16 -184 -35 -215 -27 -10 3 -29 -1 -41 -8 -32 -17 -184 -12 -220 7 -16 8 -41 14 -57 14 -44 0 -55 19 -34 61 16 31 21 34 67 37 31 1 70 12 102 30 52 27 69 50 75 102 3 22 9 25 81 36 94 15 121 34 113 79 -12 60 -6 119 15 140 16 16 33 20 89 20 83 0 104 14 94 63 -5 23 -17 38 -43 53 -37 21 -67 56 -57 67 3 3 34 9 68 14 35 5 83 18 108 31 41 20 46 26 55 73 11 58 29 84 57 84 36 0 78 29 78 54 0 23 -50 76 -71 76 -5 0 -9 7 -9 15 0 10 -10 15 -31 15 -17 0 -39 5 -50 10 -10 6 -41 12 -67 14 -48 2 -95 27 -107 55 -21 51 147 79 328 55 53 -7 87 12 87 50 0 31 -33 79 -66 96 -16 8 -37 20 -46 28 -9 8 -21 12 -25 9 -14 -9 -36 9 -29 22 4 6 22 18 39 27 79 40 107 93 67 129 -31 28 -33 51 -8 87 13 18 29 37 35 43 7 5 16 24 19 42 9 46 -27 68 -100 59 -31 -4 -72 -3 -94 4 -33 8 -42 16 -47 41 -8 36 11 55 84 80 40 14 46 19 46 44 0 25 -8 33 -64 62 -36 18 -70 44 -77 58 -12 23 -11 26 14 39 60 31 119 126 78 126 -23 0 -85 33 -86 46 0 7 17 15 38 18 67 12 90 26 102 62 15 46 6 70 -41 101 -32 21 -39 31 -34 47 11 36 24 129 19 138 -3 5 -22 15 -42 23 -33 15 -60 14 -117 -2 -18 -5 -17 -3 6 28 42 57 51 87 37 117 -7 15 -22 28 -33 30 -51 7 -65 13 -65 28 0 8 7 17 15 20 8 4 15 15 15 27 0 11 5 34 11 51 18 51 0 80 -63 101 -29 10 -64 19 -77 21 -28 3 -43 22 -36 45 10 31 -20 91 -60 118 -36 24 -41 33 -48 81 -10 72 -33 102 -88 116 -44 11 -44 11 -49 62 -6 59 -5 58 -73 98 -34 19 -58 43 -69 65 -9 19 -30 50 -47 68 -31 34 -32 34 -101 28 -43 -4 -70 -2 -70 4 0 5 -12 8 -27 7 -27 -3 -28 -2 -34 62 -10 104 -12 106 -107 116 -49 6 -62 12 -95 46 -45 45 -80 61 -116 53 -22 -5 -32 1 -59 37 -36 46 -82 68 -153 72 -31 1 -53 9 -69 24 -41 38 -91 46 -180 28 -97 -20 -118 -20 -188 0 -37 11 -72 14 -109 10 -50 -6 -53 -5 -53 16 1 41 34 65 112 82 17 4 34 18 44 37 17 34 75 89 108 103 12 5 33 8 49 7 15 -1 51 10 81 24 29 14 65 25 80 25 15 0 43 7 62 15 41 17 216 45 281 45 24 0 57 7 72 15 20 10 44 12 78 8 35 -4 58 -1 79 10 29 15 82 13 116 -4z m-7010 -76 c16 -15 29 -15 111 -5 50 6 153 9 227 8 74 -2 145 1 156 5 12 4 25 4 30 0 13 -11 88 -31 117 -31 14 0 29 -4 32 -10 3 -5 23 -10 43 -10 20 0 52 -9 71 -21 21 -12 44 -19 59 -16 18 3 39 -5 73 -30 47 -34 48 -35 33 -59 -17 -25 -27 -28 -83 -25 -25 1 -41 -5 -61 -24 -15 -14 -36 -26 -46 -25 -10 0 -48 2 -84 4 -42 3 -77 -1 -99 -10 -19 -8 -53 -15 -75 -15 -23 -1 -56 -6 -73 -12 -25 -8 -36 -8 -45 1 -7 7 -29 12 -49 12 -30 0 -42 -6 -57 -27 -30 -43 -35 -70 -19 -103 l15 -29 -41 6 c-23 3 -54 12 -70 19 -55 29 -137 -19 -137 -79 0 -8 16 -27 35 -41 34 -26 45 -46 25 -46 -5 0 -10 7 -10 15 0 11 -11 15 -35 15 -23 0 -38 6 -42 15 -16 42 -136 63 -203 35 -23 -9 -32 -23 -43 -59 -13 -46 -13 -46 -63 -52 -64 -8 -110 -32 -118 -61 -10 -39 -7 -71 10 -89 25 -28 3 -59 -44 -60 -80 -2 -118 -32 -126 -98 -3 -33 -6 -36 -62 -51 -36 -10 -60 -23 -62 -32 -2 -9 11 -39 28 -67 16 -29 30 -59 30 -67 0 -24 -19 -54 -34 -54 -8 0 -27 -7 -42 -15 -16 -8 -39 -15 -50 -15 -12 0 -29 -11 -39 -26 -21 -33 -8 -70 35 -99 33 -22 34 -24 20 -59 -8 -21 -16 -26 -45 -26 -24 0 -43 -7 -58 -23 -12 -13 -45 -48 -74 -78 -29 -30 -64 -62 -78 -72 -17 -12 -25 -27 -25 -48 0 -16 -10 -49 -21 -71 -21 -42 -22 -103 -3 -178 4 -14 3 -22 -1 -17 -5 4 -24 -7 -42 -25 -25 -24 -33 -41 -33 -66 0 -30 4 -35 40 -49 35 -14 38 -18 28 -37 -16 -30 -39 -45 -69 -46 -40 0 -62 -21 -54 -53 4 -15 11 -27 16 -27 5 0 36 -28 69 -62 64 -68 78 -105 36 -94 -35 9 -74 -9 -88 -40 -12 -25 -10 -29 35 -68 26 -23 47 -47 47 -52 0 -6 -20 -27 -45 -48 -25 -22 -45 -46 -45 -55 0 -38 23 -93 55 -131 48 -57 45 -68 -16 -76 -96 -13 -100 -80 -9 -143 30 -20 50 -41 50 -52 0 -11 -4 -19 -10 -19 -11 0 -40 -52 -40 -73 0 -8 12 -27 26 -43 35 -37 138 -57 206 -39 22 6 27 3 33 -17 4 -12 13 -26 19 -30 17 -11 1 -19 -46 -22 -70 -5 -127 -18 -138 -31 -15 -18 -2 -44 26 -51 13 -3 24 -10 24 -14 0 -8 55 -18 162 -28 103 -11 114 -37 32 -74 -33 -14 -44 -24 -44 -41 0 -30 18 -47 51 -47 14 0 47 -9 72 -20 38 -17 52 -18 97 -10 77 15 96 13 126 -14 l28 -23 -35 -11 c-19 -6 -59 -14 -89 -18 -46 -6 -60 -13 -87 -43 -31 -35 -43 -71 -23 -71 5 0 19 -11 32 -24 15 -16 39 -26 72 -30 63 -8 76 -20 76 -67 0 -32 6 -43 39 -70 22 -17 42 -41 45 -54 10 -38 83 -78 151 -82 32 -2 64 -8 69 -13 6 -6 18 -10 28 -10 10 0 18 -3 19 -7 4 -47 11 -71 27 -92 33 -44 45 -47 127 -26 l76 19 24 -25 c13 -13 21 -29 17 -34 -4 -6 -32 -23 -62 -39 -30 -17 -61 -36 -68 -43 -7 -7 -33 -13 -57 -13 -41 0 -48 5 -109 66 -36 36 -66 70 -68 75 -2 7 -59 11 -148 11 -79 0 -154 5 -167 11 -17 7 -34 7 -65 -3 -50 -15 -82 -14 -238 6 -135 18 -225 46 -256 80 -15 15 -34 24 -53 24 -33 0 -101 29 -101 42 0 5 -17 16 -37 25 -58 24 -130 84 -148 125 -10 20 -37 57 -61 82 -37 38 -44 51 -44 85 0 35 -4 43 -30 56 -16 9 -30 23 -30 33 0 9 -18 59 -40 110 -22 51 -40 107 -40 125 -1 86 -5 104 -46 196 -20 43 -24 68 -23 130 1 42 6 88 11 103 8 22 6 32 -11 54 -14 17 -19 34 -15 47 3 11 8 70 9 131 3 113 13 158 60 261 20 44 31 83 52 190 3 17 14 41 24 54 11 13 19 29 19 35 0 6 9 17 20 24 11 7 20 23 20 36 0 23 11 37 84 104 20 19 36 39 36 45 0 7 25 35 55 63 34 32 55 60 55 73 0 12 20 47 45 78 26 32 45 65 45 80 0 24 16 42 94 107 35 30 60 91 46 117 -11 22 -21 134 -13 143 5 4 9 40 11 79 5 119 10 159 26 227 9 36 16 79 16 97 0 23 6 33 20 38 13 4 20 15 20 33 0 15 7 40 16 57 8 16 13 38 10 48 -3 12 6 30 25 49 16 17 29 36 29 42 0 6 8 27 19 46 10 19 21 52 25 72 7 36 34 70 177 220 31 32 61 58 67 58 23 0 158 76 179 101 28 32 124 68 179 66 26 -1 50 5 69 18 49 35 109 64 135 65 14 0 43 11 65 24 50 30 45 29 67 9z m1131 -258 c32 -25 72 -48 95 -54 23 -5 42 -8 44 -6 2 1 27 5 56 9 l52 7 0 -29 c0 -47 -19 -90 -44 -96 -34 -8 -95 12 -122 41 -13 14 -24 29 -24 34 0 4 -19 17 -43 28 -54 26 -102 74 -94 95 9 24 20 20 80 -29z m-1412 -4195 c28 -15 24 -33 -16 -68 -19 -18 -46 -57 -61 -88 -22 -47 -25 -65 -20 -108 5 -49 4 -54 -24 -81 -17 -16 -30 -35 -30 -42 0 -8 -7 -16 -15 -20 -9 -3 -23 -19 -31 -35 -15 -28 -14 -32 10 -69 15 -21 30 -39 35 -39 6 0 13 -10 17 -22 5 -18 -6 -33 -64 -87 -59 -56 -71 -73 -77 -108 -6 -37 -3 -46 17 -65 14 -13 27 -31 31 -40 3 -10 13 -18 22 -18 8 0 15 -4 15 -10 0 -5 -3 -10 -8 -10 -4 0 -15 -15 -25 -32 -10 -18 -31 -41 -47 -50 -21 -12 -30 -25 -30 -42 0 -14 -4 -36 -10 -50 -12 -32 -5 -50 25 -66 19 -10 27 -10 46 4 25 17 66 21 88 7 9 -6 10 -11 2 -15 -6 -4 -8 -24 -4 -51 5 -41 2 -49 -31 -89 -20 -24 -36 -46 -36 -49 0 -3 -16 -31 -35 -63 -19 -32 -35 -62 -35 -66 0 -5 15 -17 33 -29 33 -21 64 -21 142 -1 22 6 41 10 42 8 7 -7 -40 -87 -56 -96 -11 -5 -25 -26 -32 -47 -6 -20 -20 -51 -31 -68 -21 -37 -17 -54 23 -98 18 -20 31 -47 35 -76 4 -25 11 -54 16 -64 16 -31 87 -57 153 -54 57 2 60 0 63 -23 2 -13 -2 -42 -9 -63 -12 -38 -12 -41 14 -62 25 -22 29 -23 70 -10 89 27 122 -28 73 -122 -20 -37 -24 -57 -19 -87 6 -37 7 -38 42 -32 20 3 41 12 46 20 8 10 31 14 72 15 l61 0 -2 -52 c-1 -29 -5 -58 -9 -64 -12 -19 11 -53 34 -53 12 0 34 8 49 17 27 16 31 16 64 -2 40 -22 43 -27 21 -45 -9 -7 -13 -21 -9 -35 3 -13 1 -26 -5 -29 -6 -4 -11 -25 -11 -47 0 -48 -12 -54 -68 -35 -26 9 -68 14 -110 12 -53 -3 -86 3 -156 26 -49 16 -94 32 -100 37 -6 5 -29 14 -51 21 -22 7 -44 15 -50 18 -5 4 -22 5 -37 3 -49 -5 -109 19 -148 59 -25 26 -51 41 -76 46 -45 8 -127 72 -150 115 -8 16 -21 29 -28 29 -8 0 -23 15 -35 33 -11 18 -34 42 -50 55 -17 12 -31 29 -31 37 0 8 -17 25 -37 39 -45 28 -68 53 -77 84 -4 12 -13 22 -19 22 -16 0 -48 56 -58 100 -10 43 -27 112 -42 165 -6 22 -26 61 -44 86 -18 26 -33 51 -33 56 0 6 -6 16 -14 22 -22 19 -41 204 -23 228 5 7 7 23 4 35 -4 12 -2 28 4 34 8 10 2 21 -22 42 l-33 30 18 41 c15 32 17 46 9 64 -8 17 -7 34 4 67 13 37 13 53 4 89 -9 35 -9 52 3 85 7 22 24 75 36 116 26 90 36 113 72 164 16 21 28 45 28 53 0 8 20 40 43 71 24 31 48 65 53 74 9 17 92 104 161 169 21 20 55 44 76 53 21 9 56 29 77 46 21 16 47 30 57 30 11 0 39 15 63 33 53 39 56 42 101 61 20 9 44 27 53 41 19 28 20 29 47 15z m-1931 -190 c9 -17 6 -23 -22 -39 -24 -16 -42 -19 -76 -14 -39 5 -47 3 -62 -17 -11 -15 -20 -19 -24 -12 -11 19 51 72 83 72 16 0 34 7 41 15 18 21 47 19 60 -5z m521 -81 c23 -23 21 -38 -7 -53 -10 -6 -32 -21 -47 -33 -16 -13 -33 -23 -38 -23 -5 0 -23 -15 -39 -33 -16 -19 -44 -38 -62 -43 -24 -7 -36 -18 -43 -40 -5 -17 -23 -47 -40 -67 -16 -21 -42 -52 -57 -71 -16 -18 -28 -39 -28 -46 0 -7 -30 -43 -67 -79 -38 -36 -78 -77 -89 -91 -35 -40 -101 -90 -120 -90 -10 0 -27 -8 -38 -19 -19 -16 -70 -32 -161 -47 -16 -3 -44 -12 -62 -20 -17 -8 -45 -14 -62 -14 -18 0 -43 -7 -56 -16 -14 -9 -31 -14 -39 -11 -8 3 -47 -3 -87 -15 -103 -28 -143 -31 -229 -18 -41 6 -86 12 -100 13 -14 1 -36 10 -50 20 -13 9 -38 17 -55 17 -17 0 -35 4 -40 9 -16 15 -163 17 -177 3 -18 -18 -32 -15 -58 13 -25 26 -54 33 -66 14 -10 -16 -65 41 -59 62 3 9 -1 22 -10 29 -19 16 -19 39 0 46 9 4 15 19 15 39 0 35 37 75 69 75 9 0 37 7 63 17 47 16 47 16 85 -10 53 -36 127 -55 153 -39 11 7 26 12 33 12 15 0 99 52 132 81 11 10 59 31 105 47 47 16 121 41 165 56 44 15 89 36 101 47 11 10 32 19 45 19 28 0 150 40 171 56 28 23 135 55 160 49 17 -4 29 -1 38 10 18 22 52 35 115 45 72 12 134 29 164 44 48 25 95 35 174 38 60 2 82 6 94 20 22 25 78 23 104 -3z m8775 -55 c6 -8 17 -14 24 -14 7 0 26 -11 42 -25 16 -14 34 -23 39 -20 15 10 96 -57 242 -201 40 -39 82 -76 95 -83 12 -6 22 -18 22 -26 0 -8 12 -23 27 -32 43 -28 103 -94 103 -113 0 -10 7 -23 15 -30 8 -7 26 -33 39 -59 13 -25 36 -66 50 -91 14 -25 36 -65 47 -90 12 -25 27 -52 34 -60 7 -8 22 -53 35 -100 12 -47 26 -90 31 -96 5 -7 9 -36 9 -65 0 -30 2 -93 6 -140 l5 -85 -40 -16 c-39 -16 -41 -18 -41 -61 0 -30 7 -53 21 -71 l21 -26 -37 -55 c-20 -30 -35 -60 -34 -67 5 -37 -3 -70 -21 -88 -11 -11 -20 -28 -20 -37 0 -25 -13 -43 -41 -57 -19 -9 -25 -21 -27 -59 -2 -36 -7 -47 -19 -47 -23 0 -63 -39 -63 -61 0 -30 -21 -67 -41 -72 -10 -3 -27 -20 -38 -38 -14 -23 -40 -44 -82 -64 -34 -16 -64 -36 -66 -45 -12 -39 -27 -56 -62 -74 -22 -10 -45 -16 -53 -13 -15 5 -62 -19 -90 -45 -10 -10 -24 -18 -30 -18 -7 0 -56 -23 -108 -50 -173 -92 -219 -111 -275 -113 -30 -1 -57 -6 -61 -10 -4 -4 -17 -7 -29 -7 -12 0 -32 -11 -45 -25 -18 -20 -34 -25 -69 -25 -30 0 -55 -7 -71 -20 -14 -11 -36 -20 -50 -21 -14 0 -42 -10 -62 -22 -151 -88 -173 -104 -212 -160 -23 -32 -65 -87 -93 -121 -29 -35 -53 -69 -53 -77 0 -8 -11 -32 -25 -54 -13 -22 -25 -45 -25 -52 0 -7 -28 -50 -63 -95 -34 -46 -70 -94 -79 -108 -9 -14 -32 -42 -51 -63 -29 -31 -40 -37 -61 -31 -23 6 -26 3 -26 -22 0 -37 -1 -38 -88 -117 l-74 -67 -62 0 c-58 0 -64 -2 -97 -36 -30 -31 -83 -62 -144 -84 -99 -36 -123 -39 -348 -41 -75 -1 -140 -5 -143 -10 -9 -15 -34 -10 -65 12 -24 17 -47 21 -117 24 -109 3 -177 17 -249 49 -30 15 -62 26 -69 26 -8 0 -22 4 -32 9 -9 5 -47 23 -83 39 -48 22 -88 51 -143 106 -42 42 -80 76 -84 76 -4 0 -15 13 -24 28 -10 16 -35 41 -58 57 -24 17 -42 38 -46 54 -2 14 -11 46 -19 71 -8 25 -15 55 -15 67 0 47 -69 143 -103 143 -5 0 -45 34 -88 75 -43 41 -82 75 -87 75 -17 0 -43 69 -46 120 -2 30 -11 79 -22 108 -17 46 -17 54 -4 62 25 17 42 7 69 -41 34 -60 41 -70 69 -93 21 -18 23 -18 41 -2 21 19 61 14 61 -8 0 -7 8 -20 18 -30 11 -9 25 -35 32 -57 14 -42 87 -109 118 -109 8 0 35 21 58 47 43 46 44 46 64 28 14 -12 20 -31 20 -57 0 -43 11 -71 43 -105 27 -30 72 -29 113 2 39 30 52 31 61 8 4 -10 17 -26 30 -36 13 -10 23 -24 23 -31 0 -7 15 -27 34 -45 32 -31 36 -32 72 -22 20 6 49 23 64 39 22 25 24 32 14 48 -12 19 -18 64 -15 117 1 24 5 27 39 27 48 0 67 -29 59 -89 -4 -35 -2 -41 13 -41 11 0 25 -15 37 -37 14 -29 26 -40 54 -47 32 -8 43 -5 95 28 67 41 68 41 86 23 7 -6 36 -20 65 -30 56 -20 78 -15 116 25 17 18 21 18 36 4 29 -26 171 -20 188 8 5 6 28 18 52 26 34 11 54 27 85 67 l41 53 80 -5 c69 -4 85 -2 113 15 21 13 32 26 28 35 -9 25 8 24 74 -5 72 -32 110 -39 73 -13 -31 21 -29 33 5 33 15 0 40 9 56 19 32 21 96 97 96 114 0 13 101 147 111 147 4 0 30 16 59 36 46 32 116 56 195 68 11 1 20 7 21 12 0 5 6 20 12 34 6 14 16 44 22 67 13 51 20 56 85 59 69 2 116 14 122 30 9 24 -6 62 -28 69 -19 6 -20 12 -14 53 9 63 17 69 65 47 39 -18 43 -18 96 -1 31 10 72 33 93 51 20 18 49 37 65 41 15 3 50 28 76 55 27 27 56 49 65 49 19 0 51 34 66 69 9 23 1 54 -31 113 -16 29 -12 36 45 73 36 23 55 42 55 54 0 37 22 71 46 71 13 0 38 16 60 38 35 36 36 39 32 99 -2 40 -10 69 -21 81 -16 18 -15 20 18 51 19 17 35 41 35 52 0 25 -18 61 -36 72 -24 14 -15 35 20 47 19 6 36 16 39 23 2 7 37 12 103 12 54 1 107 2 117 3 22 2 12 22 -11 22 -19 1 -62 33 -62 48 0 5 -11 17 -25 26 -24 16 -28 16 -63 -4 l-37 -21 -47 43 -46 44 49 46 c54 51 61 80 30 119 -33 42 -45 92 -33 128 12 35 4 64 -34 123 -16 23 -16 31 -4 67 l13 41 -53 54 c-61 61 -79 90 -80 126 0 15 -18 45 -45 74 -33 37 -41 53 -34 63 6 6 8 16 5 22 -3 5 -3 16 0 25 7 19 52 12 70 -10z m-10092 -150 c10 -26 7 -34 -14 -34 -13 0 -20 7 -20 18 0 33 23 44 34 16z m1568 -139 c-2 -22 -13 -59 -24 -83 -11 -24 -22 -63 -23 -87 -2 -24 -8 -52 -14 -63 -6 -12 -11 -33 -11 -49 0 -25 -12 -73 -42 -173 -6 -19 -11 -56 -12 -82 0 -25 -4 -50 -8 -54 -5 -4 -8 -26 -8 -49 0 -23 -5 -56 -11 -74 -8 -22 -8 -35 -1 -44 6 -7 13 -46 16 -87 10 -140 24 -219 45 -260 11 -22 21 -45 21 -51 0 -6 11 -24 25 -41 14 -16 25 -39 25 -50 0 -11 9 -31 20 -45 11 -14 20 -31 20 -38 0 -21 30 -73 45 -79 9 -3 15 -19 15 -40 0 -21 9 -45 23 -63 13 -15 36 -50 52 -76 15 -27 34 -51 41 -54 7 -2 20 -23 28 -45 20 -48 66 -108 84 -108 7 0 25 -18 40 -39 15 -21 42 -47 60 -56 17 -10 32 -22 32 -26 0 -18 118 -123 157 -141 24 -10 48 -28 54 -39 6 -12 35 -32 65 -46 29 -13 63 -37 74 -54 12 -16 27 -29 34 -29 7 0 22 -13 34 -30 13 -16 31 -30 41 -30 10 0 24 -7 31 -15 6 -8 22 -17 33 -21 12 -4 38 -17 57 -29 19 -12 60 -30 90 -40 30 -10 89 -34 130 -54 50 -24 97 -38 140 -42 109 -11 259 -57 320 -98 30 -21 56 -46 58 -57 1 -10 25 -37 52 -59 60 -49 78 -86 62 -127 -11 -30 -8 -44 22 -96 7 -12 20 -28 28 -35 8 -7 34 -39 59 -72 24 -33 56 -70 72 -83 15 -13 27 -30 27 -38 0 -8 6 -17 14 -20 7 -3 16 -23 20 -44 6 -40 35 -70 68 -70 16 0 38 -36 53 -87 3 -13 17 -26 30 -29 12 -3 35 -19 51 -35 15 -16 42 -32 61 -35 18 -3 33 -10 33 -14 0 -4 19 -12 43 -18 27 -7 62 -29 99 -62 31 -27 64 -50 73 -50 9 0 29 -7 45 -15 45 -23 145 -54 199 -61 13 -2 29 -8 34 -13 6 -6 33 -11 59 -11 27 0 63 -6 81 -13 33 -13 180 -14 248 -2 23 4 39 3 43 -4 10 -16 93 -13 131 5 26 12 38 13 54 4 16 -8 26 -7 48 7 14 10 45 18 67 19 74 3 131 16 151 34 22 20 104 59 180 85 84 29 122 49 131 70 5 11 19 21 32 23 12 2 22 10 22 18 0 17 41 35 54 24 15 -15 10 -88 -9 -116 -9 -14 -18 -43 -19 -63 -3 -40 -15 -91 -26 -106 -4 -5 -11 -21 -15 -35 -4 -14 -20 -43 -34 -64 -54 -81 -60 -92 -60 -112 -1 -11 -17 -37 -36 -58 -19 -21 -37 -46 -40 -57 -9 -27 -84 -112 -106 -121 -11 -4 -19 -13 -19 -19 0 -26 -62 -106 -97 -126 -21 -12 -52 -36 -68 -54 -67 -72 -95 -97 -127 -113 -18 -10 -49 -27 -68 -37 -19 -11 -52 -22 -73 -25 -25 -5 -36 -11 -35 -21 4 -21 -15 -29 -95 -43 -38 -7 -97 -26 -130 -43 -42 -21 -78 -32 -112 -33 -27 -1 -63 -6 -78 -12 -15 -7 -65 -14 -110 -17 -45 -3 -101 -8 -124 -12 -39 -5 -43 -3 -43 16 0 21 -19 28 -34 13 -20 -19 -214 -2 -245 22 -8 6 -39 11 -70 11 -40 1 -70 8 -106 27 -70 36 -121 51 -154 43 -37 -8 -108 11 -119 31 -5 9 -24 18 -42 20 -23 3 -45 17 -74 48 -53 56 -73 66 -139 66 -56 0 -91 21 -85 51 2 8 -15 19 -42 28 -25 7 -54 17 -65 22 -11 4 -32 10 -47 13 -15 3 -29 14 -32 24 -4 10 -37 32 -79 51 -114 51 -118 54 -145 89 -14 18 -43 43 -66 54 -22 11 -46 27 -54 35 -8 8 -27 22 -41 31 -14 9 -30 22 -34 29 -4 7 -26 17 -48 23 -23 6 -51 21 -63 34 -11 12 -36 28 -54 35 -18 8 -41 25 -52 38 -11 14 -39 37 -62 52 -24 15 -49 40 -57 54 -8 15 -20 27 -26 27 -7 0 -36 25 -66 55 -30 30 -61 55 -69 55 -19 1 -64 40 -79 69 -7 11 -20 21 -30 21 -25 0 -140 106 -147 136 -4 14 -19 31 -35 40 -16 8 -29 21 -29 29 0 7 -9 17 -20 20 -11 4 -27 19 -35 35 -8 16 -23 33 -32 39 -13 7 -18 22 -18 58 0 42 -3 48 -22 51 -12 2 -28 13 -36 26 -11 17 -33 26 -79 36 -55 11 -69 19 -110 62 -27 27 -48 57 -48 65 0 9 -19 32 -41 51 -26 22 -52 59 -69 97 -15 33 -41 73 -59 87 -17 15 -31 31 -31 36 0 5 -9 17 -21 28 -12 10 -28 36 -36 56 -8 20 -30 49 -49 63 -19 14 -34 31 -34 36 0 6 -15 29 -34 50 -20 24 -40 64 -50 99 -11 37 -24 64 -36 70 -12 6 -20 21 -20 36 0 13 -7 36 -16 49 -9 13 -17 34 -19 47 -9 55 -29 115 -46 134 -11 11 -19 26 -19 32 0 7 -5 21 -12 32 -10 15 -10 26 0 53 16 45 15 72 -3 87 -8 7 -15 19 -15 26 0 8 -10 35 -22 61 -23 49 -26 80 -15 177 5 46 3 68 -12 100 -28 65 -35 127 -16 162 9 17 13 40 9 56 -6 32 7 61 48 96 28 26 30 31 31 112 2 92 16 119 64 120 26 0 38 16 26 33 -4 7 -8 41 -8 77 0 60 2 65 23 68 19 3 22 9 22 46 0 35 4 45 23 53 21 10 23 17 22 73 -1 52 2 64 16 67 16 5 49 67 49 96 1 14 35 57 45 57 4 0 16 11 27 25 11 14 26 25 34 25 21 0 94 81 94 104 0 21 27 56 43 56 5 0 31 16 57 35 26 19 51 35 55 35 4 0 25 16 46 35 22 19 49 35 62 35 12 0 29 5 37 10 8 6 26 9 40 8 23 -3 25 -7 22 -43z m10698 -267 c26 -27 52 -48 57 -48 5 0 16 -9 25 -20 10 -11 30 -22 45 -25 27 -6 54 -16 146 -52 23 -9 62 -30 86 -46 25 -16 67 -34 94 -40 35 -9 66 -27 110 -65 33 -29 62 -59 63 -68 1 -9 13 -26 25 -37 l23 -21 -38 -9 c-39 -10 -45 -9 -179 32 -37 12 -84 21 -105 21 -21 0 -42 4 -48 10 -13 13 -70 16 -111 6 -26 -6 -33 -4 -33 7 0 21 -25 25 -116 20 -59 -3 -88 0 -109 11 -17 9 -43 16 -60 16 -16 1 -41 7 -55 15 -14 8 -35 14 -46 15 -12 0 -27 7 -34 15 -7 8 -29 15 -49 15 -30 0 -42 6 -59 30 -12 16 -22 35 -22 41 0 7 -54 66 -121 132 -75 74 -119 125 -117 135 3 14 15 16 73 13 39 -2 76 -8 83 -14 9 -7 21 -6 40 3 15 7 61 16 102 21 41 4 98 14 125 22 l50 15 54 -52 c29 -28 75 -72 101 -98z m-1014 -79 c10 -12 35 -32 54 -44 19 -12 46 -34 60 -48 14 -15 35 -27 47 -27 12 0 28 -7 35 -16 7 -9 27 -30 43 -48 60 -62 135 -161 135 -177 0 -9 13 -30 29 -45 16 -16 35 -40 41 -54 6 -14 24 -45 40 -70 43 -65 99 -177 111 -224 6 -22 19 -46 30 -54 22 -15 39 -71 39 -132 0 -25 7 -69 14 -99 9 -30 11 -62 7 -75 -10 -27 -6 -181 5 -198 8 -11 10 -54 13 -198 0 -14 -2 -54 -4 -90 -2 -36 -5 -90 -6 -120 -2 -58 -35 -186 -50 -196 -5 -3 -9 -16 -9 -30 0 -13 -11 -34 -24 -45 -34 -30 -58 -93 -50 -133 4 -26 0 -39 -20 -63 -14 -17 -26 -38 -26 -46 0 -8 -9 -26 -20 -40 -11 -14 -20 -39 -20 -57 0 -21 -9 -39 -26 -55 -34 -31 -54 -70 -52 -99 3 -31 -29 -69 -74 -88 -21 -9 -38 -23 -38 -32 0 -19 -35 -78 -83 -141 -22 -27 -53 -69 -70 -92 -17 -24 -38 -43 -47 -43 -19 0 -90 -57 -90 -73 0 -20 -134 -143 -176 -163 -41 -19 -143 -114 -163 -151 -6 -13 -18 -23 -25 -23 -7 0 -23 -11 -36 -25 -13 -14 -33 -25 -44 -25 -12 0 -38 -18 -59 -40 -20 -22 -44 -40 -53 -40 -24 0 -74 -39 -84 -65 -5 -13 -34 -40 -64 -60 -31 -20 -59 -41 -62 -46 -3 -5 -14 -9 -25 -9 -10 0 -19 -5 -19 -10 0 -21 -96 -108 -155 -141 -33 -18 -66 -39 -73 -46 -7 -7 -18 -13 -24 -13 -23 0 -114 -49 -137 -74 -15 -16 -35 -26 -52 -26 -19 0 -34 -9 -46 -26 -34 -49 -48 -59 -108 -78 -33 -10 -83 -29 -110 -42 -28 -13 -56 -24 -64 -24 -7 0 -31 -16 -54 -35 -22 -19 -46 -35 -52 -35 -6 0 -22 -11 -35 -25 -19 -20 -32 -24 -71 -23 -48 1 -51 -1 -126 -62 -7 -6 -22 -10 -33 -10 -11 0 -34 -10 -50 -22 -19 -14 -47 -22 -80 -24 -32 -2 -61 -10 -81 -24 -22 -16 -39 -21 -60 -16 -28 5 -79 -10 -79 -24 0 -11 -185 -70 -219 -70 -19 0 -38 -9 -53 -25 -14 -14 -34 -25 -48 -24 -88 2 -119 5 -126 12 -4 4 -28 7 -53 7 -27 0 -59 8 -76 18 -33 20 -137 27 -166 11 -12 -6 -22 -4 -33 6 -8 8 -29 18 -45 21 -17 4 -31 11 -31 16 0 6 -13 7 -32 3 -77 -17 -152 -13 -200 11 -26 13 -61 24 -77 24 -16 0 -33 4 -36 10 -8 12 -71 13 -93 1 -20 -11 -43 3 -61 36 -9 18 -21 23 -48 23 -20 0 -45 7 -55 17 -19 17 -49 35 -83 51 -11 6 -35 31 -54 56 -19 25 -40 46 -45 46 -6 0 -30 22 -54 50 -31 36 -65 60 -127 91 -47 22 -85 47 -85 53 0 7 -21 38 -47 69 -82 97 -103 125 -103 132 0 3 -36 41 -80 83 -48 47 -84 91 -92 112 -6 19 -22 46 -35 60 -13 14 -23 32 -23 41 0 9 -12 33 -26 54 -18 28 -24 46 -20 66 3 16 1 31 -4 34 -6 4 -17 21 -25 38 -9 18 -26 50 -40 72 -14 23 -25 55 -25 76 0 20 -8 47 -18 60 -25 31 -38 139 -18 139 44 0 80 -15 95 -42 10 -15 39 -42 64 -59 26 -17 47 -34 47 -39 0 -4 13 -10 28 -13 26 -5 50 -25 157 -126 22 -21 50 -41 61 -45 12 -4 38 -22 59 -41 20 -19 42 -35 49 -35 7 0 21 -9 31 -20 10 -11 25 -20 33 -20 9 0 23 -6 31 -13 9 -8 43 -22 76 -32 58 -18 76 -22 193 -44 29 -5 66 -20 83 -31 22 -16 37 -20 57 -15 29 8 36 8 163 2 63 -3 99 -10 133 -27 39 -18 55 -21 94 -14 26 5 56 7 67 6 30 -4 142 17 208 39 31 10 63 19 70 19 6 0 26 7 42 16 17 9 59 23 95 31 36 7 81 24 100 37 19 13 57 26 83 30 38 6 55 15 82 44 31 33 36 36 55 24 17 -10 25 -10 36 -1 8 6 13 17 12 23 -4 23 12 61 30 71 51 27 101 66 107 85 3 11 11 20 16 20 11 0 156 127 204 178 6 6 18 19 28 29 10 10 48 56 83 102 113 146 140 174 165 166 14 -5 19 -4 15 4 -4 6 -14 11 -22 11 -26 0 -10 24 29 43 32 16 37 23 37 53 0 71 64 144 125 144 19 0 37 5 40 10 3 6 20 10 36 10 17 0 55 12 84 26 50 23 57 24 76 10 23 -16 43 -12 74 14 32 28 82 50 113 50 16 0 35 7 42 14 6 8 37 20 68 27 56 12 127 46 198 94 20 14 45 25 54 25 10 0 23 7 30 15 7 8 20 15 29 15 9 0 37 18 61 40 24 22 53 40 63 40 10 0 30 13 45 29 32 34 69 54 82 46 6 -4 18 13 29 37 10 24 29 49 42 56 13 7 37 39 53 71 16 33 41 69 57 80 16 12 29 26 29 30 0 5 25 34 55 65 47 49 125 182 125 215 0 5 13 19 30 31 23 16 32 33 41 80 6 33 20 67 30 76 11 9 19 27 19 38 0 12 7 30 15 40 8 11 15 30 15 42 0 12 7 27 15 34 8 7 22 37 31 66 8 30 20 56 25 60 5 3 9 36 8 72 -1 37 -1 120 -1 185 1 65 -3 130 -9 145 -5 14 -14 59 -19 100 -7 48 -19 90 -35 118 -14 23 -25 53 -25 65 0 13 -8 32 -19 43 -13 14 -20 41 -23 84 -4 58 -3 62 17 62 12 0 30 -10 41 -21z m-5292 -1895 c11 -10 13 -21 7 -31 -5 -9 -6 -44 -3 -78 3 -40 1 -65 -7 -69 -6 -4 -11 -20 -11 -36 0 -34 -15 -47 -35 -30 -12 10 -18 10 -30 0 -13 -10 -13 -14 1 -28 13 -13 17 -13 25 -1 7 11 11 10 22 -6 15 -20 8 -59 -19 -98 -12 -18 -12 -18 -19 3 -4 11 -12 19 -18 17 -17 -5 -15 -47 4 -60 15 -11 15 -15 3 -32 -8 -10 -14 -33 -14 -51 0 -44 -56 -148 -102 -189 -20 -18 -80 -81 -133 -140 -68 -73 -106 -108 -126 -112 -16 -3 -31 -13 -34 -23 -3 -10 -18 -23 -33 -29 -15 -6 -47 -22 -71 -36 -25 -14 -63 -30 -85 -36 -23 -6 -52 -17 -66 -24 -14 -7 -63 -16 -110 -19 -47 -4 -128 -12 -180 -18 -126 -15 -218 -13 -263 6 -20 8 -75 18 -122 22 -64 5 -89 11 -98 24 -7 9 -23 20 -37 23 -14 3 -47 21 -74 39 -27 18 -62 40 -78 50 -16 9 -37 23 -46 31 -9 8 -29 17 -45 21 -38 9 -102 55 -122 89 -9 16 -31 43 -48 61 -33 34 -49 55 -68 93 -7 12 -28 30 -47 39 -45 21 -67 46 -96 109 -12 28 -30 56 -38 63 -22 18 -65 110 -73 153 -3 21 -12 42 -20 49 -40 33 17 100 85 100 29 0 50 9 84 35 26 19 50 35 55 35 11 0 21 -25 21 -50 0 -29 25 -41 97 -49 37 -3 67 -11 67 -16 -1 -6 -4 -19 -7 -30 -5 -15 3 -26 29 -42 20 -13 42 -23 50 -23 21 0 74 28 102 54 l24 21 19 -24 c10 -13 19 -32 19 -42 0 -10 2 -19 4 -19 1 0 32 -11 68 -24 36 -13 78 -21 94 -19 29 5 30 4 26 -31 -2 -21 0 -36 6 -36 6 0 25 -12 43 -27 29 -25 41 -28 100 -28 50 0 72 -5 86 -18 12 -10 36 -17 61 -17 34 0 45 5 59 26 25 38 110 74 154 65 52 -11 116 17 137 60 11 23 25 35 42 38 14 1 28 8 32 15 5 7 8 5 8 -6 0 -10 6 -18 14 -18 8 0 27 -8 43 -17 29 -16 31 -16 74 14 25 17 51 38 58 47 21 25 47 19 61 -14 7 -17 25 -37 40 -45 25 -13 30 -12 69 17 23 16 48 45 55 62 9 22 25 37 47 45 65 25 78 34 109 77 17 24 35 44 39 44 5 0 19 20 32 44 32 61 73 81 103 50z m268 -1314 c15 -30 38 -92 53 -137 18 -60 33 -88 50 -99 17 -11 25 -26 25 -44 0 -34 46 -107 72 -116 26 -8 25 -87 -1 -120 -11 -14 -18 -35 -15 -47 2 -12 8 -48 13 -79 6 -31 15 -66 21 -78 8 -15 8 -30 -1 -58 -9 -31 -8 -48 5 -92 19 -63 20 -108 5 -147 -6 -15 -15 -37 -19 -48 -5 -11 -8 -58 -9 -105 0 -77 -8 -122 -39 -215 -16 -45 -32 -146 -32 -194 0 -23 -7 -55 -15 -71 -8 -16 -12 -35 -9 -43 3 -8 -6 -21 -21 -31 -24 -16 -26 -22 -22 -64 2 -27 -2 -69 -11 -100 -13 -42 -14 -59 -5 -83 13 -34 -1 -93 -20 -86 -7 2 -23 23 -37 48 -15 24 -38 50 -53 57 -36 17 -60 56 -52 82 4 13 1 22 -9 26 -9 3 -16 13 -16 21 0 9 -8 30 -19 47 -10 17 -21 50 -25 73 -3 23 -17 63 -31 89 -14 26 -25 61 -25 77 0 48 -21 159 -36 188 -7 15 -22 62 -34 106 -28 108 -32 351 -8 401 14 26 15 44 8 88 -5 30 -6 108 -3 175 5 103 9 121 25 130 11 6 18 21 18 37 0 55 13 104 31 115 11 7 19 21 19 33 0 12 9 32 19 45 15 19 18 34 14 74 -4 41 -1 55 17 78 12 15 28 27 36 27 8 0 14 4 14 8 0 18 66 92 80 90 8 -2 27 -28 42 -58z"
       id="path7"
       style="fill:#000000;fill-opacity:1" />
    <path
       d="M6620 14730 c0 -13 5 -20 13 -17 6 2 12 10 12 17 0 7 -6 15 -12 18 -8 2 -13 -5 -13 -18z"
       id="path9"
       style="fill:#000000;fill-opacity:1" />
    <path
       d="M7573 13933 c4 -3 10 -3 14 0 3 4 0 7 -7 7 -7 0 -10 -3 -7 -7z"
       id="path11"
       style="fill:#000000;fill-opacity:1" />
    <path
       d="M10105 13460 c-3 -5 1 -10 10 -10 9 0 13 5 10 10 -3 6 -8 10 -10 10 -2 0 -7 -4 -10 -10z"
       id="path13"
       style="fill:#000000;fill-opacity:1" />
    <path
       d="M6035 13390 c3 -5 10 -10 16 -10 5 0 9 5 9 10 0 6 -7 10 -16 10 -8 0 -12 -4 -9 -10z"
       id="path15"
       style="fill:#000000;fill-opacity:1" />
    <path
       d="M11358 12243 c-29 -4 -36 -17 -17 -29 6 -3 16 -1 22 5 6 6 19 11 29 11 10 0 18 5 18 10 0 10 -3 10 -52 3z"
       id="path17"
       style="fill:#000000;fill-opacity:1" />
    <path
       d="M7897 10794 c-4 -4 -21 -6 -39 -6 -40 2 -82 -14 -124 -45 -17 -13 -36 -23 -43 -23 -16 0 -59 -27 -96 -60 -26 -23 -47 -30 -148 -44 -72 -10 -124 -13 -135 -7 -52 26 -87 30 -130 16 -23 -9 -53 -13 -66 -9 -16 4 -37 -6 -77 -36 -30 -22 -73 -46 -97 -52 -32 -8 -47 -18 -59 -42 -8 -17 -21 -38 -28 -46 -7 -8 -16 -26 -20 -40 -4 -14 -16 -36 -26 -49 -11 -13 -19 -32 -19 -42 0 -27 -145 -170 -183 -180 -118 -31 -157 -45 -157 -55 0 -6 -24 -32 -54 -58 -34 -28 -57 -57 -61 -75 -3 -16 -16 -33 -30 -39 -14 -6 -26 -23 -30 -42 -4 -17 -15 -36 -26 -43 -10 -6 -19 -20 -19 -30 0 -10 -12 -22 -27 -28 l-28 -10 24 -18 c23 -18 24 -21 12 -63 -7 -25 -14 -67 -15 -95 -3 -58 -49 -134 -96 -158 -17 -9 -30 -20 -30 -26 0 -13 -32 -55 -86 -113 -22 -23 -46 -58 -53 -77 -7 -19 -21 -52 -32 -74 -16 -34 -17 -45 -7 -71 9 -26 8 -42 -5 -85 -28 -91 -32 -152 -12 -183 9 -14 15 -32 12 -40 -3 -7 1 -23 9 -35 22 -31 9 -80 -31 -113 -18 -16 -43 -48 -55 -73 -12 -25 -26 -47 -31 -51 -5 -3 -9 -14 -9 -24 0 -10 -13 -47 -30 -81 -17 -36 -27 -72 -24 -82 3 -10 -3 -30 -13 -45 -23 -34 -27 -109 -8 -139 8 -12 15 -34 15 -48 0 -18 11 -33 40 -53 34 -23 39 -31 34 -55 -6 -30 18 -76 60 -116 15 -15 26 -35 26 -51 0 -15 11 -47 25 -71 57 -100 67 -132 56 -169 -5 -19 -13 -53 -16 -75 -3 -22 -15 -64 -26 -93 -14 -39 -16 -58 -9 -72 5 -10 10 -31 10 -47 0 -15 7 -41 15 -57 8 -15 15 -34 15 -40 0 -6 23 -34 50 -61 28 -27 50 -53 50 -58 0 -4 26 -32 58 -62 31 -30 71 -68 89 -85 22 -21 41 -30 65 -30 42 0 58 -15 58 -55 0 -20 10 -41 30 -62 18 -20 30 -43 30 -60 0 -15 11 -46 24 -68 14 -22 39 -68 57 -102 19 -35 38 -63 44 -63 6 0 27 -14 45 -30 19 -17 45 -33 57 -36 13 -4 23 -10 23 -14 0 -24 201 -87 242 -77 12 3 39 -3 61 -15 40 -20 179 -154 190 -183 4 -8 12 -15 19 -15 8 0 26 -12 40 -27 46 -48 67 -63 86 -63 10 0 29 -12 43 -26 29 -31 76 -57 89 -49 6 3 22 0 37 -8 66 -34 155 -48 168 -27 3 6 29 10 56 10 61 0 143 25 186 56 52 39 128 30 260 -32 28 -13 60 -24 71 -24 11 0 31 -10 46 -21 21 -16 36 -20 63 -16 28 5 39 2 52 -15 16 -19 22 -20 67 -10 27 5 76 15 109 22 80 15 127 41 183 101 25 27 53 49 61 49 21 1 42 18 68 56 22 31 88 59 115 49 31 -12 107 -12 193 1 120 17 160 31 205 70 26 23 94 64 143 86 15 7 29 19 32 28 3 8 32 44 65 80 34 36 66 76 73 90 9 17 22 26 44 28 24 2 33 9 35 25 2 14 27 38 70 67 37 25 81 63 96 86 16 22 44 51 62 65 55 42 130 114 130 125 0 6 12 23 26 37 20 20 25 34 23 65 -2 25 4 48 17 68 41 60 54 102 42 128 -9 20 -7 35 12 81 13 31 34 63 46 72 13 8 24 20 24 26 0 6 9 20 19 32 10 11 35 37 54 57 36 39 94 131 116 186 7 17 17 32 22 32 4 0 8 12 9 28 0 15 3 57 6 93 3 36 1 88 -5 115 -25 119 -29 134 -41 149 -7 8 -21 15 -31 15 -26 0 -24 12 6 40 14 13 25 30 25 37 0 8 7 16 15 19 10 4 15 20 15 45 0 22 5 48 10 59 6 11 15 30 22 43 6 12 12 31 14 42 1 11 9 51 19 88 12 50 15 81 9 115 -5 26 -9 65 -9 87 0 29 -5 42 -20 50 -27 14 -89 74 -108 105 -12 20 -14 35 -6 73 13 70 14 140 1 162 -7 14 -6 29 5 57 8 21 13 51 10 66 -19 99 -37 156 -55 182 -12 16 -22 39 -22 52 -1 16 -20 39 -60 73 -36 30 -62 61 -66 78 -4 15 -12 27 -19 27 -7 0 -29 11 -49 25 -20 14 -46 25 -56 25 -36 0 -53 42 -45 110 7 57 6 62 -14 67 -12 3 -21 11 -21 17 0 6 -14 27 -32 46 -20 22 -33 47 -35 67 -1 17 -11 49 -22 71 -19 36 -25 41 -70 47 -37 5 -54 13 -66 31 -8 13 -21 24 -28 24 -7 0 -29 16 -48 36 -56 59 -107 87 -156 86 -38 -1 -50 4 -86 37 -23 21 -55 45 -72 54 -16 8 -42 29 -58 46 -15 17 -33 31 -41 31 -17 0 -83 64 -91 90 -3 11 -10 20 -14 20 -4 0 -13 11 -19 25 -6 14 -17 25 -25 25 -7 0 -30 18 -52 40 -44 45 -131 89 -173 89 -15 0 -94 1 -177 4 -148 3 -151 3 -213 -26 l-62 -29 -43 21 c-24 12 -47 21 -51 21 -8 0 -58 41 -107 85 -8 8 -40 19 -70 25 -30 6 -59 17 -65 25 -8 10 -42 16 -126 20 -63 3 -118 2 -121 -1z m28 -270 c13 -13 28 -15 83 -9 63 6 68 5 91 -19 14 -14 30 -26 37 -26 7 0 31 -16 54 -35 23 -19 52 -35 65 -35 13 0 26 -7 29 -15 3 -9 20 -22 39 -30 18 -7 41 -22 50 -33 15 -17 24 -19 50 -11 17 5 35 13 41 19 5 5 31 10 57 10 32 0 57 7 82 24 26 18 46 23 78 22 24 -1 54 3 66 9 30 16 102 -8 175 -58 29 -20 58 -37 64 -37 22 0 112 -109 118 -144 4 -19 15 -45 25 -57 10 -13 22 -35 26 -49 10 -34 41 -66 78 -81 18 -7 49 -23 69 -36 30 -19 50 -23 105 -21 56 1 75 -3 111 -24 24 -14 50 -35 58 -47 8 -11 28 -28 45 -36 18 -10 29 -23 29 -37 0 -11 15 -41 33 -67 51 -72 56 -89 45 -158 -8 -56 -7 -66 14 -105 31 -56 113 -100 170 -92 33 5 39 3 47 -18 5 -13 21 -32 37 -43 48 -34 74 -67 84 -105 6 -21 16 -40 24 -43 19 -7 30 -75 16 -92 -7 -9 -13 -77 -16 -180 -4 -182 -9 -164 64 -221 22 -18 32 -34 32 -53 0 -16 12 -46 26 -67 l27 -39 -23 -63 c-12 -34 -19 -69 -16 -78 3 -8 2 -22 -3 -32 -5 -9 -17 -44 -27 -77 -9 -33 -25 -71 -36 -84 -10 -13 -18 -33 -18 -45 0 -44 30 -130 57 -165 26 -32 28 -41 22 -81 -4 -25 -5 -73 -2 -107 l6 -61 -39 -25 c-22 -14 -56 -44 -78 -66 -21 -23 -47 -41 -57 -41 -27 0 -87 -70 -95 -110 -4 -19 -19 -53 -35 -75 -21 -30 -29 -56 -34 -105 -3 -36 -8 -73 -11 -82 -3 -10 -1 -33 4 -51 10 -36 1 -65 -25 -80 -7 -5 -11 -13 -7 -18 9 -16 -36 -59 -62 -59 -16 0 -32 -16 -59 -55 -35 -54 -37 -55 -75 -49 -29 5 -48 1 -79 -17 -23 -12 -41 -26 -41 -30 0 -3 -13 -12 -30 -19 -16 -7 -30 -16 -30 -21 0 -4 -18 -29 -40 -54 -45 -52 -70 -104 -70 -146 0 -15 -6 -32 -14 -36 -8 -4 -24 -33 -36 -63 -24 -62 -33 -70 -75 -70 -17 0 -38 -8 -46 -18 -13 -16 -29 -18 -103 -16 -56 2 -96 8 -110 17 -33 22 -69 24 -107 5 -19 -9 -46 -19 -60 -22 -14 -3 -43 -21 -65 -41 -21 -19 -41 -35 -45 -35 -9 0 -77 -91 -104 -139 -15 -27 -28 -37 -55 -42 -19 -3 -52 -13 -73 -22 -37 -16 -42 -16 -100 4 -34 11 -67 25 -73 30 -6 5 -29 15 -51 23 -23 8 -58 26 -80 40 -21 13 -66 34 -100 45 -57 19 -65 20 -110 6 -26 -8 -64 -15 -84 -15 -25 0 -48 -9 -73 -29 -46 -36 -70 -42 -167 -37 -121 5 -165 22 -230 88 -31 31 -67 58 -80 60 -20 2 -26 13 -39 63 -20 77 -26 85 -57 85 -19 0 -41 16 -81 60 -33 35 -63 60 -75 60 -11 0 -28 7 -38 16 -16 14 -22 15 -66 1 -74 -23 -107 -27 -130 -14 -11 7 -42 24 -69 39 -100 54 -141 125 -122 209 10 41 9 54 -6 87 -10 23 -16 56 -14 78 2 34 -1 40 -30 57 -25 15 -52 20 -105 19 -59 0 -81 5 -128 28 -57 29 -109 80 -109 106 0 8 -10 36 -22 62 -16 36 -21 63 -19 117 1 39 3 126 5 195 4 150 0 132 32 169 14 17 23 37 20 44 -4 6 -18 30 -31 52 -13 22 -33 57 -45 77 -11 20 -40 54 -65 75 -25 20 -48 46 -51 57 -4 10 -24 38 -45 61 -37 40 -39 44 -43 126 l-4 85 47 50 c51 53 93 89 122 104 26 15 43 79 25 99 -19 21 -22 40 -13 74 5 19 1 42 -13 75 -12 26 -18 57 -15 69 3 14 -4 35 -20 59 -15 22 -23 44 -19 53 4 9 11 38 16 65 5 27 20 64 34 81 13 18 24 36 24 41 0 16 104 114 122 114 10 0 18 5 18 11 0 6 9 8 20 4 15 -5 31 2 56 24 19 17 40 31 47 31 7 0 27 16 45 35 36 40 41 73 16 120 -39 74 -25 170 44 310 16 34 85 82 138 96 24 7 38 19 45 36 15 40 38 52 89 47 33 -4 55 0 85 15 21 12 47 21 57 21 28 0 39 35 37 125 l-1 85 48 43 c27 23 61 55 76 70 26 27 32 28 114 29 50 0 89 -5 93 -11 4 -5 27 -13 51 -17 25 -4 52 -13 60 -20 9 -7 41 -16 71 -20 44 -5 57 -3 68 10 7 9 23 16 35 16 16 0 27 11 40 39 9 22 26 43 36 46 11 4 20 11 20 16 0 6 21 20 48 31 26 12 71 45 101 75 29 29 57 53 61 53 5 0 16 -7 25 -16z"
       id="path19"
       style="fill:#000000;fill-opacity:1" />
    <path
       d="M8164 9875 l-35 -36 -35 22 c-41 25 -103 22 -134 -6 -18 -16 -22 -16 -65 0 l-46 18 -40 -33 c-37 -29 -43 -31 -70 -20 -16 7 -32 10 -36 7 -3 -4 -18 0 -34 8 -40 21 -46 20 -88 -26 l-37 -41 -57 11 c-80 15 -128 -5 -170 -71 -10 -16 -26 -28 -36 -28 -25 0 -38 -17 -46 -63 -5 -25 -2 -47 8 -70 12 -25 15 -66 8 -105 -1 -2 -20 10 -43 27 -29 22 -53 31 -80 31 -32 0 -40 -5 -55 -32 -9 -18 -18 -46 -19 -62 -2 -37 -30 -59 -67 -52 -21 4 -34 0 -53 -19 -23 -23 -28 -38 -25 -80 1 -13 -15 -33 -49 -58 -57 -42 -62 -63 -29 -116 20 -33 20 -36 4 -47 -23 -17 -100 -11 -120 10 -20 19 -14 19 -56 5 -64 -22 -71 -35 -64 -111 8 -79 -10 -123 -56 -132 -40 -8 -64 -56 -50 -99 10 -30 18 -34 103 -60 51 -15 107 -27 123 -27 17 0 55 -15 85 -32 30 -18 69 -37 85 -43 42 -14 37 -36 -10 -51 -22 -8 -48 -18 -58 -24 -13 -8 -27 -5 -58 11 -26 13 -50 18 -65 15 -13 -4 -32 -2 -41 3 -10 5 -39 15 -66 21 -43 9 -53 8 -105 -16 -31 -14 -60 -31 -64 -37 -15 -24 -8 -57 15 -67 12 -6 30 -15 39 -22 13 -10 24 -8 53 8 34 18 37 18 46 2 9 -15 24 -18 109 -16 83 1 103 -2 126 -18 14 -10 36 -24 48 -31 28 -17 27 -39 -2 -35 -13 1 -33 -5 -45 -13 -12 -8 -36 -15 -55 -15 -47 0 -94 -22 -125 -60 -23 -27 -26 -38 -21 -69 4 -20 13 -48 20 -63 13 -25 12 -29 -6 -40 -52 -33 -1 -114 86 -138 40 -12 43 -15 38 -39 -4 -14 -11 -30 -15 -35 -14 -15 -11 -59 6 -82 18 -27 62 -36 110 -23 21 6 41 7 46 2 10 -10 -19 -102 -38 -122 -19 -19 3 -81 28 -81 19 0 129 -54 129 -63 0 -5 -9 -24 -19 -41 -26 -43 -22 -78 11 -94 23 -11 46 -10 133 0 69 9 105 10 105 4 0 -6 -17 -26 -39 -46 -27 -25 -40 -46 -44 -73 -5 -35 -3 -40 26 -57 19 -12 51 -20 77 -20 61 -1 81 -18 87 -77 3 -26 9 -54 15 -60 14 -17 78 -16 97 1 9 8 29 16 46 18 36 4 43 -17 25 -73 -11 -33 -11 -42 4 -64 28 -42 63 -50 102 -23 19 13 34 29 34 36 0 16 50 36 62 24 11 -11 29 -75 31 -111 3 -42 99 -58 132 -21 10 11 23 20 29 20 7 0 17 14 23 31 l12 31 54 -31 c30 -17 69 -31 86 -31 67 0 126 106 84 152 -10 12 -16 31 -15 48 2 15 -1 31 -7 35 -18 10 -13 25 8 25 11 0 28 -11 39 -25 11 -14 29 -25 40 -25 16 0 22 -9 27 -39 3 -22 13 -47 20 -58 8 -10 15 -28 15 -40 0 -27 37 -50 53 -34 6 6 17 11 24 11 6 0 29 11 49 25 41 28 89 32 118 10 28 -21 36 -19 79 20 30 28 38 41 33 59 -4 17 2 30 22 49 l28 27 23 -26 c19 -22 29 -25 58 -21 41 7 79 38 87 72 8 30 56 59 129 75 47 11 61 19 73 41 8 16 14 35 14 44 0 20 56 75 76 75 8 0 28 7 43 15 30 15 41 45 44 119 2 46 29 61 90 51 44 -6 94 18 121 60 12 19 21 23 34 17 9 -5 46 -9 82 -10 53 -1 70 5 33 11 -13 2 -73 78 -73 91 0 7 13 22 29 34 25 18 30 28 29 64 0 45 -14 63 -71 101 -44 29 -33 58 28 77 60 18 80 30 87 50 8 24 -20 70 -43 70 -12 0 -30 11 -41 25 -13 17 -29 25 -51 25 -55 0 -63 14 -25 40 18 13 48 38 67 57 19 18 41 33 48 33 20 0 7 62 -15 74 -9 5 -27 20 -40 33 -18 19 -21 27 -12 43 6 11 15 20 20 20 21 0 90 73 90 95 0 29 -23 53 -58 61 -49 10 -83 27 -79 38 2 6 23 22 48 36 25 15 51 40 61 59 9 18 26 43 38 56 18 19 19 26 9 49 -10 21 -19 26 -49 26 -48 0 -75 28 -66 67 4 15 12 56 18 91 11 59 10 64 -10 83 -12 11 -22 24 -22 29 0 5 -9 12 -20 15 -41 13 -59 63 -45 131 5 27 1 34 -29 58 -19 14 -39 26 -43 26 -5 0 -36 27 -70 61 -56 56 -64 60 -117 66 -63 6 -70 13 -81 80 -9 57 -33 76 -105 81 -59 4 -59 5 -81 49 -12 24 -32 48 -44 53 -13 5 -26 14 -30 19 -3 6 -14 11 -24 11 -10 0 -25 7 -32 17 -8 9 -36 34 -62 55 -47 37 -49 37 -83 23 -30 -12 -39 -12 -75 0 -55 20 -82 19 -127 -3 -20 -10 -46 -17 -57 -14 -29 6 -85 50 -97 78 -10 21 -18 24 -65 24 -48 0 -57 -4 -89 -35z m283 -380 c32 -36 65 -65 74 -65 8 0 23 -6 33 -13 18 -13 17 -15 -9 -35 -35 -28 -55 -28 -88 1 -15 12 -48 29 -74 36 -27 7 -61 19 -78 26 -19 9 -35 10 -46 4 -25 -13 -29 -11 -29 10 0 13 9 20 33 24 20 3 48 20 69 41 20 20 41 36 46 36 6 0 37 -29 69 -65z m272 -152 c19 -13 48 -23 65 -23 17 0 56 -10 86 -21 30 -12 70 -24 88 -26 29 -5 32 -9 32 -38 0 -40 31 -81 67 -88 41 -8 63 -28 68 -62 3 -17 15 -54 26 -82 22 -56 20 -79 -7 -90 -22 -8 -57 33 -89 103 -14 30 -38 62 -57 75 -18 13 -68 58 -111 101 -60 59 -84 76 -105 76 -42 -1 -101 28 -111 56 -6 13 -15 27 -21 31 -9 6 -9 10 1 16 14 8 15 8 68 -28z m-1085 5 c-10 -17 -52 -50 -58 -46 -2 2 -12 -4 -22 -14 -21 -18 -89 -48 -111 -48 -39 0 -20 77 24 98 35 16 48 15 63 -3 18 -21 47 -19 60 5 6 11 20 20 31 20 14 0 18 -4 13 -12z m-689 -385 c9 -12 25 -16 52 -15 25 2 45 -3 52 -11 20 -25 -68 -19 -106 6 -18 12 -33 25 -33 30 0 13 23 7 35 -10z m165 -53 c0 -5 -4 -10 -9 -10 -6 0 -13 5 -16 10 -3 6 1 10 9 10 9 0 16 -4 16 -10z m-53 -922 c9 -12 33 -129 33 -159 0 -29 -20 -43 -61 -45 -38 -2 -47 2 -82 38 -21 22 -52 44 -68 50 -40 14 -34 40 11 49 19 4 44 19 55 33 13 16 31 26 47 26 15 0 30 5 33 10 8 14 21 13 32 -2z m2064 -285 c6 -36 6 -93 -1 -93 -5 0 -15 -2 -23 -6 -20 -7 -30 48 -15 81 10 23 36 35 39 18z"
       id="path21"
       style="fill:#000000;fill-opacity:1" />
    <path
       d="M10960 5455 c-10 -12 -10 -15 3 -15 19 0 31 16 18 24 -5 3 -14 -1 -21 -9z"
       id="path23"
       style="fill:#000000;fill-opacity:1" />
    <path
       d="M9733 5383 c4 -3 10 -3 14 0 3 4 0 7 -7 7 -7 0 -10 -3 -7 -7z"
       id="path25"
       style="fill:#000000;fill-opacity:1" />
    <path
       d="M7600 5190 c0 -7 3 -10 7 -7 3 4 3 10 0 14 -4 3 -7 0 -7 -7z"
       id="path27"
       style="fill:#000000;fill-opacity:1" />
    <path
       d="M5820 5095 c0 -9 5 -15 11 -13 6 2 11 8 11 13 0 5 -5 11 -11 13 -6 2 -11 -4 -11 -13z"
       id="path29"
       style="fill:#000000;fill-opacity:1" />
    <path
       d="M9453 5043 c4 -3 10 -3 14 0 3 4 0 7 -7 7 -7 0 -10 -3 -7 -7z"
       id="path31"
       style="fill:#000000;fill-opacity:1" />
    <path
       d="M6595 5030 c-10 -17 12 -37 25 -24 8 8 6 15 -4 23 -10 9 -16 9 -21 1z"
       id="path33"
       style="fill:#000000;fill-opacity:1" />
    <path
       d="M9440 4950 c0 -5 5 -10 10 -10 6 0 10 5 10 10 0 6 -4 10 -10 10 -5 0 -10 -4 -10 -10z"
       id="path35"
       style="fill:#000000;fill-opacity:1" />
    <path
       d="M7373 4783 c4 -3 10 -3 14 0 3 4 0 7 -7 7 -7 0 -10 -3 -7 -7z"
       id="path37"
       style="fill:#000000;fill-opacity:1" />
    <path
       d="M8990 4760 c0 -5 4 -10 9 -10 6 0 13 5 16 10 3 6 -1 10 -9 10 -9 0 -16 -4 -16 -10z"
       id="path39"
       style="fill:#000000;fill-opacity:1" />
    <path
       d="M7250 4690 c0 -5 5 -10 10 -10 6 0 10 5 10 10 0 6 -4 10 -10 10 -5 0 -10 -4 -10 -10z"
       id="path41"
       style="fill:#000000;fill-opacity:1" />
    <path
       d="M12283 10863 c4 -3 10 -3 14 0 3 4 0 7 -7 7 -7 0 -10 -3 -7 -7z"
       id="path43"
       style="fill:#000000;fill-opacity:1" />
    <path
       d="M3625 5650 c3 -5 8 -10 11 -10 2 0 4 5 4 10 0 6 -5 10 -11 10 -5 0 -7 -4 -4 -10z"
       id="path45"
       style="fill:#000000;fill-opacity:1" />
    <path
       d="M12493 5533 c4 -3 10 -3 14 0 3 4 0 7 -7 7 -7 0 -10 -3 -7 -7z"
       id="path47"
       style="fill:#000000;fill-opacity:1" />
    <path
       d="M11160 4340 c0 -5 7 -10 15 -10 8 0 15 5 15 10 0 6 -7 10 -15 10 -8 0 -15 -4 -15 -10z"
       id="path49"
       style="fill:#000000;fill-opacity:1" />
    <path
       d="M8607 3963 c-14 -13 -6 -24 15 -21 27 4 36 28 11 28 -11 0 -23 -3 -26 -7z"
       id="path51"
       style="fill:#000000;fill-opacity:1" />
    <path
       d="M2600 5740 c0 -5 7 -10 16 -10 8 0 12 5 9 10 -3 6 -10 10 -16 10 -5 0 -9 -4 -9 -10z"
       id="path53"
       style="fill:#000000;fill-opacity:1" />
    <path
       d="M2726 5023 c-11 -11 -6 -23 9 -23 8 0 15 4 15 9 0 13 -16 22 -24 14z"
       id="path55"
       style="fill:#000000;fill-opacity:1" />
    <path
       d="M3193 4663 c4 -3 10 -3 14 0 3 4 0 7 -7 7 -7 0 -10 -3 -7 -7z"
       id="path57"
       style="fill:#000000;fill-opacity:1" />
    <path
       d="M2825 4300 c-3 -5 -2 -10 4 -10 5 0 13 5 16 10 3 6 2 10 -4 10 -5 0 -13 -4 -16 -10z"
       id="path59"
       style="fill:#000000;fill-opacity:1" />
    <path
       d="M2980 4236 c0 -9 5 -16 10 -16 6 0 10 4 10 9 0 6 -4 13 -10 16 -5 3 -10 -1 -10 -9z"
       id="path61"
       style="fill:#000000;fill-opacity:1" />
    <path
       d="M4990 3440 c0 -7 3 -10 7 -7 3 4 3 10 0 14 -4 3 -7 0 -7 -7z"
       id="path63"
       style="fill:#000000;fill-opacity:1" />
    <path
       d="M3994 3368 c-4 -7 -3 -8 4 -4 12 7 16 16 8 16 -3 0 -8 -5 -12 -12z"
       id="path65"
       style="fill:#000000;fill-opacity:1" />
    <path
       d="M7413 3093 c4 -3 10 -3 14 0 3 4 0 7 -7 7 -7 0 -10 -3 -7 -7z"
       id="path67"
       style="fill:#000000;fill-opacity:1" />
    <path
       d="M4952 2819 c-16 -25 -11 -33 18 -24 12 4 20 13 18 23 -5 24 -22 24 -36 1z"
       id="path69"
       style="fill:#000000;fill-opacity:1" />
    <path
       d="M5635 2700 c3 -5 8 -10 11 -10 2 0 4 5 4 10 0 6 -5 10 -11 10 -5 0 -7 -4 -4 -10z"
       id="path71"
       style="fill:#000000;fill-opacity:1" />
    <path
       d="M5853 2353 c4 -3 10 -3 14 0 3 4 0 7 -7 7 -7 0 -10 -3 -7 -7z"
       id="path73"
       style="fill:#000000;fill-opacity:1" />
    <path
       d="M13100 5634 c0 -8 5 -12 10 -9 6 3 10 10 10 16 0 5 -4 9 -10 9 -5 0 -10 -7 -10 -16z"
       id="path75"
       style="fill:#000000;fill-opacity:1" />
    <path
       d="M11255 3170 c3 -5 10 -10 16 -10 5 0 9 5 9 10 0 6 -7 10 -16 10 -8 0 -12 -4 -9 -10z"
       id="path77"
       style="fill:#000000;fill-opacity:1" />
    <path
       d="M8607 3044 c-8 -8 3 -34 14 -34 11 0 12 27 0 34 -4 3 -11 3 -14 0z"
       id="path79"
       style="fill:#000000;fill-opacity:1" />
    <path
       d="M12358 2903 c7 -3 16 -2 19 1 4 3 -2 6 -13 5 -11 0 -14 -3 -6 -6z"
       id="path81"
       style="fill:#000000;fill-opacity:1" />
    <path
       d="M8485 2720 c3 -5 8 -10 11 -10 2 0 4 5 4 10 0 6 -5 10 -11 10 -5 0 -7 -4 -4 -10z"
       id="path83"
       style="fill:#000000;fill-opacity:1" />
    <path
       d="M6870 3905 c7 -9 15 -13 17 -11 7 7 -7 26 -19 26 -6 0 -6 -6 2 -15z"
       id="path85"
       style="fill:#000000;fill-opacity:1" />
    <path
       d="M5600 3870 c0 -5 5 -10 10 -10 6 0 10 5 10 10 0 6 -4 10 -10 10 -5 0 -10 -4 -10 -10z"
       id="path87"
       style="fill:#000000;fill-opacity:1" />
    <path
       d="M11990 15289 c0 -5 5 -7 10 -4 6 3 10 8 10 11 0 2 -4 4 -10 4 -5 0 -10 -5 -10 -11z"
       id="path89"
       style="fill:#000000;fill-opacity:1" />
    <path
       d="M3800 15009 c0 -5 5 -7 10 -4 6 3 10 8 10 11 0 2 -4 4 -10 4 -5 0 -10 -5 -10 -11z"
       id="path91"
       style="fill:#000000;fill-opacity:1" />
    <path
       d="M1825 5799 c-10 -15 1 -23 20 -15 9 3 13 10 10 16 -8 13 -22 13 -30 -1z"
       id="path93"
       style="fill:#000000;fill-opacity:1" />
    <path
       d="M14020 5605 c0 -8 5 -15 10 -15 6 0 10 7 10 15 0 8 -4 15 -10 15 -5 0 -10 -7 -10 -15z"
       id="path95"
       style="fill:#000000;fill-opacity:1" />
    <path
       d="M14848 5465 c-6 -27 1 -32 20 -13 16 16 15 38 -2 38 -7 0 -16 -11 -18 -25z"
       id="path97"
       style="fill:#000000;fill-opacity:1" />
    <path
       d="M1585 4661 c-7 -12 12 -24 25 -16 11 7 4 25 -10 25 -5 0 -11 -4 -15 -9z"
       id="path99"
       style="fill:#000000;fill-opacity:1" />
    <path
       d="M1280 4320 c0 -7 3 -10 7 -7 3 4 3 10 0 14 -4 3 -7 0 -7 -7z"
       id="path101"
       style="fill:#000000;fill-opacity:1" />
    <path
       d="M13990 4170 c0 -5 5 -10 10 -10 6 0 10 5 10 10 0 6 -4 10 -10 10 -5 0 -10 -4 -10 -10z"
       id="path103"
       style="fill:#000000;fill-opacity:1" />
    <path
       d="M615 3790 c-3 -5 1 -10 9 -10 9 0 16 5 16 10 0 6 -4 10 -9 10 -6 0 -13 -4 -16 -10z"
       id="path105"
       style="fill:#000000;fill-opacity:1" />
    <path
       d="M1476 3640 c-11 -3 -15 -9 -10 -12 5 -3 18 -2 28 2 11 3 15 9 10 12 -5 3 -18 2 -28 -2z"
       id="path107"
       style="fill:#000000;fill-opacity:1" />
    <path
       d="M403 2743 c4 -3 10 -3 14 0 3 4 0 7 -7 7 -7 0 -10 -3 -7 -7z"
       id="path109"
       style="fill:#000000;fill-opacity:1" />
    <path
       d="M2025 2550 c-3 -5 -1 -10 4 -10 6 0 11 5 11 10 0 6 -2 10 -4 10 -3 0 -8 -4 -11 -10z"
       id="path111"
       style="fill:#000000;fill-opacity:1" />
    <path
       d="M3550 2250 c0 -5 5 -10 11 -10 5 0 7 5 4 10 -3 6 -8 10 -11 10 -2 0 -4 -4 -4 -10z"
       id="path113"
       style="fill:#000000;fill-opacity:1" />
    <path
       d="M14190 2230 c0 -7 3 -10 7 -7 3 4 3 10 0 14 -4 3 -7 0 -7 -7z"
       id="path115"
       style="fill:#000000;fill-opacity:1" />
    <path
       d="M13770 1870 c0 -7 3 -10 7 -7 3 4 3 10 0 14 -4 3 -7 0 -7 -7z"
       id="path117"
       style="fill:#000000;fill-opacity:1" />
    <path
       d="M15537 1573 c-11 -10 -8 -43 3 -43 6 0 10 11 10 25 0 26 -2 29 -13 18z"
       id="path119"
       style="fill:#000000;fill-opacity:1" />
    <path
       d="M9193 1534 c-9 -25 13 -40 26 -16 10 19 6 32 -11 32 -5 0 -11 -7 -15 -16z"
       id="path121"
       style="fill:#000000;fill-opacity:1" />
    <path
       d="M13690 1510 c0 -7 3 -10 7 -7 3 4 3 10 0 14 -4 3 -7 0 -7 -7z"
       id="path123"
       style="fill:#000000;fill-opacity:1" />
    <path
       d="M5100 1230 c0 -5 5 -10 10 -10 6 0 10 5 10 10 0 6 -4 10 -10 10 -5 0 -10 -4 -10 -10z"
       id="path125"
       style="fill:#000000;fill-opacity:1" />
    <path
       d="M52 1198 c5 -15 28 -18 29 -3 0 6 -7 12 -17 13 -10 3 -15 -1 -12 -10z"
       id="path127"
       style="fill:#000000;fill-opacity:1" />
    <path
       d="M1310 1070 c0 -7 3 -10 7 -7 3 4 3 10 0 14 -4 3 -7 0 -7 -7z"
       id="path129"
       style="fill:#000000;fill-opacity:1" />
    <path
       d="M1300 1020 c-13 -8 -13 -10 2 -10 9 0 20 5 23 10 8 13 -5 13 -25 0z"
       id="path131"
       style="fill:#000000;fill-opacity:1" />
    <path
       d="M12080 931 c0 -5 5 -13 10 -16 6 -3 10 -2 10 4 0 5 -4 13 -10 16 -5 3 -10 2 -10 -4z"
       id="path133"
       style="fill:#000000;fill-opacity:1" />
    <path
       d="M15920 869 c0 -5 5 -7 10 -4 6 3 10 8 10 11 0 2 -4 4 -10 4 -5 0 -10 -5 -10 -11z"
       id="path135"
       style="fill:#000000;fill-opacity:1" />
    <path
       d="M1040 770 c0 -5 4 -10 9 -10 6 0 13 5 16 10 3 6 -1 10 -9 10 -9 0 -16 -4 -16 -10z"
       id="path137"
       style="fill:#000000;fill-opacity:1" />
    <path
       d="M10525 760 c3 -5 15 -10 26 -10 10 0 19 5 19 10 0 6 -12 10 -26 10 -14 0 -23 -4 -19 -10z"
       id="path139"
       style="fill:#000000;fill-opacity:1" />
    <path
       d="M3460 630 c0 -7 3 -10 7 -7 3 4 3 10 0 14 -4 3 -7 0 -7 -7z"
       id="path141"
       style="fill:#000000;fill-opacity:1" />
    <path
       d="M10801 614 c0 -11 3 -14 6 -6 3 7 2 16 -1 19 -3 4 -6 -2 -5 -13z"
       id="path143"
       style="fill:#000000;fill-opacity:1" />
    <path
       d="M13760 549 c0 -5 5 -7 10 -4 6 3 10 8 10 11 0 2 -4 4 -10 4 -5 0 -10 -5 -10 -11z"
       id="path145"
       style="fill:#000000;fill-opacity:1" />
    <path
       d="M1110 541 c0 -5 5 -13 10 -16 6 -3 10 -2 10 4 0 5 -4 13 -10 16 -5 3 -10 2 -10 -4z"
       id="path147"
       style="fill:#000000;fill-opacity:1" />
    <path
       d="M1255 469 c-10 -15 1 -23 20 -15 9 3 13 10 10 16 -8 13 -22 13 -30 -1z"
       id="path149"
       style="fill:#000000;fill-opacity:1" />
    <path
       d="M10723 443 c4 -3 10 -3 14 0 3 4 0 7 -7 7 -7 0 -10 -3 -7 -7z"
       id="path151"
       style="fill:#000000;fill-opacity:1" />
    <path
       d="M11060 406 c0 -14 34 -28 44 -18 9 8 -14 32 -30 32 -8 0 -14 -6 -14 -14z"
       id="path153"
       style="fill:#000000;fill-opacity:1" />
    <path
       d="M9115 351 c-6 -11 9 -23 19 -14 9 9 7 23 -3 23 -6 0 -12 -4 -16 -9z"
       id="path155"
       style="fill:#000000;fill-opacity:1" />
    <path
       d="M8170 291 c0 -5 5 -13 10 -16 6 -3 10 -2 10 4 0 5 -4 13 -10 16 -5 3 -10 2 -10 -4z"
       id="path157"
       style="fill:#000000;fill-opacity:1" />
    <path
       d="M11573 293 c4 -3 10 -3 14 0 3 4 0 7 -7 7 -7 0 -10 -3 -7 -7z"
       id="path159"
       style="fill:#000000;fill-opacity:1" />
    <path
       d="M13113 193 c4 -3 10 -3 14 0 3 4 0 7 -7 7 -7 0 -10 -3 -7 -7z"
       id="path161"
       style="fill:#000000;fill-opacity:1" />
    <path
       d="M14680 60 c0 -5 7 -10 16 -10 8 0 12 5 9 10 -3 6 -10 10 -16 10 -5 0 -9 -4 -9 -10z"
       id="path163"
       style="fill:#000000;fill-opacity:1" />
    <path
       d="M5188 33 c7 -3 16 -2 19 1 4 3 -2 6 -13 5 -11 0 -14 -3 -6 -6z"
       id="path165"
       style="fill:#000000;fill-opacity:1" />
  </g>
</svg>
