<?xml version="1.0" standalone="no"?>
<!DOCTYPE svg PUBLIC "-//W3C//DTD SVG 20010904//EN"
 "http://www.w3.org/TR/2001/REC-SVG-20010904/DTD/svg10.dtd">
<svg version="1.0" xmlns="http://www.w3.org/2000/svg"
 width="874.000000pt" height="734.000000pt" viewBox="0 0 874.000000 734.000000"
 preserveAspectRatio="xMidYMid meet">

<g transform="translate(0.000000,734.000000) scale(0.100000,-0.100000)"
fill="#000000" stroke="none">
<path d="M1312 7094 c-67 -13 -130 -27 -140 -32 -9 -5 -47 -13 -83 -16 -61 -7
-68 -5 -96 18 -24 20 -42 26 -80 26 -76 0 -96 -34 -97 -165 0 -59 5 -81 32
-138 41 -86 41 -114 0 -161 -28 -32 -40 -38 -83 -41 -27 -3 -70 -7 -95 -10
-35 -4 -53 -1 -77 15 -46 28 -43 58 12 125 25 31 48 67 51 80 14 58 -22 170
-62 190 -12 6 -29 16 -37 23 -17 15 -68 18 -116 7 -51 -11 -117 -62 -137 -106
-9 -22 -21 -39 -25 -39 -11 0 -37 -60 -54 -123 -13 -46 -12 -52 13 -109 27
-65 126 -178 154 -178 8 0 18 -9 21 -20 6 -23 98 -67 167 -80 25 -5 71 -15
102 -23 31 -8 59 -12 62 -9 3 3 33 6 67 8 60 2 61 2 54 -23 -7 -29 -54 -104
-72 -116 -18 -11 -53 -82 -53 -105 0 -11 -12 -32 -27 -48 -16 -16 -35 -39 -43
-50 -8 -12 -36 -49 -61 -83 -54 -71 -81 -163 -61 -207 15 -31 89 -64 143 -64
22 0 49 -5 60 -10 27 -15 25 -75 -7 -146 -22 -50 -25 -68 -20 -117 4 -37 2
-67 -6 -80 -18 -35 -29 -287 -16 -400 6 -59 30 -100 52 -91 30 11 69 -76 73
-161 1 -27 3 -62 3 -76 1 -14 12 -36 26 -50 14 -13 35 -34 48 -46 13 -13 27
-23 32 -23 5 0 20 -16 33 -35 13 -20 35 -38 49 -42 14 -3 42 -23 63 -44 35
-35 38 -43 41 -101 3 -57 5 -63 28 -68 19 -4 28 -17 38 -48 10 -30 19 -42 33
-42 13 0 19 -7 19 -24 0 -14 -5 -28 -10 -31 -7 -4 -7 -12 0 -25 5 -10 10 -33
10 -50 0 -21 11 -46 32 -73 18 -23 38 -49 43 -58 64 -107 81 -132 135 -199 11
-14 38 -47 61 -75 60 -75 141 -154 164 -161 11 -4 29 -16 41 -28 19 -19 82
-61 143 -95 14 -8 31 -21 38 -30 6 -9 15 -13 19 -9 4 4 23 -5 43 -21 49 -38
202 -106 276 -121 33 -7 68 -17 78 -22 58 -29 327 -39 464 -17 95 15 153 25
188 34 28 6 35 2 85 -56 30 -34 76 -92 101 -128 25 -36 61 -76 80 -89 61 -41
159 -142 159 -163 0 -12 -18 -36 -42 -57 -104 -90 -188 -189 -188 -224 0 -7
-13 -28 -29 -47 -28 -34 -29 -35 -54 -18 -14 9 -50 20 -80 23 -48 6 -60 3
-101 -21 -39 -23 -53 -39 -78 -92 -23 -48 -29 -73 -25 -101 11 -77 24 -118 51
-159 38 -57 88 -76 186 -71 l74 3 22 -35 c13 -19 31 -46 42 -60 10 -14 25 -43
33 -64 8 -23 32 -54 57 -75 23 -19 42 -41 42 -48 0 -6 20 -26 45 -43 25 -17
45 -35 45 -40 0 -6 4 -10 10 -10 5 0 31 -14 57 -30 26 -17 54 -30 62 -30 9 -1
32 -9 51 -18 l35 -17 1 -115 c1 -97 5 -122 23 -157 11 -23 21 -57 21 -75 1
-18 7 -51 15 -73 8 -22 15 -47 15 -56 0 -8 13 -31 30 -49 18 -20 30 -45 30
-61 0 -14 7 -32 14 -39 8 -6 22 -34 31 -61 13 -37 27 -56 55 -75 20 -14 52
-43 69 -64 18 -22 38 -40 46 -40 8 0 18 -6 22 -13 11 -17 49 -37 71 -37 37 0
60 -28 67 -82 16 -114 113 -224 154 -174 7 8 21 12 31 9 11 -3 28 -2 37 2 10
5 21 8 25 7 13 -3 154 30 178 41 34 16 51 55 58 135 6 55 11 68 29 78 13 6 31
18 41 27 10 10 26 17 34 17 17 0 124 75 176 124 81 75 93 89 113 129 12 23 30
53 40 66 14 17 19 40 19 88 0 55 3 66 19 70 21 5 41 43 41 78 0 14 4 25 9 25
12 0 36 76 52 168 9 55 9 78 1 97 -16 34 -15 35 7 35 10 0 35 12 56 26 22 14
46 23 57 21 28 -8 121 37 161 76 19 19 43 38 54 41 47 15 133 156 133 217 0
31 28 33 68 5 29 -20 50 -26 90 -26 82 0 99 13 170 135 21 35 23 48 18 105
-11 112 -20 131 -94 203 -90 86 -125 94 -194 46 -14 -11 -37 -19 -50 -19 -20
0 -27 9 -42 49 -18 51 -125 186 -155 196 -10 3 -27 14 -39 25 -37 35 -115 80
-138 80 -42 0 -37 30 13 76 26 24 56 47 67 50 11 4 44 23 74 43 30 20 66 42
80 50 14 7 45 33 68 57 70 69 109 81 155 46 33 -26 52 -30 219 -52 133 -17
153 -17 235 -4 50 8 99 19 110 23 11 5 61 21 110 36 50 15 118 40 153 56 34
16 69 29 78 29 20 0 104 49 104 61 0 5 7 9 16 9 24 0 242 148 290 196 22 23
50 44 61 48 22 7 213 191 250 241 12 17 40 53 60 80 84 110 123 173 123 201 0
11 14 33 31 50 48 45 72 100 65 146 -8 51 15 82 64 87 45 4 84 25 139 72 24
22 52 39 63 39 10 0 22 8 25 18 4 9 19 29 35 44 28 26 36 53 19 60 -5 2 -12
15 -16 30 -5 20 -3 27 11 30 15 2 18 11 16 48 -2 36 1 47 17 58 19 11 21 10
21 -8 0 -25 5 -25 30 0 19 19 19 19 -12 45 l-30 26 16 42 c26 68 32 74 56 59
17 -10 21 -10 26 3 4 8 13 15 21 15 23 0 10 35 -15 38 -12 2 -22 -1 -22 -7 0
-22 -28 -10 -38 17 -5 15 -13 35 -17 45 -11 26 41 23 55 -3 15 -28 24 -25 46
15 19 36 19 36 -4 76 l-23 40 22 67 c12 37 25 72 30 77 13 18 1 89 -18 102
-14 11 -15 17 -7 31 16 24 6 79 -15 85 -19 5 -44 77 -35 101 3 9 13 16 21 16
8 0 32 13 52 28 20 16 44 32 54 35 11 4 17 17 17 36 0 24 -8 34 -48 59 -54 33
-132 128 -132 160 0 12 -9 39 -20 59 -28 53 -25 75 15 110 38 34 42 49 20 79
-8 10 -15 26 -15 34 0 8 -15 26 -34 40 -32 24 -32 25 -17 52 13 22 25 29 61
33 25 3 59 10 75 16 17 6 41 13 55 14 41 5 128 36 141 51 6 8 21 11 33 8 14
-3 28 1 35 10 8 9 21 16 30 16 9 0 41 22 71 49 54 49 54 50 61 123 4 40 3 82
-1 93 -4 11 -4 45 0 75 9 67 -11 132 -51 173 -56 56 -164 39 -237 -36 -26 -27
-33 -44 -37 -89 -4 -34 -1 -71 8 -94 19 -57 9 -83 -38 -101 -46 -17 -174 -25
-225 -14 -32 6 -35 10 -38 48 -2 38 2 46 47 94 56 59 81 120 81 198 0 41 -3
51 -20 56 -23 7 -63 1 -128 -21 -54 -18 -105 -18 -140 0 -15 7 -70 21 -122 31
-52 10 -100 22 -105 26 -20 15 -191 30 -314 29 -84 -1 -157 -29 -220 -85 -20
-17 -50 -41 -67 -53 -19 -13 -35 -37 -44 -64 -19 -60 -22 -62 -61 -35 -19 12
-56 35 -84 51 -27 16 -70 45 -95 66 -25 21 -70 48 -100 61 -30 12 -67 30 -81
40 -58 40 -213 76 -271 64 -19 -5 -37 -1 -55 10 -17 12 -51 18 -99 20 -40 2
-76 5 -81 8 -12 7 -322 -20 -368 -33 -22 -6 -62 -19 -90 -29 -27 -10 -84 -29
-125 -41 -76 -22 -182 -71 -255 -118 -79 -50 -130 -85 -155 -107 -38 -33 -102
-50 -129 -35 -13 7 -38 9 -59 5 -71 -12 -164 49 -197 129 -8 19 -30 51 -47 69
-18 19 -46 51 -61 71 -39 50 -104 96 -138 96 -56 0 -169 -75 -169 -113 0 -6
-11 -22 -24 -36 -13 -15 -38 -53 -56 -86 -37 -70 -66 -103 -89 -104 -69 -4
-108 -14 -149 -39 -89 -55 -92 -54 -191 45 -48 48 -112 106 -142 128 -92 69
-429 225 -485 225 -12 0 -35 5 -50 11 -16 5 -91 17 -169 25 -128 14 -227 14
-450 -1 -92 -6 -326 -70 -400 -109 -16 -9 -39 -16 -50 -16 -34 0 -82 36 -88
66 -10 51 -193 149 -242 130 -8 -3 -27 -1 -42 4 -63 19 -139 18 -261 -6z
m1406 -169 c25 -7 29 -23 7 -31 -16 -7 -75 14 -75 26 0 13 13 20 29 16 9 -2
26 -7 39 -11z m-308 -25 c0 -5 -14 -10 -31 -10 -17 0 -28 4 -24 10 3 6 17 10
31 10 13 0 24 -4 24 -10z m-1876 -26 c9 -8 16 -20 16 -26 0 -20 -62 -88 -80
-88 -21 0 -35 -16 -43 -49 -7 -29 27 -101 48 -101 7 0 20 -8 27 -18 21 -30
106 -72 144 -72 19 0 49 -7 65 -16 23 -11 34 -12 44 -4 16 13 65 2 65 -15 0
-26 -69 -53 -140 -56 -38 -1 -109 16 -144 35 -21 12 -46 25 -55 30 -18 10 -74
81 -107 136 -20 33 -21 39 -9 110 12 65 18 78 47 103 18 15 38 32 43 37 16 15
62 11 79 -6z m5496 -5 c0 -24 -77 -47 -117 -34 -36 11 -40 17 -20 33 23 19
137 20 137 1z m188 12 c9 -5 38 -17 65 -26 33 -12 47 -22 47 -35 0 -24 -24
-32 -58 -19 -34 13 -107 30 -149 34 -50 5 -59 15 -32 36 26 20 97 25 127 10z
m-4428 -36 c0 -8 -4 -17 -10 -20 -6 -4 -10 5 -10 20 0 15 4 24 10 20 6 -3 10
-12 10 -20z m4020 5 c0 -5 -5 -10 -11 -10 -5 0 -7 5 -4 10 3 6 8 10 11 10 2 0
4 -4 4 -10z m-1381 -62 c17 -29 47 -77 65 -106 20 -32 36 -73 41 -105 20 -140
-6 -169 -147 -167 -31 1 -59 -4 -63 -9 -3 -6 -19 -11 -34 -11 -36 0 -54 -22
-76 -89 -25 -77 -10 -181 26 -181 5 0 17 16 26 35 9 19 22 35 29 35 7 0 22
-16 34 -35 12 -19 25 -35 30 -35 14 0 50 56 50 77 0 10 7 29 16 41 19 28 33
19 59 -38 12 -26 25 -40 37 -40 22 0 28 13 37 83 6 51 7 52 41 55 28 3 39 -2
57 -25 l23 -28 37 20 c57 31 81 53 99 90 20 43 164 179 224 212 25 13 72 40
105 58 33 19 68 34 77 34 10 1 29 14 44 30 16 18 44 34 72 41 26 6 52 16 59
22 20 16 17 -64 -4 -107 -18 -37 -29 -40 -75 -20 -13 5 -23 -2 -39 -29 -11
-20 -22 -36 -24 -36 -2 0 -11 8 -20 17 -22 21 -44 9 -66 -38 -12 -23 -25 -36
-44 -39 -49 -9 -67 -47 -71 -146 -3 -82 -5 -91 -48 -165 -38 -64 -46 -88 -46
-128 0 -60 16 -76 67 -68 28 5 48 19 80 54 24 26 43 50 43 54 0 4 16 31 35 59
27 40 59 68 133 116 53 35 107 64 119 64 12 0 24 4 27 8 7 12 133 14 140 3 4
-5 -6 -23 -22 -39 -15 -16 -45 -63 -66 -105 -21 -42 -47 -79 -57 -82 -10 -3
-21 -14 -24 -24 -5 -17 -32 -31 -62 -31 -21 0 -15 45 12 91 49 87 17 94 -72
17 -86 -76 -122 -120 -145 -180 -11 -29 -39 -82 -63 -118 -68 -102 -68 -128
-3 -144 17 -4 30 -1 35 7 4 7 20 20 34 29 17 11 29 30 33 50 6 35 36 68 60 68
8 0 27 -5 41 -10 l27 -10 -79 -78 c-44 -42 -90 -97 -102 -122 -43 -87 -72
-166 -87 -235 -9 -38 -24 -92 -34 -120 -10 -27 -21 -70 -25 -94 -4 -25 -14
-51 -22 -59 -10 -10 -11 -18 -3 -27 9 -11 19 -61 47 -233 3 -19 12 -36 19 -39
9 -3 14 -21 14 -48 0 -29 6 -47 20 -60 11 -10 22 -16 25 -14 4 4 -11 77 -22
109 -13 35 -15 231 -2 246 15 18 39 1 39 -28 0 -10 7 -35 15 -55 8 -19 20 -65
25 -101 6 -36 19 -86 29 -111 30 -75 61 -184 61 -218 0 -36 -18 -54 -47 -47
-20 6 -143 153 -143 172 0 5 -7 15 -16 22 -21 18 -42 70 -71 175 -20 77 -24
108 -21 211 3 136 -4 158 -51 148 -14 -3 -34 -15 -43 -25 -20 -23 -48 -141
-48 -202 0 -30 -8 -56 -28 -88 -15 -24 -38 -65 -50 -90 -21 -44 -33 -54 -151
-131 -14 -10 -31 -20 -38 -24 -6 -3 -30 -32 -52 -64 -45 -64 -70 -76 -153 -71
-25 1 -55 -2 -66 -8 -28 -15 -48 -5 -62 30 -8 18 -20 29 -32 29 -13 0 -24 13
-35 38 -20 49 -78 113 -119 132 -42 19 -104 76 -104 95 0 9 -4 23 -10 33 -15
26 -37 101 -50 169 -9 44 -9 77 -2 120 8 48 8 61 -6 76 -20 22 -44 22 -94 -4
-40 -20 -42 -20 -55 -3 -7 9 -15 34 -18 53 -4 20 -15 61 -27 91 -11 30 -22 68
-25 83 -6 30 -79 97 -106 97 -27 0 -30 21 -8 51 28 38 27 45 -13 64 -41 20
-92 69 -129 124 -20 31 -32 41 -46 36 -25 -8 -71 31 -71 60 0 18 7 25 31 30
25 6 38 1 67 -22 21 -17 48 -36 62 -43 14 -7 51 -33 83 -56 33 -25 68 -44 83
-44 29 0 64 16 64 30 0 5 -27 37 -60 72 -33 34 -60 66 -60 70 0 4 -18 44 -39
88 -33 70 -61 107 -156 211 -18 19 -20 39 -4 39 6 0 13 -9 16 -20 4 -14 14
-20 32 -20 36 0 151 -114 151 -149 0 -22 40 -90 59 -101 30 -16 76 -12 94 8
17 18 34 74 47 157 4 28 11 61 15 74 10 29 -9 43 -47 35 -15 -3 -36 0 -48 6
-19 10 -21 17 -15 60 6 47 5 50 -19 56 -16 4 -33 0 -48 -10 -36 -26 -58 -21
-58 14 0 16 5 39 11 52 6 15 7 32 1 48 -8 22 -14 24 -62 21 l-53 -3 7 48 c3
26 6 60 6 75 0 19 5 29 15 29 32 0 267 -164 278 -194 3 -7 53 -56 111 -110 89
-83 108 -96 121 -86 8 7 15 28 15 46 0 27 -6 36 -31 49 -32 17 -33 35 -2 83
19 30 39 37 68 24 18 -8 26 -24 35 -69 13 -65 42 -103 77 -103 37 0 52 37 62
155 12 130 25 161 90 211 29 21 57 53 67 76 16 36 47 68 65 68 4 0 21 -24 38
-52z m-1199 14 c0 -5 -7 -17 -15 -28 -15 -19 -15 -19 -35 5 -25 29 -25 38 -2
44 19 4 52 -9 52 -21z m3168 6 c14 -14 16 -38 4 -38 -18 0 -45 28 -38 38 9 15
19 15 34 0z m-735 -29 c-34 -34 -53 -32 -53 7 0 22 4 24 42 24 l43 0 -32 -31z
m-2328 -11 c29 -20 66 -74 54 -81 -2 -1 -18 -12 -35 -24 -17 -12 -40 -23 -50
-25 -20 -3 -20 -2 -9 67 2 18 -2 36 -11 47 -16 17 -12 38 7 38 5 0 25 -10 44
-22z m3139 6 c9 -3 16 -10 16 -16 0 -14 -43 -5 -48 10 -4 13 7 15 32 6z m-964
-12 c0 -5 -6 -17 -14 -28 -11 -15 -17 -16 -27 -7 -16 16 -4 43 21 43 11 0 20
-4 20 -8z m-2765 -30 c120 -13 131 -17 289 -95 100 -49 146 -84 146 -111 0
-14 -61 -52 -75 -47 -70 23 -168 42 -176 34 -23 -23 -13 -73 23 -111 47 -49
108 -139 118 -172 12 -43 -3 -59 -52 -53 -60 8 -90 35 -113 101 -15 43 -27 60
-50 71 -16 8 -37 18 -45 23 -8 4 -21 11 -28 15 -8 3 -25 17 -38 29 -14 15 -35
24 -54 24 -44 0 -121 43 -177 100 -48 48 -51 49 -86 39 -33 -9 -36 -13 -45
-62 -6 -29 -11 -87 -12 -131 -2 -90 22 -162 77 -235 42 -56 42 -82 -1 -115
-49 -37 -97 -85 -131 -131 -47 -63 -105 -155 -105 -166 0 -9 -19 -57 -64 -159
-15 -35 -74 -121 -109 -159 -25 -28 -51 -45 -81 -53 -39 -10 -46 -9 -71 10
-15 12 -33 22 -39 22 -6 0 -30 10 -53 22 -68 36 -78 23 -121 -168 -15 -69 -15
-74 6 -140 26 -81 82 -169 114 -180 13 -4 34 -15 47 -25 15 -12 40 -19 70 -19
53 0 97 -32 107 -78 18 -84 79 -182 139 -222 12 -8 40 -34 62 -57 52 -57 79
-57 129 1 40 46 70 61 92 48 8 -6 13 -39 15 -97 4 -107 5 -106 -126 -150 -52
-17 -114 -44 -137 -60 -24 -17 -54 -37 -67 -46 -13 -9 -31 -26 -39 -37 -20
-30 -148 -112 -191 -124 -20 -5 -82 -8 -138 -7 l-100 4 3 -35 c7 -70 79 -169
148 -205 22 -11 52 -29 67 -40 26 -18 44 -20 167 -20 76 0 141 -3 144 -6 4 -4
15 -59 26 -123 19 -112 48 -193 76 -209 7 -4 22 -22 33 -40 11 -18 33 -40 48
-47 60 -30 83 -51 83 -76 0 -26 -9 -31 -27 -13 -6 6 -44 13 -84 15 -79 5 -84
6 -169 46 -30 14 -80 37 -111 51 -61 27 -236 147 -298 206 -21 20 -58 49 -81
65 -23 15 -45 39 -50 51 -5 13 -16 32 -24 42 -37 44 -88 123 -117 180 -17 34
-39 69 -50 79 -10 9 -19 23 -19 30 0 6 -21 39 -46 73 -62 83 -82 163 -50 206
16 22 88 45 116 38 11 -3 26 0 34 6 7 6 21 9 30 5 9 -3 31 3 49 13 18 11 44
23 59 26 34 9 136 120 161 176 16 36 19 60 15 130 -5 100 -31 160 -82 184 -76
36 -113 49 -155 54 -127 14 -233 -168 -181 -309 17 -45 5 -64 -47 -74 -52 -10
-77 7 -103 70 -32 77 -50 81 -50 11 0 -42 -4 -55 -15 -55 -20 0 -55 40 -56 64
-2 71 -7 104 -14 117 -5 8 -10 73 -11 144 0 72 -7 156 -13 189 -9 38 -9 62 -3
68 11 11 4 48 -9 48 -10 0 0 71 13 86 5 7 10 38 11 70 3 59 22 114 43 121 21
7 35 -51 29 -126 -3 -40 -8 -78 -12 -84 -10 -16 -5 -244 5 -264 5 -10 10 -56
9 -103 0 -94 10 -143 27 -137 18 6 12 148 -7 158 -12 7 -13 17 -5 56 5 27 11
120 13 208 4 143 14 240 30 265 10 16 35 -1 50 -34 16 -32 80 -78 134 -97 41
-14 76 8 90 55 5 19 24 55 42 79 19 25 43 57 54 72 11 15 39 43 63 63 42 34
43 35 84 21 22 -7 50 -20 62 -29 11 -9 43 -24 69 -34 61 -23 68 -17 83 72 6
37 16 81 22 97 6 17 16 50 24 75 12 42 16 46 53 52 22 3 70 12 108 19 l67 13
0 56 c0 30 4 71 10 90 7 29 31 202 32 235 0 44 -30 156 -53 195 -5 8 -18 34
-29 57 -13 29 -27 44 -45 49 -29 7 -53 48 -47 81 11 68 182 111 422 107 85 -1
196 -7 245 -12z m3536 -59 c8 -6 57 -27 109 -46 52 -20 115 -47 140 -61 25
-15 57 -32 71 -38 32 -16 119 -113 120 -136 2 -30 -3 -46 -23 -75 -11 -16 -36
-76 -56 -135 -33 -100 -35 -116 -37 -252 -2 -154 -8 -199 -33 -241 -32 -56 1
-92 96 -105 39 -5 57 -2 90 15 l42 21 29 -46 c38 -59 50 -138 27 -182 -11 -21
-29 -34 -63 -46 -55 -19 -145 -21 -176 -4 -39 20 -136 110 -143 132 -4 11 -19
37 -33 56 -37 49 -95 148 -111 190 -7 19 -22 44 -32 56 -10 11 -18 26 -18 32
0 6 -28 42 -63 79 -76 82 -94 117 -70 135 28 23 107 104 130 135 12 16 25 43
28 59 9 38 57 175 84 238 17 39 19 51 9 58 -23 14 -44 8 -88 -24 -60 -46 -82
-58 -106 -58 -28 0 -115 -36 -179 -73 -27 -16 -91 -72 -141 -123 -88 -91 -92
-94 -136 -94 -25 0 -59 3 -75 6 -28 6 -30 8 -23 37 13 55 27 81 60 112 40 37
90 109 90 128 0 8 -12 22 -26 32 -24 15 -36 16 -114 6 -47 -6 -107 -11 -131
-11 -25 0 -50 -5 -56 -11 -7 -7 -9 -3 -6 15 17 89 250 187 533 224 86 12 265
9 281 -5z m329 7 c0 -5 -2 -10 -4 -10 -3 0 -8 5 -11 10 -3 6 -1 10 4 10 6 0
11 -4 11 -10z m1838 -16 c27 -19 55 -71 48 -90 -3 -7 -2 -15 2 -18 13 -8 13
-144 -1 -158 -22 -24 -63 -83 -70 -100 -5 -14 -13 -16 -36 -12 -16 4 -53 1
-81 -6 -40 -10 -54 -10 -66 1 -11 9 -18 9 -26 1 -7 -7 -26 -12 -43 -12 -17 0
-40 -6 -51 -14 -17 -12 -32 -12 -105 0 -46 8 -96 19 -111 25 -18 7 -32 7 -45
0 -11 -5 -33 -9 -49 -9 -16 1 -39 -2 -51 -6 -12 -4 -46 1 -79 12 -33 11 -92
25 -133 31 -88 14 -104 6 -99 -48 4 -51 60 -80 171 -91 147 -14 308 -100 331
-177 9 -29 -13 -40 -97 -49 -37 -4 -72 -13 -78 -21 -17 -20 4 -61 38 -74 16
-7 43 -19 62 -28 42 -19 181 -148 181 -167 0 -7 8 -30 17 -50 l18 -36 -28 -24
c-16 -13 -37 -24 -47 -24 -10 0 -22 -4 -25 -10 -8 -13 -72 -13 -80 0 -4 6 -14
5 -29 -1 -19 -9 -41 -2 -139 45 -126 60 -151 83 -201 190 -28 60 -57 89 -83
84 -24 -4 -28 -40 -8 -79 29 -54 -2 -136 -38 -100 -6 6 -19 11 -28 11 -28 0
-127 99 -134 134 -4 17 -20 52 -36 77 -16 25 -32 61 -35 80 -14 74 -52 101
-105 74 -31 -16 -31 -18 -27 -80 3 -50 10 -70 33 -101 60 -79 71 -101 84 -171
16 -84 10 -148 -23 -229 -46 -115 -110 -112 -156 8 -14 37 -33 75 -42 85 -27
32 -106 205 -138 303 -48 150 -47 270 4 368 9 17 16 36 16 41 0 17 63 101 75
101 7 0 33 -22 59 -50 26 -27 54 -50 62 -50 7 0 26 -13 41 -30 28 -31 51 -38
70 -19 9 9 24 2 60 -28 26 -23 57 -50 67 -62 23 -26 56 -28 56 -3 0 23 -45 89
-97 143 -24 24 -43 47 -43 52 0 17 -94 107 -111 107 -11 0 -19 6 -19 13 0 6
-3 22 -6 34 -5 17 1 25 25 37 24 13 53 15 138 12 122 -5 210 -22 333 -64 47
-16 128 -40 180 -52 52 -13 111 -29 130 -36 35 -13 119 -21 282 -30 85 -4 89
-3 140 29 29 18 69 40 88 47 49 19 135 103 127 124 -4 9 -18 16 -31 16 -55 0
-100 44 -66 65 5 3 7 12 4 20 -6 14 12 55 24 55 4 0 18 -7 30 -16z m-6951 -9
c46 -9 56 -25 35 -57 -9 -14 -31 -37 -47 -51 -33 -27 -75 -102 -75 -134 0 -11
-13 -37 -30 -58 -16 -21 -30 -43 -30 -50 0 -29 81 -34 121 -7 87 59 185 147
215 194 28 44 80 76 97 59 6 -6 20 -11 32 -11 28 0 108 -84 138 -145 39 -80
51 -147 44 -259 -6 -90 -11 -109 -44 -176 -21 -42 -54 -115 -73 -162 -41 -101
-57 -112 -120 -77 -43 24 -45 28 -55 102 -8 62 31 189 82 267 26 40 28 55 11
110 -15 46 -44 65 -85 56 -41 -9 -65 -46 -97 -146 -55 -170 -108 -255 -181
-293 -16 -9 -48 -32 -69 -51 -22 -20 -45 -36 -52 -36 -7 0 -20 16 -29 35 -16
32 -16 38 1 87 9 29 28 72 41 95 26 47 30 95 9 112 -8 7 -32 11 -53 9 -31 -2
-41 -9 -53 -34 -32 -64 -111 -150 -184 -200 -17 -12 -64 -30 -104 -39 -60 -15
-82 -16 -125 -7 -29 6 -73 13 -99 17 -60 8 -62 26 -13 91 19 25 35 49 35 52 0
4 16 16 35 26 19 11 35 23 35 27 0 4 24 15 53 25 28 9 61 23 72 30 11 8 29 14
40 14 33 0 81 35 95 69 13 31 12 33 -30 76 l-43 44 -28 -30 c-25 -27 -59 -39
-59 -21 0 14 61 72 76 72 7 0 14 4 14 9 0 17 67 51 100 51 48 0 99 28 131 73
33 46 37 86 13 142 -14 33 -14 39 0 54 8 9 50 25 93 35 43 10 83 20 88 21 6 2
17 2 25 0 8 -2 29 -6 47 -10z m5277 -75 c29 -11 34 -37 10 -47 -18 -7 -44 20
-44 44 0 16 2 16 34 3z m-5639 -10 c-3 -5 -21 -9 -38 -9 l-32 1 30 8 c43 11
47 11 40 0z m6470 0 c4 -6 -7 -10 -25 -10 -18 0 -29 4 -25 10 3 6 15 10 25 10
10 0 22 -4 25 -10z m-6610 -50 c-3 -5 -11 -10 -16 -10 -6 0 -7 5 -4 10 3 6 11
10 16 10 6 0 7 -4 4 -10z m3739 -59 c20 -22 12 -51 -15 -51 -24 0 -40 29 -28
52 12 23 22 23 43 -1z m-2222 -37 c10 -9 -15 -75 -26 -71 -13 4 -20 42 -12 63
5 14 28 19 38 8z m715 -60 c30 -22 33 -29 27 -59 -4 -24 1 -45 20 -81 l26 -49
-21 -17 c-27 -23 -27 -23 -71 15 -26 24 -40 47 -51 87 -8 30 -18 62 -21 70 -7
17 27 60 46 60 6 0 26 -12 45 -26z m-604 -8 c9 -7 17 -21 17 -30 0 -13 -7 -17
-32 -14 -28 2 -34 8 -36 31 -3 21 1 27 15 27 10 0 26 -7 36 -14z m3607 -20 c0
-14 -4 -27 -9 -30 -4 -3 -11 -20 -15 -37 -10 -51 -46 -82 -46 -41 0 10 -3 21
-6 25 -8 7 -74 -24 -74 -35 0 -4 -11 -8 -24 -8 -16 0 -36 -15 -60 -45 -31 -37
-43 -45 -72 -45 -26 0 -34 4 -34 18 0 26 11 37 55 60 22 11 52 36 67 55 22 29
36 36 77 42 37 5 52 12 56 26 4 10 21 23 38 28 47 13 47 13 47 -13z m-3615
-145 c10 -17 -12 -21 -25 -6 -10 12 -10 15 3 15 9 0 18 -4 22 -9z m-465 -110
c0 -10 -9 -26 -20 -36 -19 -18 -20 -17 -20 4 0 29 19 63 31 56 5 -4 9 -14 9
-24z m855 -31 c0 -19 -44 -15 -65 6 -13 14 -11 15 25 12 28 -2 40 -8 40 -18z
m53 9 c-2 -6 -8 -10 -13 -10 -5 0 -11 4 -13 10 -2 6 4 11 13 11 9 0 15 -5 13
-11z m63 -9 c26 -14 24 -32 -3 -28 -13 2 -24 11 -26 21 -4 20 2 21 29 7z
m2693 -9 c22 -14 45 -19 75 -17 33 3 47 -1 59 -15 9 -11 26 -19 39 -19 12 0
25 -4 28 -10 3 -5 39 -35 80 -65 41 -31 84 -73 96 -93 13 -20 37 -54 55 -75
31 -37 41 -55 127 -222 36 -70 100 -161 154 -218 45 -47 210 -60 282 -22 39
20 40 19 51 -9 18 -49 -37 -186 -75 -186 -7 0 -20 -9 -30 -20 -19 -21 -64 -27
-80 -11 -6 6 -29 13 -52 17 -36 5 -45 3 -67 -19 -14 -14 -28 -37 -32 -52 -7
-27 -2 -39 41 -110 38 -62 40 -109 10 -185 -14 -35 -37 -82 -52 -103 -22 -32
-31 -38 -52 -33 -14 3 -42 9 -61 13 -19 3 -49 18 -67 34 -17 15 -41 30 -52 34
-12 3 -21 13 -21 21 0 9 -14 35 -30 60 -17 24 -42 74 -56 111 -25 66 -26 86
-9 155 10 39 -1 76 -32 104 -32 30 -54 30 -79 3 -47 -52 -185 -90 -251 -69
-117 38 -180 96 -223 205 -30 77 -32 125 -5 125 8 0 24 -18 36 -40 13 -22 26
-40 31 -40 4 0 17 -9 27 -19 57 -57 179 -78 239 -41 18 11 40 20 50 20 22 0
98 70 107 99 3 11 10 21 14 21 14 0 56 85 66 135 7 33 15 50 25 50 16 0 100
-121 100 -145 0 -20 76 -152 97 -167 28 -21 33 -15 33 37 0 42 -4 52 -25 66
-14 9 -25 24 -25 33 0 9 -16 41 -35 71 -19 30 -35 58 -35 63 0 21 -64 134 -95
169 -19 21 -35 43 -35 49 0 19 -81 102 -126 129 -22 14 -65 41 -94 60 -29 19
-56 35 -59 35 -3 1 -22 6 -41 13 -42 14 -217 10 -247 -7 -12 -6 -33 -11 -47
-11 -14 0 -45 -6 -68 -14 -133 -42 -128 -41 -146 -22 -16 16 -16 18 7 37 13
10 33 19 46 19 12 0 28 6 34 14 23 27 95 58 155 66 118 15 206 12 240 -9z
m-3054 -11 c0 -5 -7 -10 -16 -10 -8 0 -12 5 -9 10 3 6 10 10 16 10 5 0 9 -4 9
-10z m-220 -80 c0 -10 -22 -40 -48 -65 -29 -26 -63 -73 -83 -112 -18 -38 -42
-80 -52 -94 -10 -14 -22 -41 -27 -60 -4 -19 -16 -59 -25 -89 -29 -97 -30 -112
-9 -108 12 2 35 35 64 93 54 107 65 131 80 168 13 29 44 52 59 43 5 -3 8 -45
8 -93 -1 -124 23 -192 88 -255 27 -27 61 -51 75 -53 14 -3 44 -10 68 -15 68
-16 113 -11 172 18 43 21 56 34 65 61 11 33 46 58 66 45 5 -3 9 -33 9 -66 0
-63 -16 -101 -65 -154 -51 -55 -91 -73 -178 -80 -82 -6 -83 -6 -100 20 -10 14
-26 26 -37 26 -11 0 -28 9 -37 20 -27 31 -96 28 -130 -6 -21 -21 -24 -32 -20
-61 4 -20 15 -45 26 -57 29 -31 41 -70 41 -136 0 -47 -5 -67 -26 -97 -28 -41
-57 -62 -89 -63 -11 0 -26 -9 -32 -20 -7 -11 -27 -27 -45 -36 -18 -9 -48 -30
-66 -46 -19 -16 -41 -28 -50 -26 -22 4 -117 131 -130 175 -9 30 -8 42 8 74 11
21 36 50 55 65 35 26 36 29 33 83 l-3 56 -75 -2 c-66 -2 -78 -5 -95 -26 -22
-27 -86 -42 -113 -27 -10 5 -28 11 -42 14 -18 4 -35 22 -56 59 -39 67 -49 129
-26 158 16 19 19 19 61 4 35 -12 56 -13 97 -6 64 12 133 46 141 69 4 9 19 33
34 52 14 19 34 49 42 65 26 49 97 206 97 214 0 4 13 25 30 47 16 21 30 44 30
51 0 11 37 49 163 169 28 28 47 29 47 4z m3170 -74 c0 -3 -4 -8 -10 -11 -5 -3
-10 -1 -10 4 0 6 5 11 10 11 6 0 10 -2 10 -4z m-2768 -33 c6 -32 -16 -143 -29
-143 -11 0 -13 65 -4 148 2 18 29 15 33 -5z m131 -44 c2 -24 -3 -34 -14 -37
-12 -2 -18 6 -21 32 -4 37 9 63 25 47 5 -5 10 -24 10 -42z m2707 -18 c0 -11
-4 -23 -10 -26 -6 -4 -10 5 -10 19 0 14 5 26 10 26 6 0 10 -9 10 -19z m-115
-96 c-2 -59 -8 -89 -18 -100 -9 -8 -18 -15 -20 -15 -8 0 -1 163 8 183 4 9 13
17 21 17 10 0 12 -19 9 -85z m-246 61 c8 -9 8 -21 1 -40 -17 -47 -44 -29 -34
23 7 34 15 38 33 17z m-2231 -14 c22 -15 27 -79 7 -108 -22 -34 -30 -22 -40
59 -7 58 0 69 33 49z m2371 -29 c10 -32 10 -44 -3 -75 -9 -21 -16 -50 -16 -66
0 -31 -24 -61 -34 -43 -4 6 -9 39 -13 74 -4 51 -2 70 11 88 9 13 16 31 16 41
0 32 27 19 39 -19z m219 25 c7 -7 12 -24 12 -39 0 -15 4 -30 9 -34 6 -3 4 -22
-5 -48 -10 -27 -15 -73 -14 -127 0 -61 -4 -91 -14 -105 -14 -19 -15 -19 -21
-2 -4 9 -4 29 0 45 6 22 8 173 3 267 -2 55 6 67 30 43z m-4218 -18 c0 -11 -4
-20 -10 -20 -5 0 -10 9 -10 20 0 11 5 20 10 20 6 0 10 -9 10 -20z m1250 -11
c0 -5 -4 -9 -10 -9 -5 0 -10 7 -10 16 0 8 5 12 10 9 6 -3 10 -10 10 -16z
m3233 -37 c0 -23 -4 -42 -9 -42 -10 -1 -25 70 -17 83 12 20 26 -3 26 -41z
m-3363 34 c0 -2 -3 -11 -6 -20 -9 -23 -24 -20 -24 4 0 11 7 20 15 20 8 0 15
-2 15 -4z m3260 -49 c0 -7 -7 -23 -16 -35 -13 -19 -13 -28 -3 -56 15 -42 6
-74 -16 -56 -11 9 -15 33 -15 90 0 42 3 80 6 83 9 9 44 -11 44 -26z m-3120 -9
c0 -18 3 -43 6 -55 4 -13 2 -23 -4 -23 -12 0 -36 85 -27 99 12 21 25 11 25
-21z m-130 -114 c0 -65 -3 -84 -14 -84 -8 0 -17 7 -20 16 -8 20 -8 103 0 143
5 25 9 29 20 20 10 -8 14 -36 14 -95z m-1300 64 c0 -18 -5 -40 -10 -48 -9 -13
-11 -13 -20 0 -10 16 -4 46 12 68 15 18 18 15 18 -20z m3903 -11 c4 -34 -9
-87 -23 -87 -18 0 -26 62 -14 107 8 31 31 18 37 -20z m-1990 -33 c-6 -17 -30
-18 -36 -1 -2 6 0 21 6 31 9 19 10 19 23 2 7 -10 10 -24 7 -32z m2111 -10 c-1
-27 -5 -64 -10 -82 -9 -34 -9 -34 -27 -14 -16 18 -17 24 -5 44 7 13 13 32 14
43 2 57 5 66 17 62 7 -2 12 -22 11 -53z m-4478 25 c3 -6 -3 -23 -15 -37 -11
-15 -35 -56 -53 -90 -18 -35 -41 -68 -51 -73 -14 -8 -15 -14 -7 -29 8 -14 7
-32 -1 -60 -9 -31 -10 -43 -1 -52 13 -13 16 -77 4 -94 -4 -6 -22 -15 -39 -19
-29 -6 -33 -4 -33 14 0 11 5 23 10 26 6 4 8 26 4 56 -5 40 -4 50 11 55 13 5
15 14 11 39 -5 23 -2 38 9 48 8 9 15 28 15 44 0 32 31 123 55 159 16 26 68 34
81 13z m5119 -69 c-7 -34 -21 -60 -34 -60 -11 0 -10 93 1 114 10 19 11 19 25
0 9 -13 12 -31 8 -54z m-2657 13 c-4 -52 -28 -56 -28 -4 0 30 4 41 16 41 11 0
14 -9 12 -37z m2247 28 c3 -5 1 -12 -5 -16 -5 -3 -10 1 -10 9 0 18 6 21 15 7z
m-2342 -72 c-10 -37 -23 -30 -23 13 1 38 2 41 14 25 8 -10 12 -27 9 -38z
m-2299 15 c4 -9 1 -66 -5 -126 -8 -81 -8 -137 1 -221 7 -62 13 -161 14 -222 1
-60 5 -116 9 -123 9 -14 -23 -77 -38 -77 -6 0 -11 9 -13 19 -3 11 -29 51 -60
90 l-56 70 1 130 c1 86 7 153 18 196 10 36 22 92 27 125 6 33 16 74 24 90 7
17 15 38 18 48 7 22 52 23 60 1z m1814 -2 c2 -7 -3 -12 -12 -12 -9 0 -16 7
-16 16 0 17 22 14 28 -4z m2457 -11 c3 -5 1 -12 -5 -16 -5 -3 -10 1 -10 9 0
18 6 21 15 7z m2605 -61 c50 -50 86 -167 81 -265 -1 -22 3 -63 8 -91 6 -33 6
-65 0 -94 -16 -70 -27 -203 -19 -225 5 -12 3 -30 -4 -42 -10 -20 -14 -23 -34
-23 -5 0 -14 -23 -21 -50 -9 -34 -21 -56 -38 -67 -51 -33 -55 -3 -55 387 0 19
2 82 3 138 3 90 1 106 -14 117 -21 15 -34 79 -20 97 6 7 14 31 17 53 14 79 54
107 96 65z m-2469 -45 c19 -50 19 -50 -1 -86 -22 -40 -26 -69 -9 -69 12 0 7
-134 -8 -190 -18 -68 -32 -27 -35 105 -2 76 4 260 9 278 8 29 24 15 44 -38z
m-131 21 c0 -8 -4 -17 -9 -20 -10 -7 -23 19 -14 28 11 11 23 6 23 -8z m2257
-8 c-3 -8 -6 -5 -6 6 -1 11 2 17 5 13 3 -3 4 -12 1 -19z m-4357 -68 c0 -30 -4
-50 -11 -50 -7 0 -9 10 -5 24 3 14 2 27 -3 30 -11 7 -2 46 10 46 5 0 9 -22 9
-50z m4146 -58 c50 -48 95 -97 98 -109 8 -26 48 -32 65 -10 49 59 65 83 86
131 14 31 29 56 33 56 5 0 17 -18 27 -41 19 -41 23 -120 10 -214 -8 -61 -17
-271 -15 -356 1 -61 -2 -78 -14 -82 -12 -5 -16 -20 -16 -59 0 -32 -6 -62 -16
-76 -18 -27 -15 -77 6 -77 8 0 17 9 20 21 3 11 17 35 31 53 21 27 30 31 53 25
21 -5 25 -10 20 -28 -3 -11 -14 -27 -25 -35 -11 -8 -19 -25 -19 -42 0 -34 -20
-38 -39 -7 -12 20 -14 20 -23 4 -7 -13 -13 -14 -23 -6 -11 9 -17 4 -29 -24 -8
-20 -20 -36 -25 -36 -18 0 -12 -28 7 -32 9 -2 35 -1 57 3 43 8 75 -3 75 -26 0
-21 -50 -56 -71 -50 -10 3 -32 -1 -49 -10 -20 -10 -36 -13 -48 -7 -9 5 -23 7
-31 4 -17 -6 -117 17 -151 35 -14 7 -32 13 -41 13 -18 0 -99 67 -99 82 0 6
-13 26 -30 45 -16 18 -30 40 -30 47 0 7 -10 26 -21 40 -16 20 -24 51 -31 116
-9 80 -8 91 11 129 34 65 103 121 151 121 14 0 42 -11 63 -25 42 -29 46 -51
21 -116 -17 -42 -43 -59 -90 -59 -42 0 -74 -28 -74 -65 0 -40 25 -102 54 -132
30 -32 36 -29 36 23 0 43 4 50 61 107 84 85 92 99 93 167 1 50 -4 65 -30 102
-52 74 -116 93 -213 61 -68 -21 -121 -76 -167 -169 -35 -70 -36 -77 -30 -141
4 -37 11 -72 16 -79 6 -6 13 -32 16 -58 10 -70 127 -236 167 -236 8 0 20 -7
27 -15 7 -8 27 -17 46 -21 19 -3 34 -9 34 -13 0 -4 22 -15 50 -25 78 -28 100
-50 100 -99 0 -23 -9 -58 -19 -77 -11 -19 -29 -53 -39 -76 -11 -22 -36 -58
-56 -80 -20 -21 -36 -42 -36 -46 0 -4 -6 -13 -13 -20 -7 -7 -23 -30 -36 -50
-12 -21 -42 -54 -66 -73 -24 -20 -46 -46 -49 -59 -4 -16 -21 -30 -53 -44 -27
-11 -62 -34 -78 -51 -17 -17 -35 -31 -41 -31 -6 0 -42 -27 -80 -60 -38 -33
-104 -78 -148 -100 -43 -23 -90 -49 -103 -60 -14 -10 -50 -29 -81 -40 -31 -12
-61 -25 -67 -30 -5 -4 -37 -11 -70 -14 -60 -7 -127 -19 -198 -37 -22 -6 -96
-7 -178 -3 -133 7 -141 8 -156 30 -21 33 -11 63 43 123 49 54 77 99 125 201
68 146 75 154 108 133 9 -5 42 -18 73 -28 38 -11 74 -33 110 -65 48 -43 55
-54 66 -108 16 -77 44 -104 97 -92 67 15 98 86 110 245 6 71 4 101 -9 138 -9
26 -16 54 -16 62 0 23 34 35 69 25 18 -5 70 -6 117 -3 81 6 87 8 140 49 31 24
62 44 68 44 15 0 79 67 96 98 6 13 9 30 6 38 -6 16 -58 19 -84 5 -9 -5 -47
-12 -84 -15 -57 -6 -74 -3 -110 14 -63 31 -110 61 -150 95 -19 17 -70 57 -113
90 -44 33 -92 72 -107 86 -16 15 -42 32 -58 39 -16 7 -31 20 -34 29 -23 83
-12 131 29 131 15 0 36 -5 47 -11 12 -7 49 -16 82 -20 34 -5 80 -12 102 -15
23 -4 44 -2 47 3 4 6 8 41 10 79 3 49 12 83 31 118 14 27 26 54 26 61 0 7 9
24 21 39 17 21 21 42 23 113 l2 86 47 12 c27 7 60 24 76 39 46 44 101 187 101
264 1 74 42 66 65 -13 9 -30 22 -55 29 -55 6 0 20 13 29 30 10 16 45 50 77 75
33 26 60 50 60 56 0 24 32 2 116 -79z m726 43 c18 -41 8 -46 -21 -9 -24 31
-26 44 -8 44 7 0 20 -16 29 -35z m-2767 -28 c7 -47 -5 -109 -22 -114 -14 -5
-26 76 -17 122 9 49 31 45 39 -8z m-1992 27 c3 -4 0 -23 -9 -42 -10 -24 -11
-39 -4 -46 12 -12 13 -66 1 -85 -5 -8 -14 -10 -21 -6 -9 6 -11 28 -6 82 9 96
18 118 39 97z m96 -18 c17 -20 10 -70 -10 -74 -19 -4 -31 32 -22 66 6 26 16
28 32 8z m4696 -46 c3 -5 1 -10 -4 -10 -6 0 -11 5 -11 10 0 6 2 10 4 10 3 0 8
-4 11 -10z m-4462 -61 c10 -76 -2 -223 -25 -298 -26 -84 -10 -103 24 -29 42
90 78 192 78 221 0 20 11 22 28 5 8 -8 8 -15 1 -24 -7 -9 -6 -19 3 -33 10 -16
10 -29 1 -58 -33 -109 -57 -162 -88 -197 -19 -22 -35 -46 -35 -53 0 -8 -28
-41 -62 -75 -57 -56 -62 -59 -75 -42 -30 41 -10 197 37 299 29 60 52 153 57
220 4 72 21 127 36 122 7 -2 15 -28 20 -58z m107 34 c0 -10 -4 -25 -10 -33 -8
-12 -10 -12 -16 3 -7 20 1 47 16 47 5 0 10 -8 10 -17z m1792 -15 c-7 -7 -12
-22 -12 -35 0 -35 -17 -28 -23 10 -4 22 0 36 11 45 20 16 42 -2 24 -20z m2523
-42 c2 -39 -1 -66 -10 -79 -18 -25 -21 -14 -23 71 -2 62 1 73 14 70 11 -2 16
-18 19 -62z m-4645 -5 c0 -35 -24 -60 -34 -35 -10 26 -7 62 7 67 19 7 27 -2
27 -32z m-230 -15 c0 -16 -14 -36 -25 -36 -17 0 -28 17 -20 30 6 10 45 15 45
6z m2112 -18 c13 -20 13 -29 2 -62 -8 -21 -11 -43 -8 -48 3 -5 3 -20 0 -34 -5
-20 -10 -23 -25 -14 -17 8 -18 18 -14 72 6 81 11 108 22 108 5 0 15 -10 23
-22z m236 -122 c-2 -39 -7 -52 -20 -54 -15 -3 -18 5 -18 52 0 31 6 65 12 76
12 19 13 19 21 -2 4 -12 7 -45 5 -72z m-4727 27 c1 -5 3 -17 4 -28 2 -11 8
-44 14 -74 6 -29 11 -65 11 -80 0 -22 -2 -23 -14 -11 -12 13 -36 138 -36 185
0 15 19 21 21 8z m2589 -38 c0 -26 -14 -33 -25 -15 -9 14 1 40 15 40 5 0 10
-11 10 -25z m4368 -27 c-2 -12 -8 -23 -14 -25 -17 -6 -27 29 -12 39 22 13 30
9 26 -14z m-4948 -75 c0 -28 20 -30 27 -3 6 24 21 25 47 5 11 -8 30 -15 42
-15 12 0 43 -9 68 -20 27 -11 48 -15 51 -10 4 6 17 10 31 10 20 0 24 -5 24
-29 0 -17 -4 -33 -10 -36 -5 -3 -10 -15 -10 -26 0 -11 -7 -22 -15 -25 -19 -8
-45 13 -45 36 0 30 -44 12 -84 -36 -20 -24 -41 -44 -45 -44 -5 0 -4 17 1 38
17 65 21 102 10 102 -13 0 -49 -45 -57 -71 -4 -10 -15 -19 -25 -19 -19 0 -30
26 -30 73 0 37 -18 34 -62 -8 -20 -20 -39 -31 -42 -26 -13 20 4 134 21 154 33
36 56 37 80 4 13 -17 23 -41 23 -54z m205 56 c8 -23 1 -34 -14 -24 -13 8 -15
45 -2 45 5 0 13 -9 16 -21z m5075 11 c0 -5 -4 -10 -10 -10 -5 0 -10 5 -10 10
0 6 5 10 10 10 6 0 10 -4 10 -10z m-2207 -87 c-1 -24 -9 -57 -19 -75 -9 -18
-23 -44 -29 -58 -7 -14 -22 -29 -34 -35 -11 -5 -25 -22 -30 -37 -16 -45 -23
-32 -19 34 3 53 0 63 -15 66 -11 2 -23 -8 -35 -28 -9 -17 -27 -44 -39 -58 -13
-15 -23 -30 -23 -34 0 -5 -4 -8 -10 -8 -11 0 -14 43 -3 54 12 11 13 75 2 82
-6 3 -16 1 -22 -5 -19 -19 -28 -12 -25 22 3 31 4 32 53 32 57 1 102 19 159 65
26 20 49 30 65 28 24 -3 26 -7 24 -45z m-2508 -43 c-1 -73 -8 -91 -26 -73 -8
8 -8 17 0 32 9 16 9 26 1 42 -14 25 -5 69 13 69 10 0 13 -18 12 -70z m4375 44
c0 -21 -18 -54 -30 -54 -11 0 -14 53 -3 63 12 13 33 7 33 -9z m-6121 -8 c44
-23 101 -92 101 -124 0 -68 -29 -126 -93 -185 -34 -32 -75 -65 -92 -74 -33
-18 -152 -43 -203 -43 -18 0 -42 -5 -53 -11 -16 -8 -25 -7 -40 7 -15 14 -21
15 -34 4 -13 -11 -19 -10 -33 4 -9 9 -33 27 -52 39 -20 13 -36 33 -38 46 -3
21 -1 22 30 16 18 -4 52 -14 75 -21 23 -8 59 -15 80 -15 52 -1 177 23 194 38
8 6 32 19 55 27 58 24 87 80 67 131 -5 16 -8 16 -22 -3 -9 -11 -23 -22 -31
-23 -31 -5 -91 14 -101 32 -25 48 28 148 79 150 15 0 36 4 47 9 28 12 33 12
64 -4z m1559 5 c10 -6 10 -10 -3 -21 -18 -15 -42 0 -31 19 8 13 16 14 34 2z
m2872 -71 c0 -63 -29 -130 -56 -130 -15 0 -19 26 -5 34 4 3 11 25 14 48 10 67
27 119 38 113 5 -4 9 -33 9 -65z m-93 44 c7 -19 -13 -85 -41 -136 -15 -26 -28
-38 -43 -38 -26 0 -28 8 -9 35 7 11 19 45 26 75 8 30 18 61 23 68 13 17 36 15
44 -4z m1777 -57 c8 -12 8 -22 0 -34 -16 -26 -31 -26 -38 1 -12 49 14 71 38
33z m-5074 -37 c0 -5 -5 -10 -11 -10 -5 0 -7 5 -4 10 3 6 8 10 11 10 2 0 4 -4
4 -10z m113 -4 c7 -16 -1 -26 -20 -26 -7 0 -13 9 -13 20 0 23 25 27 33 6z
m1067 5 c0 -5 -6 -26 -13 -47 -8 -24 -10 -62 -7 -97 6 -60 0 -84 -18 -73 -12
7 -21 65 -12 71 4 3 5 36 2 74 -4 61 -2 70 14 74 31 8 34 7 34 -2z m3880 -53
c0 -25 -21 -88 -29 -88 -4 0 -16 9 -26 20 -21 23 -14 66 13 73 32 8 42 7 42
-5z m287 -10 c-3 -8 -6 -5 -6 6 -1 11 2 17 5 13 3 -3 4 -12 1 -19z m-4758 -26
c4 -93 -1 -323 -7 -347 -12 -41 -36 -43 -52 -4 -10 22 -11 39 -4 58 6 14 9 64
8 111 -1 75 3 103 32 198 5 18 23 6 23 -16z m108 -6 c-3 -18 -1 -38 5 -44 6
-6 7 -23 2 -44 -4 -18 -8 -37 -8 -42 -1 -5 -6 -11 -12 -13 -7 -2 -13 18 -16
54 -7 77 0 123 19 123 12 0 14 -8 10 -34z m2499 -33 c-10 -10 -19 5 -10 18 6
11 8 11 12 0 2 -7 1 -15 -2 -18z m-2706 -27 c0 -7 -7 -19 -15 -26 -10 -8 -13
-21 -9 -37 6 -23 -7 -42 -28 -43 -13 0 -9 30 6 58 8 15 17 35 20 45 6 20 26
23 26 3z m1610 -2 c0 -8 -4 -12 -10 -9 -5 3 -10 10 -10 16 0 5 5 9 10 9 6 0
10 -7 10 -16z m703 -26 c3 -18 4 -108 3 -200 -2 -147 -4 -170 -21 -188 -27
-30 -55 -26 -55 7 0 89 24 362 33 386 16 36 34 34 40 -5z m-1723 -18 c0 -10 5
-31 12 -45 9 -20 17 -25 35 -20 24 6 45 -17 58 -65 4 -14 14 -41 23 -60 l16
-35 11 60 c13 72 34 80 50 20 5 -22 16 -50 23 -62 6 -12 12 -49 12 -82 0 -33
5 -63 10 -66 15 -9 12 -55 -4 -61 -8 -3 -28 2 -44 10 -50 26 -182 157 -207
206 -23 46 -44 187 -31 209 12 18 36 12 36 -9z m1135 -43 c-21 -71 -24 -92
-11 -107 21 -23 -12 -110 -63 -165 -22 -24 -41 -51 -41 -58 0 -18 -47 -39 -71
-32 -11 4 -26 20 -34 36 -20 37 -27 36 -60 -3 -25 -30 -27 -37 -22 -102 8
-110 -35 -183 -120 -206 -27 -8 -64 -22 -83 -32 -19 -10 -43 -15 -54 -12 -44
14 -135 87 -152 122 -22 46 -22 124 0 157 24 36 20 53 -16 69 -31 13 -34 12
-51 -10 -26 -34 -49 -31 -45 5 1 16 -4 36 -11 45 -15 18 -28 156 -15 156 19 0
32 -16 44 -55 15 -47 47 -95 62 -95 6 0 20 8 31 17 18 17 19 17 33 -2 8 -10
14 -26 14 -34 1 -19 44 -71 60 -71 11 0 11 -1 15 83 3 60 30 132 46 122 5 -4
5 -14 -1 -26 -6 -11 -8 -24 -5 -29 4 -6 8 -48 9 -94 2 -46 6 -88 10 -95 24
-38 69 78 95 244 5 32 11 41 30 43 l24 4 -7 -101 c-4 -63 -3 -101 3 -101 19 0
60 61 66 98 4 20 10 47 16 60 5 13 9 38 9 57 0 51 8 67 31 55 15 -9 19 -24 21
-98 2 -50 7 -87 13 -86 20 1 64 78 58 102 -8 32 6 132 19 132 5 0 8 -7 4 -15
-3 -9 4 -25 15 -36 20 -20 20 -22 4 -70 -13 -39 -14 -53 -5 -64 33 -40 79 53
86 171 4 80 9 89 35 63 14 -14 19 -28 14 -42z m1313 -2 c12 -126 10 -140 -19
-143 -27 -3 -27 -3 -31 80 -3 64 -1 88 11 105 24 34 33 23 39 -42z m-2261 -9
c-7 -17 -37 -22 -37 -7 0 5 5 22 11 38 11 28 11 28 21 6 6 -12 8 -29 5 -37z
m-1367 1 c0 -18 -4 -39 -9 -46 -13 -20 -26 30 -17 64 9 34 26 22 26 -18z m89
-14 c0 -27 2 -61 6 -76 7 -25 5 -28 -11 -25 -25 4 -45 125 -23 139 25 16 30 9
28 -38z m2925 4 c33 -70 21 -214 -20 -244 -10 -7 -19 -12 -20 -10 -2 1 -5 61
-7 132 -6 166 9 205 47 122z m-2564 -24 c-1 -61 -23 -131 -33 -103 -26 73 -26
79 -4 120 12 22 25 40 30 40 4 0 7 -26 7 -57z m1940 42 c0 -8 -4 -15 -10 -15
-5 0 -10 7 -10 15 0 8 5 15 10 15 6 0 10 -7 10 -15z m-2184 -76 c5 -46 3 -57
-13 -72 -19 -16 -21 -16 -34 -1 -17 21 -14 85 7 125 20 40 31 27 40 -52z m124
9 c0 -19 -8 -22 -34 -12 -19 7 -21 50 -3 57 15 6 37 -21 37 -45z m770 33 c0
-6 -4 -13 -10 -16 -5 -3 -10 1 -10 9 0 9 5 16 10 16 6 0 10 -4 10 -9z m2399
-14 c5 -13 12 -48 16 -78 6 -45 4 -58 -10 -69 -15 -13 -20 -12 -36 9 -14 18
-18 32 -13 57 4 21 0 44 -10 65 -20 41 -21 39 14 39 23 0 33 -6 39 -23z m-343
-26 c3 -14 8 -33 10 -42 8 -29 -26 -99 -47 -99 -17 0 -19 8 -19 78 0 44 5 83
11 89 17 17 38 4 45 -26z m2184 23 c0 -19 -49 -91 -81 -120 -13 -11 -39 -27
-57 -34 -28 -11 -36 -11 -48 2 -13 12 -11 19 13 52 45 62 83 96 108 96 13 0
27 5 30 10 10 16 35 12 35 -6z m-4520 -38 c15 -29 9 -185 -9 -230 l-12 -30
-22 22 c-20 20 -22 33 -22 126 0 72 4 108 14 119 19 24 35 21 51 -7z m670 0
c0 -20 -19 -31 -32 -18 -6 6 -7 15 -4 21 10 16 36 13 36 -3z m-925 -36 c7 -31
-16 -66 -39 -57 -21 8 -21 46 0 76 18 25 29 19 39 -19z m2220 -65 c-3 -38 -7
-103 -8 -143 -2 -67 -5 -74 -35 -104 -25 -25 -34 -30 -44 -20 -9 9 -9 20 2 50
7 20 14 86 16 147 1 61 2 119 3 131 1 12 11 26 24 31 37 18 50 -9 42 -92z
m485 50 c0 -41 -5 -60 -20 -75 -30 -30 -50 -16 -50 35 0 64 14 95 45 95 24 0
25 -3 25 -55z m123 48 c7 -15 -8 -116 -18 -120 -12 -4 -36 91 -29 112 6 16 40
21 47 8z m-1628 -33 c3 -5 1 -10 -4 -10 -6 0 -11 5 -11 10 0 6 2 10 4 10 3 0
8 -4 11 -10z m-816 -29 c6 -10 13 -67 16 -125 4 -84 1 -115 -11 -144 l-15 -37
-20 24 c-16 20 -19 39 -19 127 0 56 4 105 8 108 5 3 7 19 4 36 -3 23 0 30 12
30 8 0 20 -8 25 -19z m671 -16 c0 -19 -20 -29 -32 -17 -15 15 -2 43 17 36 8
-3 15 -12 15 -19z m1017 -25 c2 -25 6 -84 9 -132 8 -111 0 -153 -32 -175 -22
-14 -27 -14 -35 -2 -12 20 -11 126 3 174 6 22 12 65 13 95 2 87 3 92 23 88 13
-2 18 -15 19 -48z m-2618 4 c14 -13 -33 -36 -75 -38 -75 -4 -173 -80 -267
-206 -73 -98 -120 -124 -239 -135 -69 -6 -81 -5 -117 16 -23 12 -41 28 -41 35
0 21 41 43 69 38 30 -6 128 38 149 68 7 10 19 18 26 18 6 0 43 26 80 58 97 81
118 92 281 150 27 9 123 6 134 -4z m1058 -17 c16 -20 18 -40 16 -128 -11 -513
-6 -655 24 -666 30 -12 34 21 28 212 -5 194 10 404 32 426 7 7 17 4 32 -8 22
-18 22 -22 22 -285 0 -209 -4 -275 -15 -302 -12 -30 -12 -37 0 -55 9 -12 24
-21 34 -21 19 0 21 4 36 77 2 12 10 28 18 35 11 11 11 14 0 23 -10 7 -16 53
-20 177 -6 176 0 208 36 208 32 0 44 -39 47 -155 1 -60 3 -126 4 -146 1 -20
-6 -49 -14 -66 -12 -23 -13 -33 -5 -41 7 -7 11 -29 10 -49 -4 -81 41 -83 67
-3 11 36 12 52 2 92 -18 68 -5 251 18 272 16 14 20 13 45 -13 28 -30 28 -30
16 -94 -14 -79 -7 -311 10 -332 7 -8 16 -15 20 -15 17 0 29 68 36 193 4 70 9
129 13 131 3 2 15 0 27 -4 30 -12 45 -75 42 -187 -2 -106 3 -123 32 -123 23 0
43 69 44 155 1 56 3 60 25 63 39 6 48 -18 43 -105 -4 -65 -1 -81 12 -92 15
-12 19 -12 32 1 12 12 16 41 18 116 1 83 5 104 20 121 24 26 53 27 60 3 4 -11
6 -72 5 -136 -2 -96 1 -120 14 -133 15 -15 16 -14 21 8 9 39 26 201 21 208 -2
4 5 33 16 66 10 32 19 69 19 82 0 29 27 73 46 73 14 0 30 -62 20 -78 -8 -14
-19 -327 -11 -351 8 -26 21 -27 34 -3 5 10 17 107 25 217 24 301 38 358 81
341 14 -5 15 -35 10 -254 -5 -208 -3 -251 9 -267 14 -19 16 -19 32 -3 19 18
20 41 29 396 4 184 19 263 55 282 10 6 21 7 23 3 3 -5 6 -73 7 -153 4 -196 4
-216 -4 -360 -7 -130 0 -164 27 -142 23 19 39 89 31 138 -5 38 -4 43 9 38 25
-9 67 -70 67 -98 0 -41 18 -76 39 -76 11 0 33 14 50 30 25 26 34 29 50 20 32
-17 69 -12 76 10 3 11 14 20 24 20 10 0 22 9 27 21 l9 20 28 -21 c26 -21 29
-21 47 -5 15 14 19 37 24 138 10 222 25 297 58 284 20 -7 28 -73 21 -182 -5
-87 5 -160 22 -160 17 0 37 95 40 200 5 124 13 164 39 179 25 16 49 -19 40
-59 -4 -16 -7 -83 -7 -149 0 -89 3 -120 14 -126 21 -13 39 8 39 47 0 44 26 55
52 23 29 -35 33 -67 12 -96 -11 -14 -26 -38 -34 -53 -42 -75 -307 -347 -395
-406 -27 -19 -63 -47 -79 -64 -17 -17 -36 -31 -44 -31 -21 0 -129 -68 -149
-94 -14 -17 -32 -24 -80 -29 l-61 -7 -75 70 c-41 39 -78 70 -82 70 -4 0 -44
22 -89 50 -63 38 -107 56 -197 79 -109 29 -121 30 -210 21 -147 -15 -261 -39
-283 -61 -6 -5 -18 -9 -27 -9 -9 0 -23 -7 -30 -17 -8 -9 -31 -24 -52 -33 -40
-18 -121 -90 -163 -146 -36 -46 -80 -47 -149 -1 -90 59 -119 81 -182 139 -34
31 -71 59 -81 62 -11 4 -38 33 -60 64 -22 32 -70 83 -106 113 -36 30 -66 60
-66 68 0 7 -25 36 -56 65 -31 28 -62 63 -70 78 -8 16 -21 28 -28 28 -20 0 -60
58 -74 107 -12 39 -11 44 17 85 15 24 32 53 35 66 4 12 11 22 16 22 10 0 30
-64 30 -96 0 -27 29 -40 47 -21 7 7 13 26 13 43 -5 235 13 306 54 213 16 -35
17 -57 11 -162 -9 -157 2 -193 65 -203 31 -5 44 -13 56 -35 15 -30 54 -55 98
-63 15 -3 40 -19 55 -35 31 -33 50 -38 68 -20 13 13 53 3 53 -13 0 -18 32 -48
50 -48 25 0 62 112 41 125 -15 9 -22 74 -11 95 10 18 17 178 17 365 0 84 0 88
6 145 3 25 6 55 6 68 1 28 15 28 38 -1z m2698 -39 c41 -23 75 -46 75 -50 0 -4
7 -8 15 -8 8 0 15 -4 15 -8 0 -14 138 -150 178 -177 21 -14 54 -39 74 -57 34
-28 40 -30 62 -19 28 16 46 8 46 -20 0 -18 -6 -19 -100 -14 -119 6 -138 16
-286 147 -29 26 -72 57 -96 69 -23 12 -48 28 -56 35 -8 8 -28 22 -45 30 -36
18 -87 63 -87 76 0 14 61 37 97 38 21 0 62 -16 108 -42z m-3478 -4 c-3 -3 -12
-4 -19 -1 -8 3 -5 6 6 6 11 1 17 -2 13 -5z m2216 -1 c3 -5 8 -74 11 -155 l6
-147 -27 -25 c-33 -31 -40 -32 -48 -6 -10 30 -4 210 8 250 24 85 37 105 50 83z
m767 -38 c0 -8 -4 -15 -10 -15 -5 0 -10 7 -10 15 0 8 5 15 10 15 6 0 10 -7 10
-15z m-2636 -31 c21 -21 20 -34 -3 -34 -20 0 -35 25 -25 41 7 12 10 12 28 -7z
m-246 -40 c-4 -23 -26 -30 -34 -10 -8 20 15 51 29 37 5 -5 7 -17 5 -27z m-458
-23 c0 -4 -18 -22 -39 -39 -22 -18 -43 -42 -47 -54 -3 -13 -14 -34 -24 -48
-20 -30 -49 -121 -52 -169 -2 -19 -9 -37 -17 -39 -11 -4 -12 3 -7 32 5 23 3
43 -4 51 -8 10 -7 21 4 43 10 20 12 32 4 40 -7 7 -4 26 10 64 17 46 24 53 45
51 19 -1 28 5 37 27 20 48 48 72 70 60 11 -6 20 -14 20 -19z m281 1 c32 -34
41 -85 22 -136 -20 -57 -54 -98 -122 -145 -33 -22 -93 -72 -133 -111 -40 -38
-76 -70 -79 -70 -4 0 -9 -9 -12 -20 -3 -11 -10 -20 -16 -20 -13 0 -25 45 -16
60 4 6 -1 20 -11 31 -16 18 -16 24 -5 52 7 18 14 54 17 81 2 27 11 57 19 66 8
9 15 24 15 32 0 23 139 163 185 187 58 29 104 27 136 -7z m3402 -3 c12 -7 50
-36 84 -65 33 -30 66 -54 72 -54 6 0 14 -12 17 -27 4 -16 26 -50 49 -78 82
-97 123 -212 106 -298 -5 -27 -14 -54 -19 -59 -16 -16 -58 15 -81 61 -23 44
-95 96 -156 112 -48 13 -55 16 -75 28 -8 5 -31 16 -50 25 -19 9 -42 20 -50 25
-8 5 -32 17 -52 26 -21 8 -60 38 -88 64 -49 47 -51 51 -44 88 8 45 27 84 49
103 12 10 24 11 54 1 21 -6 46 -11 56 -11 9 0 38 -17 64 -39 52 -43 90 -65 98
-57 10 10 -28 83 -58 112 -46 44 -31 71 24 43z m-2886 -91 c-3 -7 -5 -2 -5 12
0 14 2 19 5 13 2 -7 2 -19 0 -25z m2073 -8 c-11 -20 -30 -28 -30 -12 0 11 22
32 32 32 5 0 4 -9 -2 -20z m-2053 -52 c-3 -8 -6 -5 -6 6 -1 11 2 17 5 13 3 -3
4 -12 1 -19z m1989 -25 c-10 -10 -19 5 -10 18 6 11 8 11 12 0 2 -7 1 -15 -2
-18z m-1936 -9 c10 -26 6 -44 -10 -44 -10 0 -30 56 -23 64 12 12 24 5 33 -20z
m120 -29 c0 -14 -3 -25 -7 -25 -5 0 -8 11 -8 25 0 14 3 25 8 25 4 0 7 -11 7
-25z m1776 -47 c-4 -18 -15 -50 -26 -71 -11 -21 -20 -44 -20 -53 0 -8 -4 -12
-10 -9 -12 8 -13 52 -1 59 4 3 11 24 15 47 8 51 13 59 33 59 12 0 14 -7 9 -32z
m-1792 -61 c-3 -9 -10 -17 -15 -17 -11 0 -12 34 -2 44 11 11 24 -9 17 -27z
m1827 -24 c-12 -20 -14 -14 -5 12 4 9 9 14 11 11 3 -2 0 -13 -6 -23z m-2931
-153 c0 -5 -4 -10 -10 -10 -5 0 -10 5 -10 10 0 6 5 10 10 10 6 0 10 -4 10 -10z
m363 -77 c69 -151 97 -217 97 -229 0 -19 -17 -26 -37 -16 -11 7 -30 4 -62 -10
-32 -13 -62 -18 -105 -16 -58 3 -61 4 -59 28 2 14 5 61 7 106 5 84 31 151 78
201 19 20 23 21 38 8 9 -8 28 -41 43 -72z m215 -84 c-2 -6 -8 -10 -13 -10 -5
0 -11 4 -13 10 -2 6 4 11 13 11 9 0 15 -5 13 -11z m2832 -75 c0 -8 -5 -12 -10
-9 -6 4 -8 11 -5 16 9 14 15 11 15 -7z m-112 -51 c16 -33 13 -80 -8 -104 -17
-21 -21 -22 -30 -9 -11 15 -7 101 5 120 9 15 23 12 33 -7z m-2585 -20 c16 -32
12 -60 -11 -86 -16 -18 -17 -17 -24 15 -6 29 6 98 18 98 2 0 10 -12 17 -27z
m127 -93 c0 -5 -4 -10 -10 -10 -5 0 -10 5 -10 10 0 6 5 10 10 10 6 0 10 -4 10
-10z m1236 -45 c3 -14 4 -37 1 -52 -3 -14 -1 -57 4 -96 9 -75 2 -97 -32 -97
-16 0 -18 10 -17 118 1 113 8 152 28 152 5 0 12 -11 16 -25z m-1886 5 c0 -5
-12 -10 -26 -10 -14 0 -23 4 -19 10 3 6 15 10 26 10 10 0 19 -4 19 -10z m111
-12 c-29 -13 -47 -16 -53 -10 -19 19 3 32 50 31 l47 -1 -44 -20z m1654 -85
c-2 -117 -11 -166 -29 -160 -6 2 -12 21 -12 43 -1 21 -2 42 -4 47 -1 7 -2 131
-1 162 1 9 11 15 24 15 24 0 24 -1 22 -107z m-122 36 c0 -13 -2 -60 -3 -104
-3 -85 -12 -115 -35 -115 -20 0 -28 40 -20 97 3 27 6 71 6 98 -1 72 4 81 32
62 13 -9 21 -24 20 -38z m-983 -24 c0 -8 -4 -17 -10 -20 -6 -4 -10 5 -10 20 0
15 4 24 10 20 6 -3 10 -12 10 -20z m830 1 c0 -24 -16 -43 -27 -32 -8 8 6 56
17 56 6 0 10 -11 10 -24z m1769 -22 c13 -11 12 -14 -1 -19 -33 -13 -73 -1 -76
22 -3 21 0 22 30 17 18 -4 39 -13 47 -20z m-411 -53 c3 -59 -11 -89 -34 -70
-17 14 -19 100 -2 117 22 22 33 7 36 -47z m-2040 11 c2 -14 -2 -22 -12 -22
-19 0 -28 14 -20 35 9 21 28 14 32 -13z m1237 -67 c0 -41 -3 -75 -7 -75 -5 0
-8 7 -8 15 0 8 -7 15 -15 15 -21 0 -20 63 1 95 9 14 19 25 23 25 3 0 6 -34 6
-75z m123 62 c14 -16 4 -57 -13 -57 -7 0 -16 11 -19 25 -10 40 10 59 32 32z
m-664 -6 c5 -8 10 -98 7 -127 -1 -15 -40 -54 -53 -54 -14 0 -3 157 13 176 13
16 25 18 33 5z m2052 -2 c3 -6 2 -15 -4 -21 -12 -12 -55 8 -47 23 8 12 42 12
51 -2z m-846 -29 c0 -33 -24 -50 -42 -32 -8 8 -8 18 0 37 16 36 42 33 42 -5z
m-1342 -111 c-8 -80 -12 -98 -23 -87 -9 9 -18 165 -11 183 6 16 8 16 24 2 16
-15 17 -26 10 -98z m1212 62 c15 -30 13 -144 -4 -167 -41 -54 -62 70 -30 174
5 18 22 15 34 -7z m-135 -146 c0 -122 -2 -139 -18 -149 -30 -18 -50 18 -42 79
3 28 6 59 6 70 1 20 17 109 25 133 2 8 10 12 17 9 9 -3 12 -40 12 -142z
m-1645 120 c0 -8 -4 -15 -10 -15 -5 0 -10 7 -10 15 0 8 5 15 10 15 6 0 10 -7
10 -15z m306 -47 c4 -7 7 -27 6 -46 -2 -18 3 -49 9 -67 10 -27 10 -39 -3 -66
l-16 -32 -26 26 c-25 25 -26 30 -20 99 3 40 7 79 10 86 4 15 31 16 40 0z m138
-49 c8 -39 8 -99 0 -99 -21 0 -62 109 -46 125 16 16 40 2 46 -26z m-304 -11
c0 -30 -1 -31 -16 -16 -9 9 -14 24 -11 32 11 27 27 17 27 -16z m1360 -54 c0
-8 -7 -14 -15 -14 -15 0 -21 21 -9 33 10 9 24 -2 24 -19z m-624 -7 c13 -13
-27 -180 -54 -225 -29 -51 -107 -116 -170 -143 -52 -23 -107 -17 -154 15 -41
27 -45 42 -14 50 13 3 28 16 33 28 34 91 181 249 253 272 39 13 95 14 106 3z
m333 -9 c61 -37 148 -138 173 -201 23 -57 52 -97 85 -116 17 -9 17 -11 0 -28
-13 -13 -32 -18 -70 -17 -53 1 -147 29 -147 45 0 5 -14 16 -31 24 -57 30 -121
208 -98 274 6 16 18 32 27 34 9 3 19 5 21 6 2 0 20 -9 40 -21z m-960 -261 c22
-46 53 -96 68 -112 40 -40 122 -74 211 -86 42 -6 84 -15 94 -20 52 -28 249 83
283 159 53 119 71 144 103 140 26 -3 53 -40 65 -88 3 -14 31 -56 62 -93 48
-58 68 -73 132 -103 83 -37 130 -42 204 -20 56 17 196 114 205 141 4 11 12 27
19 35 7 8 16 26 20 40 17 57 59 75 103 44 28 -19 28 -48 1 -99 -30 -56 -127
-165 -148 -165 -9 0 -27 -7 -39 -16 -12 -8 -42 -17 -66 -19 -103 -8 -115 -51
-21 -73 128 -30 138 -35 207 -103 55 -54 69 -74 74 -108 7 -47 15 -55 44 -46
21 7 46 77 35 96 -11 17 -13 119 -2 126 5 3 29 7 53 8 52 2 80 21 62 42 -20
24 -47 34 -106 39 -31 2 -60 10 -64 16 -11 16 1 149 14 165 6 7 8 24 4 37 -4
16 1 32 13 47 l19 23 55 -27 c60 -29 107 -80 152 -162 16 -27 37 -66 47 -85
17 -30 19 -49 15 -138 -3 -56 -9 -108 -15 -115 -5 -6 -17 -36 -27 -66 -19 -58
-73 -118 -133 -146 -17 -9 -42 -29 -54 -45 -11 -16 -35 -34 -51 -40 -38 -13
-114 -13 -122 0 -3 5 1 37 9 69 17 68 12 95 -33 174 -65 115 -175 170 -319
161 -124 -8 -187 -46 -252 -154 -76 -124 -79 -136 -69 -235 7 -68 13 -91 28
-101 10 -8 22 -29 25 -47 4 -19 15 -45 26 -57 11 -13 20 -27 20 -31 0 -10 87
-69 102 -69 6 0 19 -6 27 -14 9 -7 39 -21 67 -30 73 -24 89 -37 75 -64 -22
-42 -100 -40 -147 3 -15 14 -35 25 -45 25 -10 0 -44 16 -77 34 -52 31 -63 43
-95 108 -29 58 -37 85 -36 128 0 88 -1 93 -18 112 -9 11 -18 42 -21 74 -4 49
-7 55 -26 52 -19 -3 -21 -9 -22 -88 -2 -109 -18 -188 -54 -259 -31 -59 -112
-151 -134 -151 -7 0 -25 -11 -40 -25 -15 -14 -39 -28 -54 -31 -15 -4 -32 -11
-38 -15 -6 -5 -34 -13 -62 -20 -78 -16 -68 -51 20 -63 31 -5 67 -1 110 10 35
9 73 17 85 19 12 1 38 12 58 24 21 12 40 20 43 17 9 -10 -63 -118 -121 -178
-73 -77 -85 -98 -58 -98 22 0 98 36 107 51 3 5 13 9 22 9 9 0 30 13 47 28 16
16 42 34 58 40 25 11 30 9 65 -29 20 -23 46 -49 56 -58 10 -9 27 -24 38 -34
10 -9 28 -17 39 -17 33 0 19 43 -40 132 -46 69 -51 81 -51 132 0 50 2 55 18
47 30 -15 86 -33 127 -41 22 -4 52 -12 66 -18 39 -16 175 -18 193 -3 8 7 24
10 34 6 25 -7 33 -64 15 -105 -7 -17 -10 -37 -7 -45 4 -10 0 -15 -15 -15 -12
0 -21 -4 -21 -9 0 -5 -21 -31 -47 -58 -27 -26 -53 -61 -59 -78 -6 -16 -19 -32
-30 -33 -10 -2 -30 -14 -44 -26 -39 -34 -87 -57 -104 -50 -9 3 -27 -1 -41 -10
-13 -9 -40 -16 -59 -16 -19 0 -46 -4 -60 -10 -18 -6 -58 -3 -138 12 -113 20
-127 25 -184 56 -48 27 -164 143 -186 187 -11 22 -25 46 -31 54 -20 24 -39 85
-47 151 -5 36 -11 77 -15 93 -6 24 -4 27 18 27 14 0 37 -4 50 -9 19 -7 38 -5
74 9 70 27 113 50 113 61 0 5 10 9 23 9 14 0 49 25 94 69 62 59 73 74 79 112
4 24 11 49 16 56 12 15 20 211 9 218 -5 3 -19 26 -31 51 -22 45 -84 114 -103
114 -5 0 -15 7 -21 15 -6 9 -35 22 -65 30 -110 29 -259 -8 -322 -80 -86 -98
-102 -152 -69 -234 16 -41 18 -56 9 -67 -16 -20 -63 -17 -109 6 -22 11 -46 20
-54 20 -62 0 -175 101 -225 200 -53 105 -64 160 -58 271 5 88 9 110 37 163 58
111 194 221 292 235 4 1 25 -36 47 -82z m-561 -326 l34 -29 -21 -41 c-20 -39
-24 -41 -65 -41 -48 0 -60 10 -69 57 -8 41 0 62 27 73 36 15 60 10 94 -19z
m2767 -31 c19 -21 15 -57 -11 -97 -11 -18 -24 -23 -54 -23 -34 0 -41 4 -46 25
-8 31 3 75 23 98 21 23 66 22 88 -3z m-1746 -228 c89 -67 101 -90 101 -188 0
-85 -17 -153 -48 -187 -39 -44 -126 -91 -172 -93 -42 -2 -145 21 -164 37 -18
16 4 60 38 74 37 16 50 30 61 64 6 19 1 30 -26 57 -69 67 -84 94 -83 151 2 76
19 92 129 118 62 15 117 4 164 -33z m813 28 c18 -11 41 -20 50 -20 10 0 31
-19 48 -42 63 -86 21 -209 -83 -243 -22 -7 -33 -17 -35 -33 -5 -32 12 -48 63
-61 25 -6 45 -16 45 -21 0 -34 -125 -62 -182 -40 -75 28 -142 67 -163 95 -30
39 -55 115 -55 166 0 81 71 169 162 200 69 24 110 24 150 -1z m-472 -600 c-11
-20 -30 -28 -30 -12 0 11 22 32 32 32 5 0 4 -9 -2 -20z m-194 -797 c-5 -12
-10 -13 -17 -6 -8 8 -7 18 2 34 12 21 14 22 17 6 2 -10 1 -25 -2 -34z m129
-73 c3 -5 15 -10 25 -10 21 0 34 -31 25 -60 -5 -16 -10 -18 -25 -10 -10 6 -35
10 -55 10 -48 0 -58 25 -21 57 30 25 42 28 51 13z"/>
<path d="M3990 5970 c-8 -5 -25 -10 -37 -10 -12 0 -24 -4 -27 -9 -8 -13 36
-90 56 -96 9 -3 45 6 79 20 37 15 82 25 111 25 69 0 62 35 -15 68 -33 14 -146
16 -167 2z"/>
<path d="M4534 5919 c-11 -12 -18 -36 -19 -57 0 -34 -2 -37 -29 -37 -47 -1
-76 -44 -76 -114 0 -54 3 -63 45 -117 25 -31 45 -61 45 -65 0 -4 23 -22 52
-39 48 -30 57 -32 120 -28 51 4 68 2 72 -8 15 -38 96 2 125 61 27 54 23 70
-28 123 -34 35 -48 41 -110 53 -39 7 -76 18 -82 26 -6 7 -20 13 -30 13 -10 0
-25 12 -33 28 -12 24 -12 31 1 56 12 24 19 27 46 23 38 -5 77 17 77 45 0 13
-14 25 -42 38 -57 26 -110 26 -134 -1z m116 -349 c0 -5 -4 -10 -9 -10 -6 0
-13 5 -16 10 -3 6 1 10 9 10 9 0 16 -4 16 -10z"/>
<path d="M4221 5826 c-19 -65 -32 -79 -72 -78 -44 2 -165 -23 -243 -49 -54
-19 -67 -20 -113 -8 -61 14 -83 4 -83 -40 0 -39 65 -100 116 -108 21 -3 48
-13 59 -23 41 -35 93 -60 125 -60 20 0 56 14 92 36 46 28 65 47 79 79 10 23
26 49 35 56 32 26 64 89 65 126 2 39 -24 113 -38 113 -5 0 -15 -20 -22 -44z"/>
<path d="M4406 5260 c-28 -26 -53 -40 -70 -40 -31 0 -76 21 -95 44 -22 26 -76
20 -111 -11 -28 -26 -30 -31 -21 -62 6 -19 18 -42 26 -51 15 -17 19 -17 55 -3
37 15 42 14 94 -7 52 -21 96 -21 96 1 0 5 13 9 28 9 15 0 33 5 40 12 6 6 28
12 49 12 31 2 41 7 56 34 24 40 16 74 -18 90 -48 22 -82 15 -129 -28z"/>
<path d="M4506 5107 c-5 -23 -13 -26 -64 -33 -31 -3 -74 -13 -95 -21 -39 -16
-58 -15 -150 11 -76 21 -90 20 -124 -7 -15 -12 -41 -28 -56 -35 -21 -9 -27
-18 -25 -34 3 -24 15 -31 78 -48 87 -24 99 -31 110 -66 8 -22 27 -45 56 -65
56 -38 59 -68 9 -99 -56 -35 -46 -47 41 -49 90 -2 106 7 93 51 -4 17 -5 36 -2
42 19 31 119 136 135 142 10 3 18 11 18 19 0 17 37 41 78 49 17 4 36 15 41 24
13 23 -21 68 -56 76 -16 4 -40 21 -54 38 l-26 31 -7 -26z m-53 -181 c3 -7 0
-19 -6 -25 -15 -15 -57 -14 -57 2 0 32 52 51 63 23z"/>
<path d="M7260 4385 c0 -8 6 -15 14 -15 8 0 38 -17 67 -37 43 -29 62 -36 94
-34 53 3 72 21 22 21 -25 0 -61 13 -108 40 -78 44 -89 47 -89 25z"/>
<path d="M3513 2313 c-4 -9 1 -38 10 -64 23 -63 22 -89 -2 -89 -11 0 -23 -4
-26 -10 -3 -5 -24 -14 -45 -20 -40 -11 -67 -41 -54 -61 3 -6 29 -9 56 -7 63 4
79 -13 60 -65 -18 -49 -15 -108 8 -144 24 -40 38 -42 46 -5 18 83 38 123 85
171 44 45 58 53 127 70 42 11 91 21 107 23 31 3 38 17 14 29 -8 4 -54 15 -104
24 -49 9 -91 21 -93 26 -2 5 -21 18 -42 30 -21 12 -54 41 -74 65 -39 46 -62
55 -73 27z"/>
<path d="M4335 2261 c-20 -27 -56 -65 -80 -86 -27 -22 -45 -45 -45 -57 0 -13
24 -44 62 -79 34 -32 69 -73 78 -91 19 -42 40 -42 60 -1 15 32 69 94 108 125
31 25 27 49 -13 81 -20 16 -54 57 -77 93 -23 35 -45 64 -50 64 -4 0 -24 -22
-43 -49z m65 -123 c0 -23 -16 -39 -33 -32 -17 6 -22 25 -10 37 11 12 43 8 43
-5z"/>
<path d="M8070 4760 c0 -5 7 -10 15 -10 8 0 15 5 15 10 0 6 -7 10 -15 10 -8 0
-15 -4 -15 -10z"/>
<path d="M8136 4572 c-9 -18 -16 -38 -14 -44 6 -17 40 41 36 60 -3 13 -9 8
-22 -16z"/>
</g>
</svg>
