<?xml version="1.0" standalone="no"?>
<!DOCTYPE svg PUBLIC "-//W3C//DTD SVG 20010904//EN"
 "http://www.w3.org/TR/2001/REC-SVG-20010904/DTD/svg10.dtd">
<svg version="1.0" xmlns="http://www.w3.org/2000/svg"
 width="852.000000pt" height="557.000000pt" viewBox="0 0 852.000000 557.000000"
 preserveAspectRatio="xMidYMid meet">

<g transform="translate(0.000000,557.000000) scale(0.100000,-0.100000)"
fill="#000000" stroke="none">
<path d="M6947 5423 c-5 -4 -124 -9 -265 -11 -142 -1 -282 -3 -312 -4 -30 -1
-64 0 -75 2 -11 1 -101 -1 -200 -5 -597 -23 -595 -23 -917 -24 -275 -1 -300
-2 -349 -21 -51 -21 -54 -21 -167 -4 -116 16 -232 16 -557 -3 -66 -4 -151 -7
-190 -7 -152 1 -382 3 -410 4 -16 0 -194 2 -395 4 -201 3 -491 8 -645 12 -154
4 -296 7 -315 6 -19 0 -87 0 -150 0 -121 0 -514 -3 -565 -5 -16 0 -102 3 -190
7 -302 14 -360 16 -540 20 -99 3 -185 6 -190 7 -22 7 -83 -13 -100 -31 -10
-11 -43 -28 -73 -36 -30 -9 -70 -30 -91 -49 -20 -18 -46 -35 -57 -39 -12 -4
-34 -24 -49 -46 -23 -34 -26 -45 -19 -77 4 -21 9 -46 10 -56 3 -36 27 -47 107
-49 42 -2 77 -4 77 -6 0 -6 -54 -77 -77 -101 -12 -12 -25 -33 -29 -44 -4 -12
-14 -27 -23 -34 -27 -20 -22 -199 8 -292 22 -67 88 -180 146 -250 22 -26 167
-97 218 -106 70 -13 137 41 137 110 0 15 -13 57 -30 95 -25 58 -30 81 -30 152
0 99 20 146 89 205 l44 37 -7 -49 c-12 -79 -7 -166 13 -210 10 -22 22 -47 25
-55 44 -99 113 -175 218 -239 34 -20 49 -22 140 -20 101 3 141 13 241 59 21
10 30 11 39 2 9 -9 3 -25 -24 -64 -72 -107 -93 -176 -85 -283 7 -89 31 -149
92 -220 57 -66 106 -88 190 -83 l60 3 -2 -81 c-1 -76 0 -82 22 -92 13 -6 26
-23 30 -40 8 -38 56 -83 124 -117 42 -21 73 -28 145 -32 81 -5 95 -3 126 16
43 26 68 27 77 4 15 -40 57 -82 111 -111 101 -53 236 -52 334 4 24 13 48 26
54 29 6 4 25 -8 42 -25 32 -32 49 -85 34 -108 -14 -21 -295 -43 -355 -27 -37
10 -68 -12 -92 -64 -15 -33 -25 -43 -56 -51 -29 -8 -46 -22 -70 -56 -29 -43
-32 -45 -49 -29 -27 24 -40 10 -40 -40 0 -37 8 -57 45 -111 64 -93 93 -115
167 -123 45 -6 66 -13 79 -29 9 -12 28 -25 40 -30 27 -9 144 -8 354 3 135 7
141 7 159 -14 17 -19 18 -31 13 -120 -4 -55 -16 -128 -27 -163 -11 -34 -20
-75 -20 -89 0 -14 -9 -52 -20 -84 -11 -32 -20 -68 -20 -81 0 -14 -21 -46 -54
-81 -29 -32 -79 -96 -111 -143 -55 -83 -57 -86 -53 -143 2 -31 9 -62 15 -68 6
-6 31 -13 55 -16 48 -6 107 11 188 52 27 14 54 25 60 25 6 0 34 16 63 35 76
51 82 49 96 -43 21 -132 33 -189 49 -218 6 -11 9 -29 6 -40 -3 -11 6 -35 20
-57 14 -21 26 -43 26 -48 0 -26 -37 -70 -65 -77 -32 -9 -44 -34 -25 -57 10
-11 17 -12 33 -3 12 6 38 10 59 10 26 -1 45 5 66 23 17 14 46 32 64 40 41 16
57 34 67 71 9 35 35 53 58 38 17 -11 47 -90 57 -155 7 -42 15 -59 54 -121 28
-43 24 -78 -10 -106 -11 -9 -36 -30 -55 -46 -22 -19 -46 -30 -69 -30 -60 -3
-71 -56 -28 -136 29 -53 49 -66 109 -73 40 -4 152 12 190 28 11 4 40 16 64 26
24 10 47 17 51 14 4 -2 11 -57 14 -122 4 -65 14 -129 21 -143 7 -14 23 -52 36
-85 24 -64 58 -109 99 -128 14 -7 30 -27 35 -44 6 -18 21 -44 35 -58 21 -23
31 -25 100 -25 63 0 80 4 98 20 12 12 22 25 22 30 0 5 20 40 45 77 25 37 45
72 45 79 0 7 25 41 55 76 73 83 83 117 61 208 -15 64 -15 73 -1 100 19 36 19
36 44 8 17 -17 23 -19 36 -8 13 11 15 7 15 -28 0 -39 1 -40 58 -63 47 -20 75
-24 159 -24 l102 0 55 54 c33 33 61 71 71 100 10 25 29 66 42 90 22 37 23 45
11 57 -21 21 -44 8 -73 -42 -22 -37 -31 -44 -57 -44 -34 0 -87 48 -132 118
-31 49 -55 68 -92 76 -23 5 -44 23 -73 62 -47 63 -51 84 -17 84 16 0 43 -18
76 -50 28 -27 58 -50 65 -50 28 0 45 45 48 132 3 58 9 93 21 109 10 16 16 44
16 85 0 45 5 68 18 84 l19 23 16 -24 c9 -13 20 -45 23 -71 9 -63 36 -88 97
-90 64 -1 86 17 129 103 68 138 78 166 86 233 5 36 13 71 19 77 12 12 135 -48
202 -98 24 -18 52 -33 63 -33 10 0 36 -9 58 -20 48 -25 83 -25 122 -2 45 26
70 74 75 146 5 62 5 64 -26 87 -18 13 -46 46 -63 74 -17 27 -39 56 -49 63 -11
7 -19 19 -19 25 0 7 -7 26 -16 42 -51 98 -123 418 -110 490 10 53 21 57 148
50 91 -6 119 -11 142 -28 l30 -20 14 21 c8 12 22 22 31 22 27 0 81 39 81 58 0
30 21 42 73 42 79 0 135 19 162 54 42 55 49 134 16 170 -12 12 -21 31 -21 42
0 27 -11 40 -40 49 -14 4 -29 14 -35 22 -6 7 -30 20 -55 27 -37 11 -46 18 -52
44 -5 17 -17 36 -28 42 -45 24 -149 50 -202 50 -67 0 -83 18 -75 79 8 57 48
161 63 161 7 0 15 -18 19 -39 5 -31 19 -52 65 -95 32 -31 67 -56 78 -56 11 0
46 -14 78 -31 58 -31 61 -31 163 -26 94 6 108 9 158 39 69 41 114 93 131 149
7 24 19 53 27 63 14 18 16 18 74 -8 51 -23 68 -26 113 -20 79 11 131 38 162
84 14 22 31 40 36 40 17 0 61 80 75 134 7 28 15 80 19 116 6 59 4 70 -24 125
-19 38 -28 68 -24 79 4 9 30 28 58 41 81 38 133 92 156 165 11 35 20 82 20
105 0 83 16 91 97 50 63 -32 154 -55 219 -55 59 0 102 27 131 83 8 17 33 53
54 80 22 27 39 54 39 60 0 6 10 31 22 56 17 34 22 68 26 150 3 81 8 109 20
119 60 47 133 -47 148 -191 5 -47 3 -71 -9 -93 -24 -46 -38 -140 -26 -172 13
-34 57 -71 85 -72 25 0 157 44 199 67 77 41 158 150 187 251 19 64 25 94 46
238 5 34 18 75 27 92 25 42 14 65 -28 60 -17 -3 -39 -8 -47 -12 -12 -5 -29 12
-65 61 -74 100 -105 147 -105 157 0 4 19 5 43 1 84 -14 167 -9 195 12 24 18
27 28 30 87 2 45 -2 78 -14 104 -52 119 -11 111 -594 106 -267 -2 -494 -3
-505 -3 -11 1 -92 3 -180 5 -88 2 -174 7 -190 10 -17 3 -34 2 -38 -3z m795
-103 c64 -6 131 -6 200 0 115 11 220 4 258 -16 14 -8 37 -18 53 -24 15 -5 27
-13 27 -17 0 -15 -99 -44 -117 -35 -15 8 -188 16 -253 13 -12 -1 -755 -9
-1095 -12 -49 -1 -178 -1 -285 -1 -107 1 -283 -1 -390 -3 -107 -2 -422 -7
-700 -10 -278 -3 -541 -8 -585 -10 -398 -17 -2334 -21 -2840 -5 -214 7 -401
13 -415 12 -14 0 -56 0 -95 -1 -233 -3 -1062 24 -1074 35 -9 8 50 53 84 64 44
14 301 18 500 6 122 -7 556 -12 670 -8 22 1 159 -1 305 -3 740 -12 1894 -20
2260 -17 159 2 279 -2 300 -8 19 -5 53 -10 76 -10 22 0 44 -3 48 -7 4 -5 38
-13 74 -19 66 -12 68 -12 109 17 38 27 49 29 128 29 47 0 106 5 131 11 33 9
72 8 157 -1 136 -15 506 -16 602 -2 58 9 163 11 410 11 321 0 675 10 691 20
23 14 613 7 766 -9z m-5438 -227 c21 -19 48 -33 62 -33 14 0 40 -11 57 -24 18
-14 45 -28 60 -32 17 -4 41 -23 58 -47 17 -23 41 -48 54 -57 33 -22 65 -65 65
-88 0 -14 9 -21 31 -26 56 -11 179 -155 179 -209 0 -15 -3 -27 -7 -27 -5 0
-33 18 -63 40 -30 22 -69 47 -86 54 -16 8 -49 33 -72 55 -23 23 -49 41 -57 41
-9 0 -33 11 -55 25 -22 14 -43 25 -47 24 -23 -4 -35 5 -58 42 -27 42 -52 48
-47 11 4 -28 -15 -28 -39 -1 -10 11 -26 19 -36 17 -10 -3 -36 10 -60 29 -23
18 -44 33 -47 33 -11 0 -6 -30 8 -58 28 -55 28 -68 1 -80 -42 -19 -70 -14 -92
17 -13 16 -35 31 -53 35 -17 3 -46 12 -63 20 -46 21 -251 77 -322 88 -167 27
-280 18 -345 -27 -19 -13 -50 -28 -68 -31 -36 -7 -84 -59 -123 -134 -19 -37
-23 -59 -22 -120 1 -97 26 -155 87 -206 54 -45 58 -59 14 -50 -18 4 -54 10
-79 14 -49 9 -112 54 -183 132 -49 54 -58 81 -58 166 1 104 17 152 66 199 58
55 122 105 135 105 6 0 33 14 61 31 36 22 70 33 121 40 39 5 87 13 108 19 25
6 57 6 101 -2 36 -6 93 -10 126 -9 44 2 66 -2 77 -13 9 -9 33 -16 54 -16 21 0
47 -6 58 -14 11 -7 43 -21 71 -30 29 -9 65 -31 84 -51 19 -19 39 -35 45 -35
11 0 45 51 45 69 0 5 -11 22 -25 37 -39 42 -30 66 30 82 52 14 142 27 186 27
15 0 41 -14 63 -32z m3540 21 c22 -9 21 -44 -2 -44 -21 0 -42 18 -42 37 0 14
18 17 44 7z m1421 -12 c129 -12 207 -48 300 -137 65 -62 74 -76 84 -123 6 -29
11 -98 11 -152 0 -82 -4 -111 -26 -169 -53 -143 -178 -215 -304 -177 -40 12
-45 17 -48 46 l-3 33 39 -7 c35 -5 45 -2 85 29 35 27 49 46 58 78 6 23 18 64
26 90 8 27 13 60 10 75 -15 81 -37 136 -68 169 -42 44 -147 113 -171 113 -10
0 -29 7 -42 15 -13 9 -52 20 -86 26 -85 14 -281 19 -302 8 -10 -5 -39 -14 -65
-19 -27 -5 -58 -12 -70 -16 -19 -5 -23 -2 -23 14 0 12 -4 24 -10 27 -41 26 35
61 109 51 140 -20 211 -13 230 23 8 14 23 16 93 14 46 -2 124 -7 173 -11z
m-832 -11 c7 -7 6 -16 -6 -29 -26 -29 -21 -58 16 -86 43 -33 53 -33 71 2 12
23 81 62 90 50 2 -1 6 -18 9 -36 6 -31 4 -34 -31 -48 -20 -8 -48 -21 -62 -29
-24 -14 -99 -52 -131 -66 -9 -4 -29 -1 -44 7 -35 18 -34 18 -45 -11 -5 -14
-15 -25 -22 -25 -7 0 -24 -17 -37 -38 -30 -45 -49 -62 -72 -62 -15 0 -16 4 -6
30 6 17 17 30 24 30 18 0 53 55 53 84 0 20 -6 27 -27 32 -16 3 -42 10 -59 15
-19 6 -41 6 -55 1 -13 -5 -39 -7 -57 -4 -27 3 -39 -1 -62 -23 -17 -17 -30 -23
-34 -16 -4 6 -17 11 -29 11 -28 0 -97 -46 -97 -65 0 -26 -105 -117 -158 -135
-28 -10 -53 -16 -55 -14 -12 12 8 56 29 64 15 6 21 15 18 27 -6 24 120 156
163 171 17 6 60 33 95 60 74 57 105 75 118 67 5 -3 28 -1 52 5 24 6 63 11 86
10 24 0 49 3 55 8 39 31 183 40 210 13z m-3440 -20 c15 -6 27 -15 27 -20 0 -5
11 -12 25 -15 14 -4 25 -13 25 -21 0 -8 9 -20 21 -27 21 -14 84 -92 108 -137
25 -46 51 -125 51 -156 0 -17 5 -36 12 -43 6 -6 12 -38 13 -71 2 -32 10 -82
20 -110 9 -28 14 -59 11 -68 -3 -10 -1 -45 5 -78 12 -66 19 -135 23 -240 2
-38 13 -99 24 -135 12 -35 20 -66 18 -68 -12 -11 -59 59 -95 142 -31 71 -41
106 -39 138 1 24 -4 66 -12 94 -10 40 -11 61 -2 94 7 28 7 50 1 61 -5 10 -9
28 -9 41 0 13 -4 28 -9 34 -6 5 -14 44 -20 88 -16 132 -48 126 -38 -7 3 -40 8
-125 11 -190 3 -66 12 -144 20 -175 13 -48 44 -191 63 -294 3 -18 1 -28 -7
-28 -16 0 -80 70 -80 87 0 8 -14 45 -31 81 -17 37 -37 85 -45 108 -16 48 -34
244 -27 292 3 17 -1 53 -10 80 -8 26 -15 87 -16 136 0 49 -8 111 -16 139 -8
28 -15 63 -15 77 0 15 -8 38 -18 51 -10 13 -24 43 -30 65 -8 27 -19 44 -32 47
-25 6 -37 36 -20 47 13 8 39 2 93 -19z m2215 1 c4 -28 -24 -40 -44 -20 -14 13
-14 17 1 32 22 21 39 16 43 -12z m-1464 -8 c21 -8 21 -40 0 -52 -22 -12 -64
-3 -71 16 -11 27 35 50 71 36z m503 -16 c6 -13 19 -54 29 -91 9 -37 21 -70 26
-73 4 -3 8 -15 8 -28 0 -12 5 -27 11 -33 6 -6 8 -16 4 -23 -4 -7 -16 -3 -33
15 -15 14 -37 35 -49 47 -13 12 -24 31 -24 42 -1 17 -2 18 -6 4 -2 -10 -8 -18
-13 -18 -15 0 -31 -39 -35 -84 -8 -100 -14 -114 -63 -141 -31 -17 -49 -22 -56
-15 -27 27 1 140 64 262 17 31 30 70 30 85 0 38 11 52 46 63 44 13 50 12 61
-12z m148 -18 c3 -5 -1 -10 -9 -10 -9 0 -16 5 -16 10 0 6 4 10 9 10 6 0 13 -4
16 -10z m-3685 -10 c0 -5 -7 -10 -15 -10 -8 0 -15 5 -15 10 0 6 7 10 15 10 8
0 15 -4 15 -10z m4808 -18 c2 -13 -3 -31 -11 -40 -8 -9 -14 -24 -14 -33 0 -10
-10 -40 -22 -69 -12 -28 -25 -75 -28 -103 -3 -29 -10 -60 -15 -70 -19 -37 -38
-129 -38 -183 0 -30 -5 -65 -11 -77 -7 -12 -14 -57 -15 -102 -5 -112 -31 -215
-55 -215 -10 0 -20 4 -24 10 -10 17 -15 189 -5 195 12 7 12 107 1 185 -6 41
-5 60 5 75 18 26 18 55 -1 55 -18 0 -34 -28 -28 -51 3 -9 -4 -48 -16 -86 -27
-90 -41 -173 -41 -248 0 -35 -6 -69 -13 -79 -12 -16 -15 -13 -31 35 -25 75
-32 270 -12 330 8 24 17 60 21 79 12 65 69 195 104 240 20 25 43 58 51 74 18
35 135 106 170 103 18 -1 26 -9 28 -25z m-2722 4 c6 -15 -12 -56 -24 -56 -23
1 -32 18 -23 43 11 29 38 36 47 13z m5283 -7 c53 -20 121 -115 121 -171 0 -13
7 -31 14 -41 21 -28 13 -200 -13 -259 -23 -54 -38 -61 -47 -20 -3 15 -9 36
-14 48 -4 11 -11 61 -15 110 -8 98 -48 204 -85 224 -19 10 -100 112 -100 126
0 8 106 -5 139 -17z m-7552 -24 c12 -9 26 -14 30 -13 15 5 14 -12 -2 -42 -9
-17 -38 -46 -64 -65 -47 -34 -56 -48 -80 -124 -14 -43 -14 -114 0 -166 6 -22
13 -57 16 -78 7 -52 -12 -42 -63 36 -73 110 -74 115 -27 262 24 73 32 85 92
142 36 34 68 62 71 63 3 0 15 -7 27 -15z m2933 -15 c0 -5 -7 -10 -16 -10 -8 0
-12 5 -9 10 3 6 10 10 16 10 5 0 9 -4 9 -10z m440 -55 c0 -19 -36 -39 -45 -25
-11 18 3 40 25 40 11 0 20 -7 20 -15z m1230 9 c0 -13 -21 -44 -30 -44 -11 0
-14 33 -3 43 8 8 33 9 33 1z m2078 -23 c9 -5 37 -19 62 -31 78 -40 107 -67
124 -117 18 -54 21 -115 5 -144 -16 -30 -29 -13 -29 37 0 77 -34 139 -106 192
-34 26 -70 52 -80 59 -22 14 -2 17 24 4z m-5637 -41 c10 -6 19 -16 19 -23 0
-7 -32 -46 -70 -87 -68 -72 -85 -99 -136 -220 -12 -30 -27 -56 -31 -57 -5 -2
-30 10 -55 27 -51 34 -78 80 -78 132 0 92 104 212 197 228 70 11 132 11 154 0z
m5455 -20 c32 -11 78 -20 100 -20 44 0 39 5 127 -104 30 -38 43 -82 33 -120
-9 -36 -64 -96 -88 -96 -12 0 -38 -5 -59 -11 -37 -12 -40 -11 -91 33 -68 58
-91 69 -152 77 -45 5 -51 9 -54 31 -4 41 -23 113 -39 148 -17 38 -12 49 31 68
45 19 124 17 192 -6z m-3356 0 c0 -12 -28 -25 -36 -17 -9 9 6 27 22 27 8 0 14
-5 14 -10z m-786 -16 c18 -7 22 -49 6 -59 -13 -8 -50 13 -50 28 0 7 5 18 12
25 14 14 12 14 32 6z m1670 -44 c-14 -14 -39 14 -29 31 5 8 12 6 23 -5 11 -11
13 -19 6 -26z m-3984 6 c0 -25 -41 -107 -51 -101 -16 10 -10 56 12 86 22 31
39 38 39 15z m3788 -45 c12 -33 1 -60 -15 -39 -6 7 -14 31 -18 52 -6 35 -5 38
8 27 9 -7 20 -25 25 -40z m-920 7 c3 -24 0 -28 -22 -28 -16 0 -27 7 -31 20 -9
27 2 42 28 38 16 -2 23 -11 25 -30z m-1004 -26 c23 -16 56 -32 72 -36 16 -4
62 -24 103 -44 118 -58 284 -234 306 -324 10 -41 -21 -35 -40 8 -6 12 -43 50
-82 86 -40 35 -85 81 -100 101 -16 20 -36 36 -45 37 -9 0 -20 5 -23 10 -8 13
-128 90 -133 85 -6 -5 71 -95 80 -95 10 0 122 -98 183 -159 74 -73 104 -117
115 -166 7 -28 20 -57 29 -65 19 -18 104 -150 99 -155 -13 -13 -137 95 -138
119 0 5 -18 28 -40 52 -22 24 -40 48 -40 54 0 5 -4 10 -8 10 -5 0 -6 -15 -4
-32 7 -45 48 -108 70 -108 14 0 35 -57 28 -75 -4 -10 -13 -14 -28 -10 -16 4
-31 -2 -50 -20 -22 -20 -34 -24 -70 -21 -53 6 -109 29 -141 58 -14 13 -36 31
-51 41 -43 29 -34 47 24 47 38 0 50 4 50 15 0 31 -52 97 -103 129 -29 19 -58
45 -64 59 -7 14 -28 46 -47 72 -24 31 -36 57 -36 78 0 18 -7 57 -15 87 -19 70
-19 111 -1 155 19 44 43 45 100 7z m4105 9 c46 -24 66 -52 74 -106 7 -46 3
-56 -36 -73 -29 -13 -52 -8 -42 9 20 31 -47 111 -77 93 -6 -4 -26 -10 -45 -14
-49 -12 -54 12 -12 57 55 57 80 63 138 34z m-4937 -37 c-17 -14 -32 -32 -32
-39 0 -7 -7 -21 -17 -30 -9 -9 -18 -35 -20 -58 -5 -46 -18 -67 -40 -67 -25 0
-11 91 23 158 24 45 37 59 64 69 51 16 63 -2 22 -33z m4367 -26 c64 -135 61
-183 -17 -307 -32 -51 -52 -70 -102 -98 -34 -19 -64 -41 -67 -49 -2 -7 0 -29
7 -49 13 -40 41 -52 84 -36 43 17 49 13 26 -16 -16 -20 -18 -28 -8 -35 10 -6
8 -8 -4 -8 -10 0 -18 -4 -18 -9 0 -13 -102 -81 -121 -81 -10 0 -19 12 -23 31
l-6 31 -60 -4 c-45 -3 -66 -10 -85 -28 -41 -39 -51 -12 -15 42 34 51 33 96 -1
105 -28 8 -24 58 8 122 31 61 209 242 301 306 31 22 28 44 -8 52 -50 10 -39
30 45 80 11 6 23 12 27 12 4 1 20 -27 37 -61z m-4092 35 c46 -14 53 -20 53
-43 0 -14 -7 -36 -16 -49 -15 -21 -23 -23 -68 -18 -46 4 -53 2 -77 -25 -34
-35 -45 -82 -29 -114 26 -48 -16 -81 -55 -44 -70 66 -50 217 39 292 27 22 84
23 153 1z m1984 4 c-1 -12 -15 -9 -19 4 -3 6 1 10 8 8 6 -3 11 -8 11 -12z
m-134 -14 c2 -6 -10 -27 -27 -47 -18 -19 -45 -72 -61 -118 -28 -78 -29 -88
-21 -163 5 -44 9 -99 9 -121 -2 -80 68 -248 145 -352 23 -31 54 -93 73 -149
30 -83 34 -106 31 -177 -2 -51 -9 -93 -19 -113 -9 -18 -17 -39 -17 -48 0 -8
39 -53 87 -99 83 -79 86 -84 70 -101 -10 -10 -19 -16 -20 -14 -2 2 -9 17 -16
34 -12 27 -14 28 -25 12 -19 -25 -32 -21 -74 19 -60 59 -86 68 -151 55 -80
-16 -175 -4 -236 29 -72 40 -143 90 -195 140 -25 23 -65 52 -90 63 -25 11 -53
26 -62 35 -10 8 -41 19 -70 23 -64 10 -78 23 -47 41 17 9 65 13 164 13 l140
-1 60 -33 c33 -19 84 -49 112 -68 29 -19 78 -42 109 -53 l57 -18 23 23 c36 36
30 64 -24 118 -55 54 -63 70 -125 232 -45 115 -47 126 -56 274 -7 99 -7 160
-1 172 6 10 10 37 10 61 0 24 9 60 20 81 11 20 20 44 20 53 0 9 16 32 35 51
23 23 34 42 30 53 -7 21 29 64 75 90 38 21 61 22 67 3z m1089 -24 c16 -17 38
-35 49 -39 29 -11 132 -223 150 -310 16 -74 18 -124 13 -275 -4 -136 -53 -281
-140 -417 -56 -87 -59 -125 -12 -147 36 -16 51 -14 108 14 97 46 141 59 211
61 39 0 78 5 89 9 10 4 30 8 45 7 80 -3 130 -8 137 -15 12 -12 -17 -27 -52
-27 -17 0 -46 -3 -63 -6 -24 -5 -31 -3 -31 10 0 24 -14 19 -38 -14 -13 -16
-27 -30 -32 -30 -6 0 -44 -26 -86 -57 -89 -68 -93 -70 -203 -120 -77 -34 -93
-38 -170 -38 -69 0 -95 4 -132 23 -25 12 -54 22 -66 22 -25 0 -80 -27 -104
-51 -11 -11 -25 -19 -33 -19 -8 0 -16 -6 -19 -14 -15 -40 -87 -55 -87 -19 0
18 48 63 67 63 8 0 40 23 72 51 l58 51 0 137 c-1 160 2 168 119 325 42 55 81
120 91 148 9 28 28 64 42 81 28 33 43 77 68 197 13 63 13 89 4 160 -12 85 -15
91 -92 208 -16 23 -29 47 -29 52 0 21 38 9 66 -21z m-559 -1 c-3 -8 -6 -5 -6
6 -1 11 2 17 5 13 3 -3 4 -12 1 -19z m1563 -38 c0 -6 -12 -16 -27 -23 -16 -6
-34 -20 -41 -29 -14 -19 -42 -24 -42 -8 0 6 3 10 8 10 4 0 22 14 40 30 33 30
62 39 62 20z m-1410 -88 c14 -53 12 -135 -4 -158 -14 -18 -15 -18 -21 -2 -4
10 -4 37 -1 60 8 59 8 58 0 107 -9 54 10 49 26 -7z m-362 -109 c0 -65 -3 -83
-14 -83 -9 0 -14 11 -14 33 0 18 -9 49 -20 70 -26 48 -25 65 3 91 l22 22 12
-26 c6 -14 11 -62 11 -107z m-1820 115 c6 -7 15 -49 21 -93 8 -54 22 -102 46
-148 l34 -69 -15 -86 c-9 -47 -16 -89 -17 -92 0 -3 2 -15 7 -27 11 -33 -11
-105 -31 -101 -28 5 -39 34 -26 68 7 20 8 32 1 36 -6 4 -7 24 -3 48 3 22 6 60
5 83 0 29 5 45 17 51 25 14 6 76 -25 80 -18 3 -22 -1 -22 -25 0 -15 -7 -50
-15 -77 -8 -27 -15 -73 -15 -102 0 -99 -44 -80 -55 24 -12 112 -9 180 10 208
23 36 4 57 -25 28 -36 -36 -53 -203 -29 -286 13 -46 11 -88 -3 -88 -24 0 -68
98 -78 171 -6 39 -12 75 -15 79 -3 4 0 22 6 40 9 24 9 34 0 43 -33 32 -60
-103 -41 -202 5 -30 8 -56 6 -58 -8 -8 -44 16 -51 34 -4 10 -14 54 -22 98 -14
78 -13 80 7 97 15 12 19 24 15 40 -4 17 1 32 21 53 15 16 33 43 40 60 11 28
72 85 89 85 4 0 18 9 32 20 30 23 114 28 131 8z m4027 -29 c21 -6 55 -18 75
-29 19 -10 50 -24 68 -30 22 -9 34 -21 38 -39 3 -14 18 -54 35 -88 16 -34 29
-69 29 -78 0 -27 -24 -12 -43 28 -10 20 -24 37 -31 37 -15 0 -46 -76 -43 -105
2 -16 -4 -20 -30 -20 -17 0 -34 -2 -37 -5 -3 -3 -8 -32 -11 -65 -7 -68 -23
-117 -37 -113 -6 2 -16 21 -24 43 -7 22 -19 42 -25 44 -6 2 -39 30 -72 62 -33
33 -68 59 -77 59 -9 0 -25 6 -35 14 -18 13 -18 15 17 53 24 27 39 57 48 94 28
126 53 167 94 154 12 -4 39 -11 61 -16z m-2878 -11 c-3 -8 -6 -5 -6 6 -1 11 2
17 5 13 3 -3 4 -12 1 -19z m3621 -31 c19 -15 14 -27 -10 -27 -28 1 -72 35 -63
49 6 10 45 -2 73 -22z m-1388 6 c0 -10 -11 -31 -25 -48 l-24 -30 -1 37 c0 25
6 40 18 47 25 15 32 13 32 -6z m1216 -49 c75 -31 108 -84 106 -169 -2 -65 -12
-93 -51 -136 -28 -31 -36 -34 -101 -37 -58 -4 -71 -2 -76 13 -12 31 13 63 58
76 51 13 58 21 58 75 0 36 -5 45 -34 68 -19 14 -44 26 -56 26 -29 0 -60 18
-60 34 0 14 37 50 60 59 27 10 57 7 96 -9z m223 -36 c27 -29 35 -75 27 -165
-5 -65 -10 -78 -34 -101 -16 -15 -37 -40 -47 -55 -18 -29 -55 -54 -55 -39 0 5
16 29 36 55 25 32 39 65 49 112 15 69 12 89 -30 198 -10 25 29 22 54 -5z
m-2922 -82 c4 -3 8 -106 10 -229 2 -182 0 -229 -12 -261 -12 -29 -13 -41 -4
-52 14 -18 3 -64 -16 -64 -8 0 -19 9 -25 21 -11 19 -13 19 -35 5 -23 -15 -25
-15 -37 7 -7 12 -23 53 -35 91 -13 38 -39 93 -58 122 -48 72 -54 91 -61 197
-6 82 -4 95 13 116 l19 24 48 -57 c27 -31 54 -56 62 -56 30 0 54 42 54 96 l0
53 35 -3 c20 -2 39 -6 42 -10z m256 -15 c-4 -33 14 -61 50 -76 27 -11 37 -11
71 3 38 15 40 15 59 -9 16 -20 18 -33 12 -83 -10 -94 -50 -232 -79 -276 -14
-22 -26 -44 -26 -49 0 -12 -25 -72 -48 -116 -12 -23 -16 -59 -15 -155 1 -113
0 -123 -13 -105 -12 16 -15 46 -13 140 3 126 -7 169 -38 163 -9 -2 -21 -21
-28 -43 l-11 -40 -26 28 c-29 31 -30 36 -29 262 0 66 0 157 0 202 -1 111 4
123 47 123 30 0 37 4 46 31 12 36 44 37 41 0z m-2843 -85 c0 -16 -18 -31 -27
-22 -8 8 5 36 17 36 5 0 10 -6 10 -14z m208 -22 c2 -15 -11 -35 -40 -63 -38
-37 -41 -43 -25 -52 9 -5 17 -16 17 -24 0 -22 55 -55 91 -55 36 0 69 -24 69
-51 0 -19 -13 -25 -80 -34 -42 -5 -48 -3 -93 36 -26 22 -54 57 -63 77 -13 32
-13 41 2 90 24 76 49 104 88 100 23 -2 32 -9 34 -24z m-256 -99 c-4 -47 -16
-59 -27 -25 -5 14 18 70 29 70 1 0 0 -20 -2 -45z m4478 35 c0 -5 -7 -10 -15
-10 -8 0 -15 5 -15 10 0 6 7 10 15 10 8 0 15 -4 15 -10z m-3594 -125 c-3 -9
-10 -13 -16 -10 -12 7 -13 48 -3 59 11 11 27 -30 19 -49z m2910 -26 c-10 -40
-24 -55 -37 -42 -8 8 -8 26 1 69 l13 59 15 -31 c8 -18 12 -42 8 -55z m-112 36
c-6 -16 -24 -21 -24 -7 0 11 11 22 21 22 5 0 6 -7 3 -15z m916 -16 c-7 -11
-14 -18 -17 -15 -8 8 5 36 17 36 7 0 7 -6 0 -21z m-3673 -46 c4 -11 -26 -27
-35 -19 -2 3 -2 12 2 21 6 18 27 16 33 -2z m4285 -20 c10 -9 18 -29 18 -44 0
-15 8 -41 17 -57 14 -25 15 -35 4 -73 -28 -100 -121 -150 -213 -114 -70 26
-85 82 -28 100 11 3 33 -1 49 -9 49 -26 68 -20 91 24 19 38 19 81 0 155 -9 37
28 49 62 18z m-3775 -61 c-10 -10 -17 -26 -17 -34 0 -30 -25 -39 -97 -32 -62
6 -74 4 -122 -20 -29 -15 -59 -25 -67 -22 -20 8 -17 45 4 53 9 3 25 13 35 21
35 31 110 50 196 51 81 1 83 0 68 -17z m68 9 c3 -5 1 -12 -4 -15 -12 -8 -41 3
-41 15 0 12 37 12 45 0z m2725 -26 c13 -14 31 -25 41 -25 38 0 119 -24 119
-36 0 -19 -63 -24 -77 -5 -9 13 -14 14 -24 4 -22 -22 -84 -16 -117 12 -33 28
-52 31 -70 13 -16 -16 -35 3 -26 25 4 11 14 15 32 11 16 -3 35 1 47 10 29 22
48 20 75 -9z m1148 -7 c25 -31 33 -95 18 -155 -20 -82 -27 -97 -63 -127 -55
-46 -199 -100 -178 -66 3 6 13 10 22 10 21 0 133 98 133 116 0 8 8 31 19 52
25 49 34 110 22 150 -7 24 -7 32 3 32 8 0 18 -6 24 -12z m-4868 -43 c0 -5 -5
-27 -11 -48 -12 -45 -2 -63 48 -84 26 -11 41 -11 78 -1 52 14 78 5 83 -30 3
-21 -22 -36 -49 -30 -8 2 -15 -7 -17 -18 -6 -39 -120 -38 -152 1 -7 8 -18 15
-25 15 -26 0 -47 47 -46 105 1 84 34 136 72 112 11 -7 19 -16 19 -22z m1020 5
c0 -4 -11 -10 -25 -12 -26 -5 -41 5 -31 21 6 10 56 2 56 -9z m3282 -177 c20
-24 31 -139 14 -156 -7 -7 -16 -24 -19 -38 -14 -55 -159 -115 -211 -87 -46 25
-96 76 -96 98 0 10 -7 23 -15 30 -25 21 -15 54 18 58 23 3 28 -1 33 -25 9 -45
29 -63 85 -78 47 -13 55 -12 70 1 19 17 79 155 79 182 0 35 19 41 42 15z
m-3641 -20 c23 -62 -33 -191 -93 -212 -74 -26 -165 6 -201 72 -19 34 -20 42
-8 85 15 57 23 66 51 57 17 -5 20 -12 15 -35 -10 -45 18 -80 64 -80 51 1 79
26 83 75 2 30 9 42 28 52 37 19 49 16 61 -14z m-848 -8 c4 -8 2 -17 -3 -20 -6
-4 -10 -4 -10 -1 0 2 -3 11 -6 20 -3 9 -2 16 4 16 5 0 12 -7 15 -15z m2287
-22 c0 -19 -3 -24 -10 -17 -6 6 -8 18 -4 27 9 24 14 21 14 -10z m-2134 -108
c40 -4 91 -5 113 -3 50 4 56 -15 10 -31 -43 -15 -71 -14 -137 5 -76 22 -131
61 -132 92 0 7 17 -2 37 -22 33 -31 45 -35 109 -41z m884 -125 c0 -10 7 -23
15 -30 19 -16 19 -40 0 -40 -22 0 -45 54 -45 107 l1 48 14 -34 c8 -18 15 -41
15 -51z m130 -37 c0 -7 -4 -13 -10 -13 -5 0 -10 11 -10 24 0 13 -2 33 -5 43
-3 10 1 5 9 -12 8 -16 15 -36 16 -42z m2731 10 c-8 -15 -10 -15 -11 -2 0 17
10 32 18 25 2 -3 -1 -13 -7 -23z m-3102 4 c-2 -1 -13 -9 -24 -17 -19 -14 -19
-14 -6 3 7 9 18 17 24 17 6 0 8 -1 6 -3z m-139 -43 c0 -2 -15 -4 -32 -4 -23 0
-29 3 -19 9 12 8 51 4 51 -5z m3870 -1 c0 -15 -68 -54 -104 -60 -20 -3 -39
-10 -42 -14 -6 -10 -78 -12 -112 -3 -14 4 -22 13 -20 23 3 12 17 16 65 17 63
2 155 19 183 35 19 11 30 11 30 2z m-669 -76 c-8 -8 -11 -7 -11 4 0 20 13 34
18 19 3 -7 -1 -17 -7 -23z m-1487 -23 c7 -19 -2 -37 -15 -29 -12 8 -12 45 0
45 5 0 12 -7 15 -16z m1276 -4 c0 -5 -5 -10 -11 -10 -5 0 -7 5 -4 10 3 6 8 10
11 10 2 0 4 -4 4 -10z m99 -22 c-5 -18 -9 -34 -9 -35 0 -2 -4 -3 -10 -3 -11 0
-13 30 -4 54 3 9 12 16 19 16 11 0 11 -8 4 -32z m-1904 -14 c21 -51 19 -74 -5
-74 -11 0 -19 3 -18 8 1 4 -2 24 -6 44 -7 33 -3 58 9 58 3 0 12 -16 20 -36z
m1497 14 c-7 -7 -12 -8 -12 -2 0 14 12 26 19 19 2 -3 -1 -11 -7 -17z m-1380
-48 c2 -26 -1 -35 -12 -35 -16 0 -26 45 -15 73 8 23 23 3 27 -38z m1268 21 c0
-24 -32 -59 -38 -42 -4 11 23 61 33 61 3 0 5 -9 5 -19z m218 -18 c-5 -26 -38
-29 -38 -4 0 15 6 21 21 21 14 0 19 -5 17 -17z m-2098 -24 c0 -12 -27 -11 -35
1 -11 17 5 32 21 19 8 -6 14 -15 14 -20z m370 15 c0 -8 -4 -12 -10 -9 -5 3
-10 10 -10 16 0 5 5 9 10 9 6 0 10 -7 10 -16z m360 -13 c0 -14 -18 -23 -30
-16 -6 4 -8 11 -5 16 8 12 35 12 35 0z m781 -14 c-13 -13 -26 -3 -16 12 3 6
11 8 17 5 6 -4 6 -10 -1 -17z m259 8 c11 -13 8 -15 -14 -15 -25 0 -33 10 -19
23 10 11 19 8 33 -8z m-718 -102 c1 -38 2 -122 3 -188 0 -66 4 -126 9 -133 5
-8 4 -18 -2 -24 -16 -16 -49 0 -60 30 -13 32 -14 286 -2 322 4 14 11 33 14 43
3 9 12 17 21 17 12 0 15 -14 17 -67z m-1292 4 c8 1 44 4 80 8 36 4 124 3 195
-3 72 -5 162 -6 200 -2 52 5 74 3 86 -6 9 -8 19 -10 25 -5 5 5 116 11 246 13
214 5 239 4 253 -12 19 -21 19 -34 0 -50 -26 -22 -1079 -10 -1270 14 -145 18
-152 24 -52 43 36 6 96 9 142 5 44 -3 87 -5 95 -5z m2214 -1 c61 2 125 6 143
9 34 6 73 -11 73 -32 0 -7 -8 -14 -17 -15 -10 0 -31 -3 -48 -5 -42 -6 -389 -3
-395 4 -3 2 7 15 22 28 23 19 32 22 69 15 23 -4 92 -6 153 -4z m784 2 c30 -10
28 -26 -5 -39 -33 -12 -495 -20 -514 -8 -18 11 5 37 45 49 37 11 441 10 474
-2z m-1120 -7 c9 -6 7 -12 -9 -27 -19 -17 -37 -19 -211 -18 -194 1 -225 7
-199 38 11 13 47 15 210 15 108 0 202 -3 209 -8z m-2253 -21 c3 -5 -1 -10 -9
-10 -8 0 -18 5 -21 10 -3 6 1 10 9 10 8 0 18 -4 21 -10z m2315 0 c0 -5 -9 -10
-20 -10 -11 0 -20 5 -20 10 0 6 9 10 20 10 11 0 20 -4 20 -10z m-254 -84 c89
-2 170 -8 180 -14 11 -6 29 -6 48 -1 17 5 85 10 151 10 66 1 154 2 196 3 49 0
85 -4 102 -13 22 -12 31 -12 58 -1 24 10 101 13 313 13 371 -2 385 -2 412 -19
38 -26 43 -95 7 -108 -9 -4 -25 2 -37 13 -12 11 -39 23 -61 26 -33 5 -46 2
-74 -19 -42 -31 -52 -32 -76 -6 -14 16 -31 20 -80 20 -52 0 -67 -4 -91 -25
-35 -30 -45 -31 -62 -5 -20 32 -56 41 -109 27 -30 -8 -49 -19 -56 -34 -14 -32
-42 -29 -67 7 -27 38 -79 42 -107 7 -10 -12 -30 -27 -45 -34 -31 -14 -44 -4
-50 37 -2 21 -9 25 -38 26 -19 0 -42 4 -51 8 -12 5 -25 -4 -49 -33 -17 -23
-38 -41 -45 -41 -8 0 -26 15 -40 34 -14 19 -33 37 -41 40 -24 9 -84 -20 -84
-41 0 -10 -7 -29 -16 -41 -13 -18 -19 -21 -30 -11 -8 6 -14 19 -14 28 0 41
-25 57 -95 59 l-67 2 -16 -40 c-23 -53 -72 -66 -72 -19 0 43 -18 59 -68 59
-57 0 -95 22 -90 53 4 27 45 49 78 42 14 -3 98 -7 186 -9z m-1696 -7 c8 0 250
1 538 2 486 1 525 0 543 -17 10 -9 19 -25 19 -35 0 -23 -96 -119 -118 -119 -9
0 -30 16 -46 36 -27 34 -32 36 -73 31 -30 -3 -51 -13 -68 -31 -31 -34 -57 -33
-93 4 -44 43 -105 40 -123 -6 -13 -35 -46 -30 -83 11 -30 34 -33 35 -79 29
-37 -5 -52 -13 -68 -35 -26 -37 -46 -37 -79 3 -24 29 -31 31 -89 31 -34 0 -67
-5 -73 -11 -8 -8 -17 -8 -32 1 -12 6 -33 12 -47 13 -14 1 -35 5 -47 8 -18 6
-29 1 -49 -23 -33 -38 -51 -39 -78 -6 -16 20 -31 26 -69 28 -47 2 -51 0 -73
-33 -13 -19 -28 -36 -33 -38 -4 -2 -18 15 -30 36 -20 35 -28 40 -68 46 -69 9
-100 7 -132 -9 -25 -13 -29 -13 -34 1 -9 24 -7 62 4 69 6 4 90 5 188 4 221 -3
236 -3 297 9 28 5 57 7 65 5 8 -3 22 -5 30 -4z m605 -228 c6 -11 -83 -27 -93
-17 -11 11 20 26 55 26 17 0 34 -4 38 -9z m90 -1 c3 -6 -1 -13 -10 -16 -19 -8
-30 0 -20 15 8 14 22 14 30 1z m335 4 c0 -3 -5 -14 -11 -25 -10 -19 -12 -19
-34 -5 -14 9 -33 16 -45 16 -11 0 -20 5 -20 10 0 6 25 10 55 10 30 0 55 -3 55
-6z m-267 -11 c-7 -2 -21 -2 -30 0 -10 3 -4 5 12 5 17 0 24 -2 18 -5z m969
-188 c20 -13 45 -44 57 -67 11 -24 33 -55 48 -69 15 -14 36 -38 47 -53 16 -24
23 -27 53 -21 20 3 44 12 54 18 15 9 23 7 44 -13 14 -13 25 -29 25 -35 0 -16
36 -84 56 -106 16 -17 16 -19 -2 -25 -11 -3 -34 -12 -53 -20 -30 -13 -36 -13
-66 5 -18 10 -47 22 -64 26 -35 8 -161 109 -161 129 0 7 -9 21 -20 31 -11 10
-20 24 -20 31 0 18 -62 64 -86 64 -30 0 -112 -111 -120 -162 -4 -24 -12 -52
-18 -63 -6 -11 -14 -51 -18 -90 -4 -38 -12 -113 -17 -165 -14 -131 -14 -129 3
-278 11 -87 23 -147 36 -172 11 -23 20 -59 20 -86 0 -25 6 -58 13 -72 36 -71
47 -102 59 -166 11 -66 11 -69 -10 -86 -27 -22 -28 -30 -3 -23 11 3 22 12 26
20 5 14 9 12 31 -7 13 -13 30 -35 37 -49 8 -15 20 -36 27 -48 17 -27 9 -38
-18 -24 -12 6 -31 11 -44 11 -22 0 -46 19 -104 82 -18 18 -20 26 -11 40 9 13
8 26 -2 50 -7 18 -17 51 -21 73 -9 40 -29 89 -77 180 -20 37 -27 67 -28 115
-1 36 -7 74 -12 85 -17 31 -24 129 -28 345 -2 151 0 201 11 222 8 15 14 36 14
46 0 29 30 82 46 82 18 0 29 27 44 105 13 66 53 133 90 152 43 22 121 16 162
-12z m-675 -27 c14 -13 40 -54 59 -92 18 -38 39 -74 45 -82 16 -19 39 -99 49
-169 5 -33 12 -76 16 -95 15 -68 3 -425 -15 -458 -6 -11 -11 -32 -11 -46 0
-14 -5 -28 -10 -31 -6 -4 -8 -15 -5 -26 9 -28 -19 -116 -59 -181 -19 -32 -37
-71 -41 -88 -4 -16 -11 -33 -17 -36 -5 -4 -17 -22 -25 -42 -27 -65 19 -64 80
1 17 19 34 28 46 24 16 -4 19 2 24 39 9 82 56 94 56 16 0 -21 1 -151 1 -291 1
-151 -3 -258 -9 -264 -15 -15 -30 1 -37 38 -3 20 -13 39 -21 44 -23 12 -36 86
-34 179 l2 83 -37 15 c-53 22 -109 10 -148 -32 -29 -31 -115 -84 -137 -84 -18
0 -8 26 32 83 24 33 48 57 59 57 13 0 19 10 24 39 3 21 13 41 21 45 8 3 15 14
15 25 0 11 7 27 16 36 9 9 14 24 11 36 -5 18 7 51 34 102 6 11 12 39 14 63 2
24 13 57 25 74 15 22 20 38 15 58 -3 16 -1 50 5 76 6 26 13 127 15 224 6 186
-3 251 -46 367 -11 28 -19 59 -19 70 -1 31 -53 100 -79 103 -44 7 -67 -7 -91
-54 -31 -59 -144 -171 -179 -178 -51 -9 -147 -8 -185 2 -43 12 -42 26 3 69 25
23 41 47 41 61 0 12 4 30 10 40 12 21 40 108 40 125 1 21 37 57 58 57 39 0 42
-51 8 -130 -35 -80 -21 -99 42 -57 21 14 46 46 67 87 18 36 46 75 63 87 63 46
166 52 209 11z m-607 -52 c0 -3 -4 -8 -10 -11 -5 -3 -10 -1 -10 4 0 6 5 11 10
11 6 0 10 -2 10 -4z m2100 -57 c0 -16 -4 -29 -10 -29 -5 0 -10 16 -10 36 0 21
4 33 10 29 6 -3 10 -19 10 -36z m-194 -65 c-11 -29 -30 0 -21 33 7 27 7 28 17
6 6 -12 8 -30 4 -39z m102 22 c3 -12 -1 -17 -10 -14 -7 3 -15 13 -16 22 -3 12
1 17 10 14 7 -3 15 -13 16 -22z m-208 -132 c0 -8 -4 -14 -10 -14 -5 0 -10 9
-10 21 0 11 5 17 10 14 6 -3 10 -13 10 -21z m-561 -13 c8 -5 19 -25 26 -44 15
-45 2 -71 -51 -103 -48 -29 -51 -29 -60 -2 -4 14 4 43 27 90 36 72 36 72 58
59z m778 -28 c-3 -10 -5 -4 -5 12 0 17 2 24 5 18 2 -7 2 -21 0 -30z m-1489 -8
c7 -14 12 -33 12 -41 0 -8 6 -27 14 -43 8 -15 11 -32 8 -38 -11 -18 -64 12
-89 51 -20 31 -21 35 -5 57 31 46 44 49 60 14z m-670 -7 c-4 -27 -28 -36 -28
-10 0 20 8 32 22 32 5 0 8 -10 6 -22z m2287 -23 c19 -59 26 -117 13 -109 -18
11 -48 87 -48 122 0 45 19 37 35 -13z m-207 -16 c2 -19 10 -56 19 -82 11 -36
12 -52 4 -60 -18 -18 -31 4 -36 59 -2 27 -7 66 -11 88 -6 31 -4 38 7 34 8 -2
15 -20 17 -39z m116 -51 c4 -22 3 -38 -2 -38 -13 0 -22 25 -22 63 0 40 15 24
24 -25z m-1644 -33 c10 -12 9 -20 -4 -40 -22 -34 -26 -32 -26 15 0 42 9 50 30
25z m-634 -112 c-10 -10 -19 5 -10 18 6 11 8 11 12 0 2 -7 1 -15 -2 -18z
m1474 -153 c0 -5 -5 -10 -11 -10 -5 0 -7 5 -4 10 3 6 8 10 11 10 2 0 4 -4 4
-10z m140 -390 c0 -11 -4 -20 -10 -20 -5 0 -10 9 -10 20 0 11 5 20 10 20 6 0
10 -9 10 -20z m-447 -184 c3 -8 1 -17 -6 -19 -7 -2 2 -11 18 -18 17 -8 35 -21
42 -29 18 -22 16 -111 -3 -138 -13 -18 -13 -29 -4 -56 8 -27 8 -49 -4 -103 -8
-37 -19 -102 -25 -143 -27 -201 -35 -229 -80 -267 -47 -40 -68 -19 -36 37 8
14 14 39 15 56 0 16 5 35 11 41 6 6 13 54 15 108 2 53 9 106 15 117 7 14 9 57
4 129 -6 90 -4 113 9 141 16 31 16 35 0 71 -15 32 -15 41 -4 62 15 28 25 32
33 11z"/>
<path d="M3950 1190 c0 -11 6 -20 13 -20 19 0 27 10 20 26 -8 21 -33 17 -33
-6z"/>
</g>
</svg>
